<svg xmlns="http://www.w3.org/2000/svg" xmlns:xlink="http://www.w3.org/1999/xlink" width="1200" zoomAndPan="magnify" viewBox="0 0 900 472.499986" height="630" preserveAspectRatio="xMidYMid meet" version="1.0"><defs><g/><clipPath id="af82ddfb50"><path d="M 0.476562 0 L 899.523438 0 L 899.523438 472 L 0.476562 472 Z M 0.476562 0 " clip-rule="nonzero"/></clipPath><radialGradient gradientTransform="matrix(1, 0, 0, 1, 0.475701, 0)" gradientUnits="userSpaceOnUse" r="1015.417703" cx="0" id="0038d74279" cy="0" fx="0" fy="0"><stop stop-opacity="1" stop-color="rgb(94.386292%, 43.945312%, 2.606201%)" offset="0"/><stop stop-opacity="1" stop-color="rgb(94.140625%, 43.217468%, 3.118896%)" offset="0.00390625"/><stop stop-opacity="1" stop-color="rgb(93.896484%, 42.489624%, 3.631592%)" offset="0.0078125"/><stop stop-opacity="1" stop-color="rgb(93.650818%, 41.76178%, 4.145813%)" offset="0.0117188"/><stop stop-opacity="1" stop-color="rgb(93.405151%, 41.035461%, 4.658508%)" offset="0.015625"/><stop stop-opacity="1" stop-color="rgb(93.161011%, 40.307617%, 5.172729%)" offset="0.0195312"/><stop stop-opacity="1" stop-color="rgb(92.915344%, 39.579773%, 5.685425%)" offset="0.0234375"/><stop stop-opacity="1" stop-color="rgb(92.669678%, 38.851929%, 6.19812%)" offset="0.0273438"/><stop stop-opacity="1" stop-color="rgb(92.425537%, 38.124084%, 6.712341%)" offset="0.03125"/><stop stop-opacity="1" stop-color="rgb(92.179871%, 37.397766%, 7.225037%)" offset="0.0351562"/><stop stop-opacity="1" stop-color="rgb(91.93573%, 36.669922%, 7.737732%)" offset="0.0390625"/><stop stop-opacity="1" stop-color="rgb(91.690063%, 35.942078%, 8.251953%)" offset="0.0429688"/><stop stop-opacity="1" stop-color="rgb(91.444397%, 35.214233%, 8.764648%)" offset="0.046875"/><stop stop-opacity="1" stop-color="rgb(91.200256%, 34.486389%, 9.27887%)" offset="0.0507812"/><stop stop-opacity="1" stop-color="rgb(90.95459%, 33.760071%, 9.791565%)" offset="0.0546875"/><stop stop-opacity="1" stop-color="rgb(90.708923%, 33.032227%, 10.30426%)" offset="0.0585938"/><stop stop-opacity="1" stop-color="rgb(90.464783%, 32.304382%, 10.818481%)" offset="0.0625"/><stop stop-opacity="1" stop-color="rgb(90.219116%, 31.576538%, 11.331177%)" offset="0.0664062"/><stop stop-opacity="1" stop-color="rgb(89.97345%, 30.848694%, 11.845398%)" offset="0.0703125"/><stop stop-opacity="1" stop-color="rgb(89.729309%, 30.122375%, 12.358093%)" offset="0.0742188"/><stop stop-opacity="1" stop-color="rgb(89.483643%, 29.394531%, 12.870789%)" offset="0.078125"/><stop stop-opacity="1" stop-color="rgb(89.237976%, 28.666687%, 13.38501%)" offset="0.0820312"/><stop stop-opacity="1" stop-color="rgb(88.993835%, 27.938843%, 13.897705%)" offset="0.0859375"/><stop stop-opacity="1" stop-color="rgb(88.748169%, 27.210999%, 14.4104%)" offset="0.0898438"/><stop stop-opacity="1" stop-color="rgb(88.504028%, 26.48468%, 14.924622%)" offset="0.09375"/><stop stop-opacity="1" stop-color="rgb(88.258362%, 25.756836%, 15.437317%)" offset="0.0976562"/><stop stop-opacity="1" stop-color="rgb(88.012695%, 25.028992%, 15.951538%)" offset="0.101562"/><stop stop-opacity="1" stop-color="rgb(87.768555%, 24.301147%, 16.464233%)" offset="0.105469"/><stop stop-opacity="1" stop-color="rgb(87.522888%, 23.573303%, 16.976929%)" offset="0.109375"/><stop stop-opacity="1" stop-color="rgb(87.277222%, 22.846985%, 17.49115%)" offset="0.113281"/><stop stop-opacity="1" stop-color="rgb(87.033081%, 22.119141%, 18.003845%)" offset="0.117188"/><stop stop-opacity="1" stop-color="rgb(86.787415%, 21.391296%, 18.518066%)" offset="0.121094"/><stop stop-opacity="1" stop-color="rgb(86.541748%, 20.663452%, 19.030762%)" offset="0.125"/><stop stop-opacity="1" stop-color="rgb(86.297607%, 19.935608%, 19.543457%)" offset="0.128906"/><stop stop-opacity="1" stop-color="rgb(86.051941%, 19.20929%, 20.057678%)" offset="0.132812"/><stop stop-opacity="1" stop-color="rgb(85.8078%, 18.481445%, 20.570374%)" offset="0.136719"/><stop stop-opacity="1" stop-color="rgb(85.562134%, 17.753601%, 21.083069%)" offset="0.140625"/><stop stop-opacity="1" stop-color="rgb(85.316467%, 17.025757%, 21.59729%)" offset="0.144531"/><stop stop-opacity="1" stop-color="rgb(85.072327%, 16.297913%, 22.109985%)" offset="0.148438"/><stop stop-opacity="1" stop-color="rgb(84.82666%, 15.571594%, 22.624207%)" offset="0.152344"/><stop stop-opacity="1" stop-color="rgb(84.580994%, 14.84375%, 23.136902%)" offset="0.15625"/><stop stop-opacity="1" stop-color="rgb(84.336853%, 14.115906%, 23.649597%)" offset="0.160156"/><stop stop-opacity="1" stop-color="rgb(84.091187%, 13.388062%, 24.163818%)" offset="0.164062"/><stop stop-opacity="1" stop-color="rgb(83.84552%, 12.660217%, 24.676514%)" offset="0.167969"/><stop stop-opacity="1" stop-color="rgb(83.601379%, 11.933899%, 25.189209%)" offset="0.171875"/><stop stop-opacity="1" stop-color="rgb(83.355713%, 11.206055%, 25.70343%)" offset="0.175781"/><stop stop-opacity="1" stop-color="rgb(83.110046%, 10.47821%, 26.216125%)" offset="0.179688"/><stop stop-opacity="1" stop-color="rgb(82.865906%, 9.750366%, 26.730347%)" offset="0.183594"/><stop stop-opacity="1" stop-color="rgb(82.620239%, 9.022522%, 27.243042%)" offset="0.1875"/><stop stop-opacity="1" stop-color="rgb(82.376099%, 8.296204%, 27.755737%)" offset="0.191406"/><stop stop-opacity="1" stop-color="rgb(82.130432%, 7.568359%, 28.269958%)" offset="0.195312"/><stop stop-opacity="1" stop-color="rgb(82.124329%, 7.646179%, 28.387451%)" offset="0.199219"/><stop stop-opacity="1" stop-color="rgb(82.417297%, 8.731079%, 28.010559%)" offset="0.203125"/><stop stop-opacity="1" stop-color="rgb(82.76825%, 10.017395%, 27.536011%)" offset="0.207031"/><stop stop-opacity="1" stop-color="rgb(83.120728%, 11.305237%, 27.061462%)" offset="0.210938"/><stop stop-opacity="1" stop-color="rgb(83.473206%, 12.591553%, 26.586914%)" offset="0.214844"/><stop stop-opacity="1" stop-color="rgb(83.825684%, 13.877869%, 26.11084%)" offset="0.21875"/><stop stop-opacity="1" stop-color="rgb(84.178162%, 15.16571%, 25.636292%)" offset="0.222656"/><stop stop-opacity="1" stop-color="rgb(84.53064%, 16.452026%, 25.161743%)" offset="0.226562"/><stop stop-opacity="1" stop-color="rgb(84.883118%, 17.738342%, 24.685669%)" offset="0.230469"/><stop stop-opacity="1" stop-color="rgb(85.235596%, 19.024658%, 24.211121%)" offset="0.234375"/><stop stop-opacity="1" stop-color="rgb(85.588074%, 20.3125%, 23.736572%)" offset="0.238281"/><stop stop-opacity="1" stop-color="rgb(85.940552%, 21.598816%, 23.260498%)" offset="0.242188"/><stop stop-opacity="1" stop-color="rgb(86.29303%, 22.885132%, 22.78595%)" offset="0.246094"/><stop stop-opacity="1" stop-color="rgb(86.643982%, 24.171448%, 22.311401%)" offset="0.25"/><stop stop-opacity="1" stop-color="rgb(86.99646%, 25.45929%, 21.836853%)" offset="0.253906"/><stop stop-opacity="1" stop-color="rgb(87.348938%, 26.745605%, 21.360779%)" offset="0.257812"/><stop stop-opacity="1" stop-color="rgb(87.701416%, 28.031921%, 20.88623%)" offset="0.261719"/><stop stop-opacity="1" stop-color="rgb(88.053894%, 29.318237%, 20.411682%)" offset="0.265625"/><stop stop-opacity="1" stop-color="rgb(88.406372%, 30.606079%, 19.935608%)" offset="0.269531"/><stop stop-opacity="1" stop-color="rgb(88.75885%, 31.892395%, 19.46106%)" offset="0.273438"/><stop stop-opacity="1" stop-color="rgb(89.111328%, 33.178711%, 18.986511%)" offset="0.277344"/><stop stop-opacity="1" stop-color="rgb(89.463806%, 34.465027%, 18.511963%)" offset="0.28125"/><stop stop-opacity="1" stop-color="rgb(89.816284%, 35.752869%, 18.035889%)" offset="0.285156"/><stop stop-opacity="1" stop-color="rgb(90.168762%, 37.039185%, 17.56134%)" offset="0.289062"/><stop stop-opacity="1" stop-color="rgb(90.52124%, 38.3255%, 17.086792%)" offset="0.292969"/><stop stop-opacity="1" stop-color="rgb(90.872192%, 39.613342%, 16.610718%)" offset="0.296875"/><stop stop-opacity="1" stop-color="rgb(91.22467%, 40.899658%, 16.136169%)" offset="0.300781"/><stop stop-opacity="1" stop-color="rgb(91.577148%, 42.185974%, 15.661621%)" offset="0.304688"/><stop stop-opacity="1" stop-color="rgb(91.929626%, 43.47229%, 15.185547%)" offset="0.308594"/><stop stop-opacity="1" stop-color="rgb(92.282104%, 44.760132%, 14.710999%)" offset="0.3125"/><stop stop-opacity="1" stop-color="rgb(92.634583%, 46.046448%, 14.23645%)" offset="0.316406"/><stop stop-opacity="1" stop-color="rgb(92.987061%, 47.332764%, 13.761902%)" offset="0.320312"/><stop stop-opacity="1" stop-color="rgb(93.339539%, 48.61908%, 13.285828%)" offset="0.324219"/><stop stop-opacity="1" stop-color="rgb(93.692017%, 49.906921%, 12.811279%)" offset="0.328125"/><stop stop-opacity="1" stop-color="rgb(94.044495%, 51.193237%, 12.336731%)" offset="0.332031"/><stop stop-opacity="1" stop-color="rgb(94.396973%, 52.479553%, 11.860657%)" offset="0.335938"/><stop stop-opacity="1" stop-color="rgb(94.747925%, 53.765869%, 11.386108%)" offset="0.339844"/><stop stop-opacity="1" stop-color="rgb(95.100403%, 55.053711%, 10.91156%)" offset="0.34375"/><stop stop-opacity="1" stop-color="rgb(95.452881%, 56.340027%, 10.435486%)" offset="0.347656"/><stop stop-opacity="1" stop-color="rgb(95.805359%, 57.626343%, 9.960938%)" offset="0.351562"/><stop stop-opacity="1" stop-color="rgb(96.157837%, 58.914185%, 9.486389%)" offset="0.355469"/><stop stop-opacity="1" stop-color="rgb(96.510315%, 60.2005%, 9.011841%)" offset="0.359375"/><stop stop-opacity="1" stop-color="rgb(96.862793%, 61.486816%, 8.535767%)" offset="0.363281"/><stop stop-opacity="1" stop-color="rgb(97.215271%, 62.773132%, 8.061218%)" offset="0.367188"/><stop stop-opacity="1" stop-color="rgb(97.567749%, 64.060974%, 7.58667%)" offset="0.371094"/><stop stop-opacity="1" stop-color="rgb(97.920227%, 65.34729%, 7.110596%)" offset="0.375"/><stop stop-opacity="1" stop-color="rgb(98.272705%, 66.633606%, 6.636047%)" offset="0.378906"/><stop stop-opacity="1" stop-color="rgb(98.623657%, 67.919922%, 6.161499%)" offset="0.382812"/><stop stop-opacity="1" stop-color="rgb(98.976135%, 69.207764%, 5.686951%)" offset="0.386719"/><stop stop-opacity="1" stop-color="rgb(99.328613%, 70.49408%, 5.210876%)" offset="0.390625"/><stop stop-opacity="1" stop-color="rgb(99.681091%, 71.780396%, 4.736328%)" offset="0.394531"/><stop stop-opacity="1" stop-color="rgb(99.749756%, 72.729492%, 4.597473%)" offset="0.398438"/><stop stop-opacity="1" stop-color="rgb(99.342346%, 73.11554%, 5.01709%)" offset="0.402344"/><stop stop-opacity="1" stop-color="rgb(98.744202%, 73.277283%, 5.659485%)" offset="0.40625"/><stop stop-opacity="1" stop-color="rgb(98.146057%, 73.4375%, 6.303406%)" offset="0.410156"/><stop stop-opacity="1" stop-color="rgb(97.549438%, 73.599243%, 6.947327%)" offset="0.414062"/><stop stop-opacity="1" stop-color="rgb(96.951294%, 73.75946%, 7.589722%)" offset="0.417969"/><stop stop-opacity="1" stop-color="rgb(96.354675%, 73.921204%, 8.233643%)" offset="0.421875"/><stop stop-opacity="1" stop-color="rgb(95.756531%, 74.081421%, 8.877563%)" offset="0.425781"/><stop stop-opacity="1" stop-color="rgb(95.159912%, 74.243164%, 9.519958%)" offset="0.429688"/><stop stop-opacity="1" stop-color="rgb(94.561768%, 74.403381%, 10.163879%)" offset="0.433594"/><stop stop-opacity="1" stop-color="rgb(93.965149%, 74.563599%, 10.806274%)" offset="0.4375"/><stop stop-opacity="1" stop-color="rgb(93.367004%, 74.725342%, 11.450195%)" offset="0.441406"/><stop stop-opacity="1" stop-color="rgb(92.76886%, 74.885559%, 12.094116%)" offset="0.445312"/><stop stop-opacity="1" stop-color="rgb(92.172241%, 75.047302%, 12.736511%)" offset="0.449219"/><stop stop-opacity="1" stop-color="rgb(91.574097%, 75.20752%, 13.380432%)" offset="0.453125"/><stop stop-opacity="1" stop-color="rgb(90.977478%, 75.369263%, 14.024353%)" offset="0.457031"/><stop stop-opacity="1" stop-color="rgb(90.379333%, 75.52948%, 14.666748%)" offset="0.460938"/><stop stop-opacity="1" stop-color="rgb(89.782715%, 75.691223%, 15.310669%)" offset="0.464844"/><stop stop-opacity="1" stop-color="rgb(89.18457%, 75.85144%, 15.953064%)" offset="0.46875"/><stop stop-opacity="1" stop-color="rgb(88.587952%, 76.013184%, 16.596985%)" offset="0.472656"/><stop stop-opacity="1" stop-color="rgb(87.989807%, 76.173401%, 17.240906%)" offset="0.476562"/><stop stop-opacity="1" stop-color="rgb(87.393188%, 76.335144%, 17.883301%)" offset="0.480469"/><stop stop-opacity="1" stop-color="rgb(86.795044%, 76.495361%, 18.527222%)" offset="0.484375"/><stop stop-opacity="1" stop-color="rgb(86.196899%, 76.657104%, 19.171143%)" offset="0.488281"/><stop stop-opacity="1" stop-color="rgb(85.600281%, 76.817322%, 19.813538%)" offset="0.492188"/><stop stop-opacity="1" stop-color="rgb(85.002136%, 76.979065%, 20.457458%)" offset="0.496094"/><stop stop-opacity="1" stop-color="rgb(84.405518%, 77.139282%, 21.101379%)" offset="0.5"/><stop stop-opacity="1" stop-color="rgb(83.807373%, 77.2995%, 21.743774%)" offset="0.503906"/><stop stop-opacity="1" stop-color="rgb(83.210754%, 77.461243%, 22.387695%)" offset="0.507812"/><stop stop-opacity="1" stop-color="rgb(82.61261%, 77.62146%, 23.03009%)" offset="0.511719"/><stop stop-opacity="1" stop-color="rgb(82.015991%, 77.783203%, 23.674011%)" offset="0.515625"/><stop stop-opacity="1" stop-color="rgb(81.417847%, 77.94342%, 24.317932%)" offset="0.519531"/><stop stop-opacity="1" stop-color="rgb(80.819702%, 78.105164%, 24.960327%)" offset="0.523438"/><stop stop-opacity="1" stop-color="rgb(80.223083%, 78.265381%, 25.604248%)" offset="0.527344"/><stop stop-opacity="1" stop-color="rgb(79.624939%, 78.427124%, 26.248169%)" offset="0.53125"/><stop stop-opacity="1" stop-color="rgb(79.02832%, 78.587341%, 26.890564%)" offset="0.535156"/><stop stop-opacity="1" stop-color="rgb(78.430176%, 78.749084%, 27.534485%)" offset="0.539062"/><stop stop-opacity="1" stop-color="rgb(77.833557%, 78.909302%, 28.17688%)" offset="0.542969"/><stop stop-opacity="1" stop-color="rgb(77.235413%, 79.071045%, 28.820801%)" offset="0.546875"/><stop stop-opacity="1" stop-color="rgb(76.638794%, 79.231262%, 29.464722%)" offset="0.550781"/><stop stop-opacity="1" stop-color="rgb(76.040649%, 79.393005%, 30.107117%)" offset="0.554688"/><stop stop-opacity="1" stop-color="rgb(75.442505%, 79.553223%, 30.751038%)" offset="0.558594"/><stop stop-opacity="1" stop-color="rgb(74.845886%, 79.714966%, 31.394958%)" offset="0.5625"/><stop stop-opacity="1" stop-color="rgb(74.247742%, 79.875183%, 32.037354%)" offset="0.566406"/><stop stop-opacity="1" stop-color="rgb(73.651123%, 80.036926%, 32.681274%)" offset="0.570312"/><stop stop-opacity="1" stop-color="rgb(73.052979%, 80.197144%, 33.325195%)" offset="0.574219"/><stop stop-opacity="1" stop-color="rgb(72.45636%, 80.357361%, 33.96759%)" offset="0.578125"/><stop stop-opacity="1" stop-color="rgb(71.858215%, 80.519104%, 34.611511%)" offset="0.582031"/><stop stop-opacity="1" stop-color="rgb(71.261597%, 80.679321%, 35.253906%)" offset="0.585938"/><stop stop-opacity="1" stop-color="rgb(70.663452%, 80.841064%, 35.897827%)" offset="0.589844"/><stop stop-opacity="1" stop-color="rgb(70.066833%, 81.001282%, 36.541748%)" offset="0.59375"/><stop stop-opacity="1" stop-color="rgb(69.50531%, 81.022644%, 37.277222%)" offset="0.597656"/><stop stop-opacity="1" stop-color="rgb(69.036865%, 80.696106%, 38.241577%)" offset="0.601562"/><stop stop-opacity="1" stop-color="rgb(68.623352%, 80.160522%, 39.344788%)" offset="0.605469"/><stop stop-opacity="1" stop-color="rgb(68.209839%, 79.623413%, 40.447998%)" offset="0.609375"/><stop stop-opacity="1" stop-color="rgb(67.796326%, 79.08783%, 41.551208%)" offset="0.613281"/><stop stop-opacity="1" stop-color="rgb(67.382812%, 78.552246%, 42.654419%)" offset="0.617188"/><stop stop-opacity="1" stop-color="rgb(66.969299%, 78.015137%, 43.757629%)" offset="0.621094"/><stop stop-opacity="1" stop-color="rgb(66.555786%, 77.479553%, 44.859314%)" offset="0.625"/><stop stop-opacity="1" stop-color="rgb(66.142273%, 76.94397%, 45.962524%)" offset="0.628906"/><stop stop-opacity="1" stop-color="rgb(65.72876%, 76.40686%, 47.065735%)" offset="0.632812"/><stop stop-opacity="1" stop-color="rgb(65.315247%, 75.871277%, 48.168945%)" offset="0.636719"/><stop stop-opacity="1" stop-color="rgb(64.901733%, 75.334167%, 49.272156%)" offset="0.640625"/><stop stop-opacity="1" stop-color="rgb(64.48822%, 74.798584%, 50.375366%)" offset="0.644531"/><stop stop-opacity="1" stop-color="rgb(64.074707%, 74.263%, 51.478577%)" offset="0.648438"/><stop stop-opacity="1" stop-color="rgb(63.661194%, 73.725891%, 52.581787%)" offset="0.652344"/><stop stop-opacity="1" stop-color="rgb(63.247681%, 73.190308%, 53.684998%)" offset="0.65625"/><stop stop-opacity="1" stop-color="rgb(62.834167%, 72.654724%, 54.788208%)" offset="0.660156"/><stop stop-opacity="1" stop-color="rgb(62.420654%, 72.117615%, 55.891418%)" offset="0.664062"/><stop stop-opacity="1" stop-color="rgb(62.007141%, 71.582031%, 56.994629%)" offset="0.667969"/><stop stop-opacity="1" stop-color="rgb(61.593628%, 71.046448%, 58.097839%)" offset="0.671875"/><stop stop-opacity="1" stop-color="rgb(61.180115%, 70.509338%, 59.20105%)" offset="0.675781"/><stop stop-opacity="1" stop-color="rgb(60.766602%, 69.973755%, 60.30426%)" offset="0.679688"/><stop stop-opacity="1" stop-color="rgb(60.353088%, 69.438171%, 61.407471%)" offset="0.683594"/><stop stop-opacity="1" stop-color="rgb(59.939575%, 68.901062%, 62.510681%)" offset="0.6875"/><stop stop-opacity="1" stop-color="rgb(59.526062%, 68.365479%, 63.613892%)" offset="0.691406"/><stop stop-opacity="1" stop-color="rgb(59.112549%, 67.828369%, 64.715576%)" offset="0.695312"/><stop stop-opacity="1" stop-color="rgb(58.699036%, 67.292786%, 65.818787%)" offset="0.699219"/><stop stop-opacity="1" stop-color="rgb(58.285522%, 66.757202%, 66.921997%)" offset="0.703125"/><stop stop-opacity="1" stop-color="rgb(57.872009%, 66.220093%, 68.025208%)" offset="0.707031"/><stop stop-opacity="1" stop-color="rgb(57.458496%, 65.684509%, 69.128418%)" offset="0.710938"/><stop stop-opacity="1" stop-color="rgb(57.044983%, 65.148926%, 70.231628%)" offset="0.714844"/><stop stop-opacity="1" stop-color="rgb(56.63147%, 64.611816%, 71.334839%)" offset="0.71875"/><stop stop-opacity="1" stop-color="rgb(56.217957%, 64.076233%, 72.438049%)" offset="0.722656"/><stop stop-opacity="1" stop-color="rgb(55.804443%, 63.540649%, 73.54126%)" offset="0.726562"/><stop stop-opacity="1" stop-color="rgb(55.39093%, 63.00354%, 74.64447%)" offset="0.730469"/><stop stop-opacity="1" stop-color="rgb(54.977417%, 62.467957%, 75.747681%)" offset="0.734375"/><stop stop-opacity="1" stop-color="rgb(54.56543%, 61.930847%, 76.850891%)" offset="0.738281"/><stop stop-opacity="1" stop-color="rgb(54.151917%, 61.395264%, 77.954102%)" offset="0.742188"/><stop stop-opacity="1" stop-color="rgb(53.738403%, 60.85968%, 79.057312%)" offset="0.746094"/><stop stop-opacity="1" stop-color="rgb(53.32489%, 60.322571%, 80.160522%)" offset="0.75"/><stop stop-opacity="1" stop-color="rgb(52.911377%, 59.786987%, 81.263733%)" offset="0.753906"/><stop stop-opacity="1" stop-color="rgb(52.497864%, 59.251404%, 82.366943%)" offset="0.757812"/><stop stop-opacity="1" stop-color="rgb(52.084351%, 58.714294%, 83.470154%)" offset="0.761719"/><stop stop-opacity="1" stop-color="rgb(51.670837%, 58.178711%, 84.571838%)" offset="0.765625"/><stop stop-opacity="1" stop-color="rgb(51.257324%, 57.643127%, 85.675049%)" offset="0.769531"/><stop stop-opacity="1" stop-color="rgb(50.843811%, 57.106018%, 86.778259%)" offset="0.773438"/><stop stop-opacity="1" stop-color="rgb(50.430298%, 56.570435%, 87.88147%)" offset="0.777344"/><stop stop-opacity="1" stop-color="rgb(50.016785%, 56.034851%, 88.98468%)" offset="0.78125"/><stop stop-opacity="1" stop-color="rgb(49.603271%, 55.497742%, 90.087891%)" offset="0.785156"/><stop stop-opacity="1" stop-color="rgb(49.189758%, 54.962158%, 91.191101%)" offset="0.789062"/><stop stop-opacity="1" stop-color="rgb(48.776245%, 54.425049%, 92.294312%)" offset="0.792969"/><stop stop-opacity="1" stop-color="rgb(48.420715%, 54.01001%, 93.29071%)" offset="0.796875"/><stop stop-opacity="1" stop-color="rgb(48.350525%, 54.194641%, 93.75%)" offset="0.800781"/><stop stop-opacity="1" stop-color="rgb(48.512268%, 54.86145%, 93.780518%)" offset="0.804688"/><stop stop-opacity="1" stop-color="rgb(48.672485%, 55.528259%, 93.811035%)" offset="0.808594"/><stop stop-opacity="1" stop-color="rgb(48.834229%, 56.193542%, 93.841553%)" offset="0.8125"/><stop stop-opacity="1" stop-color="rgb(48.994446%, 56.860352%, 93.87207%)" offset="0.816406"/><stop stop-opacity="1" stop-color="rgb(49.154663%, 57.525635%, 93.902588%)" offset="0.820312"/><stop stop-opacity="1" stop-color="rgb(49.316406%, 58.192444%, 93.933105%)" offset="0.824219"/><stop stop-opacity="1" stop-color="rgb(49.476624%, 58.859253%, 93.963623%)" offset="0.828125"/><stop stop-opacity="1" stop-color="rgb(49.636841%, 59.524536%, 93.994141%)" offset="0.832031"/><stop stop-opacity="1" stop-color="rgb(49.798584%, 60.191345%, 94.024658%)" offset="0.835938"/><stop stop-opacity="1" stop-color="rgb(49.958801%, 60.856628%, 94.055176%)" offset="0.839844"/><stop stop-opacity="1" stop-color="rgb(50.119019%, 61.523438%, 94.085693%)" offset="0.84375"/><stop stop-opacity="1" stop-color="rgb(50.280762%, 62.190247%, 94.116211%)" offset="0.847656"/><stop stop-opacity="1" stop-color="rgb(50.440979%, 62.85553%, 94.146729%)" offset="0.851562"/><stop stop-opacity="1" stop-color="rgb(50.601196%, 63.522339%, 94.177246%)" offset="0.855469"/><stop stop-opacity="1" stop-color="rgb(50.762939%, 64.187622%, 94.207764%)" offset="0.859375"/><stop stop-opacity="1" stop-color="rgb(50.923157%, 64.854431%, 94.238281%)" offset="0.863281"/><stop stop-opacity="1" stop-color="rgb(51.083374%, 65.52124%, 94.268799%)" offset="0.867188"/><stop stop-opacity="1" stop-color="rgb(51.245117%, 66.186523%, 94.299316%)" offset="0.871094"/><stop stop-opacity="1" stop-color="rgb(51.405334%, 66.853333%, 94.329834%)" offset="0.875"/><stop stop-opacity="1" stop-color="rgb(51.565552%, 67.518616%, 94.360352%)" offset="0.878906"/><stop stop-opacity="1" stop-color="rgb(51.727295%, 68.185425%, 94.390869%)" offset="0.882812"/><stop stop-opacity="1" stop-color="rgb(51.887512%, 68.852234%, 94.421387%)" offset="0.886719"/><stop stop-opacity="1" stop-color="rgb(52.047729%, 69.517517%, 94.451904%)" offset="0.890625"/><stop stop-opacity="1" stop-color="rgb(52.209473%, 70.184326%, 94.482422%)" offset="0.894531"/><stop stop-opacity="1" stop-color="rgb(52.36969%, 70.851135%, 94.512939%)" offset="0.898438"/><stop stop-opacity="1" stop-color="rgb(52.529907%, 71.516418%, 94.543457%)" offset="0.902344"/><stop stop-opacity="1" stop-color="rgb(52.69165%, 72.183228%, 94.572449%)" offset="0.90625"/><stop stop-opacity="1" stop-color="rgb(52.851868%, 72.848511%, 94.602966%)" offset="0.910156"/><stop stop-opacity="1" stop-color="rgb(53.012085%, 73.51532%, 94.633484%)" offset="0.914062"/><stop stop-opacity="1" stop-color="rgb(53.173828%, 74.182129%, 94.664001%)" offset="0.917969"/><stop stop-opacity="1" stop-color="rgb(53.334045%, 74.847412%, 94.694519%)" offset="0.921875"/><stop stop-opacity="1" stop-color="rgb(53.494263%, 75.514221%, 94.725037%)" offset="0.925781"/><stop stop-opacity="1" stop-color="rgb(53.656006%, 76.179504%, 94.755554%)" offset="0.929688"/><stop stop-opacity="1" stop-color="rgb(53.816223%, 76.846313%, 94.786072%)" offset="0.933594"/><stop stop-opacity="1" stop-color="rgb(53.977966%, 77.513123%, 94.816589%)" offset="0.9375"/><stop stop-opacity="1" stop-color="rgb(54.138184%, 78.178406%, 94.847107%)" offset="0.941406"/><stop stop-opacity="1" stop-color="rgb(54.298401%, 78.845215%, 94.877625%)" offset="0.945312"/><stop stop-opacity="1" stop-color="rgb(54.460144%, 79.510498%, 94.908142%)" offset="0.949219"/><stop stop-opacity="1" stop-color="rgb(54.620361%, 80.177307%, 94.93866%)" offset="0.953125"/><stop stop-opacity="1" stop-color="rgb(54.780579%, 80.844116%, 94.969177%)" offset="0.957031"/><stop stop-opacity="1" stop-color="rgb(54.942322%, 81.509399%, 94.999695%)" offset="0.960938"/><stop stop-opacity="1" stop-color="rgb(55.102539%, 82.176208%, 95.030212%)" offset="0.964844"/><stop stop-opacity="1" stop-color="rgb(55.262756%, 82.841492%, 95.06073%)" offset="0.96875"/><stop stop-opacity="1" stop-color="rgb(55.4245%, 83.508301%, 95.091248%)" offset="0.972656"/><stop stop-opacity="1" stop-color="rgb(55.584717%, 84.17511%, 95.121765%)" offset="0.976562"/><stop stop-opacity="1" stop-color="rgb(55.744934%, 84.840393%, 95.152283%)" offset="0.980469"/><stop stop-opacity="1" stop-color="rgb(55.906677%, 85.507202%, 95.1828%)" offset="0.984375"/><stop stop-opacity="1" stop-color="rgb(56.066895%, 86.172485%, 95.213318%)" offset="0.988281"/><stop stop-opacity="1" stop-color="rgb(56.227112%, 86.839294%, 95.243835%)" offset="0.992188"/><stop stop-opacity="1" stop-color="rgb(56.388855%, 87.506104%, 95.274353%)" offset="0.996094"/><stop stop-opacity="1" stop-color="rgb(56.469727%, 87.838745%, 95.289612%)" offset="1"/></radialGradient><clipPath id="215697a3e0"><path d="M 133.097656 240.554688 L 219.257812 240.554688 L 219.257812 304.234375 L 133.097656 304.234375 Z M 133.097656 240.554688 " clip-rule="nonzero"/></clipPath><clipPath id="13be1dfbb3"><rect x="0" width="849" y="0" height="119"/></clipPath></defs><g clip-path="url(#af82ddfb50)"><path fill="#ffffff" d="M 0.476562 0 L 899.523438 0 L 899.523438 472 L 0.476562 472 Z M 0.476562 0 " fill-opacity="1" fill-rule="nonzero"/><path fill="url(#0038d74279)" d="M 0.476562 0 L 0.476562 472 L 899.523438 472 L 899.523438 0 Z M 0.476562 0 " fill-rule="nonzero"/></g><g clip-path="url(#215697a3e0)"><path fill="#000000" d="M 168.605469 240.769531 C 174.285156 240.195312 180.789062 241.140625 186.550781 240.734375 C 189.539062 241 191.550781 242.496094 193 245.027344 C 194.617188 247.851562 195.058594 251.617188 198.988281 251.90625 C 202.699219 252.179688 206.761719 251.644531 210.484375 251.898438 C 215.003906 252.207031 218.949219 256.015625 219.257812 260.5625 L 219.257812 296.929688 C 218.925781 300.8125 215.859375 303.878906 211.972656 304.210938 L 140.171875 304.210938 C 136.207031 303.890625 133.359375 300.746094 133.097656 296.820312 L 133.097656 260.5625 C 133.335938 257.285156 135.316406 254.171875 138.347656 252.839844 C 138.945312 252.578125 140.503906 252.265625 140.808594 251.898438 C 141.214844 251.402344 141.011719 250.703125 141.082031 250.148438 C 141.375 247.769531 143.042969 246.425781 145.382812 246.261719 C 147.054688 246.148438 149.792969 246.132812 151.453125 246.261719 C 153.347656 246.414062 154.921875 247.589844 155.386719 249.457031 C 155.648438 250.519531 155.296875 251.9375 156.875 251.910156 C 160.65625 251.839844 161.664062 245.734375 163.730469 243.339844 C 164.929688 241.953125 166.765625 240.957031 168.605469 240.769531 Z M 170.09375 243.960938 C 165.070312 244.28125 165.160156 248.007812 163.007812 251.550781 C 161.796875 253.546875 159.652344 254.925781 157.300781 255.09375 C 152.488281 255.441406 147.222656 254.734375 142.410156 255.089844 C 139.003906 255.34375 136.515625 257.503906 136.285156 260.984375 C 136.253906 261.523438 136.117188 263.195312 136.6875 263.359375 L 157.488281 263.359375 C 157.957031 263.253906 159.628906 260.980469 160.113281 260.457031 C 170.859375 248.839844 187.785156 248.691406 198.726562 260.136719 C 199.722656 261.183594 200.527344 262.511719 201.671875 263.359375 L 215.054688 263.386719 C 216.394531 263.445312 216.128906 261.6875 216.046875 260.792969 C 215.75 257.601562 213.207031 255.320312 210.054688 255.085938 C 206 254.789062 198.234375 256.007812 194.945312 254.03125 C 192.214844 252.390625 191.617188 249.21875 190.148438 246.601562 C 188.785156 244.164062 187.363281 244.101562 184.824219 243.996094 C 180.234375 243.808594 174.652344 243.667969 170.089844 243.960938 Z M 145.089844 249.480469 C 143.929688 249.859375 143.996094 251.660156 145.199219 251.875 C 146.136719 252.046875 150.234375 252.027344 151.226562 251.890625 C 152.640625 251.699219 152.753906 249.855469 151.445312 249.464844 Z M 177.964844 254.804688 C 162.074219 255.796875 151.941406 273.164062 158.539062 287.660156 C 166.804688 305.832031 192.433594 305.671875 200.554688 287.375 C 207.582031 271.535156 195.183594 253.726562 177.964844 254.804688 Z M 166.5 301.125 C 166.539062 300.945312 166.441406 300.910156 166.335938 300.804688 C 166.035156 300.507812 165.316406 300.179688 164.914062 299.890625 C 155.328125 292.976562 151.246094 281.804688 154.617188 270.269531 C 154.785156 269.695312 155.730469 267.398438 155.632812 267.074219 C 155.492188 266.785156 155.175781 266.664062 154.859375 266.671875 L 137.410156 266.679688 C 136.855469 266.703125 136.53125 267.03125 136.34375 267.527344 L 136.289062 293.527344 L 136.425781 294.082031 C 136.558594 294.179688 136.71875 294.195312 136.878906 294.214844 C 138.390625 294.375 142.714844 294.363281 144.023438 293.808594 C 145.421875 293.214844 146.078125 292.148438 146.191406 290.65625 C 146.609375 285.082031 145.707031 278.859375 146.179688 273.320312 C 146.382812 270.960938 148.097656 268.980469 150.261719 268.148438 C 151.292969 267.75 152.578125 267.675781 152.769531 269.082031 C 153.03125 270.972656 150.757812 271.046875 149.863281 272.320312 C 149.523438 272.800781 149.382812 273.402344 149.28125 273.976562 C 148.945312 279.617188 149.6875 285.703125 149.273438 291.292969 C 149.039062 294.492188 146.351562 297.171875 143.160156 297.40625 C 142.304688 297.46875 136.800781 297.246094 136.625 297.523438 C 136.59375 298.957031 138.195312 300.339844 139.457031 300.78125 C 139.761719 300.886719 140.640625 301.125 140.921875 301.125 Z M 192.449219 301.125 L 211.328125 301.125 C 213.621094 301.125 216.09375 298.554688 216.15625 296.273438 L 216.144531 267.820312 C 216.027344 267.195312 215.582031 266.761719 214.949219 266.675781 C 211.464844 266.933594 207.515625 266.34375 204.089844 266.671875 C 202.890625 266.789062 203.59375 267.644531 203.804688 268.246094 C 207.875 279.824219 204.53125 292.117188 194.675781 299.46875 C 193.941406 300.015625 193.035156 300.445312 192.449219 301.125 Z M 192.449219 301.125 " fill-opacity="1" fill-rule="nonzero"/></g><path fill="#000000" d="M 178.710938 257.671875 L 179.742188 257.644531 C 196.871094 257.898438 205.910156 278.007812 195.058594 291.132812 C 184.898438 303.417969 164.132812 299.121094 159.960938 283.6875 C 156.542969 271.050781 165.585938 258.1875 178.710938 257.675781 Z M 178.175781 260.863281 C 166.332031 261.679688 158.859375 274.503906 163.75 285.320312 C 169.949219 299.027344 190.1875 298.347656 195.539062 284.382812 C 200.128906 272.402344 190.941406 259.980469 178.175781 260.863281 Z M 178.175781 260.863281 " fill-opacity="1" fill-rule="nonzero"/><path fill="#000000" d="M 177.75 264.476562 C 180.414062 264.222656 183.5 264.597656 185.878906 265.859375 C 186.875 266.386719 187.8125 267.167969 186.964844 268.371094 C 185.957031 269.804688 184.6875 268.507812 183.570312 268.058594 C 173.160156 263.878906 163.53125 276.796875 171.125 285.605469 C 177.59375 293.109375 189.816406 288.621094 190.433594 278.964844 C 190.511719 277.722656 189.824219 274.71875 191.570312 274.359375 C 192.808594 274.105469 193.15625 274.964844 193.300781 275.984375 C 195.078125 288.5625 180.046875 297.128906 170.277344 288.683594 C 161.382812 280.996094 166.277344 265.582031 177.753906 264.476562 Z M 177.75 264.476562 " fill-opacity="1" fill-rule="nonzero"/><path fill="#000000" d="M 189.765625 266.917969 C 190.933594 266.714844 191.664062 267.523438 192.28125 268.386719 C 192.902344 269.253906 193.328125 270.023438 192.859375 271.074219 L 180.644531 287.460938 C 178.90625 288.835938 177.460938 288.484375 176.136719 286.863281 C 173.875 284.105469 171.894531 280.925781 169.710938 278.085938 C 168.628906 276.152344 170.726562 272.738281 172.980469 274.285156 C 173.203125 274.433594 173.542969 274.8125 173.730469 275.023438 C 175.378906 276.902344 176.71875 279.320312 178.359375 281.238281 L 188.730469 267.476562 C 189.019531 267.234375 189.386719 266.980469 189.765625 266.914062 Z M 189.765625 266.917969 " fill-opacity="1" fill-rule="nonzero"/><g transform="matrix(1, 0, 0, 1, 27, 141)"><g clip-path="url(#13be1dfbb3)"><g fill="#000000" fill-opacity="1"><g transform="translate(1.002698, 89.799263)"><g><path d="M 49.265625 -64.515625 C 49.265625 -65.546875 49.59375 -66.351562 50.25 -66.9375 C 50.914062 -67.519531 51.957031 -67.8125 53.375 -67.8125 L 68.6875 -67.8125 C 70.101562 -67.8125 71.148438 -67.519531 71.828125 -66.9375 C 72.503906 -66.351562 72.84375 -65.546875 72.84375 -64.515625 C 72.84375 -63.773438 72.640625 -63.160156 72.234375 -62.671875 C 71.835938 -62.191406 71.21875 -61.742188 70.375 -61.328125 L 68.96875 -60.640625 C 67.78125 -60.054688 66.789062 -59.222656 66 -58.140625 C 65.207031 -57.066406 64.441406 -55.347656 63.703125 -52.984375 L 50.515625 -12.25 C 50.003906 -10.632812 49.640625 -9.375 49.421875 -8.46875 C 49.210938 -7.570312 49.109375 -6.65625 49.109375 -5.71875 L 49.109375 -3.046875 C 49.109375 -2.078125 48.796875 -1.328125 48.171875 -0.796875 C 47.546875 -0.265625 46.765625 0 45.828125 0 L 28.09375 0 C 27.1875 0 26.4375 -0.265625 25.84375 -0.796875 C 25.25 -1.328125 24.953125 -2.128906 24.953125 -3.203125 L 24.953125 -5.8125 C 24.953125 -6.363281 24.84375 -7.023438 24.625 -7.796875 C 24.414062 -8.578125 24.164062 -9.414062 23.875 -10.3125 L 8.328125 -56.28125 C 7.910156 -57.507812 7.472656 -58.40625 7.015625 -58.96875 C 6.566406 -59.539062 5.925781 -60.035156 5.09375 -60.453125 L 3.6875 -61.125 C 2.289062 -61.832031 1.59375 -62.960938 1.59375 -64.515625 C 1.59375 -65.546875 1.929688 -66.351562 2.609375 -66.9375 C 3.296875 -67.519531 4.347656 -67.8125 5.765625 -67.8125 L 33.609375 -67.8125 C 35.066406 -67.8125 36.125 -67.519531 36.78125 -66.9375 C 37.445312 -66.351562 37.78125 -65.546875 37.78125 -64.515625 C 37.78125 -63.710938 37.578125 -63.066406 37.171875 -62.578125 C 36.773438 -62.097656 36.140625 -61.664062 35.265625 -61.28125 L 33.671875 -60.546875 C 32.828125 -60.160156 32.289062 -59.5625 32.0625 -58.75 C 31.84375 -57.945312 31.988281 -56.769531 32.5 -55.21875 L 44.421875 -19.078125 L 55.796875 -53.765625 C 56.347656 -55.410156 56.4375 -56.765625 56.0625 -57.828125 C 55.695312 -58.898438 54.707031 -59.835938 53.09375 -60.640625 L 51.734375 -61.328125 C 50.921875 -61.710938 50.304688 -62.128906 49.890625 -62.578125 C 49.472656 -63.035156 49.265625 -63.679688 49.265625 -64.515625 Z M 49.265625 -64.515625 "/></g></g></g><g fill="#000000" fill-opacity="1"><g transform="translate(74.536507, 89.799263)"><g><path d="M 38.703125 -69.75 C 44.316406 -69.75 49.359375 -68.882812 53.828125 -67.15625 C 58.304688 -65.425781 62.117188 -62.960938 65.265625 -59.765625 C 68.421875 -56.578125 70.828125 -52.757812 72.484375 -48.3125 C 74.148438 -43.875 74.984375 -38.925781 74.984375 -33.46875 C 74.984375 -28.53125 74.160156 -23.910156 72.515625 -19.609375 C 70.867188 -15.316406 68.492188 -11.554688 65.390625 -8.328125 C 62.285156 -5.097656 58.53125 -2.578125 54.125 -0.765625 C 49.71875 1.035156 44.753906 1.9375 39.234375 1.9375 C 33.617188 1.9375 28.570312 1.070312 24.09375 -0.65625 C 19.625 -2.382812 15.8125 -4.847656 12.65625 -8.046875 C 9.507812 -11.242188 7.101562 -15.0625 5.4375 -19.5 C 3.78125 -23.9375 2.953125 -28.882812 2.953125 -34.34375 C 2.953125 -39.28125 3.773438 -43.894531 5.421875 -48.1875 C 7.066406 -52.488281 9.441406 -56.253906 12.546875 -59.484375 C 15.648438 -62.710938 19.40625 -65.226562 23.8125 -67.03125 C 28.21875 -68.84375 33.179688 -69.75 38.703125 -69.75 Z M 51.875 -20.203125 C 51.875 -24.523438 51.523438 -28.757812 50.828125 -32.90625 C 50.140625 -37.0625 49.195312 -40.945312 48 -44.5625 C 46.800781 -48.175781 45.441406 -51.351562 43.921875 -54.09375 C 42.410156 -56.84375 40.820312 -59 39.15625 -60.5625 C 37.5 -62.132812 35.847656 -62.921875 34.203125 -62.921875 C 31.585938 -62.921875 29.609375 -61.617188 28.265625 -59.015625 C 26.921875 -56.421875 26.25 -52.617188 26.25 -47.609375 C 26.25 -43.316406 26.597656 -39.09375 27.296875 -34.9375 C 27.992188 -30.789062 28.9375 -26.898438 30.125 -23.265625 C 31.320312 -19.640625 32.675781 -16.453125 34.1875 -13.703125 C 35.707031 -10.960938 37.300781 -8.804688 38.96875 -7.234375 C 40.632812 -5.671875 42.289062 -4.890625 43.9375 -4.890625 C 46.582031 -4.890625 48.566406 -6.1875 49.890625 -8.78125 C 51.210938 -11.382812 51.875 -15.191406 51.875 -20.203125 Z M 51.875 -20.203125 "/></g></g></g><g fill="#000000" fill-opacity="1"><g transform="translate(152.478483, 89.799263)"><g><path d="M 19.90625 -67.8125 L 52.359375 -67.8125 C 53.847656 -67.8125 55.113281 -67.941406 56.15625 -68.203125 C 57.207031 -68.460938 58.148438 -68.710938 58.984375 -68.953125 C 59.828125 -69.191406 60.671875 -69.3125 61.515625 -69.3125 C 63.097656 -69.3125 64.273438 -68.929688 65.046875 -68.171875 C 65.828125 -67.410156 66.457031 -66.128906 66.9375 -64.328125 L 70.046875 -48.203125 C 70.296875 -46.910156 70.1875 -45.859375 69.71875 -45.046875 C 69.257812 -44.242188 68.460938 -43.742188 67.328125 -43.546875 C 66.296875 -43.316406 65.382812 -43.378906 64.59375 -43.734375 C 63.800781 -44.085938 63.128906 -44.816406 62.578125 -45.921875 C 61.160156 -48.765625 59.898438 -51.128906 58.796875 -53.015625 C 57.703125 -54.898438 56.675781 -56.382812 55.71875 -57.46875 C 54.769531 -58.550781 53.828125 -59.328125 52.890625 -59.796875 C 51.953125 -60.265625 50.9375 -60.5 49.84375 -60.5 L 47.375 -60.5 L 47.375 -10.75 C 47.375 -9.269531 48.195312 -8.207031 49.84375 -7.5625 L 51.6875 -6.875 C 52.59375 -6.550781 53.238281 -6.082031 53.625 -5.46875 C 54.007812 -4.851562 54.203125 -4.128906 54.203125 -3.296875 C 54.203125 -2.296875 53.863281 -1.492188 53.1875 -0.890625 C 52.507812 -0.296875 51.457031 0 50.03125 0 L 22.234375 0 C 20.816406 0 19.765625 -0.296875 19.078125 -0.890625 C 18.398438 -1.492188 18.0625 -2.296875 18.0625 -3.296875 C 18.0625 -4.128906 18.253906 -4.851562 18.640625 -5.46875 C 19.035156 -6.082031 19.6875 -6.550781 20.59375 -6.875 L 22.421875 -7.5625 C 24.066406 -8.207031 24.890625 -9.269531 24.890625 -10.75 L 24.890625 -60.5 L 22.421875 -60.5 C 21.328125 -60.5 20.3125 -60.265625 19.375 -59.796875 C 18.4375 -59.328125 17.488281 -58.550781 16.53125 -57.46875 C 15.582031 -56.382812 14.554688 -54.898438 13.453125 -53.015625 C 12.359375 -51.128906 11.101562 -48.765625 9.6875 -45.921875 C 9.132812 -44.816406 8.460938 -44.085938 7.671875 -43.734375 C 6.878906 -43.378906 5.96875 -43.316406 4.9375 -43.546875 C 3.84375 -43.742188 3.0625 -44.242188 2.59375 -45.046875 C 2.125 -45.859375 2.003906 -46.910156 2.234375 -48.203125 L 5.328125 -64.328125 C 5.816406 -66.128906 6.445312 -67.410156 7.21875 -68.171875 C 7.988281 -68.929688 9.164062 -69.3125 10.75 -69.3125 C 11.59375 -69.3125 12.429688 -69.191406 13.265625 -68.953125 C 14.109375 -68.710938 15.054688 -68.460938 16.109375 -68.203125 C 17.160156 -67.941406 18.425781 -67.8125 19.90625 -67.8125 Z M 19.90625 -67.8125 "/></g></g></g><g fill="#000000" fill-opacity="1"><g transform="translate(224.752844, 89.799263)"><g><path d="M 38.703125 -69.75 C 44.316406 -69.75 49.359375 -68.882812 53.828125 -67.15625 C 58.304688 -65.425781 62.117188 -62.960938 65.265625 -59.765625 C 68.421875 -56.578125 70.828125 -52.757812 72.484375 -48.3125 C 74.148438 -43.875 74.984375 -38.925781 74.984375 -33.46875 C 74.984375 -28.53125 74.160156 -23.910156 72.515625 -19.609375 C 70.867188 -15.316406 68.492188 -11.554688 65.390625 -8.328125 C 62.285156 -5.097656 58.53125 -2.578125 54.125 -0.765625 C 49.71875 1.035156 44.753906 1.9375 39.234375 1.9375 C 33.617188 1.9375 28.570312 1.070312 24.09375 -0.65625 C 19.625 -2.382812 15.8125 -4.847656 12.65625 -8.046875 C 9.507812 -11.242188 7.101562 -15.0625 5.4375 -19.5 C 3.78125 -23.9375 2.953125 -28.882812 2.953125 -34.34375 C 2.953125 -39.28125 3.773438 -43.894531 5.421875 -48.1875 C 7.066406 -52.488281 9.441406 -56.253906 12.546875 -59.484375 C 15.648438 -62.710938 19.40625 -65.226562 23.8125 -67.03125 C 28.21875 -68.84375 33.179688 -69.75 38.703125 -69.75 Z M 51.875 -20.203125 C 51.875 -24.523438 51.523438 -28.757812 50.828125 -32.90625 C 50.140625 -37.0625 49.195312 -40.945312 48 -44.5625 C 46.800781 -48.175781 45.441406 -51.351562 43.921875 -54.09375 C 42.410156 -56.84375 40.820312 -59 39.15625 -60.5625 C 37.5 -62.132812 35.847656 -62.921875 34.203125 -62.921875 C 31.585938 -62.921875 29.609375 -61.617188 28.265625 -59.015625 C 26.921875 -56.421875 26.25 -52.617188 26.25 -47.609375 C 26.25 -43.316406 26.597656 -39.09375 27.296875 -34.9375 C 27.992188 -30.789062 28.9375 -26.898438 30.125 -23.265625 C 31.320312 -19.640625 32.675781 -16.453125 34.1875 -13.703125 C 35.707031 -10.960938 37.300781 -8.804688 38.96875 -7.234375 C 40.632812 -5.671875 42.289062 -4.890625 43.9375 -4.890625 C 46.582031 -4.890625 48.566406 -6.1875 49.890625 -8.78125 C 51.210938 -11.382812 51.875 -15.191406 51.875 -20.203125 Z M 51.875 -20.203125 "/></g></g></g><g fill="#000000" fill-opacity="1"><g transform="translate(302.694821, 89.799263)"><g><path d="M 68 -1.890625 C 68 0.660156 66.726562 1.9375 64.1875 1.9375 C 63.113281 1.9375 62.132812 1.65625 61.25 1.09375 C 60.363281 0.53125 59.515625 -0.117188 58.703125 -0.859375 C 57.898438 -1.609375 57.132812 -2.265625 56.40625 -2.828125 C 55.675781 -3.398438 54.957031 -3.6875 54.25 -3.6875 C 53.476562 -3.6875 52.625 -3.398438 51.6875 -2.828125 C 50.75 -2.265625 49.625 -1.617188 48.3125 -0.890625 C 47.007812 -0.171875 45.421875 0.46875 43.546875 1.03125 C 41.671875 1.601562 39.394531 1.890625 36.71875 1.890625 C 31.382812 1.890625 26.625 1.050781 22.4375 -0.625 C 18.257812 -2.3125 14.71875 -4.71875 11.8125 -7.84375 C 8.90625 -10.976562 6.691406 -14.738281 5.171875 -19.125 C 3.660156 -23.519531 2.90625 -28.445312 2.90625 -33.90625 C 2.90625 -38.039062 3.484375 -41.914062 4.640625 -45.53125 C 5.804688 -49.144531 7.453125 -52.4375 9.578125 -55.40625 C 11.710938 -58.382812 14.25 -60.9375 17.1875 -63.0625 C 20.132812 -65.195312 23.390625 -66.84375 26.953125 -68 C 30.523438 -69.164062 34.3125 -69.75 38.3125 -69.75 C 40.738281 -69.75 42.8125 -69.585938 44.53125 -69.265625 C 46.257812 -68.941406 47.726562 -68.578125 48.9375 -68.171875 C 50.15625 -67.773438 51.179688 -67.414062 52.015625 -67.09375 C 52.859375 -66.769531 53.617188 -66.609375 54.296875 -66.609375 C 54.972656 -66.609375 55.5625 -66.75 56.0625 -67.03125 C 56.5625 -67.320312 57.035156 -67.671875 57.484375 -68.078125 C 57.941406 -68.484375 58.4375 -68.832031 58.96875 -69.125 C 59.5 -69.414062 60.125 -69.5625 60.84375 -69.5625 C 61.644531 -69.5625 62.3125 -69.300781 62.84375 -68.78125 C 63.375 -68.257812 63.820312 -67.390625 64.1875 -66.171875 L 69.171875 -49.015625 C 69.460938 -48.015625 69.335938 -47.117188 68.796875 -46.328125 C 68.265625 -45.535156 67.5 -45.007812 66.5 -44.75 C 65.40625 -44.5 64.40625 -44.570312 63.5 -44.96875 C 62.59375 -45.375 61.898438 -46.144531 61.421875 -47.28125 C 59.773438 -51.1875 57.894531 -54.210938 55.78125 -56.359375 C 53.664062 -58.503906 51.425781 -59.992188 49.0625 -60.828125 C 46.707031 -61.671875 44.335938 -62.09375 41.953125 -62.09375 C 38.492188 -62.09375 35.53125 -61.097656 33.0625 -59.109375 C 30.59375 -57.128906 28.703125 -54.304688 27.390625 -50.640625 C 26.085938 -46.972656 25.4375 -42.625 25.4375 -37.59375 C 25.4375 -31.101562 26.207031 -25.6875 27.75 -21.34375 C 29.300781 -17 31.441406 -13.742188 34.171875 -11.578125 C 36.898438 -9.410156 40.023438 -8.328125 43.546875 -8.328125 C 45.160156 -8.328125 46.328125 -8.78125 47.046875 -9.6875 C 47.773438 -10.59375 48.140625 -11.753906 48.140625 -13.171875 L 48.140625 -23.984375 C 48.140625 -24.660156 47.976562 -25.175781 47.65625 -25.53125 C 47.332031 -25.882812 46.671875 -26.207031 45.671875 -26.5 L 43.546875 -27.125 C 42.546875 -27.414062 41.757812 -27.832031 41.1875 -28.375 C 40.625 -28.925781 40.34375 -29.625 40.34375 -30.46875 C 40.34375 -31.4375 40.679688 -32.203125 41.359375 -32.765625 C 42.046875 -33.328125 43.097656 -33.609375 44.515625 -33.609375 L 69.5625 -33.609375 C 71.007812 -33.609375 72.070312 -33.328125 72.75 -32.765625 C 73.425781 -32.203125 73.765625 -31.453125 73.765625 -30.515625 C 73.765625 -29.710938 73.554688 -29.054688 73.140625 -28.546875 C 72.722656 -28.046875 72.09375 -27.617188 71.25 -27.265625 L 70.140625 -26.828125 C 69.492188 -26.578125 68.972656 -26.238281 68.578125 -25.8125 C 68.191406 -25.394531 68 -24.785156 68 -23.984375 Z M 68 -1.890625 "/></g></g></g><g fill="#000000" fill-opacity="1"><g transform="translate(378.747593, 89.799263)"><g><path d="M 73.4375 -44.03125 C 73.4375 -40.539062 72.46875 -37.382812 70.53125 -34.5625 C 68.59375 -31.738281 65.847656 -29.550781 62.296875 -28 L 72.609375 -10.3125 C 73.191406 -9.3125 73.71875 -8.5625 74.1875 -8.0625 C 74.65625 -7.5625 75.257812 -7.132812 76 -6.78125 C 76.800781 -6.394531 77.390625 -5.925781 77.765625 -5.375 C 78.140625 -4.820312 78.328125 -4.128906 78.328125 -3.296875 C 78.328125 -2.296875 77.988281 -1.492188 77.3125 -0.890625 C 76.632812 -0.296875 75.582031 0 74.15625 0 L 50.140625 0 C 47.484375 0 46.15625 -1.097656 46.15625 -3.296875 C 46.15625 -4.296875 46.625 -5.132812 47.5625 -5.8125 L 48.140625 -6.25 C 48.722656 -6.695312 49.054688 -7.128906 49.140625 -7.546875 C 49.222656 -7.972656 49.050781 -8.585938 48.625 -9.390625 L 41.46875 -23.640625 C 38.457031 -23.734375 35.835938 -24.117188 33.609375 -24.796875 L 33.609375 -10.75 C 33.609375 -9.945312 33.757812 -9.300781 34.0625 -8.8125 C 34.375 -8.332031 34.890625 -7.914062 35.609375 -7.5625 L 36.953125 -6.875 C 37.953125 -6.394531 38.625 -5.882812 38.96875 -5.34375 C 39.3125 -4.8125 39.484375 -4.128906 39.484375 -3.296875 C 39.484375 -2.296875 39.140625 -1.492188 38.453125 -0.890625 C 37.773438 -0.296875 36.726562 0 35.3125 0 L 8.484375 0 C 7.054688 0 6.003906 -0.296875 5.328125 -0.890625 C 4.648438 -1.492188 4.3125 -2.296875 4.3125 -3.296875 C 4.3125 -4.128906 4.503906 -4.851562 4.890625 -5.46875 C 5.273438 -6.082031 5.921875 -6.550781 6.828125 -6.875 L 8.671875 -7.5625 C 10.316406 -8.207031 11.140625 -9.269531 11.140625 -10.75 L 11.140625 -57.0625 C 11.140625 -58.582031 10.316406 -59.644531 8.671875 -60.25 L 6.828125 -60.9375 C 5.921875 -61.289062 5.273438 -61.765625 4.890625 -62.359375 C 4.503906 -62.960938 4.3125 -63.679688 4.3125 -64.515625 C 4.3125 -65.546875 4.648438 -66.351562 5.328125 -66.9375 C 6.003906 -67.519531 7.054688 -67.8125 8.484375 -67.8125 L 36.421875 -67.8125 C 44.398438 -67.8125 51.140625 -66.8125 56.640625 -64.8125 C 62.148438 -62.8125 66.328125 -60.023438 69.171875 -56.453125 C 72.015625 -52.890625 73.4375 -48.75 73.4375 -44.03125 Z M 33.609375 -61.515625 L 33.609375 -30.859375 C 34.972656 -30.566406 36.539062 -30.421875 38.3125 -30.421875 C 42.15625 -30.421875 45.140625 -31.484375 47.265625 -33.609375 C 49.398438 -35.742188 50.46875 -39.054688 50.46875 -43.546875 C 50.46875 -46.160156 50.097656 -48.554688 49.359375 -50.734375 C 48.617188 -52.921875 47.578125 -54.820312 46.234375 -56.4375 C 44.890625 -58.050781 43.304688 -59.300781 41.484375 -60.1875 C 39.660156 -61.070312 37.664062 -61.515625 35.5 -61.515625 Z M 33.609375 -61.515625 "/></g></g></g><g fill="#000000" fill-opacity="1"><g transform="translate(459.305419, 89.799263)"><g><path d="M 25.09375 -3.296875 C 25.09375 -2.296875 24.757812 -1.492188 24.09375 -0.890625 C 23.4375 -0.296875 22.394531 0 20.96875 0 L 5.46875 0 C 4.082031 0 3.050781 -0.296875 2.375 -0.890625 C 1.695312 -1.492188 1.359375 -2.296875 1.359375 -3.296875 C 1.359375 -4.585938 2.082031 -5.6875 3.53125 -6.59375 L 4.546875 -7.21875 C 5.265625 -7.664062 5.863281 -8.148438 6.34375 -8.671875 C 6.832031 -9.191406 7.273438 -9.910156 7.671875 -10.828125 C 8.078125 -11.742188 8.523438 -12.992188 9.015625 -14.578125 L 21.40625 -54.640625 C 21.988281 -56.546875 22.195312 -57.925781 22.03125 -58.78125 C 21.875 -59.632812 21.210938 -60.335938 20.046875 -60.890625 C 19.148438 -61.335938 18.515625 -61.851562 18.140625 -62.4375 C 17.765625 -63.019531 17.578125 -63.710938 17.578125 -64.515625 C 17.578125 -65.546875 17.914062 -66.351562 18.59375 -66.9375 C 19.28125 -67.519531 20.332031 -67.8125 21.75 -67.8125 L 52.890625 -67.8125 C 54.316406 -67.8125 55.367188 -67.519531 56.046875 -66.9375 C 56.722656 -66.351562 57.0625 -65.546875 57.0625 -64.515625 C 57.0625 -63.648438 56.859375 -62.929688 56.453125 -62.359375 C 56.046875 -61.796875 55.472656 -61.335938 54.734375 -60.984375 C 53.929688 -60.597656 53.457031 -60.070312 53.3125 -59.40625 C 53.164062 -58.75 53.316406 -57.707031 53.765625 -56.28125 L 67.09375 -14.09375 C 67.769531 -11.925781 68.378906 -10.332031 68.921875 -9.3125 C 69.472656 -8.300781 70.203125 -7.570312 71.109375 -7.125 C 72.234375 -6.539062 72.988281 -5.972656 73.375 -5.421875 C 73.769531 -4.878906 73.96875 -4.171875 73.96875 -3.296875 C 73.96875 -2.296875 73.628906 -1.492188 72.953125 -0.890625 C 72.273438 -0.296875 71.222656 0 69.796875 0 L 44.21875 0 C 42.769531 0 41.710938 -0.296875 41.046875 -0.890625 C 40.390625 -1.492188 40.0625 -2.296875 40.0625 -3.296875 C 40.0625 -4.097656 40.269531 -4.75 40.6875 -5.25 C 41.101562 -5.75 41.734375 -6.195312 42.578125 -6.59375 L 44.125 -7.3125 C 44.96875 -7.695312 45.320312 -8.21875 45.1875 -8.875 C 45.0625 -9.539062 44.773438 -10.617188 44.328125 -12.109375 L 41.46875 -21.65625 L 20 -21.65625 L 18.21875 -15.84375 C 17.695312 -14.195312 17.425781 -12.863281 17.40625 -11.84375 C 17.394531 -10.820312 17.695312 -9.960938 18.3125 -9.265625 C 18.925781 -8.578125 19.910156 -7.878906 21.265625 -7.171875 L 22.625 -6.484375 C 23.363281 -6.097656 23.957031 -5.671875 24.40625 -5.203125 C 24.863281 -4.734375 25.09375 -4.097656 25.09375 -3.296875 Z M 22.234375 -28.875 L 39.28125 -28.875 L 30.859375 -56.71875 Z M 22.234375 -28.875 "/></g></g></g><g fill="#000000" fill-opacity="1"><g transform="translate(535.648862, 89.799263)"><g><path d="M 71.6875 -42.390625 C 71.6875 -38.148438 70.554688 -34.460938 68.296875 -31.328125 C 66.035156 -28.203125 62.78125 -25.78125 58.53125 -24.0625 C 54.289062 -22.351562 49.210938 -21.5 43.296875 -21.5 C 39.742188 -21.5 36.515625 -21.875 33.609375 -22.625 L 33.609375 -10.75 C 33.609375 -9.945312 33.796875 -9.257812 34.171875 -8.6875 C 34.546875 -8.125 35.1875 -7.75 36.09375 -7.5625 L 39 -6.921875 C 40.03125 -6.703125 40.769531 -6.304688 41.21875 -5.734375 C 41.675781 -5.171875 41.90625 -4.359375 41.90625 -3.296875 C 41.90625 -2.296875 41.5625 -1.492188 40.875 -0.890625 C 40.195312 -0.296875 39.148438 0 37.734375 0 L 8.484375 0 C 7.054688 0 6.003906 -0.296875 5.328125 -0.890625 C 4.648438 -1.492188 4.3125 -2.296875 4.3125 -3.296875 C 4.3125 -4.128906 4.503906 -4.851562 4.890625 -5.46875 C 5.273438 -6.082031 5.921875 -6.550781 6.828125 -6.875 L 8.671875 -7.5625 C 10.316406 -8.207031 11.140625 -9.269531 11.140625 -10.75 L 11.140625 -57.0625 C 11.140625 -58.582031 10.316406 -59.644531 8.671875 -60.25 L 6.828125 -60.9375 C 5.921875 -61.289062 5.273438 -61.765625 4.890625 -62.359375 C 4.503906 -62.960938 4.3125 -63.679688 4.3125 -64.515625 C 4.3125 -65.546875 4.648438 -66.351562 5.328125 -66.9375 C 6.003906 -67.519531 7.054688 -67.8125 8.484375 -67.8125 L 35.453125 -67.8125 C 41.265625 -67.8125 46.414062 -67.1875 50.90625 -65.9375 C 55.394531 -64.695312 59.1875 -62.9375 62.28125 -60.65625 C 65.382812 -58.382812 67.726562 -55.695312 69.3125 -52.59375 C 70.894531 -49.5 71.6875 -46.097656 71.6875 -42.390625 Z M 33.609375 -60.9375 L 33.609375 -28.765625 C 34.128906 -28.703125 34.660156 -28.644531 35.203125 -28.59375 C 35.753906 -28.550781 36.335938 -28.53125 36.953125 -28.53125 C 39.347656 -28.53125 41.53125 -29.050781 43.5 -30.09375 C 45.46875 -31.144531 47.039062 -32.742188 48.21875 -34.890625 C 49.394531 -37.046875 49.984375 -39.738281 49.984375 -42.96875 C 49.984375 -46.675781 49.320312 -49.867188 48 -52.546875 C 46.675781 -55.234375 44.875 -57.300781 42.59375 -58.75 C 40.320312 -60.207031 37.71875 -60.9375 34.78125 -60.9375 Z M 33.609375 -60.9375 "/></g></g></g><g fill="#000000" fill-opacity="1"><g transform="translate(609.957733, 89.799263)"><g><path d="M 33.609375 -10.75 C 33.609375 -9.269531 34.4375 -8.207031 36.09375 -7.5625 L 37.921875 -6.875 C 38.828125 -6.550781 39.472656 -6.082031 39.859375 -5.46875 C 40.253906 -4.851562 40.453125 -4.128906 40.453125 -3.296875 C 40.453125 -2.296875 40.109375 -1.492188 39.421875 -0.890625 C 38.742188 -0.296875 37.695312 0 36.28125 0 L 8.484375 0 C 7.054688 0 6.003906 -0.296875 5.328125 -0.890625 C 4.648438 -1.492188 4.3125 -2.296875 4.3125 -3.296875 C 4.3125 -4.128906 4.503906 -4.851562 4.890625 -5.46875 C 5.273438 -6.082031 5.921875 -6.550781 6.828125 -6.875 L 8.671875 -7.5625 C 10.316406 -8.207031 11.140625 -9.269531 11.140625 -10.75 L 11.140625 -57.0625 C 11.140625 -58.582031 10.316406 -59.644531 8.671875 -60.25 L 6.828125 -60.9375 C 5.921875 -61.289062 5.273438 -61.765625 4.890625 -62.359375 C 4.503906 -62.960938 4.3125 -63.679688 4.3125 -64.515625 C 4.3125 -65.546875 4.648438 -66.351562 5.328125 -66.9375 C 6.003906 -67.519531 7.054688 -67.8125 8.484375 -67.8125 L 36.28125 -67.8125 C 37.695312 -67.8125 38.742188 -67.519531 39.421875 -66.9375 C 40.109375 -66.351562 40.453125 -65.546875 40.453125 -64.515625 C 40.453125 -63.679688 40.253906 -62.960938 39.859375 -62.359375 C 39.472656 -61.765625 38.828125 -61.289062 37.921875 -60.9375 L 36.09375 -60.25 C 34.4375 -59.644531 33.609375 -58.582031 33.609375 -57.0625 L 33.609375 -35.703125 L 53.8125 -35.703125 L 53.8125 -57.0625 C 53.8125 -58.582031 52.988281 -59.644531 51.34375 -60.25 L 49.5 -60.9375 C 48.59375 -61.289062 47.945312 -61.765625 47.5625 -62.359375 C 47.175781 -62.960938 46.984375 -63.679688 46.984375 -64.515625 C 46.984375 -65.546875 47.320312 -66.351562 48 -66.9375 C 48.675781 -67.519531 49.726562 -67.8125 51.15625 -67.8125 L 78.953125 -67.8125 C 80.367188 -67.8125 81.414062 -67.519531 82.09375 -66.9375 C 82.78125 -66.351562 83.125 -65.546875 83.125 -64.515625 C 83.125 -63.679688 82.925781 -62.960938 82.53125 -62.359375 C 82.144531 -61.765625 81.5 -61.289062 80.59375 -60.9375 L 78.765625 -60.25 C 77.117188 -59.644531 76.296875 -58.582031 76.296875 -57.0625 L 76.296875 -10.75 C 76.296875 -9.269531 77.117188 -8.207031 78.765625 -7.5625 L 80.59375 -6.875 C 81.5 -6.550781 82.144531 -6.082031 82.53125 -5.46875 C 82.925781 -4.851562 83.125 -4.128906 83.125 -3.296875 C 83.125 -2.296875 82.78125 -1.492188 82.09375 -0.890625 C 81.414062 -0.296875 80.367188 0 78.953125 0 L 51.15625 0 C 49.726562 0 48.675781 -0.296875 48 -0.890625 C 47.320312 -1.492188 46.984375 -2.296875 46.984375 -3.296875 C 46.984375 -4.128906 47.175781 -4.851562 47.5625 -5.46875 C 47.945312 -6.082031 48.59375 -6.550781 49.5 -6.875 L 51.34375 -7.5625 C 52.988281 -8.207031 53.8125 -9.269531 53.8125 -10.75 L 53.8125 -28.484375 L 33.609375 -28.484375 Z M 33.609375 -10.75 "/></g></g></g><g fill="#000000" fill-opacity="1"><g transform="translate(697.394209, 89.799263)"><g><path d="M 4.3125 -64.515625 C 4.3125 -65.546875 4.648438 -66.351562 5.328125 -66.9375 C 6.003906 -67.519531 7.054688 -67.8125 8.484375 -67.8125 L 45 -67.8125 C 46.488281 -67.8125 47.71875 -67.957031 48.6875 -68.25 C 49.65625 -68.539062 50.566406 -68.832031 51.421875 -69.125 C 52.273438 -69.414062 53.265625 -69.5625 54.390625 -69.5625 C 55.847656 -69.5625 56.945312 -69.148438 57.6875 -68.328125 C 58.425781 -67.503906 59.070312 -66.171875 59.625 -64.328125 L 63.75 -50.71875 C 64.425781 -48.394531 63.742188 -46.859375 61.703125 -46.109375 C 60.546875 -45.691406 59.503906 -45.691406 58.578125 -46.109375 C 57.660156 -46.535156 56.910156 -47.296875 56.328125 -48.390625 C 54.941406 -50.941406 53.632812 -53.03125 52.40625 -54.65625 C 51.175781 -56.289062 49.941406 -57.5625 48.703125 -58.46875 C 47.460938 -59.375 46.15625 -60.003906 44.78125 -60.359375 C 43.40625 -60.710938 41.863281 -60.890625 40.15625 -60.890625 L 33.609375 -60.890625 L 33.609375 -37.828125 L 37.828125 -37.828125 C 39.179688 -37.828125 40.253906 -37.988281 41.046875 -38.3125 C 41.835938 -38.632812 42.484375 -39.210938 42.984375 -40.046875 C 43.484375 -40.890625 43.960938 -42.070312 44.421875 -43.59375 C 44.742188 -44.6875 45.210938 -45.472656 45.828125 -45.953125 C 46.441406 -46.441406 47.148438 -46.6875 47.953125 -46.6875 C 48.796875 -46.6875 49.488281 -46.4375 50.03125 -45.9375 C 50.582031 -45.4375 50.972656 -44.738281 51.203125 -43.84375 L 54.984375 -28.578125 C 55.523438 -26.285156 54.894531 -24.832031 53.09375 -24.21875 C 52.1875 -23.894531 51.335938 -23.84375 50.546875 -24.0625 C 49.753906 -24.289062 49.082031 -24.8125 48.53125 -25.625 C 47.5 -27.113281 46.554688 -28.242188 45.703125 -29.015625 C 44.847656 -29.785156 43.894531 -30.316406 42.84375 -30.609375 C 41.789062 -30.898438 40.425781 -31.046875 38.75 -31.046875 L 33.609375 -31.046875 L 33.609375 -12.84375 C 33.609375 -10.863281 34.101562 -9.378906 35.09375 -8.390625 C 36.082031 -7.410156 37.492188 -6.921875 39.328125 -6.921875 L 41.609375 -6.921875 C 43.421875 -6.921875 45.066406 -7.125 46.546875 -7.53125 C 48.035156 -7.9375 49.429688 -8.65625 50.734375 -9.6875 C 52.046875 -10.71875 53.347656 -12.175781 54.640625 -14.0625 C 55.929688 -15.957031 57.269531 -18.390625 58.65625 -21.359375 C 59.144531 -22.390625 59.800781 -23.09375 60.625 -23.46875 C 61.445312 -23.84375 62.375 -23.929688 63.40625 -23.734375 C 64.53125 -23.503906 65.351562 -22.976562 65.875 -22.15625 C 66.394531 -21.332031 66.476562 -20.304688 66.125 -19.078125 L 61.609375 -3.484375 C 61.097656 -1.710938 60.460938 -0.398438 59.703125 0.453125 C 58.941406 1.316406 57.769531 1.75 56.1875 1.75 C 55.1875 1.75 54.273438 1.601562 53.453125 1.3125 C 52.628906 1.019531 51.722656 0.726562 50.734375 0.4375 C 49.753906 0.144531 48.519531 0 47.03125 0 L 8.484375 0 C 7.054688 0 6.003906 -0.296875 5.328125 -0.890625 C 4.648438 -1.492188 4.3125 -2.296875 4.3125 -3.296875 C 4.3125 -4.128906 4.503906 -4.851562 4.890625 -5.46875 C 5.273438 -6.082031 5.921875 -6.550781 6.828125 -6.875 L 8.671875 -7.5625 C 10.316406 -8.207031 11.140625 -9.269531 11.140625 -10.75 L 11.140625 -57.0625 C 11.140625 -58.582031 10.316406 -59.644531 8.671875 -60.25 L 6.828125 -60.9375 C 5.921875 -61.289062 5.273438 -61.765625 4.890625 -62.359375 C 4.503906 -62.960938 4.3125 -63.679688 4.3125 -64.515625 Z M 4.3125 -64.515625 "/></g></g></g><g fill="#000000" fill-opacity="1"><g transform="translate(764.436931, 89.799263)"><g><path d="M 73.4375 -44.03125 C 73.4375 -40.539062 72.46875 -37.382812 70.53125 -34.5625 C 68.59375 -31.738281 65.847656 -29.550781 62.296875 -28 L 72.609375 -10.3125 C 73.191406 -9.3125 73.71875 -8.5625 74.1875 -8.0625 C 74.65625 -7.5625 75.257812 -7.132812 76 -6.78125 C 76.800781 -6.394531 77.390625 -5.925781 77.765625 -5.375 C 78.140625 -4.820312 78.328125 -4.128906 78.328125 -3.296875 C 78.328125 -2.296875 77.988281 -1.492188 77.3125 -0.890625 C 76.632812 -0.296875 75.582031 0 74.15625 0 L 50.140625 0 C 47.484375 0 46.15625 -1.097656 46.15625 -3.296875 C 46.15625 -4.296875 46.625 -5.132812 47.5625 -5.8125 L 48.140625 -6.25 C 48.722656 -6.695312 49.054688 -7.128906 49.140625 -7.546875 C 49.222656 -7.972656 49.050781 -8.585938 48.625 -9.390625 L 41.46875 -23.640625 C 38.457031 -23.734375 35.835938 -24.117188 33.609375 -24.796875 L 33.609375 -10.75 C 33.609375 -9.945312 33.757812 -9.300781 34.0625 -8.8125 C 34.375 -8.332031 34.890625 -7.914062 35.609375 -7.5625 L 36.953125 -6.875 C 37.953125 -6.394531 38.625 -5.882812 38.96875 -5.34375 C 39.3125 -4.8125 39.484375 -4.128906 39.484375 -3.296875 C 39.484375 -2.296875 39.140625 -1.492188 38.453125 -0.890625 C 37.773438 -0.296875 36.726562 0 35.3125 0 L 8.484375 0 C 7.054688 0 6.003906 -0.296875 5.328125 -0.890625 C 4.648438 -1.492188 4.3125 -2.296875 4.3125 -3.296875 C 4.3125 -4.128906 4.503906 -4.851562 4.890625 -5.46875 C 5.273438 -6.082031 5.921875 -6.550781 6.828125 -6.875 L 8.671875 -7.5625 C 10.316406 -8.207031 11.140625 -9.269531 11.140625 -10.75 L 11.140625 -57.0625 C 11.140625 -58.582031 10.316406 -59.644531 8.671875 -60.25 L 6.828125 -60.9375 C 5.921875 -61.289062 5.273438 -61.765625 4.890625 -62.359375 C 4.503906 -62.960938 4.3125 -63.679688 4.3125 -64.515625 C 4.3125 -65.546875 4.648438 -66.351562 5.328125 -66.9375 C 6.003906 -67.519531 7.054688 -67.8125 8.484375 -67.8125 L 36.421875 -67.8125 C 44.398438 -67.8125 51.140625 -66.8125 56.640625 -64.8125 C 62.148438 -62.8125 66.328125 -60.023438 69.171875 -56.453125 C 72.015625 -52.890625 73.4375 -48.75 73.4375 -44.03125 Z M 33.609375 -61.515625 L 33.609375 -30.859375 C 34.972656 -30.566406 36.539062 -30.421875 38.3125 -30.421875 C 42.15625 -30.421875 45.140625 -31.484375 47.265625 -33.609375 C 49.398438 -35.742188 50.46875 -39.054688 50.46875 -43.546875 C 50.46875 -46.160156 50.097656 -48.554688 49.359375 -50.734375 C 48.617188 -52.921875 47.578125 -54.820312 46.234375 -56.4375 C 44.890625 -58.050781 43.304688 -59.300781 41.484375 -60.1875 C 39.660156 -61.070312 37.664062 -61.515625 35.5 -61.515625 Z M 33.609375 -61.515625 "/></g></g></g></g></g><g fill="#000000" fill-opacity="1"><g transform="translate(228.826044, 297.345591)"><g><path d="M 13.546875 0 L 3.4375 0 L 3.4375 -31.234375 L 13.859375 -31.234375 C 16.921875 -31.234375 19.550781 -30.609375 21.75 -29.359375 C 23.945312 -28.117188 25.628906 -26.335938 26.796875 -24.015625 C 27.972656 -21.691406 28.5625 -18.910156 28.5625 -15.671875 C 28.5625 -12.410156 27.96875 -9.609375 26.78125 -7.265625 C 25.601562 -4.929688 23.894531 -3.132812 21.65625 -1.875 C 19.414062 -0.625 16.710938 0 13.546875 0 Z M 8.140625 -4.125 L 13.28125 -4.125 C 15.664062 -4.125 17.644531 -4.570312 19.21875 -5.46875 C 20.789062 -6.363281 21.96875 -7.664062 22.75 -9.375 C 23.539062 -11.09375 23.9375 -13.191406 23.9375 -15.671875 C 23.9375 -18.117188 23.546875 -20.195312 22.765625 -21.90625 C 21.984375 -23.613281 20.820312 -24.910156 19.28125 -25.796875 C 17.75 -26.679688 15.847656 -27.125 13.578125 -27.125 L 8.140625 -27.125 Z M 8.140625 -4.125 "/></g></g></g><g fill="#000000" fill-opacity="1"><g transform="translate(259.131734, 297.345591)"><g><path d="M 8.140625 -31.234375 L 8.140625 0 L 3.4375 0 L 3.4375 -31.234375 Z M 8.140625 -31.234375 "/></g></g></g><g fill="#000000" fill-opacity="1"><g transform="translate(270.021085, 297.345591)"><g><path d="M 20.46875 -23.03125 C 20.300781 -24.476562 19.628906 -25.597656 18.453125 -26.390625 C 17.273438 -27.191406 15.789062 -27.59375 14 -27.59375 C 12.71875 -27.59375 11.609375 -27.390625 10.671875 -26.984375 C 9.742188 -26.585938 9.019531 -26.039062 8.5 -25.34375 C 7.988281 -24.644531 7.734375 -23.851562 7.734375 -22.96875 C 7.734375 -22.226562 7.90625 -21.585938 8.25 -21.046875 C 8.601562 -20.503906 9.066406 -20.050781 9.640625 -19.6875 C 10.222656 -19.332031 10.84375 -19.035156 11.5 -18.796875 C 12.164062 -18.554688 12.800781 -18.363281 13.40625 -18.21875 L 16.453125 -17.421875 C 17.453125 -17.171875 18.472656 -16.835938 19.515625 -16.421875 C 20.566406 -16.003906 21.539062 -15.457031 22.4375 -14.78125 C 23.332031 -14.101562 24.054688 -13.257812 24.609375 -12.25 C 25.160156 -11.238281 25.4375 -10.035156 25.4375 -8.640625 C 25.4375 -6.867188 24.984375 -5.296875 24.078125 -3.921875 C 23.171875 -2.546875 21.851562 -1.460938 20.125 -0.671875 C 18.40625 0.117188 16.320312 0.515625 13.875 0.515625 C 11.539062 0.515625 9.519531 0.144531 7.8125 -0.59375 C 6.101562 -1.332031 4.765625 -2.382812 3.796875 -3.75 C 2.828125 -5.125 2.296875 -6.753906 2.203125 -8.640625 L 6.921875 -8.640625 C 7.015625 -7.503906 7.382812 -6.5625 8.03125 -5.8125 C 8.675781 -5.070312 9.503906 -4.519531 10.515625 -4.15625 C 11.523438 -3.789062 12.632812 -3.609375 13.84375 -3.609375 C 15.175781 -3.609375 16.363281 -3.816406 17.40625 -4.234375 C 18.445312 -4.660156 19.269531 -5.253906 19.875 -6.015625 C 20.476562 -6.773438 20.78125 -7.660156 20.78125 -8.671875 C 20.78125 -9.597656 20.515625 -10.359375 19.984375 -10.953125 C 19.460938 -11.546875 18.753906 -12.035156 17.859375 -12.421875 C 16.972656 -12.804688 15.972656 -13.144531 14.859375 -13.4375 L 11.171875 -14.4375 C 8.660156 -15.125 6.675781 -16.128906 5.21875 -17.453125 C 3.757812 -18.773438 3.03125 -20.523438 3.03125 -22.703125 C 3.03125 -24.492188 3.519531 -26.0625 4.5 -27.40625 C 5.476562 -28.75 6.800781 -29.796875 8.46875 -30.546875 C 10.132812 -31.296875 12.015625 -31.671875 14.109375 -31.671875 C 16.222656 -31.671875 18.085938 -31.296875 19.703125 -30.546875 C 21.328125 -29.804688 22.609375 -28.785156 23.546875 -27.484375 C 24.484375 -26.191406 24.972656 -24.707031 25.015625 -23.03125 Z M 20.46875 -23.03125 "/></g></g></g><g fill="#000000" fill-opacity="1"><g transform="translate(296.971244, 297.345591)"><g><path d="M 29.375 -21.078125 L 24.625 -21.078125 C 24.4375 -22.097656 24.09375 -22.992188 23.59375 -23.765625 C 23.09375 -24.535156 22.484375 -25.191406 21.765625 -25.734375 C 21.046875 -26.273438 20.238281 -26.679688 19.34375 -26.953125 C 18.457031 -27.222656 17.515625 -27.359375 16.515625 -27.359375 C 14.710938 -27.359375 13.101562 -26.90625 11.6875 -26 C 10.269531 -25.101562 9.148438 -23.78125 8.328125 -22.03125 C 7.515625 -20.28125 7.109375 -18.144531 7.109375 -15.625 C 7.109375 -13.082031 7.515625 -10.9375 8.328125 -9.1875 C 9.148438 -7.4375 10.269531 -6.113281 11.6875 -5.21875 C 13.113281 -4.320312 14.71875 -3.875 16.5 -3.875 C 17.488281 -3.875 18.425781 -4.007812 19.3125 -4.28125 C 20.207031 -4.550781 21.015625 -4.945312 21.734375 -5.46875 C 22.453125 -6 23.0625 -6.648438 23.5625 -7.421875 C 24.070312 -8.191406 24.425781 -9.070312 24.625 -10.0625 L 29.375 -10.046875 C 29.125 -8.515625 28.632812 -7.101562 27.90625 -5.8125 C 27.175781 -4.53125 26.242188 -3.421875 25.109375 -2.484375 C 23.972656 -1.554688 22.675781 -0.835938 21.21875 -0.328125 C 19.769531 0.171875 18.1875 0.421875 16.46875 0.421875 C 13.769531 0.421875 11.363281 -0.21875 9.25 -1.5 C 7.132812 -2.789062 5.46875 -4.632812 4.25 -7.03125 C 3.03125 -9.425781 2.421875 -12.289062 2.421875 -15.625 C 2.421875 -18.957031 3.03125 -21.820312 4.25 -24.21875 C 5.476562 -26.613281 7.148438 -28.453125 9.265625 -29.734375 C 11.378906 -31.023438 13.78125 -31.671875 16.46875 -31.671875 C 18.125 -31.671875 19.671875 -31.429688 21.109375 -30.953125 C 22.554688 -30.484375 23.851562 -29.789062 25 -28.875 C 26.144531 -27.96875 27.09375 -26.859375 27.84375 -25.546875 C 28.601562 -24.242188 29.113281 -22.753906 29.375 -21.078125 Z M 29.375 -21.078125 "/></g></g></g><g fill="#000000" fill-opacity="1"><g transform="translate(327.871774, 297.345591)"><g><path d="M 30.5625 -15.625 C 30.5625 -12.28125 29.953125 -9.410156 28.734375 -7.015625 C 27.515625 -4.628906 25.84375 -2.789062 23.71875 -1.5 C 21.601562 -0.21875 19.195312 0.421875 16.5 0.421875 C 13.800781 0.421875 11.390625 -0.21875 9.265625 -1.5 C 7.148438 -2.789062 5.476562 -4.632812 4.25 -7.03125 C 3.03125 -9.425781 2.421875 -12.289062 2.421875 -15.625 C 2.421875 -18.957031 3.03125 -21.820312 4.25 -24.21875 C 5.476562 -26.613281 7.148438 -28.453125 9.265625 -29.734375 C 11.390625 -31.023438 13.800781 -31.671875 16.5 -31.671875 C 19.195312 -31.671875 21.601562 -31.023438 23.71875 -29.734375 C 25.84375 -28.453125 27.515625 -26.613281 28.734375 -24.21875 C 29.953125 -21.820312 30.5625 -18.957031 30.5625 -15.625 Z M 25.90625 -15.625 C 25.90625 -18.164062 25.492188 -20.304688 24.671875 -22.046875 C 23.847656 -23.796875 22.726562 -25.117188 21.3125 -26.015625 C 19.894531 -26.910156 18.289062 -27.359375 16.5 -27.359375 C 14.695312 -27.359375 13.085938 -26.910156 11.671875 -26.015625 C 10.265625 -25.117188 9.148438 -23.796875 8.328125 -22.046875 C 7.515625 -20.304688 7.109375 -18.164062 7.109375 -15.625 C 7.109375 -13.082031 7.515625 -10.9375 8.328125 -9.1875 C 9.148438 -7.445312 10.265625 -6.125 11.671875 -5.21875 C 13.085938 -4.320312 14.695312 -3.875 16.5 -3.875 C 18.289062 -3.875 19.894531 -4.320312 21.3125 -5.21875 C 22.726562 -6.125 23.847656 -7.445312 24.671875 -9.1875 C 25.492188 -10.9375 25.90625 -13.082031 25.90625 -15.625 Z M 25.90625 -15.625 "/></g></g></g><g fill="#000000" fill-opacity="1"><g transform="translate(358.619744, 297.345591)"><g><path d="M 6.15625 -31.234375 L 14.859375 -5.796875 L 15.203125 -5.796875 L 23.90625 -31.234375 L 29 -31.234375 L 17.75 0 L 12.3125 0 L 1.0625 -31.234375 Z M 6.15625 -31.234375 "/></g></g></g><g fill="#000000" fill-opacity="1"><g transform="translate(387.99504, 297.345591)"><g><path d="M 3.4375 0 L 3.4375 -31.234375 L 23.015625 -31.234375 L 23.015625 -27.1875 L 8.140625 -27.1875 L 8.140625 -17.65625 L 22 -17.65625 L 22 -13.625 L 8.140625 -13.625 L 8.140625 -4.0625 L 23.203125 -4.0625 L 23.203125 0 Z M 3.4375 0 "/></g></g></g><g fill="#000000" fill-opacity="1"><g transform="translate(413.206416, 297.345591)"><g><path d="M 3.4375 0 L 3.4375 -31.234375 L 14.5625 -31.234375 C 16.988281 -31.234375 19 -30.816406 20.59375 -29.984375 C 22.195312 -29.148438 23.394531 -28 24.1875 -26.53125 C 24.976562 -25.0625 25.375 -23.367188 25.375 -21.453125 C 25.375 -19.535156 24.972656 -17.851562 24.171875 -16.40625 C 23.378906 -14.957031 22.179688 -13.832031 20.578125 -13.03125 C 18.984375 -12.226562 16.972656 -11.828125 14.546875 -11.828125 L 6.109375 -11.828125 L 6.109375 -15.875 L 14.125 -15.875 C 15.644531 -15.875 16.882812 -16.09375 17.84375 -16.53125 C 18.8125 -16.96875 19.519531 -17.601562 19.96875 -18.4375 C 20.414062 -19.269531 20.640625 -20.273438 20.640625 -21.453125 C 20.640625 -22.628906 20.410156 -23.648438 19.953125 -24.515625 C 19.503906 -25.378906 18.796875 -26.039062 17.828125 -26.5 C 16.867188 -26.96875 15.613281 -27.203125 14.0625 -27.203125 L 8.140625 -27.203125 L 8.140625 0 Z M 18.859375 -14.09375 L 26.578125 0 L 21.203125 0 L 13.640625 -14.09375 Z M 18.859375 -14.09375 "/></g></g></g><g fill="#000000" fill-opacity="1"><g transform="translate(440.217599, 297.345591)"><g/></g></g><g fill="#000000" fill-opacity="1"><g transform="translate(450.908662, 297.345591)"><g><path d="M 1.015625 -31.234375 L 6.375 -31.234375 L 14.53125 -17.03125 L 14.875 -17.03125 L 23.03125 -31.234375 L 28.390625 -31.234375 L 17.046875 -12.265625 L 17.046875 0 L 12.359375 0 L 12.359375 -12.265625 Z M 1.015625 -31.234375 "/></g></g></g><g fill="#000000" fill-opacity="1"><g transform="translate(478.011313, 297.345591)"><g><path d="M 30.5625 -15.625 C 30.5625 -12.28125 29.953125 -9.410156 28.734375 -7.015625 C 27.515625 -4.628906 25.84375 -2.789062 23.71875 -1.5 C 21.601562 -0.21875 19.195312 0.421875 16.5 0.421875 C 13.800781 0.421875 11.390625 -0.21875 9.265625 -1.5 C 7.148438 -2.789062 5.476562 -4.632812 4.25 -7.03125 C 3.03125 -9.425781 2.421875 -12.289062 2.421875 -15.625 C 2.421875 -18.957031 3.03125 -21.820312 4.25 -24.21875 C 5.476562 -26.613281 7.148438 -28.453125 9.265625 -29.734375 C 11.390625 -31.023438 13.800781 -31.671875 16.5 -31.671875 C 19.195312 -31.671875 21.601562 -31.023438 23.71875 -29.734375 C 25.84375 -28.453125 27.515625 -26.613281 28.734375 -24.21875 C 29.953125 -21.820312 30.5625 -18.957031 30.5625 -15.625 Z M 25.90625 -15.625 C 25.90625 -18.164062 25.492188 -20.304688 24.671875 -22.046875 C 23.847656 -23.796875 22.726562 -25.117188 21.3125 -26.015625 C 19.894531 -26.910156 18.289062 -27.359375 16.5 -27.359375 C 14.695312 -27.359375 13.085938 -26.910156 11.671875 -26.015625 C 10.265625 -25.117188 9.148438 -23.796875 8.328125 -22.046875 C 7.515625 -20.304688 7.109375 -18.164062 7.109375 -15.625 C 7.109375 -13.082031 7.515625 -10.9375 8.328125 -9.1875 C 9.148438 -7.445312 10.265625 -6.125 11.671875 -5.21875 C 13.085938 -4.320312 14.695312 -3.875 16.5 -3.875 C 18.289062 -3.875 19.894531 -4.320312 21.3125 -5.21875 C 22.726562 -6.125 23.847656 -7.445312 24.671875 -9.1875 C 25.492188 -10.9375 25.90625 -13.082031 25.90625 -15.625 Z M 25.90625 -15.625 "/></g></g></g><g fill="#000000" fill-opacity="1"><g transform="translate(510.315063, 297.345591)"><g><path d="M 23.515625 -31.234375 L 28.25 -31.234375 L 28.25 -10.6875 C 28.25 -8.5 27.734375 -6.5625 26.703125 -4.875 C 25.679688 -3.195312 24.238281 -1.878906 22.375 -0.921875 C 20.507812 0.0351562 18.328125 0.515625 15.828125 0.515625 C 13.335938 0.515625 11.160156 0.0351562 9.296875 -0.921875 C 7.441406 -1.878906 6 -3.195312 4.96875 -4.875 C 3.945312 -6.5625 3.4375 -8.5 3.4375 -10.6875 L 3.4375 -31.234375 L 8.140625 -31.234375 L 8.140625 -11.078125 C 8.140625 -9.660156 8.453125 -8.398438 9.078125 -7.296875 C 9.703125 -6.203125 10.585938 -5.34375 11.734375 -4.71875 C 12.890625 -4.09375 14.253906 -3.78125 15.828125 -3.78125 C 17.421875 -3.78125 18.789062 -4.09375 19.9375 -4.71875 C 21.09375 -5.34375 21.976562 -6.203125 22.59375 -7.296875 C 23.207031 -8.398438 23.515625 -9.660156 23.515625 -11.078125 Z M 23.515625 -31.234375 "/></g></g></g><g fill="#000000" fill-opacity="1"><g transform="translate(541.307107, 297.345591)"><g><path d="M 3.4375 0 L 3.4375 -31.234375 L 14.5625 -31.234375 C 16.988281 -31.234375 19 -30.816406 20.59375 -29.984375 C 22.195312 -29.148438 23.394531 -28 24.1875 -26.53125 C 24.976562 -25.0625 25.375 -23.367188 25.375 -21.453125 C 25.375 -19.535156 24.972656 -17.851562 24.171875 -16.40625 C 23.378906 -14.957031 22.179688 -13.832031 20.578125 -13.03125 C 18.984375 -12.226562 16.972656 -11.828125 14.546875 -11.828125 L 6.109375 -11.828125 L 6.109375 -15.875 L 14.125 -15.875 C 15.644531 -15.875 16.882812 -16.09375 17.84375 -16.53125 C 18.8125 -16.96875 19.519531 -17.601562 19.96875 -18.4375 C 20.414062 -19.269531 20.640625 -20.273438 20.640625 -21.453125 C 20.640625 -22.628906 20.410156 -23.648438 19.953125 -24.515625 C 19.503906 -25.378906 18.796875 -26.039062 17.828125 -26.5 C 16.867188 -26.96875 15.613281 -27.203125 14.0625 -27.203125 L 8.140625 -27.203125 L 8.140625 0 Z M 18.859375 -14.09375 L 26.578125 0 L 21.203125 0 L 13.640625 -14.09375 Z M 18.859375 -14.09375 "/></g></g></g><g fill="#000000" fill-opacity="1"><g transform="translate(568.318278, 297.345591)"><g/></g></g><g fill="#000000" fill-opacity="1"><g transform="translate(579.009364, 297.345591)"><g><path d="M 3.4375 0 L 3.4375 -31.234375 L 14.875 -31.234375 C 17.09375 -31.234375 18.925781 -30.867188 20.375 -30.140625 C 21.832031 -29.421875 22.921875 -28.441406 23.640625 -27.203125 C 24.359375 -25.960938 24.71875 -24.570312 24.71875 -23.03125 C 24.71875 -21.726562 24.476562 -20.628906 24 -19.734375 C 23.53125 -18.847656 22.894531 -18.140625 22.09375 -17.609375 C 21.289062 -17.078125 20.414062 -16.6875 19.46875 -16.4375 L 19.46875 -16.140625 C 20.5 -16.085938 21.507812 -15.753906 22.5 -15.140625 C 23.5 -14.523438 24.320312 -13.648438 24.96875 -12.515625 C 25.625 -11.390625 25.953125 -10.019531 25.953125 -8.40625 C 25.953125 -6.8125 25.578125 -5.378906 24.828125 -4.109375 C 24.078125 -2.847656 22.921875 -1.847656 21.359375 -1.109375 C 19.804688 -0.367188 17.820312 0 15.40625 0 Z M 8.140625 -4.046875 L 14.953125 -4.046875 C 17.203125 -4.046875 18.816406 -4.484375 19.796875 -5.359375 C 20.773438 -6.234375 21.265625 -7.328125 21.265625 -8.640625 C 21.265625 -9.617188 21.015625 -10.519531 20.515625 -11.34375 C 20.015625 -12.164062 19.300781 -12.820312 18.375 -13.3125 C 17.457031 -13.800781 16.367188 -14.046875 15.109375 -14.046875 L 8.140625 -14.046875 Z M 8.140625 -17.71875 L 14.453125 -17.71875 C 15.515625 -17.71875 16.46875 -17.921875 17.3125 -18.328125 C 18.164062 -18.734375 18.84375 -19.304688 19.34375 -20.046875 C 19.851562 -20.785156 20.109375 -21.660156 20.109375 -22.671875 C 20.109375 -23.960938 19.65625 -25.046875 18.75 -25.921875 C 17.84375 -26.796875 16.453125 -27.234375 14.578125 -27.234375 L 8.140625 -27.234375 Z M 8.140625 -17.71875 "/></g></g></g><g fill="#000000" fill-opacity="1"><g transform="translate(606.417066, 297.345591)"><g><path d="M 3.4375 0 L 3.4375 -31.234375 L 23.015625 -31.234375 L 23.015625 -27.1875 L 8.140625 -27.1875 L 8.140625 -17.65625 L 22 -17.65625 L 22 -13.625 L 8.140625 -13.625 L 8.140625 -4.0625 L 23.203125 -4.0625 L 23.203125 0 Z M 3.4375 0 "/></g></g></g><g fill="#000000" fill-opacity="1"><g transform="translate(631.628453, 297.345591)"><g><path d="M 20.46875 -23.03125 C 20.300781 -24.476562 19.628906 -25.597656 18.453125 -26.390625 C 17.273438 -27.191406 15.789062 -27.59375 14 -27.59375 C 12.71875 -27.59375 11.609375 -27.390625 10.671875 -26.984375 C 9.742188 -26.585938 9.019531 -26.039062 8.5 -25.34375 C 7.988281 -24.644531 7.734375 -23.851562 7.734375 -22.96875 C 7.734375 -22.226562 7.90625 -21.585938 8.25 -21.046875 C 8.601562 -20.503906 9.066406 -20.050781 9.640625 -19.6875 C 10.222656 -19.332031 10.84375 -19.035156 11.5 -18.796875 C 12.164062 -18.554688 12.800781 -18.363281 13.40625 -18.21875 L 16.453125 -17.421875 C 17.453125 -17.171875 18.472656 -16.835938 19.515625 -16.421875 C 20.566406 -16.003906 21.539062 -15.457031 22.4375 -14.78125 C 23.332031 -14.101562 24.054688 -13.257812 24.609375 -12.25 C 25.160156 -11.238281 25.4375 -10.035156 25.4375 -8.640625 C 25.4375 -6.867188 24.984375 -5.296875 24.078125 -3.921875 C 23.171875 -2.546875 21.851562 -1.460938 20.125 -0.671875 C 18.40625 0.117188 16.320312 0.515625 13.875 0.515625 C 11.539062 0.515625 9.519531 0.144531 7.8125 -0.59375 C 6.101562 -1.332031 4.765625 -2.382812 3.796875 -3.75 C 2.828125 -5.125 2.296875 -6.753906 2.203125 -8.640625 L 6.921875 -8.640625 C 7.015625 -7.503906 7.382812 -6.5625 8.03125 -5.8125 C 8.675781 -5.070312 9.503906 -4.519531 10.515625 -4.15625 C 11.523438 -3.789062 12.632812 -3.609375 13.84375 -3.609375 C 15.175781 -3.609375 16.363281 -3.816406 17.40625 -4.234375 C 18.445312 -4.660156 19.269531 -5.253906 19.875 -6.015625 C 20.476562 -6.773438 20.78125 -7.660156 20.78125 -8.671875 C 20.78125 -9.597656 20.515625 -10.359375 19.984375 -10.953125 C 19.460938 -11.546875 18.753906 -12.035156 17.859375 -12.421875 C 16.972656 -12.804688 15.972656 -13.144531 14.859375 -13.4375 L 11.171875 -14.4375 C 8.660156 -15.125 6.675781 -16.128906 5.21875 -17.453125 C 3.757812 -18.773438 3.03125 -20.523438 3.03125 -22.703125 C 3.03125 -24.492188 3.519531 -26.0625 4.5 -27.40625 C 5.476562 -28.75 6.800781 -29.796875 8.46875 -30.546875 C 10.132812 -31.296875 12.015625 -31.671875 14.109375 -31.671875 C 16.222656 -31.671875 18.085938 -31.296875 19.703125 -30.546875 C 21.328125 -29.804688 22.609375 -28.785156 23.546875 -27.484375 C 24.484375 -26.191406 24.972656 -24.707031 25.015625 -23.03125 Z M 20.46875 -23.03125 "/></g></g></g><g fill="#000000" fill-opacity="1"><g transform="translate(658.578601, 297.345591)"><g><path d="M 1.890625 -27.1875 L 1.890625 -31.234375 L 26.0625 -31.234375 L 26.0625 -27.1875 L 16.328125 -27.1875 L 16.328125 0 L 11.625 0 L 11.625 -27.1875 Z M 1.890625 -27.1875 "/></g></g></g><g fill="#000000" fill-opacity="1"><g transform="translate(685.849073, 297.345591)"><g/></g></g><g fill="#000000" fill-opacity="1"><g transform="translate(696.540136, 297.345591)"><g><path d="M 3.4375 0 L 3.4375 -31.234375 L 14.5625 -31.234375 C 17 -31.234375 19.015625 -30.789062 20.609375 -29.90625 C 22.203125 -29.019531 23.394531 -27.8125 24.1875 -26.28125 C 24.976562 -24.757812 25.375 -23.039062 25.375 -21.125 C 25.375 -19.207031 24.972656 -17.484375 24.171875 -15.953125 C 23.378906 -14.421875 22.179688 -13.207031 20.578125 -12.3125 C 18.984375 -11.425781 16.972656 -10.984375 14.546875 -10.984375 L 6.890625 -10.984375 L 6.890625 -14.984375 L 14.125 -14.984375 C 15.65625 -14.984375 16.898438 -15.25 17.859375 -15.78125 C 18.816406 -16.3125 19.519531 -17.039062 19.96875 -17.96875 C 20.414062 -18.894531 20.640625 -19.945312 20.640625 -21.125 C 20.640625 -22.300781 20.414062 -23.347656 19.96875 -24.265625 C 19.519531 -25.179688 18.8125 -25.898438 17.84375 -26.421875 C 16.882812 -26.941406 15.625 -27.203125 14.0625 -27.203125 L 8.140625 -27.203125 L 8.140625 0 Z M 3.4375 0 "/></g></g></g><g fill="#000000" fill-opacity="1"><g transform="translate(723.30728, 297.345591)"><g><path d="M 3.4375 0 L 3.4375 -31.234375 L 8.140625 -31.234375 L 8.140625 -17.65625 L 23.71875 -17.65625 L 23.71875 -31.234375 L 28.453125 -31.234375 L 28.453125 0 L 23.71875 0 L 23.71875 -13.625 L 8.140625 -13.625 L 8.140625 0 Z M 3.4375 0 "/></g></g></g><g fill="#000000" fill-opacity="1"><g transform="translate(754.497601, 297.345591)"><g><path d="M 30.5625 -15.625 C 30.5625 -12.28125 29.953125 -9.410156 28.734375 -7.015625 C 27.515625 -4.628906 25.84375 -2.789062 23.71875 -1.5 C 21.601562 -0.21875 19.195312 0.421875 16.5 0.421875 C 13.800781 0.421875 11.390625 -0.21875 9.265625 -1.5 C 7.148438 -2.789062 5.476562 -4.632812 4.25 -7.03125 C 3.03125 -9.425781 2.421875 -12.289062 2.421875 -15.625 C 2.421875 -18.957031 3.03125 -21.820312 4.25 -24.21875 C 5.476562 -26.613281 7.148438 -28.453125 9.265625 -29.734375 C 11.390625 -31.023438 13.800781 -31.671875 16.5 -31.671875 C 19.195312 -31.671875 21.601562 -31.023438 23.71875 -29.734375 C 25.84375 -28.453125 27.515625 -26.613281 28.734375 -24.21875 C 29.953125 -21.820312 30.5625 -18.957031 30.5625 -15.625 Z M 25.90625 -15.625 C 25.90625 -18.164062 25.492188 -20.304688 24.671875 -22.046875 C 23.847656 -23.796875 22.726562 -25.117188 21.3125 -26.015625 C 19.894531 -26.910156 18.289062 -27.359375 16.5 -27.359375 C 14.695312 -27.359375 13.085938 -26.910156 11.671875 -26.015625 C 10.265625 -25.117188 9.148438 -23.796875 8.328125 -22.046875 C 7.515625 -20.304688 7.109375 -18.164062 7.109375 -15.625 C 7.109375 -13.082031 7.515625 -10.9375 8.328125 -9.1875 C 9.148438 -7.445312 10.265625 -6.125 11.671875 -5.21875 C 13.085938 -4.320312 14.695312 -3.875 16.5 -3.875 C 18.289062 -3.875 19.894531 -4.320312 21.3125 -5.21875 C 22.726562 -6.125 23.847656 -7.445312 24.671875 -9.1875 C 25.492188 -10.9375 25.90625 -13.082031 25.90625 -15.625 Z M 25.90625 -15.625 "/></g></g></g><g fill="#000000" fill-opacity="1"><g transform="translate(785.489644, 297.345591)"><g><path d="M 1.890625 -27.1875 L 1.890625 -31.234375 L 26.0625 -31.234375 L 26.0625 -27.1875 L 16.328125 -27.1875 L 16.328125 0 L 11.625 0 L 11.625 -27.1875 Z M 1.890625 -27.1875 "/></g></g></g><g fill="#000000" fill-opacity="1"><g transform="translate(811.448363, 297.345591)"><g><path d="M 30.5625 -15.625 C 30.5625 -12.28125 29.953125 -9.410156 28.734375 -7.015625 C 27.515625 -4.628906 25.84375 -2.789062 23.71875 -1.5 C 21.601562 -0.21875 19.195312 0.421875 16.5 0.421875 C 13.800781 0.421875 11.390625 -0.21875 9.265625 -1.5 C 7.148438 -2.789062 5.476562 -4.632812 4.25 -7.03125 C 3.03125 -9.425781 2.421875 -12.289062 2.421875 -15.625 C 2.421875 -18.957031 3.03125 -21.820312 4.25 -24.21875 C 5.476562 -26.613281 7.148438 -28.453125 9.265625 -29.734375 C 11.390625 -31.023438 13.800781 -31.671875 16.5 -31.671875 C 19.195312 -31.671875 21.601562 -31.023438 23.71875 -29.734375 C 25.84375 -28.453125 27.515625 -26.613281 28.734375 -24.21875 C 29.953125 -21.820312 30.5625 -18.957031 30.5625 -15.625 Z M 25.90625 -15.625 C 25.90625 -18.164062 25.492188 -20.304688 24.671875 -22.046875 C 23.847656 -23.796875 22.726562 -25.117188 21.3125 -26.015625 C 19.894531 -26.910156 18.289062 -27.359375 16.5 -27.359375 C 14.695312 -27.359375 13.085938 -26.910156 11.671875 -26.015625 C 10.265625 -25.117188 9.148438 -23.796875 8.328125 -22.046875 C 7.515625 -20.304688 7.109375 -18.164062 7.109375 -15.625 C 7.109375 -13.082031 7.515625 -10.9375 8.328125 -9.1875 C 9.148438 -7.445312 10.265625 -6.125 11.671875 -5.21875 C 13.085938 -4.320312 14.695312 -3.875 16.5 -3.875 C 18.289062 -3.875 19.894531 -4.320312 21.3125 -5.21875 C 22.726562 -6.125 23.847656 -7.445312 24.671875 -9.1875 C 25.492188 -10.9375 25.90625 -13.082031 25.90625 -15.625 Z M 25.90625 -15.625 "/></g></g></g><g fill="#000000" fill-opacity="1"><g transform="translate(843.752113, 297.345591)"><g><path d="M 20.46875 -23.03125 C 20.300781 -24.476562 19.628906 -25.597656 18.453125 -26.390625 C 17.273438 -27.191406 15.789062 -27.59375 14 -27.59375 C 12.71875 -27.59375 11.609375 -27.390625 10.671875 -26.984375 C 9.742188 -26.585938 9.019531 -26.039062 8.5 -25.34375 C 7.988281 -24.644531 7.734375 -23.851562 7.734375 -22.96875 C 7.734375 -22.226562 7.90625 -21.585938 8.25 -21.046875 C 8.601562 -20.503906 9.066406 -20.050781 9.640625 -19.6875 C 10.222656 -19.332031 10.84375 -19.035156 11.5 -18.796875 C 12.164062 -18.554688 12.800781 -18.363281 13.40625 -18.21875 L 16.453125 -17.421875 C 17.453125 -17.171875 18.472656 -16.835938 19.515625 -16.421875 C 20.566406 -16.003906 21.539062 -15.457031 22.4375 -14.78125 C 23.332031 -14.101562 24.054688 -13.257812 24.609375 -12.25 C 25.160156 -11.238281 25.4375 -10.035156 25.4375 -8.640625 C 25.4375 -6.867188 24.984375 -5.296875 24.078125 -3.921875 C 23.171875 -2.546875 21.851562 -1.460938 20.125 -0.671875 C 18.40625 0.117188 16.320312 0.515625 13.875 0.515625 C 11.539062 0.515625 9.519531 0.144531 7.8125 -0.59375 C 6.101562 -1.332031 4.765625 -2.382812 3.796875 -3.75 C 2.828125 -5.125 2.296875 -6.753906 2.203125 -8.640625 L 6.921875 -8.640625 C 7.015625 -7.503906 7.382812 -6.5625 8.03125 -5.8125 C 8.675781 -5.070312 9.503906 -4.519531 10.515625 -4.15625 C 11.523438 -3.789062 12.632812 -3.609375 13.84375 -3.609375 C 15.175781 -3.609375 16.363281 -3.816406 17.40625 -4.234375 C 18.445312 -4.660156 19.269531 -5.253906 19.875 -6.015625 C 20.476562 -6.773438 20.78125 -7.660156 20.78125 -8.671875 C 20.78125 -9.597656 20.515625 -10.359375 19.984375 -10.953125 C 19.460938 -11.546875 18.753906 -12.035156 17.859375 -12.421875 C 16.972656 -12.804688 15.972656 -13.144531 14.859375 -13.4375 L 11.171875 -14.4375 C 8.660156 -15.125 6.675781 -16.128906 5.21875 -17.453125 C 3.757812 -18.773438 3.03125 -20.523438 3.03125 -22.703125 C 3.03125 -24.492188 3.519531 -26.0625 4.5 -27.40625 C 5.476562 -28.75 6.800781 -29.796875 8.46875 -30.546875 C 10.132812 -31.296875 12.015625 -31.671875 14.109375 -31.671875 C 16.222656 -31.671875 18.085938 -31.296875 19.703125 -30.546875 C 21.328125 -29.804688 22.609375 -28.785156 23.546875 -27.484375 C 24.484375 -26.191406 24.972656 -24.707031 25.015625 -23.03125 Z M 20.46875 -23.03125 "/></g></g></g></svg>