<svg xmlns="http://www.w3.org/2000/svg" xmlns:xlink="http://www.w3.org/1999/xlink" width="1080" zoomAndPan="magnify" viewBox="0 0 810 809.999993" height="1080" preserveAspectRatio="xMidYMid meet" version="1.0"><defs><g/><radialGradient gradientTransform="matrix(1, 0, 0, 1, 0.0000035, 0.00002)" gradientUnits="userSpaceOnUse" r="1145.513203" cx="0" id="9748e84d4e" cy="0" fx="0" fy="0"><stop stop-opacity="1" stop-color="rgb(94.386292%, 43.945312%, 2.606201%)" offset="0"/><stop stop-opacity="1" stop-color="rgb(94.140625%, 43.217468%, 3.118896%)" offset="0.00390625"/><stop stop-opacity="1" stop-color="rgb(93.896484%, 42.489624%, 3.631592%)" offset="0.0078125"/><stop stop-opacity="1" stop-color="rgb(93.650818%, 41.76178%, 4.145813%)" offset="0.0117188"/><stop stop-opacity="1" stop-color="rgb(93.405151%, 41.035461%, 4.658508%)" offset="0.015625"/><stop stop-opacity="1" stop-color="rgb(93.161011%, 40.307617%, 5.172729%)" offset="0.0195312"/><stop stop-opacity="1" stop-color="rgb(92.915344%, 39.579773%, 5.685425%)" offset="0.0234375"/><stop stop-opacity="1" stop-color="rgb(92.669678%, 38.851929%, 6.19812%)" offset="0.0273438"/><stop stop-opacity="1" stop-color="rgb(92.425537%, 38.124084%, 6.712341%)" offset="0.03125"/><stop stop-opacity="1" stop-color="rgb(92.179871%, 37.397766%, 7.225037%)" offset="0.0351562"/><stop stop-opacity="1" stop-color="rgb(91.93573%, 36.669922%, 7.737732%)" offset="0.0390625"/><stop stop-opacity="1" stop-color="rgb(91.690063%, 35.942078%, 8.251953%)" offset="0.0429688"/><stop stop-opacity="1" stop-color="rgb(91.444397%, 35.214233%, 8.764648%)" offset="0.046875"/><stop stop-opacity="1" stop-color="rgb(91.200256%, 34.486389%, 9.27887%)" offset="0.0507812"/><stop stop-opacity="1" stop-color="rgb(90.95459%, 33.760071%, 9.791565%)" offset="0.0546875"/><stop stop-opacity="1" stop-color="rgb(90.708923%, 33.032227%, 10.30426%)" offset="0.0585938"/><stop stop-opacity="1" stop-color="rgb(90.464783%, 32.304382%, 10.818481%)" offset="0.0625"/><stop stop-opacity="1" stop-color="rgb(90.219116%, 31.576538%, 11.331177%)" offset="0.0664062"/><stop stop-opacity="1" stop-color="rgb(89.97345%, 30.848694%, 11.845398%)" offset="0.0703125"/><stop stop-opacity="1" stop-color="rgb(89.729309%, 30.122375%, 12.358093%)" offset="0.0742188"/><stop stop-opacity="1" stop-color="rgb(89.483643%, 29.394531%, 12.870789%)" offset="0.078125"/><stop stop-opacity="1" stop-color="rgb(89.237976%, 28.666687%, 13.38501%)" offset="0.0820312"/><stop stop-opacity="1" stop-color="rgb(88.993835%, 27.938843%, 13.897705%)" offset="0.0859375"/><stop stop-opacity="1" stop-color="rgb(88.748169%, 27.210999%, 14.4104%)" offset="0.0898438"/><stop stop-opacity="1" stop-color="rgb(88.504028%, 26.48468%, 14.924622%)" offset="0.09375"/><stop stop-opacity="1" stop-color="rgb(88.258362%, 25.756836%, 15.437317%)" offset="0.0976562"/><stop stop-opacity="1" stop-color="rgb(88.012695%, 25.028992%, 15.951538%)" offset="0.101562"/><stop stop-opacity="1" stop-color="rgb(87.768555%, 24.301147%, 16.464233%)" offset="0.105469"/><stop stop-opacity="1" stop-color="rgb(87.522888%, 23.573303%, 16.976929%)" offset="0.109375"/><stop stop-opacity="1" stop-color="rgb(87.277222%, 22.846985%, 17.49115%)" offset="0.113281"/><stop stop-opacity="1" stop-color="rgb(87.033081%, 22.119141%, 18.003845%)" offset="0.117188"/><stop stop-opacity="1" stop-color="rgb(86.787415%, 21.391296%, 18.518066%)" offset="0.121094"/><stop stop-opacity="1" stop-color="rgb(86.541748%, 20.663452%, 19.030762%)" offset="0.125"/><stop stop-opacity="1" stop-color="rgb(86.297607%, 19.935608%, 19.543457%)" offset="0.128906"/><stop stop-opacity="1" stop-color="rgb(86.051941%, 19.20929%, 20.057678%)" offset="0.132812"/><stop stop-opacity="1" stop-color="rgb(85.8078%, 18.481445%, 20.570374%)" offset="0.136719"/><stop stop-opacity="1" stop-color="rgb(85.562134%, 17.753601%, 21.083069%)" offset="0.140625"/><stop stop-opacity="1" stop-color="rgb(85.316467%, 17.025757%, 21.59729%)" offset="0.144531"/><stop stop-opacity="1" stop-color="rgb(85.072327%, 16.297913%, 22.109985%)" offset="0.148438"/><stop stop-opacity="1" stop-color="rgb(84.82666%, 15.571594%, 22.624207%)" offset="0.152344"/><stop stop-opacity="1" stop-color="rgb(84.580994%, 14.84375%, 23.136902%)" offset="0.15625"/><stop stop-opacity="1" stop-color="rgb(84.336853%, 14.115906%, 23.649597%)" offset="0.160156"/><stop stop-opacity="1" stop-color="rgb(84.091187%, 13.388062%, 24.163818%)" offset="0.164062"/><stop stop-opacity="1" stop-color="rgb(83.84552%, 12.660217%, 24.676514%)" offset="0.167969"/><stop stop-opacity="1" stop-color="rgb(83.601379%, 11.933899%, 25.189209%)" offset="0.171875"/><stop stop-opacity="1" stop-color="rgb(83.355713%, 11.206055%, 25.70343%)" offset="0.175781"/><stop stop-opacity="1" stop-color="rgb(83.110046%, 10.47821%, 26.216125%)" offset="0.179688"/><stop stop-opacity="1" stop-color="rgb(82.865906%, 9.750366%, 26.730347%)" offset="0.183594"/><stop stop-opacity="1" stop-color="rgb(82.620239%, 9.022522%, 27.243042%)" offset="0.1875"/><stop stop-opacity="1" stop-color="rgb(82.376099%, 8.296204%, 27.755737%)" offset="0.191406"/><stop stop-opacity="1" stop-color="rgb(82.130432%, 7.568359%, 28.269958%)" offset="0.195312"/><stop stop-opacity="1" stop-color="rgb(82.124329%, 7.646179%, 28.387451%)" offset="0.199219"/><stop stop-opacity="1" stop-color="rgb(82.417297%, 8.731079%, 28.010559%)" offset="0.203125"/><stop stop-opacity="1" stop-color="rgb(82.76825%, 10.017395%, 27.536011%)" offset="0.207031"/><stop stop-opacity="1" stop-color="rgb(83.120728%, 11.305237%, 27.061462%)" offset="0.210938"/><stop stop-opacity="1" stop-color="rgb(83.473206%, 12.591553%, 26.586914%)" offset="0.214844"/><stop stop-opacity="1" stop-color="rgb(83.825684%, 13.877869%, 26.11084%)" offset="0.21875"/><stop stop-opacity="1" stop-color="rgb(84.178162%, 15.16571%, 25.636292%)" offset="0.222656"/><stop stop-opacity="1" stop-color="rgb(84.53064%, 16.452026%, 25.161743%)" offset="0.226562"/><stop stop-opacity="1" stop-color="rgb(84.883118%, 17.738342%, 24.685669%)" offset="0.230469"/><stop stop-opacity="1" stop-color="rgb(85.235596%, 19.024658%, 24.211121%)" offset="0.234375"/><stop stop-opacity="1" stop-color="rgb(85.588074%, 20.3125%, 23.736572%)" offset="0.238281"/><stop stop-opacity="1" stop-color="rgb(85.940552%, 21.598816%, 23.260498%)" offset="0.242188"/><stop stop-opacity="1" stop-color="rgb(86.29303%, 22.885132%, 22.78595%)" offset="0.246094"/><stop stop-opacity="1" stop-color="rgb(86.643982%, 24.171448%, 22.311401%)" offset="0.25"/><stop stop-opacity="1" stop-color="rgb(86.99646%, 25.45929%, 21.836853%)" offset="0.253906"/><stop stop-opacity="1" stop-color="rgb(87.348938%, 26.745605%, 21.360779%)" offset="0.257812"/><stop stop-opacity="1" stop-color="rgb(87.701416%, 28.031921%, 20.88623%)" offset="0.261719"/><stop stop-opacity="1" stop-color="rgb(88.053894%, 29.318237%, 20.411682%)" offset="0.265625"/><stop stop-opacity="1" stop-color="rgb(88.406372%, 30.606079%, 19.935608%)" offset="0.269531"/><stop stop-opacity="1" stop-color="rgb(88.75885%, 31.892395%, 19.46106%)" offset="0.273438"/><stop stop-opacity="1" stop-color="rgb(89.111328%, 33.178711%, 18.986511%)" offset="0.277344"/><stop stop-opacity="1" stop-color="rgb(89.463806%, 34.465027%, 18.511963%)" offset="0.28125"/><stop stop-opacity="1" stop-color="rgb(89.816284%, 35.752869%, 18.035889%)" offset="0.285156"/><stop stop-opacity="1" stop-color="rgb(90.168762%, 37.039185%, 17.56134%)" offset="0.289062"/><stop stop-opacity="1" stop-color="rgb(90.52124%, 38.3255%, 17.086792%)" offset="0.292969"/><stop stop-opacity="1" stop-color="rgb(90.872192%, 39.613342%, 16.610718%)" offset="0.296875"/><stop stop-opacity="1" stop-color="rgb(91.22467%, 40.899658%, 16.136169%)" offset="0.300781"/><stop stop-opacity="1" stop-color="rgb(91.577148%, 42.185974%, 15.661621%)" offset="0.304688"/><stop stop-opacity="1" stop-color="rgb(91.929626%, 43.47229%, 15.185547%)" offset="0.308594"/><stop stop-opacity="1" stop-color="rgb(92.282104%, 44.760132%, 14.710999%)" offset="0.3125"/><stop stop-opacity="1" stop-color="rgb(92.634583%, 46.046448%, 14.23645%)" offset="0.316406"/><stop stop-opacity="1" stop-color="rgb(92.987061%, 47.332764%, 13.761902%)" offset="0.320312"/><stop stop-opacity="1" stop-color="rgb(93.339539%, 48.61908%, 13.285828%)" offset="0.324219"/><stop stop-opacity="1" stop-color="rgb(93.692017%, 49.906921%, 12.811279%)" offset="0.328125"/><stop stop-opacity="1" stop-color="rgb(94.044495%, 51.193237%, 12.336731%)" offset="0.332031"/><stop stop-opacity="1" stop-color="rgb(94.396973%, 52.479553%, 11.860657%)" offset="0.335938"/><stop stop-opacity="1" stop-color="rgb(94.747925%, 53.765869%, 11.386108%)" offset="0.339844"/><stop stop-opacity="1" stop-color="rgb(95.100403%, 55.053711%, 10.91156%)" offset="0.34375"/><stop stop-opacity="1" stop-color="rgb(95.452881%, 56.340027%, 10.435486%)" offset="0.347656"/><stop stop-opacity="1" stop-color="rgb(95.805359%, 57.626343%, 9.960938%)" offset="0.351562"/><stop stop-opacity="1" stop-color="rgb(96.157837%, 58.914185%, 9.486389%)" offset="0.355469"/><stop stop-opacity="1" stop-color="rgb(96.510315%, 60.2005%, 9.011841%)" offset="0.359375"/><stop stop-opacity="1" stop-color="rgb(96.862793%, 61.486816%, 8.535767%)" offset="0.363281"/><stop stop-opacity="1" stop-color="rgb(97.215271%, 62.773132%, 8.061218%)" offset="0.367188"/><stop stop-opacity="1" stop-color="rgb(97.567749%, 64.060974%, 7.58667%)" offset="0.371094"/><stop stop-opacity="1" stop-color="rgb(97.920227%, 65.34729%, 7.110596%)" offset="0.375"/><stop stop-opacity="1" stop-color="rgb(98.272705%, 66.633606%, 6.636047%)" offset="0.378906"/><stop stop-opacity="1" stop-color="rgb(98.623657%, 67.919922%, 6.161499%)" offset="0.382812"/><stop stop-opacity="1" stop-color="rgb(98.976135%, 69.207764%, 5.686951%)" offset="0.386719"/><stop stop-opacity="1" stop-color="rgb(99.328613%, 70.49408%, 5.210876%)" offset="0.390625"/><stop stop-opacity="1" stop-color="rgb(99.681091%, 71.780396%, 4.736328%)" offset="0.394531"/><stop stop-opacity="1" stop-color="rgb(99.749756%, 72.729492%, 4.597473%)" offset="0.398438"/><stop stop-opacity="1" stop-color="rgb(99.342346%, 73.11554%, 5.01709%)" offset="0.402344"/><stop stop-opacity="1" stop-color="rgb(98.744202%, 73.277283%, 5.659485%)" offset="0.40625"/><stop stop-opacity="1" stop-color="rgb(98.146057%, 73.4375%, 6.303406%)" offset="0.410156"/><stop stop-opacity="1" stop-color="rgb(97.549438%, 73.599243%, 6.947327%)" offset="0.414062"/><stop stop-opacity="1" stop-color="rgb(96.951294%, 73.75946%, 7.589722%)" offset="0.417969"/><stop stop-opacity="1" stop-color="rgb(96.354675%, 73.921204%, 8.233643%)" offset="0.421875"/><stop stop-opacity="1" stop-color="rgb(95.756531%, 74.081421%, 8.877563%)" offset="0.425781"/><stop stop-opacity="1" stop-color="rgb(95.159912%, 74.243164%, 9.519958%)" offset="0.429688"/><stop stop-opacity="1" stop-color="rgb(94.561768%, 74.403381%, 10.163879%)" offset="0.433594"/><stop stop-opacity="1" stop-color="rgb(93.965149%, 74.563599%, 10.806274%)" offset="0.4375"/><stop stop-opacity="1" stop-color="rgb(93.367004%, 74.725342%, 11.450195%)" offset="0.441406"/><stop stop-opacity="1" stop-color="rgb(92.76886%, 74.885559%, 12.094116%)" offset="0.445312"/><stop stop-opacity="1" stop-color="rgb(92.172241%, 75.047302%, 12.736511%)" offset="0.449219"/><stop stop-opacity="1" stop-color="rgb(91.574097%, 75.20752%, 13.380432%)" offset="0.453125"/><stop stop-opacity="1" stop-color="rgb(90.977478%, 75.369263%, 14.024353%)" offset="0.457031"/><stop stop-opacity="1" stop-color="rgb(90.379333%, 75.52948%, 14.666748%)" offset="0.460938"/><stop stop-opacity="1" stop-color="rgb(89.782715%, 75.691223%, 15.310669%)" offset="0.464844"/><stop stop-opacity="1" stop-color="rgb(89.18457%, 75.85144%, 15.953064%)" offset="0.46875"/><stop stop-opacity="1" stop-color="rgb(88.587952%, 76.013184%, 16.596985%)" offset="0.472656"/><stop stop-opacity="1" stop-color="rgb(87.989807%, 76.173401%, 17.240906%)" offset="0.476562"/><stop stop-opacity="1" stop-color="rgb(87.393188%, 76.335144%, 17.883301%)" offset="0.480469"/><stop stop-opacity="1" stop-color="rgb(86.795044%, 76.495361%, 18.527222%)" offset="0.484375"/><stop stop-opacity="1" stop-color="rgb(86.196899%, 76.657104%, 19.171143%)" offset="0.488281"/><stop stop-opacity="1" stop-color="rgb(85.600281%, 76.817322%, 19.813538%)" offset="0.492188"/><stop stop-opacity="1" stop-color="rgb(85.002136%, 76.979065%, 20.457458%)" offset="0.496094"/><stop stop-opacity="1" stop-color="rgb(84.405518%, 77.139282%, 21.101379%)" offset="0.5"/><stop stop-opacity="1" stop-color="rgb(83.807373%, 77.2995%, 21.743774%)" offset="0.503906"/><stop stop-opacity="1" stop-color="rgb(83.210754%, 77.461243%, 22.387695%)" offset="0.507812"/><stop stop-opacity="1" stop-color="rgb(82.61261%, 77.62146%, 23.03009%)" offset="0.511719"/><stop stop-opacity="1" stop-color="rgb(82.015991%, 77.783203%, 23.674011%)" offset="0.515625"/><stop stop-opacity="1" stop-color="rgb(81.417847%, 77.94342%, 24.317932%)" offset="0.519531"/><stop stop-opacity="1" stop-color="rgb(80.819702%, 78.105164%, 24.960327%)" offset="0.523438"/><stop stop-opacity="1" stop-color="rgb(80.223083%, 78.265381%, 25.604248%)" offset="0.527344"/><stop stop-opacity="1" stop-color="rgb(79.624939%, 78.427124%, 26.248169%)" offset="0.53125"/><stop stop-opacity="1" stop-color="rgb(79.02832%, 78.587341%, 26.890564%)" offset="0.535156"/><stop stop-opacity="1" stop-color="rgb(78.430176%, 78.749084%, 27.534485%)" offset="0.539062"/><stop stop-opacity="1" stop-color="rgb(77.833557%, 78.909302%, 28.17688%)" offset="0.542969"/><stop stop-opacity="1" stop-color="rgb(77.235413%, 79.071045%, 28.820801%)" offset="0.546875"/><stop stop-opacity="1" stop-color="rgb(76.638794%, 79.231262%, 29.464722%)" offset="0.550781"/><stop stop-opacity="1" stop-color="rgb(76.040649%, 79.393005%, 30.107117%)" offset="0.554688"/><stop stop-opacity="1" stop-color="rgb(75.442505%, 79.553223%, 30.751038%)" offset="0.558594"/><stop stop-opacity="1" stop-color="rgb(74.845886%, 79.714966%, 31.394958%)" offset="0.5625"/><stop stop-opacity="1" stop-color="rgb(74.247742%, 79.875183%, 32.037354%)" offset="0.566406"/><stop stop-opacity="1" stop-color="rgb(73.651123%, 80.036926%, 32.681274%)" offset="0.570312"/><stop stop-opacity="1" stop-color="rgb(73.052979%, 80.197144%, 33.325195%)" offset="0.574219"/><stop stop-opacity="1" stop-color="rgb(72.45636%, 80.357361%, 33.96759%)" offset="0.578125"/><stop stop-opacity="1" stop-color="rgb(71.858215%, 80.519104%, 34.611511%)" offset="0.582031"/><stop stop-opacity="1" stop-color="rgb(71.261597%, 80.679321%, 35.253906%)" offset="0.585938"/><stop stop-opacity="1" stop-color="rgb(70.663452%, 80.841064%, 35.897827%)" offset="0.589844"/><stop stop-opacity="1" stop-color="rgb(70.066833%, 81.001282%, 36.541748%)" offset="0.59375"/><stop stop-opacity="1" stop-color="rgb(69.50531%, 81.022644%, 37.277222%)" offset="0.597656"/><stop stop-opacity="1" stop-color="rgb(69.036865%, 80.696106%, 38.241577%)" offset="0.601562"/><stop stop-opacity="1" stop-color="rgb(68.623352%, 80.160522%, 39.344788%)" offset="0.605469"/><stop stop-opacity="1" stop-color="rgb(68.209839%, 79.623413%, 40.447998%)" offset="0.609375"/><stop stop-opacity="1" stop-color="rgb(67.796326%, 79.08783%, 41.551208%)" offset="0.613281"/><stop stop-opacity="1" stop-color="rgb(67.382812%, 78.552246%, 42.654419%)" offset="0.617188"/><stop stop-opacity="1" stop-color="rgb(66.969299%, 78.015137%, 43.757629%)" offset="0.621094"/><stop stop-opacity="1" stop-color="rgb(66.555786%, 77.479553%, 44.859314%)" offset="0.625"/><stop stop-opacity="1" stop-color="rgb(66.142273%, 76.94397%, 45.962524%)" offset="0.628906"/><stop stop-opacity="1" stop-color="rgb(65.72876%, 76.40686%, 47.065735%)" offset="0.632812"/><stop stop-opacity="1" stop-color="rgb(65.315247%, 75.871277%, 48.168945%)" offset="0.636719"/><stop stop-opacity="1" stop-color="rgb(64.901733%, 75.334167%, 49.272156%)" offset="0.640625"/><stop stop-opacity="1" stop-color="rgb(64.48822%, 74.798584%, 50.375366%)" offset="0.644531"/><stop stop-opacity="1" stop-color="rgb(64.074707%, 74.263%, 51.478577%)" offset="0.648438"/><stop stop-opacity="1" stop-color="rgb(63.661194%, 73.725891%, 52.581787%)" offset="0.652344"/><stop stop-opacity="1" stop-color="rgb(63.247681%, 73.190308%, 53.684998%)" offset="0.65625"/><stop stop-opacity="1" stop-color="rgb(62.834167%, 72.654724%, 54.788208%)" offset="0.660156"/><stop stop-opacity="1" stop-color="rgb(62.420654%, 72.117615%, 55.891418%)" offset="0.664062"/><stop stop-opacity="1" stop-color="rgb(62.007141%, 71.582031%, 56.994629%)" offset="0.667969"/><stop stop-opacity="1" stop-color="rgb(61.593628%, 71.046448%, 58.097839%)" offset="0.671875"/><stop stop-opacity="1" stop-color="rgb(61.180115%, 70.509338%, 59.20105%)" offset="0.675781"/><stop stop-opacity="1" stop-color="rgb(60.766602%, 69.973755%, 60.30426%)" offset="0.679688"/><stop stop-opacity="1" stop-color="rgb(60.353088%, 69.438171%, 61.407471%)" offset="0.683594"/><stop stop-opacity="1" stop-color="rgb(59.939575%, 68.901062%, 62.510681%)" offset="0.6875"/><stop stop-opacity="1" stop-color="rgb(59.526062%, 68.365479%, 63.613892%)" offset="0.691406"/><stop stop-opacity="1" stop-color="rgb(59.112549%, 67.828369%, 64.715576%)" offset="0.695312"/><stop stop-opacity="1" stop-color="rgb(58.699036%, 67.292786%, 65.818787%)" offset="0.699219"/><stop stop-opacity="1" stop-color="rgb(58.285522%, 66.757202%, 66.921997%)" offset="0.703125"/><stop stop-opacity="1" stop-color="rgb(57.872009%, 66.220093%, 68.025208%)" offset="0.707031"/><stop stop-opacity="1" stop-color="rgb(57.458496%, 65.684509%, 69.128418%)" offset="0.710938"/><stop stop-opacity="1" stop-color="rgb(57.044983%, 65.148926%, 70.231628%)" offset="0.714844"/><stop stop-opacity="1" stop-color="rgb(56.63147%, 64.611816%, 71.334839%)" offset="0.71875"/><stop stop-opacity="1" stop-color="rgb(56.217957%, 64.076233%, 72.438049%)" offset="0.722656"/><stop stop-opacity="1" stop-color="rgb(55.804443%, 63.540649%, 73.54126%)" offset="0.726562"/><stop stop-opacity="1" stop-color="rgb(55.39093%, 63.00354%, 74.64447%)" offset="0.730469"/><stop stop-opacity="1" stop-color="rgb(54.977417%, 62.467957%, 75.747681%)" offset="0.734375"/><stop stop-opacity="1" stop-color="rgb(54.56543%, 61.930847%, 76.850891%)" offset="0.738281"/><stop stop-opacity="1" stop-color="rgb(54.151917%, 61.395264%, 77.954102%)" offset="0.742188"/><stop stop-opacity="1" stop-color="rgb(53.738403%, 60.85968%, 79.057312%)" offset="0.746094"/><stop stop-opacity="1" stop-color="rgb(53.32489%, 60.322571%, 80.160522%)" offset="0.75"/><stop stop-opacity="1" stop-color="rgb(52.911377%, 59.786987%, 81.263733%)" offset="0.753906"/><stop stop-opacity="1" stop-color="rgb(52.497864%, 59.251404%, 82.366943%)" offset="0.757812"/><stop stop-opacity="1" stop-color="rgb(52.084351%, 58.714294%, 83.470154%)" offset="0.761719"/><stop stop-opacity="1" stop-color="rgb(51.670837%, 58.178711%, 84.571838%)" offset="0.765625"/><stop stop-opacity="1" stop-color="rgb(51.257324%, 57.643127%, 85.675049%)" offset="0.769531"/><stop stop-opacity="1" stop-color="rgb(50.843811%, 57.106018%, 86.778259%)" offset="0.773438"/><stop stop-opacity="1" stop-color="rgb(50.430298%, 56.570435%, 87.88147%)" offset="0.777344"/><stop stop-opacity="1" stop-color="rgb(50.016785%, 56.034851%, 88.98468%)" offset="0.78125"/><stop stop-opacity="1" stop-color="rgb(49.603271%, 55.497742%, 90.087891%)" offset="0.785156"/><stop stop-opacity="1" stop-color="rgb(49.189758%, 54.962158%, 91.191101%)" offset="0.789062"/><stop stop-opacity="1" stop-color="rgb(48.776245%, 54.425049%, 92.294312%)" offset="0.792969"/><stop stop-opacity="1" stop-color="rgb(48.420715%, 54.01001%, 93.29071%)" offset="0.796875"/><stop stop-opacity="1" stop-color="rgb(48.350525%, 54.194641%, 93.75%)" offset="0.800781"/><stop stop-opacity="1" stop-color="rgb(48.512268%, 54.86145%, 93.780518%)" offset="0.804688"/><stop stop-opacity="1" stop-color="rgb(48.672485%, 55.528259%, 93.811035%)" offset="0.808594"/><stop stop-opacity="1" stop-color="rgb(48.834229%, 56.193542%, 93.841553%)" offset="0.8125"/><stop stop-opacity="1" stop-color="rgb(48.994446%, 56.860352%, 93.87207%)" offset="0.816406"/><stop stop-opacity="1" stop-color="rgb(49.154663%, 57.525635%, 93.902588%)" offset="0.820312"/><stop stop-opacity="1" stop-color="rgb(49.316406%, 58.192444%, 93.933105%)" offset="0.824219"/><stop stop-opacity="1" stop-color="rgb(49.476624%, 58.859253%, 93.963623%)" offset="0.828125"/><stop stop-opacity="1" stop-color="rgb(49.636841%, 59.524536%, 93.994141%)" offset="0.832031"/><stop stop-opacity="1" stop-color="rgb(49.798584%, 60.191345%, 94.024658%)" offset="0.835938"/><stop stop-opacity="1" stop-color="rgb(49.958801%, 60.856628%, 94.055176%)" offset="0.839844"/><stop stop-opacity="1" stop-color="rgb(50.119019%, 61.523438%, 94.085693%)" offset="0.84375"/><stop stop-opacity="1" stop-color="rgb(50.280762%, 62.190247%, 94.116211%)" offset="0.847656"/><stop stop-opacity="1" stop-color="rgb(50.440979%, 62.85553%, 94.146729%)" offset="0.851562"/><stop stop-opacity="1" stop-color="rgb(50.601196%, 63.522339%, 94.177246%)" offset="0.855469"/><stop stop-opacity="1" stop-color="rgb(50.762939%, 64.187622%, 94.207764%)" offset="0.859375"/><stop stop-opacity="1" stop-color="rgb(50.923157%, 64.854431%, 94.238281%)" offset="0.863281"/><stop stop-opacity="1" stop-color="rgb(51.083374%, 65.52124%, 94.268799%)" offset="0.867188"/><stop stop-opacity="1" stop-color="rgb(51.245117%, 66.186523%, 94.299316%)" offset="0.871094"/><stop stop-opacity="1" stop-color="rgb(51.405334%, 66.853333%, 94.329834%)" offset="0.875"/><stop stop-opacity="1" stop-color="rgb(51.565552%, 67.518616%, 94.360352%)" offset="0.878906"/><stop stop-opacity="1" stop-color="rgb(51.727295%, 68.185425%, 94.390869%)" offset="0.882812"/><stop stop-opacity="1" stop-color="rgb(51.887512%, 68.852234%, 94.421387%)" offset="0.886719"/><stop stop-opacity="1" stop-color="rgb(52.047729%, 69.517517%, 94.451904%)" offset="0.890625"/><stop stop-opacity="1" stop-color="rgb(52.209473%, 70.184326%, 94.482422%)" offset="0.894531"/><stop stop-opacity="1" stop-color="rgb(52.36969%, 70.851135%, 94.512939%)" offset="0.898438"/><stop stop-opacity="1" stop-color="rgb(52.529907%, 71.516418%, 94.543457%)" offset="0.902344"/><stop stop-opacity="1" stop-color="rgb(52.69165%, 72.183228%, 94.572449%)" offset="0.90625"/><stop stop-opacity="1" stop-color="rgb(52.851868%, 72.848511%, 94.602966%)" offset="0.910156"/><stop stop-opacity="1" stop-color="rgb(53.012085%, 73.51532%, 94.633484%)" offset="0.914062"/><stop stop-opacity="1" stop-color="rgb(53.173828%, 74.182129%, 94.664001%)" offset="0.917969"/><stop stop-opacity="1" stop-color="rgb(53.334045%, 74.847412%, 94.694519%)" offset="0.921875"/><stop stop-opacity="1" stop-color="rgb(53.494263%, 75.514221%, 94.725037%)" offset="0.925781"/><stop stop-opacity="1" stop-color="rgb(53.656006%, 76.179504%, 94.755554%)" offset="0.929688"/><stop stop-opacity="1" stop-color="rgb(53.816223%, 76.846313%, 94.786072%)" offset="0.933594"/><stop stop-opacity="1" stop-color="rgb(53.977966%, 77.513123%, 94.816589%)" offset="0.9375"/><stop stop-opacity="1" stop-color="rgb(54.138184%, 78.178406%, 94.847107%)" offset="0.941406"/><stop stop-opacity="1" stop-color="rgb(54.298401%, 78.845215%, 94.877625%)" offset="0.945312"/><stop stop-opacity="1" stop-color="rgb(54.460144%, 79.510498%, 94.908142%)" offset="0.949219"/><stop stop-opacity="1" stop-color="rgb(54.620361%, 80.177307%, 94.93866%)" offset="0.953125"/><stop stop-opacity="1" stop-color="rgb(54.780579%, 80.844116%, 94.969177%)" offset="0.957031"/><stop stop-opacity="1" stop-color="rgb(54.942322%, 81.509399%, 94.999695%)" offset="0.960938"/><stop stop-opacity="1" stop-color="rgb(55.102539%, 82.176208%, 95.030212%)" offset="0.964844"/><stop stop-opacity="1" stop-color="rgb(55.262756%, 82.841492%, 95.06073%)" offset="0.96875"/><stop stop-opacity="1" stop-color="rgb(55.4245%, 83.508301%, 95.091248%)" offset="0.972656"/><stop stop-opacity="1" stop-color="rgb(55.584717%, 84.17511%, 95.121765%)" offset="0.976562"/><stop stop-opacity="1" stop-color="rgb(55.744934%, 84.840393%, 95.152283%)" offset="0.980469"/><stop stop-opacity="1" stop-color="rgb(55.906677%, 85.507202%, 95.1828%)" offset="0.984375"/><stop stop-opacity="1" stop-color="rgb(56.066895%, 86.172485%, 95.213318%)" offset="0.988281"/><stop stop-opacity="1" stop-color="rgb(56.227112%, 86.839294%, 95.243835%)" offset="0.992188"/><stop stop-opacity="1" stop-color="rgb(56.388855%, 87.506104%, 95.274353%)" offset="0.996094"/><stop stop-opacity="1" stop-color="rgb(56.469727%, 87.838745%, 95.289612%)" offset="1"/></radialGradient><clipPath id="065896acb1"><path d="M 327.695312 238.308594 L 482.195312 238.308594 L 482.195312 352.308594 L 327.695312 352.308594 Z M 327.695312 238.308594 " clip-rule="nonzero"/></clipPath><clipPath id="0d6ed4d000"><rect x="0" width="762" y="0" height="108"/></clipPath><clipPath id="e02ca9093b"><rect x="0" width="579" y="0" height="49"/></clipPath></defs><rect x="-81" width="972" fill="#ffffff" y="-80.999999" height="971.999992" fill-opacity="1"/><rect x="-81" fill="url(#9748e84d4e)" width="972" y="-80.999999" height="971.999992"/><g clip-path="url(#065896acb1)"><path fill="#000000" d="M 391.367188 238.699219 C 401.550781 237.667969 413.210938 239.359375 423.550781 238.636719 C 428.902344 239.109375 432.515625 241.789062 435.113281 246.316406 C 438.011719 251.371094 438.800781 258.117188 445.847656 258.632812 C 452.503906 259.121094 459.789062 258.160156 466.460938 258.617188 C 474.570312 259.171875 481.640625 265.992188 482.195312 274.128906 L 482.195312 339.226562 C 481.601562 346.179688 476.105469 351.671875 469.132812 352.261719 L 340.378906 352.261719 C 333.269531 351.691406 328.167969 346.058594 327.695312 339.035156 L 327.695312 274.128906 C 328.121094 268.257812 331.675781 262.691406 337.113281 260.304688 C 338.179688 259.835938 340.976562 259.277344 341.523438 258.617188 C 342.25 257.730469 341.890625 256.480469 342.011719 255.488281 C 342.535156 251.230469 345.527344 248.820312 349.726562 248.53125 C 352.722656 248.324219 357.628906 248.296875 360.613281 248.53125 C 364.007812 248.800781 366.832031 250.902344 367.664062 254.246094 C 368.136719 256.148438 367.507812 258.691406 370.332031 258.636719 C 377.113281 258.511719 378.921875 247.582031 382.628906 243.300781 C 384.777344 240.816406 388.066406 239.03125 391.367188 238.699219 Z M 394.035156 244.40625 C 385.03125 244.984375 385.1875 251.652344 381.332031 257.996094 C 379.160156 261.570312 375.3125 264.039062 371.097656 264.339844 C 362.46875 264.957031 353.019531 263.699219 344.394531 264.332031 C 338.285156 264.785156 333.828125 268.648438 333.414062 274.882812 C 333.351562 275.847656 333.109375 278.84375 334.132812 279.136719 L 371.433594 279.136719 C 372.273438 278.945312 375.273438 274.875 376.140625 273.9375 C 395.410156 253.144531 425.765625 252.875 445.382812 273.367188 C 447.171875 275.238281 448.609375 277.617188 450.660156 279.136719 L 474.660156 279.183594 C 477.066406 279.292969 476.585938 276.140625 476.4375 274.539062 C 475.910156 268.832031 471.34375 264.742188 465.695312 264.328125 C 458.421875 263.789062 444.496094 265.972656 438.601562 262.4375 C 433.703125 259.496094 432.632812 253.824219 430 249.132812 C 427.554688 244.777344 425.007812 244.660156 420.453125 244.472656 C 412.222656 244.136719 402.210938 243.886719 394.03125 244.410156 Z M 349.199219 254.289062 C 347.117188 254.972656 347.238281 258.1875 349.398438 258.578125 C 351.078125 258.882812 358.429688 258.847656 360.207031 258.609375 C 362.738281 258.265625 362.941406 254.960938 360.59375 254.257812 L 349.203125 254.289062 Z M 408.148438 263.816406 C 379.652344 265.597656 361.484375 296.683594 373.3125 322.636719 C 388.140625 355.164062 434.097656 354.878906 448.65625 322.125 C 461.257812 293.769531 439.027344 261.890625 408.152344 263.820312 Z M 387.589844 346.734375 C 387.660156 346.414062 387.488281 346.351562 387.300781 346.167969 C 386.753906 345.632812 385.472656 345.046875 384.75 344.527344 C 367.558594 332.15625 360.238281 312.152344 366.285156 291.503906 C 366.585938 290.480469 368.277344 286.367188 368.109375 285.78125 C 367.855469 285.269531 367.28125 285.050781 366.714844 285.066406 L 335.429688 285.078125 C 334.433594 285.117188 333.851562 285.707031 333.515625 286.59375 L 333.417969 333.136719 L 333.664062 334.128906 C 333.902344 334.304688 334.1875 334.335938 334.472656 334.367188 C 337.1875 334.652344 344.941406 334.632812 347.289062 333.640625 C 349.792969 332.578125 350.972656 330.667969 351.171875 328 C 351.921875 318.019531 350.308594 306.878906 351.15625 296.964844 C 351.519531 292.742188 354.589844 289.199219 358.472656 287.707031 C 360.320312 286.996094 362.628906 286.859375 362.972656 289.375 C 363.4375 292.765625 359.367188 292.898438 357.757812 295.175781 C 357.148438 296.039062 356.898438 297.117188 356.71875 298.136719 C 356.113281 308.242188 357.441406 319.128906 356.703125 329.140625 C 356.28125 334.863281 351.460938 339.664062 345.738281 340.085938 C 344.203125 340.195312 334.335938 339.796875 334.023438 340.289062 C 333.964844 342.855469 336.835938 345.332031 339.097656 346.121094 C 339.648438 346.316406 341.222656 346.734375 341.722656 346.734375 L 387.59375 346.734375 Z M 434.128906 346.734375 L 467.980469 346.734375 C 472.09375 346.734375 476.527344 342.140625 476.632812 338.050781 L 476.613281 287.121094 C 476.40625 286.003906 475.609375 285.222656 474.46875 285.074219 C 468.226562 285.535156 461.140625 284.476562 455 285.066406 C 452.84375 285.273438 454.109375 286.808594 454.488281 287.882812 C 461.789062 308.609375 455.789062 330.613281 438.117188 343.769531 C 436.796875 344.75 435.175781 345.523438 434.128906 346.738281 Z M 434.128906 346.734375 " fill-opacity="1" fill-rule="nonzero"/></g><path fill="#000000" d="M 409.484375 268.957031 L 411.335938 268.902344 C 442.054688 269.359375 458.265625 305.355469 438.804688 328.847656 C 420.585938 350.84375 383.347656 343.152344 375.863281 315.527344 C 369.734375 292.902344 385.949219 269.878906 409.484375 268.957031 Z M 408.53125 274.664062 C 387.292969 276.132812 373.890625 299.085938 382.660156 318.445312 C 393.773438 342.988281 430.066406 341.769531 439.664062 316.765625 C 447.894531 295.320312 431.421875 273.085938 408.53125 274.664062 Z M 408.53125 274.664062 " fill-opacity="1" fill-rule="nonzero"/><path fill="#000000" d="M 407.769531 281.136719 C 412.542969 280.675781 418.078125 281.351562 422.34375 283.609375 C 424.132812 284.554688 425.8125 285.953125 424.292969 288.109375 C 422.480469 290.675781 420.207031 288.347656 418.207031 287.546875 C 399.53125 280.066406 382.269531 303.191406 395.882812 318.953125 C 407.484375 332.390625 429.402344 324.355469 430.511719 307.066406 C 430.652344 304.847656 429.417969 299.46875 432.550781 298.824219 C 434.765625 298.371094 435.394531 299.910156 435.652344 301.734375 C 438.839844 324.253906 411.886719 339.585938 394.367188 324.464844 C 378.417969 310.703125 387.195312 283.113281 407.769531 281.136719 Z M 407.769531 281.136719 " fill-opacity="1" fill-rule="nonzero"/><path fill="#000000" d="M 429.308594 285.503906 C 431.402344 285.144531 432.714844 286.585938 433.824219 288.136719 C 434.9375 289.6875 435.703125 291.0625 434.863281 292.945312 L 412.957031 322.277344 C 409.84375 324.738281 407.25 324.109375 404.871094 321.210938 C 400.816406 316.273438 397.265625 310.578125 393.347656 305.496094 C 391.410156 302.035156 395.171875 295.925781 399.214844 298.691406 C 399.609375 298.960938 400.222656 299.636719 400.554688 300.019531 C 403.515625 303.375 405.917969 307.707031 408.859375 311.140625 L 427.457031 286.503906 C 427.976562 286.070312 428.632812 285.617188 429.308594 285.5 Z M 429.308594 285.503906 " fill-opacity="1" fill-rule="nonzero"/><g transform="matrix(1, 0, 0, 1, 24, 351)"><g clip-path="url(#0d6ed4d000)"><g fill="#000000" fill-opacity="1"><g transform="translate(0.842707, 85.387498)"><g><path d="M 44.375 -58.125 C 44.375 -59.0625 44.671875 -59.789062 45.265625 -60.3125 C 45.867188 -60.832031 46.8125 -61.09375 48.09375 -61.09375 L 61.875 -61.09375 C 63.15625 -61.09375 64.101562 -60.832031 64.71875 -60.3125 C 65.332031 -59.789062 65.640625 -59.0625 65.640625 -58.125 C 65.640625 -57.457031 65.457031 -56.90625 65.09375 -56.46875 C 64.726562 -56.03125 64.164062 -55.625 63.40625 -55.25 L 62.140625 -54.640625 C 61.066406 -54.117188 60.171875 -53.367188 59.453125 -52.390625 C 58.742188 -51.410156 58.054688 -49.863281 57.390625 -47.75 L 45.515625 -11.046875 C 45.046875 -9.585938 44.71875 -8.453125 44.53125 -7.640625 C 44.34375 -6.828125 44.25 -6 44.25 -5.15625 L 44.25 -2.75 C 44.25 -1.875 43.960938 -1.195312 43.390625 -0.71875 C 42.828125 -0.238281 42.125 0 41.28125 0 L 25.3125 0 C 24.5 0 23.820312 -0.238281 23.28125 -0.71875 C 22.738281 -1.195312 22.46875 -1.914062 22.46875 -2.875 L 22.46875 -5.234375 C 22.46875 -5.734375 22.375 -6.332031 22.1875 -7.03125 C 22 -7.726562 21.773438 -8.484375 21.515625 -9.296875 L 7.5 -50.703125 C 7.125 -51.816406 6.734375 -52.625 6.328125 -53.125 C 5.921875 -53.632812 5.335938 -54.082031 4.578125 -54.46875 L 3.3125 -55.078125 C 2.0625 -55.710938 1.4375 -56.726562 1.4375 -58.125 C 1.4375 -59.0625 1.738281 -59.789062 2.34375 -60.3125 C 2.957031 -60.832031 3.90625 -61.09375 5.1875 -61.09375 L 30.28125 -61.09375 C 31.59375 -61.09375 32.546875 -60.832031 33.140625 -60.3125 C 33.742188 -59.789062 34.046875 -59.0625 34.046875 -58.125 C 34.046875 -57.394531 33.863281 -56.8125 33.5 -56.375 C 33.132812 -55.945312 32.554688 -55.554688 31.765625 -55.203125 L 30.328125 -54.546875 C 29.578125 -54.203125 29.097656 -53.664062 28.890625 -52.9375 C 28.679688 -52.207031 28.8125 -51.144531 29.28125 -49.75 L 40.015625 -17.1875 L 50.28125 -48.4375 C 50.769531 -49.925781 50.847656 -51.148438 50.515625 -52.109375 C 50.179688 -53.066406 49.285156 -53.910156 47.828125 -54.640625 L 46.609375 -55.25 C 45.878906 -55.59375 45.320312 -55.96875 44.9375 -56.375 C 44.5625 -56.789062 44.375 -57.375 44.375 -58.125 Z M 44.375 -58.125 "/></g></g></g><g fill="#000000" fill-opacity="1"><g transform="translate(67.08468, 85.387498)"><g><path d="M 34.875 -62.84375 C 39.9375 -62.84375 44.476562 -62.0625 48.5 -60.5 C 52.53125 -58.945312 55.960938 -56.726562 58.796875 -53.84375 C 61.640625 -50.96875 63.8125 -47.53125 65.3125 -43.53125 C 66.8125 -39.53125 67.5625 -35.070312 67.5625 -30.15625 C 67.5625 -25.707031 66.816406 -21.546875 65.328125 -17.671875 C 63.847656 -13.804688 61.707031 -10.414062 58.90625 -7.5 C 56.113281 -4.59375 52.734375 -2.320312 48.765625 -0.6875 C 44.796875 0.9375 40.320312 1.75 35.34375 1.75 C 30.28125 1.75 25.734375 0.972656 21.703125 -0.578125 C 17.679688 -2.140625 14.25 -4.359375 11.40625 -7.234375 C 8.570312 -10.117188 6.40625 -13.5625 4.90625 -17.5625 C 3.40625 -21.5625 2.65625 -26.019531 2.65625 -30.9375 C 2.65625 -35.394531 3.394531 -39.554688 4.875 -43.421875 C 6.363281 -47.296875 8.503906 -50.6875 11.296875 -53.59375 C 14.097656 -56.5 17.484375 -58.765625 21.453125 -60.390625 C 25.421875 -62.023438 29.894531 -62.84375 34.875 -62.84375 Z M 46.734375 -18.203125 C 46.734375 -22.097656 46.421875 -25.914062 45.796875 -29.65625 C 45.171875 -33.394531 44.320312 -36.890625 43.25 -40.140625 C 42.175781 -43.398438 40.953125 -46.265625 39.578125 -48.734375 C 38.210938 -51.210938 36.78125 -53.15625 35.28125 -54.5625 C 33.78125 -55.976562 32.289062 -56.6875 30.8125 -56.6875 C 28.457031 -56.6875 26.675781 -55.515625 25.46875 -53.171875 C 24.257812 -50.828125 23.65625 -47.40625 23.65625 -42.90625 C 23.65625 -39.03125 23.96875 -35.222656 24.59375 -31.484375 C 25.21875 -27.742188 26.066406 -24.238281 27.140625 -20.96875 C 28.222656 -17.695312 29.445312 -14.820312 30.8125 -12.34375 C 32.175781 -9.875 33.609375 -7.929688 35.109375 -6.515625 C 36.609375 -5.109375 38.097656 -4.40625 39.578125 -4.40625 C 41.960938 -4.40625 43.75 -5.578125 44.9375 -7.921875 C 46.132812 -10.265625 46.734375 -13.691406 46.734375 -18.203125 Z M 46.734375 -18.203125 "/></g></g></g><g fill="#000000" fill-opacity="1"><g transform="translate(137.297675, 85.387498)"><g><path d="M 17.9375 -61.09375 L 47.171875 -61.09375 C 48.515625 -61.09375 49.65625 -61.207031 50.59375 -61.4375 C 51.539062 -61.675781 52.390625 -61.90625 53.140625 -62.125 C 53.898438 -62.34375 54.660156 -62.453125 55.421875 -62.453125 C 56.847656 -62.453125 57.910156 -62.109375 58.609375 -61.421875 C 59.304688 -60.742188 59.875 -59.585938 60.3125 -57.953125 L 63.109375 -43.421875 C 63.335938 -42.253906 63.238281 -41.304688 62.8125 -40.578125 C 62.394531 -39.859375 61.675781 -39.410156 60.65625 -39.234375 C 59.726562 -39.023438 58.90625 -39.082031 58.1875 -39.40625 C 57.476562 -39.726562 56.878906 -40.382812 56.390625 -41.375 C 55.109375 -43.9375 53.972656 -46.066406 52.984375 -47.765625 C 51.992188 -49.460938 51.066406 -50.796875 50.203125 -51.765625 C 49.347656 -52.742188 48.5 -53.441406 47.65625 -53.859375 C 46.8125 -54.285156 45.894531 -54.5 44.90625 -54.5 L 42.6875 -54.5 L 42.6875 -9.6875 C 42.6875 -8.351562 43.425781 -7.394531 44.90625 -6.8125 L 46.5625 -6.203125 C 47.375 -5.910156 47.953125 -5.488281 48.296875 -4.9375 C 48.648438 -4.382812 48.828125 -3.726562 48.828125 -2.96875 C 48.828125 -2.0625 48.519531 -1.335938 47.90625 -0.796875 C 47.300781 -0.265625 46.359375 0 45.078125 0 L 20.03125 0 C 18.75 0 17.800781 -0.265625 17.1875 -0.796875 C 16.582031 -1.335938 16.28125 -2.0625 16.28125 -2.96875 C 16.28125 -3.726562 16.453125 -4.382812 16.796875 -4.9375 C 17.148438 -5.488281 17.734375 -5.910156 18.546875 -6.203125 L 20.203125 -6.8125 C 21.691406 -7.394531 22.4375 -8.351562 22.4375 -9.6875 L 22.4375 -54.5 L 20.203125 -54.5 C 19.210938 -54.5 18.296875 -54.285156 17.453125 -53.859375 C 16.609375 -53.441406 15.753906 -52.742188 14.890625 -51.765625 C 14.035156 -50.796875 13.113281 -49.460938 12.125 -47.765625 C 11.132812 -46.066406 10.003906 -43.9375 8.734375 -41.375 C 8.234375 -40.382812 7.625 -39.726562 6.90625 -39.40625 C 6.195312 -39.082031 5.378906 -39.023438 4.453125 -39.234375 C 3.460938 -39.410156 2.753906 -39.859375 2.328125 -40.578125 C 1.910156 -41.304688 1.800781 -42.253906 2 -43.421875 L 4.796875 -57.953125 C 5.234375 -59.585938 5.800781 -60.742188 6.5 -61.421875 C 7.195312 -62.109375 8.257812 -62.453125 9.6875 -62.453125 C 10.445312 -62.453125 11.203125 -62.34375 11.953125 -62.125 C 12.710938 -61.90625 13.5625 -61.675781 14.5 -61.4375 C 15.445312 -61.207031 16.59375 -61.09375 17.9375 -61.09375 Z M 17.9375 -61.09375 "/></g></g></g><g fill="#000000" fill-opacity="1"><g transform="translate(202.405055, 85.387498)"><g><path d="M 34.875 -62.84375 C 39.9375 -62.84375 44.476562 -62.0625 48.5 -60.5 C 52.53125 -58.945312 55.960938 -56.726562 58.796875 -53.84375 C 61.640625 -50.96875 63.8125 -47.53125 65.3125 -43.53125 C 66.8125 -39.53125 67.5625 -35.070312 67.5625 -30.15625 C 67.5625 -25.707031 66.816406 -21.546875 65.328125 -17.671875 C 63.847656 -13.804688 61.707031 -10.414062 58.90625 -7.5 C 56.113281 -4.59375 52.734375 -2.320312 48.765625 -0.6875 C 44.796875 0.9375 40.320312 1.75 35.34375 1.75 C 30.28125 1.75 25.734375 0.972656 21.703125 -0.578125 C 17.679688 -2.140625 14.25 -4.359375 11.40625 -7.234375 C 8.570312 -10.117188 6.40625 -13.5625 4.90625 -17.5625 C 3.40625 -21.5625 2.65625 -26.019531 2.65625 -30.9375 C 2.65625 -35.394531 3.394531 -39.554688 4.875 -43.421875 C 6.363281 -47.296875 8.503906 -50.6875 11.296875 -53.59375 C 14.097656 -56.5 17.484375 -58.765625 21.453125 -60.390625 C 25.421875 -62.023438 29.894531 -62.84375 34.875 -62.84375 Z M 46.734375 -18.203125 C 46.734375 -22.097656 46.421875 -25.914062 45.796875 -29.65625 C 45.171875 -33.394531 44.320312 -36.890625 43.25 -40.140625 C 42.175781 -43.398438 40.953125 -46.265625 39.578125 -48.734375 C 38.210938 -51.210938 36.78125 -53.15625 35.28125 -54.5625 C 33.78125 -55.976562 32.289062 -56.6875 30.8125 -56.6875 C 28.457031 -56.6875 26.675781 -55.515625 25.46875 -53.171875 C 24.257812 -50.828125 23.65625 -47.40625 23.65625 -42.90625 C 23.65625 -39.03125 23.96875 -35.222656 24.59375 -31.484375 C 25.21875 -27.742188 26.066406 -24.238281 27.140625 -20.96875 C 28.222656 -17.695312 29.445312 -14.820312 30.8125 -12.34375 C 32.175781 -9.875 33.609375 -7.929688 35.109375 -6.515625 C 36.609375 -5.109375 38.097656 -4.40625 39.578125 -4.40625 C 41.960938 -4.40625 43.75 -5.578125 44.9375 -7.921875 C 46.132812 -10.265625 46.734375 -13.691406 46.734375 -18.203125 Z M 46.734375 -18.203125 "/></g></g></g><g fill="#000000" fill-opacity="1"><g transform="translate(272.61807, 85.387498)"><g><path d="M 61.265625 -1.703125 C 61.265625 0.597656 60.117188 1.75 57.828125 1.75 C 56.867188 1.75 55.988281 1.492188 55.1875 0.984375 C 54.382812 0.472656 53.617188 -0.113281 52.890625 -0.78125 C 52.160156 -1.457031 51.46875 -2.046875 50.8125 -2.546875 C 50.164062 -3.054688 49.519531 -3.3125 48.875 -3.3125 C 48.175781 -3.3125 47.40625 -3.054688 46.5625 -2.546875 C 45.71875 -2.046875 44.707031 -1.46875 43.53125 -0.8125 C 42.351562 -0.15625 40.921875 0.425781 39.234375 0.9375 C 37.546875 1.445312 35.492188 1.703125 33.078125 1.703125 C 28.273438 1.703125 23.988281 0.945312 20.21875 -0.5625 C 16.457031 -2.082031 13.265625 -4.25 10.640625 -7.0625 C 8.023438 -9.882812 6.035156 -13.273438 4.671875 -17.234375 C 3.304688 -21.191406 2.625 -25.628906 2.625 -30.546875 C 2.625 -34.273438 3.144531 -37.765625 4.1875 -41.015625 C 5.238281 -44.273438 6.722656 -47.242188 8.640625 -49.921875 C 10.554688 -52.597656 12.835938 -54.894531 15.484375 -56.8125 C 18.140625 -58.738281 21.070312 -60.222656 24.28125 -61.265625 C 27.5 -62.316406 30.910156 -62.84375 34.515625 -62.84375 C 36.703125 -62.84375 38.570312 -62.695312 40.125 -62.40625 C 41.6875 -62.113281 43.007812 -61.785156 44.09375 -61.421875 C 45.1875 -61.054688 46.109375 -60.726562 46.859375 -60.4375 C 47.617188 -60.144531 48.304688 -60 48.921875 -60 C 49.535156 -60 50.066406 -60.128906 50.515625 -60.390625 C 50.960938 -60.660156 51.390625 -60.972656 51.796875 -61.328125 C 52.203125 -61.691406 52.644531 -62.003906 53.125 -62.265625 C 53.613281 -62.535156 54.175781 -62.671875 54.8125 -62.671875 C 55.539062 -62.671875 56.144531 -62.4375 56.625 -61.96875 C 57.101562 -61.5 57.503906 -60.710938 57.828125 -59.609375 L 62.3125 -44.171875 C 62.582031 -43.265625 62.472656 -42.453125 61.984375 -41.734375 C 61.503906 -41.023438 60.816406 -40.554688 59.921875 -40.328125 C 58.929688 -40.085938 58.023438 -40.148438 57.203125 -40.515625 C 56.390625 -40.878906 55.769531 -41.570312 55.34375 -42.59375 C 53.851562 -46.113281 52.15625 -48.835938 50.25 -50.765625 C 48.34375 -52.703125 46.328125 -54.050781 44.203125 -54.8125 C 42.078125 -55.570312 39.941406 -55.953125 37.796875 -55.953125 C 34.679688 -55.953125 32.007812 -55.054688 29.78125 -53.265625 C 27.5625 -51.472656 25.859375 -48.925781 24.671875 -45.625 C 23.492188 -42.320312 22.90625 -38.398438 22.90625 -33.859375 C 22.90625 -28.015625 23.601562 -23.132812 25 -19.21875 C 26.394531 -15.3125 28.320312 -12.378906 30.78125 -10.421875 C 33.238281 -8.472656 36.054688 -7.5 39.234375 -7.5 C 40.691406 -7.5 41.742188 -7.90625 42.390625 -8.71875 C 43.046875 -9.539062 43.375 -10.59375 43.375 -11.875 L 43.375 -21.609375 C 43.375 -22.210938 43.226562 -22.675781 42.9375 -23 C 42.644531 -23.320312 42.050781 -23.613281 41.15625 -23.875 L 39.234375 -24.4375 C 38.328125 -24.695312 37.617188 -25.070312 37.109375 -25.5625 C 36.609375 -26.0625 36.359375 -26.691406 36.359375 -27.453125 C 36.359375 -28.328125 36.660156 -29.015625 37.265625 -29.515625 C 37.878906 -30.023438 38.828125 -30.28125 40.109375 -30.28125 L 62.671875 -30.28125 C 63.972656 -30.28125 64.929688 -30.023438 65.546875 -29.515625 C 66.160156 -29.015625 66.46875 -28.34375 66.46875 -27.5 C 66.46875 -26.769531 66.273438 -26.175781 65.890625 -25.71875 C 65.515625 -25.269531 64.953125 -24.882812 64.203125 -24.5625 L 63.1875 -24.171875 C 62.601562 -23.941406 62.132812 -23.632812 61.78125 -23.25 C 61.4375 -22.875 61.265625 -22.328125 61.265625 -21.609375 Z M 61.265625 -1.703125 "/></g></g></g><g fill="#000000" fill-opacity="1"><g transform="translate(341.129186, 85.387498)"><g><path d="M 66.15625 -39.671875 C 66.15625 -36.523438 65.28125 -33.675781 63.53125 -31.125 C 61.789062 -28.582031 59.320312 -26.613281 56.125 -25.21875 L 65.421875 -9.296875 C 65.941406 -8.390625 66.410156 -7.710938 66.828125 -7.265625 C 67.253906 -6.816406 67.800781 -6.429688 68.46875 -6.109375 C 69.195312 -5.765625 69.726562 -5.34375 70.0625 -4.84375 C 70.394531 -4.351562 70.5625 -3.726562 70.5625 -2.96875 C 70.5625 -2.0625 70.253906 -1.335938 69.640625 -0.796875 C 69.035156 -0.265625 68.09375 0 66.8125 0 L 45.171875 0 C 42.785156 0 41.59375 -0.988281 41.59375 -2.96875 C 41.59375 -3.875 42.015625 -4.628906 42.859375 -5.234375 L 43.375 -5.625 C 43.90625 -6.03125 44.203125 -6.421875 44.265625 -6.796875 C 44.335938 -7.179688 44.1875 -7.738281 43.8125 -8.46875 L 37.359375 -21.296875 C 34.648438 -21.378906 32.289062 -21.726562 30.28125 -22.34375 L 30.28125 -9.6875 C 30.28125 -8.957031 30.414062 -8.375 30.6875 -7.9375 C 30.96875 -7.5 31.429688 -7.125 32.078125 -6.8125 L 33.296875 -6.203125 C 34.203125 -5.765625 34.804688 -5.304688 35.109375 -4.828125 C 35.410156 -4.347656 35.5625 -3.726562 35.5625 -2.96875 C 35.5625 -2.0625 35.253906 -1.335938 34.640625 -0.796875 C 34.035156 -0.265625 33.09375 0 31.8125 0 L 7.640625 0 C 6.359375 0 5.410156 -0.265625 4.796875 -0.796875 C 4.191406 -1.335938 3.890625 -2.0625 3.890625 -2.96875 C 3.890625 -3.726562 4.0625 -4.382812 4.40625 -4.9375 C 4.757812 -5.488281 5.34375 -5.910156 6.15625 -6.203125 L 7.8125 -6.8125 C 9.289062 -7.394531 10.03125 -8.351562 10.03125 -9.6875 L 10.03125 -51.40625 C 10.03125 -52.769531 9.289062 -53.726562 7.8125 -54.28125 L 6.15625 -54.90625 C 5.34375 -55.21875 4.757812 -55.644531 4.40625 -56.1875 C 4.0625 -56.726562 3.890625 -57.375 3.890625 -58.125 C 3.890625 -59.0625 4.191406 -59.789062 4.796875 -60.3125 C 5.410156 -60.832031 6.359375 -61.09375 7.640625 -61.09375 L 32.8125 -61.09375 C 40 -61.09375 46.070312 -60.191406 51.03125 -58.390625 C 56 -56.585938 59.757812 -54.078125 62.3125 -50.859375 C 64.875 -47.648438 66.15625 -43.921875 66.15625 -39.671875 Z M 30.28125 -55.421875 L 30.28125 -27.796875 C 31.507812 -27.535156 32.921875 -27.40625 34.515625 -27.40625 C 37.984375 -27.40625 40.675781 -28.363281 42.59375 -30.28125 C 44.507812 -32.207031 45.46875 -35.191406 45.46875 -39.234375 C 45.46875 -41.585938 45.132812 -43.742188 44.46875 -45.703125 C 43.800781 -47.671875 42.863281 -49.378906 41.65625 -50.828125 C 40.445312 -52.285156 39.019531 -53.414062 37.375 -54.21875 C 35.726562 -55.019531 33.929688 -55.421875 31.984375 -55.421875 Z M 30.28125 -55.421875 "/></g></g></g><g fill="#000000" fill-opacity="1"><g transform="translate(413.698624, 85.387498)"><g><path d="M 22.609375 -2.96875 C 22.609375 -2.0625 22.304688 -1.335938 21.703125 -0.796875 C 21.109375 -0.265625 20.171875 0 18.890625 0 L 4.9375 0 C 3.6875 0 2.753906 -0.265625 2.140625 -0.796875 C 1.523438 -1.335938 1.21875 -2.0625 1.21875 -2.96875 C 1.21875 -4.132812 1.875 -5.125 3.1875 -5.9375 L 4.109375 -6.5 C 4.742188 -6.90625 5.28125 -7.34375 5.71875 -7.8125 C 6.15625 -8.28125 6.554688 -8.925781 6.921875 -9.75 C 7.285156 -10.582031 7.679688 -11.710938 8.109375 -13.140625 L 19.296875 -49.234375 C 19.816406 -50.941406 20.003906 -52.179688 19.859375 -52.953125 C 19.710938 -53.722656 19.113281 -54.359375 18.0625 -54.859375 C 17.25 -55.265625 16.675781 -55.726562 16.34375 -56.25 C 16.007812 -56.769531 15.84375 -57.394531 15.84375 -58.125 C 15.84375 -59.0625 16.144531 -59.789062 16.75 -60.3125 C 17.363281 -60.832031 18.3125 -61.09375 19.59375 -61.09375 L 47.65625 -61.09375 C 48.9375 -61.09375 49.878906 -60.832031 50.484375 -60.3125 C 51.097656 -59.789062 51.40625 -59.0625 51.40625 -58.125 C 51.40625 -57.34375 51.222656 -56.695312 50.859375 -56.1875 C 50.492188 -55.675781 49.976562 -55.257812 49.3125 -54.9375 C 48.582031 -54.59375 48.148438 -54.117188 48.015625 -53.515625 C 47.890625 -52.921875 48.03125 -51.984375 48.4375 -50.703125 L 60.4375 -12.703125 C 61.050781 -10.753906 61.601562 -9.320312 62.09375 -8.40625 C 62.59375 -7.488281 63.25 -6.828125 64.0625 -6.421875 C 65.082031 -5.890625 65.765625 -5.375 66.109375 -4.875 C 66.460938 -4.382812 66.640625 -3.75 66.640625 -2.96875 C 66.640625 -2.0625 66.332031 -1.335938 65.71875 -0.796875 C 65.113281 -0.265625 64.171875 0 62.890625 0 L 39.84375 0 C 38.53125 0 37.578125 -0.265625 36.984375 -0.796875 C 36.390625 -1.335938 36.09375 -2.0625 36.09375 -2.96875 C 36.09375 -3.695312 36.28125 -4.285156 36.65625 -4.734375 C 37.03125 -5.179688 37.597656 -5.582031 38.359375 -5.9375 L 39.75 -6.59375 C 40.507812 -6.9375 40.832031 -7.40625 40.71875 -8 C 40.601562 -8.601562 40.34375 -9.570312 39.9375 -10.90625 L 37.359375 -19.5 L 18.03125 -19.5 L 16.40625 -14.265625 C 15.9375 -12.785156 15.695312 -11.585938 15.6875 -10.671875 C 15.675781 -9.753906 15.945312 -8.984375 16.5 -8.359375 C 17.050781 -7.734375 17.9375 -7.097656 19.15625 -6.453125 L 20.375 -5.84375 C 21.050781 -5.5 21.59375 -5.113281 22 -4.6875 C 22.40625 -4.269531 22.609375 -3.695312 22.609375 -2.96875 Z M 20.03125 -26.015625 L 35.390625 -26.015625 L 27.796875 -51.109375 Z M 20.03125 -26.015625 "/></g></g></g><g fill="#000000" fill-opacity="1"><g transform="translate(482.471579, 85.387498)"><g><path d="M 64.59375 -38.1875 C 64.59375 -34.375 63.570312 -31.054688 61.53125 -28.234375 C 59.5 -25.410156 56.566406 -23.226562 52.734375 -21.6875 C 48.910156 -20.144531 44.335938 -19.375 39.015625 -19.375 C 35.816406 -19.375 32.90625 -19.707031 30.28125 -20.375 L 30.28125 -9.6875 C 30.28125 -8.957031 30.445312 -8.335938 30.78125 -7.828125 C 31.125 -7.316406 31.703125 -6.976562 32.515625 -6.8125 L 35.125 -6.234375 C 36.0625 -6.035156 36.734375 -5.679688 37.140625 -5.171875 C 37.546875 -4.660156 37.75 -3.925781 37.75 -2.96875 C 37.75 -2.0625 37.441406 -1.335938 36.828125 -0.796875 C 36.222656 -0.265625 35.28125 0 34 0 L 7.640625 0 C 6.359375 0 5.410156 -0.265625 4.796875 -0.796875 C 4.191406 -1.335938 3.890625 -2.0625 3.890625 -2.96875 C 3.890625 -3.726562 4.0625 -4.382812 4.40625 -4.9375 C 4.757812 -5.488281 5.34375 -5.910156 6.15625 -6.203125 L 7.8125 -6.8125 C 9.289062 -7.394531 10.03125 -8.351562 10.03125 -9.6875 L 10.03125 -51.40625 C 10.03125 -52.769531 9.289062 -53.726562 7.8125 -54.28125 L 6.15625 -54.90625 C 5.34375 -55.21875 4.757812 -55.644531 4.40625 -56.1875 C 4.0625 -56.726562 3.890625 -57.375 3.890625 -58.125 C 3.890625 -59.0625 4.191406 -59.789062 4.796875 -60.3125 C 5.410156 -60.832031 6.359375 -61.09375 7.640625 -61.09375 L 31.9375 -61.09375 C 37.175781 -61.09375 41.816406 -60.53125 45.859375 -59.40625 C 49.910156 -58.289062 53.332031 -56.707031 56.125 -54.65625 C 58.914062 -52.601562 61.023438 -50.179688 62.453125 -47.390625 C 63.878906 -44.597656 64.59375 -41.53125 64.59375 -38.1875 Z M 30.28125 -54.90625 L 30.28125 -25.921875 C 30.75 -25.859375 31.226562 -25.804688 31.71875 -25.765625 C 32.21875 -25.722656 32.742188 -25.703125 33.296875 -25.703125 C 35.453125 -25.703125 37.414062 -26.175781 39.1875 -27.125 C 40.957031 -28.070312 42.375 -29.507812 43.4375 -31.4375 C 44.5 -33.375 45.03125 -35.796875 45.03125 -38.703125 C 45.03125 -42.054688 44.429688 -44.9375 43.234375 -47.34375 C 42.046875 -49.757812 40.425781 -51.625 38.375 -52.9375 C 36.332031 -54.25 33.984375 -54.90625 31.328125 -54.90625 Z M 30.28125 -54.90625 "/></g></g></g><g fill="#000000" fill-opacity="1"><g transform="translate(549.411726, 85.387498)"><g><path d="M 30.28125 -9.6875 C 30.28125 -8.351562 31.023438 -7.394531 32.515625 -6.8125 L 34.171875 -6.203125 C 34.984375 -5.910156 35.5625 -5.488281 35.90625 -4.9375 C 36.257812 -4.382812 36.4375 -3.726562 36.4375 -2.96875 C 36.4375 -2.0625 36.128906 -1.335938 35.515625 -0.796875 C 34.910156 -0.265625 33.96875 0 32.6875 0 L 7.640625 0 C 6.359375 0 5.410156 -0.265625 4.796875 -0.796875 C 4.191406 -1.335938 3.890625 -2.0625 3.890625 -2.96875 C 3.890625 -3.726562 4.0625 -4.382812 4.40625 -4.9375 C 4.757812 -5.488281 5.34375 -5.910156 6.15625 -6.203125 L 7.8125 -6.8125 C 9.289062 -7.394531 10.03125 -8.351562 10.03125 -9.6875 L 10.03125 -51.40625 C 10.03125 -52.769531 9.289062 -53.726562 7.8125 -54.28125 L 6.15625 -54.90625 C 5.34375 -55.21875 4.757812 -55.644531 4.40625 -56.1875 C 4.0625 -56.726562 3.890625 -57.375 3.890625 -58.125 C 3.890625 -59.0625 4.191406 -59.789062 4.796875 -60.3125 C 5.410156 -60.832031 6.359375 -61.09375 7.640625 -61.09375 L 32.6875 -61.09375 C 33.96875 -61.09375 34.910156 -60.832031 35.515625 -60.3125 C 36.128906 -59.789062 36.4375 -59.0625 36.4375 -58.125 C 36.4375 -57.375 36.257812 -56.726562 35.90625 -56.1875 C 35.5625 -55.644531 34.984375 -55.21875 34.171875 -54.90625 L 32.515625 -54.28125 C 31.023438 -53.726562 30.28125 -52.769531 30.28125 -51.40625 L 30.28125 -32.15625 L 48.484375 -32.15625 L 48.484375 -51.40625 C 48.484375 -52.769531 47.742188 -53.726562 46.265625 -54.28125 L 44.59375 -54.90625 C 43.78125 -55.21875 43.195312 -55.644531 42.84375 -56.1875 C 42.5 -56.726562 42.328125 -57.375 42.328125 -58.125 C 42.328125 -59.0625 42.632812 -59.789062 43.25 -60.3125 C 43.863281 -60.832031 44.804688 -61.09375 46.078125 -61.09375 L 71.140625 -61.09375 C 72.410156 -61.09375 73.351562 -60.832031 73.96875 -60.3125 C 74.582031 -59.789062 74.890625 -59.0625 74.890625 -58.125 C 74.890625 -57.375 74.710938 -56.726562 74.359375 -56.1875 C 74.015625 -55.644531 73.4375 -55.21875 72.625 -54.90625 L 70.953125 -54.28125 C 69.472656 -53.726562 68.734375 -52.769531 68.734375 -51.40625 L 68.734375 -9.6875 C 68.734375 -8.351562 69.472656 -7.394531 70.953125 -6.8125 L 72.625 -6.203125 C 73.4375 -5.910156 74.015625 -5.488281 74.359375 -4.9375 C 74.710938 -4.382812 74.890625 -3.726562 74.890625 -2.96875 C 74.890625 -2.0625 74.582031 -1.335938 73.96875 -0.796875 C 73.351562 -0.265625 72.410156 0 71.140625 0 L 46.078125 0 C 44.804688 0 43.863281 -0.265625 43.25 -0.796875 C 42.632812 -1.335938 42.328125 -2.0625 42.328125 -2.96875 C 42.328125 -3.726562 42.5 -4.382812 42.84375 -4.9375 C 43.195312 -5.488281 43.78125 -5.910156 44.59375 -6.203125 L 46.265625 -6.8125 C 47.742188 -7.394531 48.484375 -8.351562 48.484375 -9.6875 L 48.484375 -25.65625 L 30.28125 -25.65625 Z M 30.28125 -9.6875 "/></g></g></g><g fill="#000000" fill-opacity="1"><g transform="translate(628.177721, 85.387498)"><g><path d="M 3.890625 -58.125 C 3.890625 -59.0625 4.191406 -59.789062 4.796875 -60.3125 C 5.410156 -60.832031 6.359375 -61.09375 7.640625 -61.09375 L 40.546875 -61.09375 C 41.878906 -61.09375 42.984375 -61.222656 43.859375 -61.484375 C 44.734375 -61.742188 45.554688 -62.003906 46.328125 -62.265625 C 47.097656 -62.535156 47.992188 -62.671875 49.015625 -62.671875 C 50.316406 -62.671875 51.300781 -62.296875 51.96875 -61.546875 C 52.644531 -60.804688 53.226562 -59.609375 53.71875 -57.953125 L 57.4375 -45.6875 C 58.039062 -43.59375 57.425781 -42.210938 55.59375 -41.546875 C 54.550781 -41.171875 53.613281 -41.171875 52.78125 -41.546875 C 51.957031 -41.921875 51.28125 -42.601562 50.75 -43.59375 C 49.5 -45.894531 48.320312 -47.78125 47.21875 -49.25 C 46.113281 -50.71875 45 -51.859375 43.875 -52.671875 C 42.757812 -53.484375 41.582031 -54.050781 40.34375 -54.375 C 39.101562 -54.695312 37.710938 -54.859375 36.171875 -54.859375 L 30.28125 -54.859375 L 30.28125 -34.078125 L 34.078125 -34.078125 C 35.304688 -34.078125 36.273438 -34.222656 36.984375 -34.515625 C 37.691406 -34.804688 38.269531 -35.328125 38.71875 -36.078125 C 39.175781 -36.835938 39.609375 -37.90625 40.015625 -39.28125 C 40.304688 -40.269531 40.726562 -40.976562 41.28125 -41.40625 C 41.832031 -41.84375 42.472656 -42.0625 43.203125 -42.0625 C 43.960938 -42.0625 44.585938 -41.835938 45.078125 -41.390625 C 45.578125 -40.941406 45.925781 -40.3125 46.125 -39.5 L 49.53125 -25.75 C 50.03125 -23.6875 49.460938 -22.375 47.828125 -21.8125 C 47.015625 -21.53125 46.25 -21.488281 45.53125 -21.6875 C 44.820312 -21.894531 44.222656 -22.359375 43.734375 -23.078125 C 42.796875 -24.421875 41.941406 -25.441406 41.171875 -26.140625 C 40.398438 -26.835938 39.539062 -27.316406 38.59375 -27.578125 C 37.65625 -27.835938 36.425781 -27.96875 34.90625 -27.96875 L 30.28125 -27.96875 L 30.28125 -11.5625 C 30.28125 -9.789062 30.722656 -8.457031 31.609375 -7.5625 C 32.503906 -6.675781 33.78125 -6.234375 35.4375 -6.234375 L 37.484375 -6.234375 C 39.117188 -6.234375 40.601562 -6.414062 41.9375 -6.78125 C 43.28125 -7.144531 44.539062 -7.789062 45.71875 -8.71875 C 46.894531 -9.65625 48.0625 -10.972656 49.21875 -12.671875 C 50.382812 -14.378906 51.59375 -16.570312 52.84375 -19.25 C 53.28125 -20.175781 53.867188 -20.804688 54.609375 -21.140625 C 55.359375 -21.472656 56.195312 -21.554688 57.125 -21.390625 C 58.144531 -21.179688 58.882812 -20.707031 59.34375 -19.96875 C 59.8125 -19.226562 59.882812 -18.300781 59.5625 -17.1875 L 55.515625 -3.140625 C 55.046875 -1.535156 54.46875 -0.347656 53.78125 0.421875 C 53.101562 1.191406 52.050781 1.578125 50.625 1.578125 C 49.71875 1.578125 48.894531 1.441406 48.15625 1.171875 C 47.414062 0.910156 46.597656 0.648438 45.703125 0.390625 C 44.816406 0.128906 43.707031 0 42.375 0 L 7.640625 0 C 6.359375 0 5.410156 -0.265625 4.796875 -0.796875 C 4.191406 -1.335938 3.890625 -2.0625 3.890625 -2.96875 C 3.890625 -3.726562 4.0625 -4.382812 4.40625 -4.9375 C 4.757812 -5.488281 5.34375 -5.910156 6.15625 -6.203125 L 7.8125 -6.8125 C 9.289062 -7.394531 10.03125 -8.351562 10.03125 -9.6875 L 10.03125 -51.40625 C 10.03125 -52.769531 9.289062 -53.726562 7.8125 -54.28125 L 6.15625 -54.90625 C 5.34375 -55.21875 4.757812 -55.644531 4.40625 -56.1875 C 4.0625 -56.726562 3.890625 -57.375 3.890625 -58.125 Z M 3.890625 -58.125 "/></g></g></g><g fill="#000000" fill-opacity="1"><g transform="translate(688.572255, 85.387498)"><g><path d="M 66.15625 -39.671875 C 66.15625 -36.523438 65.28125 -33.675781 63.53125 -31.125 C 61.789062 -28.582031 59.320312 -26.613281 56.125 -25.21875 L 65.421875 -9.296875 C 65.941406 -8.390625 66.410156 -7.710938 66.828125 -7.265625 C 67.253906 -6.816406 67.800781 -6.429688 68.46875 -6.109375 C 69.195312 -5.765625 69.726562 -5.34375 70.0625 -4.84375 C 70.394531 -4.351562 70.5625 -3.726562 70.5625 -2.96875 C 70.5625 -2.0625 70.253906 -1.335938 69.640625 -0.796875 C 69.035156 -0.265625 68.09375 0 66.8125 0 L 45.171875 0 C 42.785156 0 41.59375 -0.988281 41.59375 -2.96875 C 41.59375 -3.875 42.015625 -4.628906 42.859375 -5.234375 L 43.375 -5.625 C 43.90625 -6.03125 44.203125 -6.421875 44.265625 -6.796875 C 44.335938 -7.179688 44.1875 -7.738281 43.8125 -8.46875 L 37.359375 -21.296875 C 34.648438 -21.378906 32.289062 -21.726562 30.28125 -22.34375 L 30.28125 -9.6875 C 30.28125 -8.957031 30.414062 -8.375 30.6875 -7.9375 C 30.96875 -7.5 31.429688 -7.125 32.078125 -6.8125 L 33.296875 -6.203125 C 34.203125 -5.765625 34.804688 -5.304688 35.109375 -4.828125 C 35.410156 -4.347656 35.5625 -3.726562 35.5625 -2.96875 C 35.5625 -2.0625 35.253906 -1.335938 34.640625 -0.796875 C 34.035156 -0.265625 33.09375 0 31.8125 0 L 7.640625 0 C 6.359375 0 5.410156 -0.265625 4.796875 -0.796875 C 4.191406 -1.335938 3.890625 -2.0625 3.890625 -2.96875 C 3.890625 -3.726562 4.0625 -4.382812 4.40625 -4.9375 C 4.757812 -5.488281 5.34375 -5.910156 6.15625 -6.203125 L 7.8125 -6.8125 C 9.289062 -7.394531 10.03125 -8.351562 10.03125 -9.6875 L 10.03125 -51.40625 C 10.03125 -52.769531 9.289062 -53.726562 7.8125 -54.28125 L 6.15625 -54.90625 C 5.34375 -55.21875 4.757812 -55.644531 4.40625 -56.1875 C 4.0625 -56.726562 3.890625 -57.375 3.890625 -58.125 C 3.890625 -59.0625 4.191406 -59.789062 4.796875 -60.3125 C 5.410156 -60.832031 6.359375 -61.09375 7.640625 -61.09375 L 32.8125 -61.09375 C 40 -61.09375 46.070312 -60.191406 51.03125 -58.390625 C 56 -56.585938 59.757812 -54.078125 62.3125 -50.859375 C 64.875 -47.648438 66.15625 -43.921875 66.15625 -39.671875 Z M 30.28125 -55.421875 L 30.28125 -27.796875 C 31.507812 -27.535156 32.921875 -27.40625 34.515625 -27.40625 C 37.984375 -27.40625 40.675781 -28.363281 42.59375 -30.28125 C 44.507812 -32.207031 45.46875 -35.191406 45.46875 -39.234375 C 45.46875 -41.585938 45.132812 -43.742188 44.46875 -45.703125 C 43.800781 -47.671875 42.863281 -49.378906 41.65625 -50.828125 C 40.445312 -52.285156 39.019531 -53.414062 37.375 -54.21875 C 35.726562 -55.019531 33.929688 -55.421875 31.984375 -55.421875 Z M 30.28125 -55.421875 "/></g></g></g></g></g><g transform="matrix(1, 0, 0, 1, 115, 456)"><g clip-path="url(#e02ca9093b)"><g fill="#000000" fill-opacity="1"><g transform="translate(0.533733, 38.664077)"><g><path d="M 12.203125 0 L 3.09375 0 L 3.09375 -28.140625 L 12.5 -28.140625 C 15.25 -28.140625 17.613281 -27.578125 19.59375 -26.453125 C 21.570312 -25.335938 23.09375 -23.734375 24.15625 -21.640625 C 25.21875 -19.546875 25.75 -17.035156 25.75 -14.109375 C 25.75 -11.179688 25.210938 -8.660156 24.140625 -6.546875 C 23.078125 -4.441406 21.535156 -2.820312 19.515625 -1.6875 C 17.503906 -0.5625 15.066406 0 12.203125 0 Z M 7.34375 -3.703125 L 11.96875 -3.703125 C 14.113281 -3.703125 15.894531 -4.109375 17.3125 -4.921875 C 18.738281 -5.734375 19.800781 -6.910156 20.5 -8.453125 C 21.207031 -10.003906 21.5625 -11.890625 21.5625 -14.109375 C 21.5625 -16.316406 21.210938 -18.191406 20.515625 -19.734375 C 19.816406 -21.273438 18.773438 -22.441406 17.390625 -23.234375 C 16.003906 -24.035156 14.285156 -24.4375 12.234375 -24.4375 L 7.34375 -24.4375 Z M 7.34375 -3.703125 "/></g></g></g><g fill="#000000" fill-opacity="1"><g transform="translate(27.837717, 38.664077)"><g><path d="M 7.34375 -28.140625 L 7.34375 0 L 3.09375 0 L 3.09375 -28.140625 Z M 7.34375 -28.140625 "/></g></g></g><g fill="#000000" fill-opacity="1"><g transform="translate(37.648504, 38.664077)"><g><path d="M 18.4375 -20.75 C 18.289062 -22.050781 17.6875 -23.0625 16.625 -23.78125 C 15.5625 -24.5 14.222656 -24.859375 12.609375 -24.859375 C 11.460938 -24.859375 10.46875 -24.675781 9.625 -24.3125 C 8.78125 -23.957031 8.125 -23.460938 7.65625 -22.828125 C 7.195312 -22.203125 6.96875 -21.492188 6.96875 -20.703125 C 6.96875 -20.035156 7.125 -19.457031 7.4375 -18.96875 C 7.757812 -18.476562 8.175781 -18.070312 8.6875 -17.75 C 9.207031 -17.425781 9.765625 -17.15625 10.359375 -16.9375 C 10.953125 -16.71875 11.523438 -16.539062 12.078125 -16.40625 L 14.828125 -15.703125 C 15.722656 -15.472656 16.644531 -15.171875 17.59375 -14.796875 C 18.539062 -14.421875 19.414062 -13.925781 20.21875 -13.3125 C 21.019531 -12.695312 21.671875 -11.9375 22.171875 -11.03125 C 22.671875 -10.125 22.921875 -9.039062 22.921875 -7.78125 C 22.921875 -6.1875 22.507812 -4.769531 21.6875 -3.53125 C 20.875 -2.289062 19.691406 -1.3125 18.140625 -0.59375 C 16.585938 0.113281 14.707031 0.46875 12.5 0.46875 C 10.394531 0.46875 8.570312 0.132812 7.03125 -0.53125 C 5.5 -1.207031 4.296875 -2.160156 3.421875 -3.390625 C 2.546875 -4.617188 2.066406 -6.082031 1.984375 -7.78125 L 6.234375 -7.78125 C 6.316406 -6.757812 6.648438 -5.910156 7.234375 -5.234375 C 7.816406 -4.566406 8.5625 -4.066406 9.46875 -3.734375 C 10.382812 -3.410156 11.390625 -3.25 12.484375 -3.25 C 13.679688 -3.25 14.75 -3.4375 15.6875 -3.8125 C 16.625 -4.195312 17.363281 -4.734375 17.90625 -5.421875 C 18.445312 -6.109375 18.71875 -6.910156 18.71875 -7.828125 C 18.71875 -8.660156 18.476562 -9.34375 18 -9.875 C 17.53125 -10.40625 16.894531 -10.84375 16.09375 -11.1875 C 15.300781 -11.53125 14.398438 -11.835938 13.390625 -12.109375 L 10.0625 -13.015625 C 7.800781 -13.628906 6.015625 -14.53125 4.703125 -15.71875 C 3.390625 -16.914062 2.734375 -18.492188 2.734375 -20.453125 C 2.734375 -22.078125 3.171875 -23.492188 4.046875 -24.703125 C 4.929688 -25.910156 6.125 -26.847656 7.625 -27.515625 C 9.125 -28.191406 10.820312 -28.53125 12.71875 -28.53125 C 14.625 -28.53125 16.304688 -28.195312 17.765625 -27.53125 C 19.222656 -26.863281 20.375 -25.941406 21.21875 -24.765625 C 22.0625 -23.597656 22.503906 -22.257812 22.546875 -20.75 Z M 18.4375 -20.75 "/></g></g></g><g fill="#000000" fill-opacity="1"><g transform="translate(61.929314, 38.664077)"><g><path d="M 26.46875 -19 L 22.1875 -19 C 22.019531 -19.914062 21.710938 -20.71875 21.265625 -21.40625 C 20.816406 -22.101562 20.265625 -22.695312 19.609375 -23.1875 C 18.960938 -23.675781 18.238281 -24.039062 17.4375 -24.28125 C 16.632812 -24.53125 15.785156 -24.65625 14.890625 -24.65625 C 13.265625 -24.65625 11.8125 -24.242188 10.53125 -23.421875 C 9.257812 -22.609375 8.253906 -21.414062 7.515625 -19.84375 C 6.773438 -18.269531 6.40625 -16.347656 6.40625 -14.078125 C 6.40625 -11.785156 6.773438 -9.847656 7.515625 -8.265625 C 8.253906 -6.691406 9.265625 -5.5 10.546875 -4.6875 C 11.828125 -3.882812 13.269531 -3.484375 14.875 -3.484375 C 15.757812 -3.484375 16.601562 -3.601562 17.40625 -3.84375 C 18.207031 -4.09375 18.929688 -4.457031 19.578125 -4.9375 C 20.234375 -5.414062 20.785156 -6 21.234375 -6.6875 C 21.691406 -7.375 22.007812 -8.171875 22.1875 -9.078125 L 26.46875 -9.0625 C 26.238281 -7.675781 25.796875 -6.398438 25.140625 -5.234375 C 24.484375 -4.078125 23.644531 -3.078125 22.625 -2.234375 C 21.601562 -1.398438 20.4375 -0.753906 19.125 -0.296875 C 17.820312 0.160156 16.394531 0.390625 14.84375 0.390625 C 12.40625 0.390625 10.234375 -0.1875 8.328125 -1.34375 C 6.421875 -2.507812 4.921875 -4.171875 3.828125 -6.328125 C 2.734375 -8.492188 2.1875 -11.078125 2.1875 -14.078125 C 2.1875 -17.078125 2.734375 -19.65625 3.828125 -21.8125 C 4.929688 -23.976562 6.4375 -25.640625 8.34375 -26.796875 C 10.25 -27.953125 12.414062 -28.53125 14.84375 -28.53125 C 16.332031 -28.53125 17.722656 -28.316406 19.015625 -27.890625 C 20.316406 -27.460938 21.484375 -26.835938 22.515625 -26.015625 C 23.554688 -25.203125 24.414062 -24.207031 25.09375 -23.03125 C 25.769531 -21.851562 26.226562 -20.507812 26.46875 -19 Z M 26.46875 -19 "/></g></g></g><g fill="#000000" fill-opacity="1"><g transform="translate(89.769221, 38.664077)"><g><path d="M 27.546875 -14.078125 C 27.546875 -11.066406 26.992188 -8.484375 25.890625 -6.328125 C 24.796875 -4.171875 23.289062 -2.507812 21.375 -1.34375 C 19.46875 -0.1875 17.300781 0.390625 14.875 0.390625 C 12.4375 0.390625 10.257812 -0.1875 8.34375 -1.34375 C 6.4375 -2.507812 4.929688 -4.171875 3.828125 -6.328125 C 2.734375 -8.492188 2.1875 -11.078125 2.1875 -14.078125 C 2.1875 -17.078125 2.734375 -19.65625 3.828125 -21.8125 C 4.929688 -23.976562 6.4375 -25.640625 8.34375 -26.796875 C 10.257812 -27.953125 12.4375 -28.53125 14.875 -28.53125 C 17.300781 -28.53125 19.46875 -27.953125 21.375 -26.796875 C 23.289062 -25.640625 24.796875 -23.976562 25.890625 -21.8125 C 26.992188 -19.65625 27.546875 -17.078125 27.546875 -14.078125 Z M 23.34375 -14.078125 C 23.34375 -16.367188 22.972656 -18.296875 22.234375 -19.859375 C 21.492188 -21.429688 20.484375 -22.625 19.203125 -23.4375 C 17.929688 -24.25 16.488281 -24.65625 14.875 -24.65625 C 13.25 -24.65625 11.800781 -24.25 10.53125 -23.4375 C 9.257812 -22.625 8.253906 -21.429688 7.515625 -19.859375 C 6.773438 -18.296875 6.40625 -16.367188 6.40625 -14.078125 C 6.40625 -11.785156 6.773438 -9.851562 7.515625 -8.28125 C 8.253906 -6.707031 9.257812 -5.515625 10.53125 -4.703125 C 11.800781 -3.890625 13.25 -3.484375 14.875 -3.484375 C 16.488281 -3.484375 17.929688 -3.890625 19.203125 -4.703125 C 20.484375 -5.515625 21.492188 -6.707031 22.234375 -8.28125 C 22.972656 -9.851562 23.34375 -11.785156 23.34375 -14.078125 Z M 23.34375 -14.078125 "/></g></g></g><g fill="#000000" fill-opacity="1"><g transform="translate(117.471678, 38.664077)"><g><path d="M 5.546875 -28.140625 L 13.390625 -5.21875 L 13.703125 -5.21875 L 21.53125 -28.140625 L 26.125 -28.140625 L 16 0 L 11.09375 0 L 0.96875 -28.140625 Z M 5.546875 -28.140625 "/></g></g></g><g fill="#000000" fill-opacity="1"><g transform="translate(143.937422, 38.664077)"><g><path d="M 3.09375 0 L 3.09375 -28.140625 L 20.734375 -28.140625 L 20.734375 -24.484375 L 7.34375 -24.484375 L 7.34375 -15.921875 L 19.8125 -15.921875 L 19.8125 -12.28125 L 7.34375 -12.28125 L 7.34375 -3.65625 L 20.90625 -3.65625 L 20.90625 0 Z M 3.09375 0 "/></g></g></g><g fill="#000000" fill-opacity="1"><g transform="translate(166.651672, 38.664077)"><g><path d="M 3.09375 0 L 3.09375 -28.140625 L 13.125 -28.140625 C 15.300781 -28.140625 17.109375 -27.765625 18.546875 -27.015625 C 19.992188 -26.265625 21.078125 -25.226562 21.796875 -23.90625 C 22.515625 -22.582031 22.875 -21.054688 22.875 -19.328125 C 22.875 -17.597656 22.515625 -16.082031 21.796875 -14.78125 C 21.078125 -13.476562 19.992188 -12.460938 18.546875 -11.734375 C 17.109375 -11.015625 15.296875 -10.65625 13.109375 -10.65625 L 5.515625 -10.65625 L 5.515625 -14.3125 L 12.734375 -14.3125 C 14.097656 -14.3125 15.210938 -14.503906 16.078125 -14.890625 C 16.953125 -15.285156 17.585938 -15.859375 17.984375 -16.609375 C 18.390625 -17.367188 18.59375 -18.273438 18.59375 -19.328125 C 18.59375 -20.390625 18.390625 -21.304688 17.984375 -22.078125 C 17.578125 -22.859375 16.941406 -23.457031 16.078125 -23.875 C 15.210938 -24.289062 14.078125 -24.5 12.671875 -24.5 L 7.34375 -24.5 L 7.34375 0 Z M 16.984375 -12.703125 L 23.9375 0 L 19.109375 0 L 12.28125 -12.703125 Z M 16.984375 -12.703125 "/></g></g></g><g fill="#000000" fill-opacity="1"><g transform="translate(190.987462, 38.664077)"><g/></g></g><g fill="#000000" fill-opacity="1"><g transform="translate(200.619601, 38.664077)"><g><path d="M 0.921875 -28.140625 L 5.75 -28.140625 L 13.09375 -15.359375 L 13.40625 -15.359375 L 20.75 -28.140625 L 25.578125 -28.140625 L 15.359375 -11.046875 L 15.359375 0 L 11.125 0 L 11.125 -11.046875 Z M 0.921875 -28.140625 "/></g></g></g><g fill="#000000" fill-opacity="1"><g transform="translate(225.037799, 38.664077)"><g><path d="M 27.546875 -14.078125 C 27.546875 -11.066406 26.992188 -8.484375 25.890625 -6.328125 C 24.796875 -4.171875 23.289062 -2.507812 21.375 -1.34375 C 19.46875 -0.1875 17.300781 0.390625 14.875 0.390625 C 12.4375 0.390625 10.257812 -0.1875 8.34375 -1.34375 C 6.4375 -2.507812 4.929688 -4.171875 3.828125 -6.328125 C 2.734375 -8.492188 2.1875 -11.078125 2.1875 -14.078125 C 2.1875 -17.078125 2.734375 -19.65625 3.828125 -21.8125 C 4.929688 -23.976562 6.4375 -25.640625 8.34375 -26.796875 C 10.257812 -27.953125 12.4375 -28.53125 14.875 -28.53125 C 17.300781 -28.53125 19.46875 -27.953125 21.375 -26.796875 C 23.289062 -25.640625 24.796875 -23.976562 25.890625 -21.8125 C 26.992188 -19.65625 27.546875 -17.078125 27.546875 -14.078125 Z M 23.34375 -14.078125 C 23.34375 -16.367188 22.972656 -18.296875 22.234375 -19.859375 C 21.492188 -21.429688 20.484375 -22.625 19.203125 -23.4375 C 17.929688 -24.25 16.488281 -24.65625 14.875 -24.65625 C 13.25 -24.65625 11.800781 -24.25 10.53125 -23.4375 C 9.257812 -22.625 8.253906 -21.429688 7.515625 -19.859375 C 6.773438 -18.296875 6.40625 -16.367188 6.40625 -14.078125 C 6.40625 -11.785156 6.773438 -9.851562 7.515625 -8.28125 C 8.253906 -6.707031 9.257812 -5.515625 10.53125 -4.703125 C 11.800781 -3.890625 13.25 -3.484375 14.875 -3.484375 C 16.488281 -3.484375 17.929688 -3.890625 19.203125 -4.703125 C 20.484375 -5.515625 21.492188 -6.707031 22.234375 -8.28125 C 22.972656 -9.851562 23.34375 -11.785156 23.34375 -14.078125 Z M 23.34375 -14.078125 "/></g></g></g><g fill="#000000" fill-opacity="1"><g transform="translate(254.14194, 38.664077)"><g><path d="M 21.1875 -28.140625 L 25.453125 -28.140625 L 25.453125 -9.640625 C 25.453125 -7.660156 24.988281 -5.910156 24.0625 -4.390625 C 23.132812 -2.878906 21.832031 -1.691406 20.15625 -0.828125 C 18.476562 0.0351562 16.515625 0.46875 14.265625 0.46875 C 12.023438 0.46875 10.066406 0.0351562 8.390625 -0.828125 C 6.710938 -1.691406 5.410156 -2.878906 4.484375 -4.390625 C 3.554688 -5.910156 3.09375 -7.660156 3.09375 -9.640625 L 3.09375 -28.140625 L 7.34375 -28.140625 L 7.34375 -9.984375 C 7.34375 -8.703125 7.625 -7.566406 8.1875 -6.578125 C 8.75 -5.585938 9.546875 -4.8125 10.578125 -4.25 C 11.617188 -3.6875 12.847656 -3.40625 14.265625 -3.40625 C 15.691406 -3.40625 16.925781 -3.6875 17.96875 -4.25 C 19.007812 -4.8125 19.804688 -5.585938 20.359375 -6.578125 C 20.910156 -7.566406 21.1875 -8.703125 21.1875 -9.984375 Z M 21.1875 -28.140625 "/></g></g></g><g fill="#000000" fill-opacity="1"><g transform="translate(282.064296, 38.664077)"><g><path d="M 3.09375 0 L 3.09375 -28.140625 L 13.125 -28.140625 C 15.300781 -28.140625 17.109375 -27.765625 18.546875 -27.015625 C 19.992188 -26.265625 21.078125 -25.226562 21.796875 -23.90625 C 22.515625 -22.582031 22.875 -21.054688 22.875 -19.328125 C 22.875 -17.597656 22.515625 -16.082031 21.796875 -14.78125 C 21.078125 -13.476562 19.992188 -12.460938 18.546875 -11.734375 C 17.109375 -11.015625 15.296875 -10.65625 13.109375 -10.65625 L 5.515625 -10.65625 L 5.515625 -14.3125 L 12.734375 -14.3125 C 14.097656 -14.3125 15.210938 -14.503906 16.078125 -14.890625 C 16.953125 -15.285156 17.585938 -15.859375 17.984375 -16.609375 C 18.390625 -17.367188 18.59375 -18.273438 18.59375 -19.328125 C 18.59375 -20.390625 18.390625 -21.304688 17.984375 -22.078125 C 17.578125 -22.859375 16.941406 -23.457031 16.078125 -23.875 C 15.210938 -24.289062 14.078125 -24.5 12.671875 -24.5 L 7.34375 -24.5 L 7.34375 0 Z M 16.984375 -12.703125 L 23.9375 0 L 19.109375 0 L 12.28125 -12.703125 Z M 16.984375 -12.703125 "/></g></g></g><g fill="#000000" fill-opacity="1"><g transform="translate(306.400076, 38.664077)"><g/></g></g><g fill="#000000" fill-opacity="1"><g transform="translate(316.032236, 38.664077)"><g><path d="M 3.09375 0 L 3.09375 -28.140625 L 13.40625 -28.140625 C 15.394531 -28.140625 17.046875 -27.8125 18.359375 -27.15625 C 19.671875 -26.507812 20.648438 -25.628906 21.296875 -24.515625 C 21.953125 -23.398438 22.28125 -22.144531 22.28125 -20.75 C 22.28125 -19.582031 22.0625 -18.597656 21.625 -17.796875 C 21.195312 -16.992188 20.625 -16.347656 19.90625 -15.859375 C 19.1875 -15.378906 18.394531 -15.03125 17.53125 -14.8125 L 17.53125 -14.546875 C 18.46875 -14.492188 19.382812 -14.191406 20.28125 -13.640625 C 21.175781 -13.085938 21.914062 -12.300781 22.5 -11.28125 C 23.082031 -10.269531 23.375 -9.035156 23.375 -7.578125 C 23.375 -6.140625 23.035156 -4.847656 22.359375 -3.703125 C 21.691406 -2.566406 20.65625 -1.664062 19.25 -1 C 17.851562 -0.332031 16.0625 0 13.875 0 Z M 7.34375 -3.640625 L 13.46875 -3.640625 C 15.5 -3.640625 16.953125 -4.03125 17.828125 -4.8125 C 18.710938 -5.601562 19.15625 -6.59375 19.15625 -7.78125 C 19.15625 -8.664062 18.929688 -9.476562 18.484375 -10.21875 C 18.035156 -10.96875 17.394531 -11.5625 16.5625 -12 C 15.738281 -12.4375 14.757812 -12.65625 13.625 -12.65625 L 7.34375 -12.65625 Z M 7.34375 -15.96875 L 13.03125 -15.96875 C 13.976562 -15.96875 14.832031 -16.148438 15.59375 -16.515625 C 16.363281 -16.878906 16.972656 -17.394531 17.421875 -18.0625 C 17.878906 -18.726562 18.109375 -19.515625 18.109375 -20.421875 C 18.109375 -21.585938 17.703125 -22.5625 16.890625 -23.34375 C 16.078125 -24.132812 14.828125 -24.53125 13.140625 -24.53125 L 7.34375 -24.53125 Z M 7.34375 -15.96875 "/></g></g></g><g fill="#000000" fill-opacity="1"><g transform="translate(340.72527, 38.664077)"><g><path d="M 3.09375 0 L 3.09375 -28.140625 L 20.734375 -28.140625 L 20.734375 -24.484375 L 7.34375 -24.484375 L 7.34375 -15.921875 L 19.8125 -15.921875 L 19.8125 -12.28125 L 7.34375 -12.28125 L 7.34375 -3.65625 L 20.90625 -3.65625 L 20.90625 0 Z M 3.09375 0 "/></g></g></g><g fill="#000000" fill-opacity="1"><g transform="translate(363.43953, 38.664077)"><g><path d="M 18.4375 -20.75 C 18.289062 -22.050781 17.6875 -23.0625 16.625 -23.78125 C 15.5625 -24.5 14.222656 -24.859375 12.609375 -24.859375 C 11.460938 -24.859375 10.46875 -24.675781 9.625 -24.3125 C 8.78125 -23.957031 8.125 -23.460938 7.65625 -22.828125 C 7.195312 -22.203125 6.96875 -21.492188 6.96875 -20.703125 C 6.96875 -20.035156 7.125 -19.457031 7.4375 -18.96875 C 7.757812 -18.476562 8.175781 -18.070312 8.6875 -17.75 C 9.207031 -17.425781 9.765625 -17.15625 10.359375 -16.9375 C 10.953125 -16.71875 11.523438 -16.539062 12.078125 -16.40625 L 14.828125 -15.703125 C 15.722656 -15.472656 16.644531 -15.171875 17.59375 -14.796875 C 18.539062 -14.421875 19.414062 -13.925781 20.21875 -13.3125 C 21.019531 -12.695312 21.671875 -11.9375 22.171875 -11.03125 C 22.671875 -10.125 22.921875 -9.039062 22.921875 -7.78125 C 22.921875 -6.1875 22.507812 -4.769531 21.6875 -3.53125 C 20.875 -2.289062 19.691406 -1.3125 18.140625 -0.59375 C 16.585938 0.113281 14.707031 0.46875 12.5 0.46875 C 10.394531 0.46875 8.570312 0.132812 7.03125 -0.53125 C 5.5 -1.207031 4.296875 -2.160156 3.421875 -3.390625 C 2.546875 -4.617188 2.066406 -6.082031 1.984375 -7.78125 L 6.234375 -7.78125 C 6.316406 -6.757812 6.648438 -5.910156 7.234375 -5.234375 C 7.816406 -4.566406 8.5625 -4.066406 9.46875 -3.734375 C 10.382812 -3.410156 11.390625 -3.25 12.484375 -3.25 C 13.679688 -3.25 14.75 -3.4375 15.6875 -3.8125 C 16.625 -4.195312 17.363281 -4.734375 17.90625 -5.421875 C 18.445312 -6.109375 18.71875 -6.910156 18.71875 -7.828125 C 18.71875 -8.660156 18.476562 -9.34375 18 -9.875 C 17.53125 -10.40625 16.894531 -10.84375 16.09375 -11.1875 C 15.300781 -11.53125 14.398438 -11.835938 13.390625 -12.109375 L 10.0625 -13.015625 C 7.800781 -13.628906 6.015625 -14.53125 4.703125 -15.71875 C 3.390625 -16.914062 2.734375 -18.492188 2.734375 -20.453125 C 2.734375 -22.078125 3.171875 -23.492188 4.046875 -24.703125 C 4.929688 -25.910156 6.125 -26.847656 7.625 -27.515625 C 9.125 -28.191406 10.820312 -28.53125 12.71875 -28.53125 C 14.625 -28.53125 16.304688 -28.195312 17.765625 -27.53125 C 19.222656 -26.863281 20.375 -25.941406 21.21875 -24.765625 C 22.0625 -23.597656 22.503906 -22.257812 22.546875 -20.75 Z M 18.4375 -20.75 "/></g></g></g><g fill="#000000" fill-opacity="1"><g transform="translate(387.72033, 38.664077)"><g><path d="M 1.703125 -24.484375 L 1.703125 -28.140625 L 23.484375 -28.140625 L 23.484375 -24.484375 L 14.703125 -24.484375 L 14.703125 0 L 10.46875 0 L 10.46875 -24.484375 Z M 1.703125 -24.484375 "/></g></g></g><g fill="#000000" fill-opacity="1"><g transform="translate(412.289728, 38.664077)"><g/></g></g><g fill="#000000" fill-opacity="1"><g transform="translate(421.921867, 38.664077)"><g><path d="M 3.09375 0 L 3.09375 -28.140625 L 13.125 -28.140625 C 15.3125 -28.140625 17.125 -27.738281 18.5625 -26.9375 C 20 -26.144531 21.078125 -25.0625 21.796875 -23.6875 C 22.515625 -22.3125 22.875 -20.757812 22.875 -19.03125 C 22.875 -17.300781 22.515625 -15.742188 21.796875 -14.359375 C 21.078125 -12.984375 19.992188 -11.894531 18.546875 -11.09375 C 17.109375 -10.289062 15.296875 -9.890625 13.109375 -9.890625 L 6.21875 -9.890625 L 6.21875 -13.5 L 12.734375 -13.5 C 14.109375 -13.5 15.226562 -13.738281 16.09375 -14.21875 C 16.957031 -14.695312 17.585938 -15.351562 17.984375 -16.1875 C 18.390625 -17.019531 18.59375 -17.96875 18.59375 -19.03125 C 18.59375 -20.09375 18.390625 -21.035156 17.984375 -21.859375 C 17.585938 -22.691406 16.953125 -23.335938 16.078125 -23.796875 C 15.210938 -24.265625 14.078125 -24.5 12.671875 -24.5 L 7.34375 -24.5 L 7.34375 0 Z M 3.09375 0 "/></g></g></g><g fill="#000000" fill-opacity="1"><g transform="translate(446.03779, 38.664077)"><g><path d="M 3.09375 0 L 3.09375 -28.140625 L 7.34375 -28.140625 L 7.34375 -15.921875 L 21.375 -15.921875 L 21.375 -28.140625 L 25.625 -28.140625 L 25.625 0 L 21.375 0 L 21.375 -12.28125 L 7.34375 -12.28125 L 7.34375 0 Z M 3.09375 0 "/></g></g></g><g fill="#000000" fill-opacity="1"><g transform="translate(474.138783, 38.664077)"><g><path d="M 27.546875 -14.078125 C 27.546875 -11.066406 26.992188 -8.484375 25.890625 -6.328125 C 24.796875 -4.171875 23.289062 -2.507812 21.375 -1.34375 C 19.46875 -0.1875 17.300781 0.390625 14.875 0.390625 C 12.4375 0.390625 10.257812 -0.1875 8.34375 -1.34375 C 6.4375 -2.507812 4.929688 -4.171875 3.828125 -6.328125 C 2.734375 -8.492188 2.1875 -11.078125 2.1875 -14.078125 C 2.1875 -17.078125 2.734375 -19.65625 3.828125 -21.8125 C 4.929688 -23.976562 6.4375 -25.640625 8.34375 -26.796875 C 10.257812 -27.953125 12.4375 -28.53125 14.875 -28.53125 C 17.300781 -28.53125 19.46875 -27.953125 21.375 -26.796875 C 23.289062 -25.640625 24.796875 -23.976562 25.890625 -21.8125 C 26.992188 -19.65625 27.546875 -17.078125 27.546875 -14.078125 Z M 23.34375 -14.078125 C 23.34375 -16.367188 22.972656 -18.296875 22.234375 -19.859375 C 21.492188 -21.429688 20.484375 -22.625 19.203125 -23.4375 C 17.929688 -24.25 16.488281 -24.65625 14.875 -24.65625 C 13.25 -24.65625 11.800781 -24.25 10.53125 -23.4375 C 9.257812 -22.625 8.253906 -21.429688 7.515625 -19.859375 C 6.773438 -18.296875 6.40625 -16.367188 6.40625 -14.078125 C 6.40625 -11.785156 6.773438 -9.851562 7.515625 -8.28125 C 8.253906 -6.707031 9.257812 -5.515625 10.53125 -4.703125 C 11.800781 -3.890625 13.25 -3.484375 14.875 -3.484375 C 16.488281 -3.484375 17.929688 -3.890625 19.203125 -4.703125 C 20.484375 -5.515625 21.492188 -6.707031 22.234375 -8.28125 C 22.972656 -9.851562 23.34375 -11.785156 23.34375 -14.078125 Z M 23.34375 -14.078125 "/></g></g></g><g fill="#000000" fill-opacity="1"><g transform="translate(502.061139, 38.664077)"><g><path d="M 1.703125 -24.484375 L 1.703125 -28.140625 L 23.484375 -28.140625 L 23.484375 -24.484375 L 14.703125 -24.484375 L 14.703125 0 L 10.46875 0 L 10.46875 -24.484375 Z M 1.703125 -24.484375 "/></g></g></g><g fill="#000000" fill-opacity="1"><g transform="translate(525.448709, 38.664077)"><g><path d="M 27.546875 -14.078125 C 27.546875 -11.066406 26.992188 -8.484375 25.890625 -6.328125 C 24.796875 -4.171875 23.289062 -2.507812 21.375 -1.34375 C 19.46875 -0.1875 17.300781 0.390625 14.875 0.390625 C 12.4375 0.390625 10.257812 -0.1875 8.34375 -1.34375 C 6.4375 -2.507812 4.929688 -4.171875 3.828125 -6.328125 C 2.734375 -8.492188 2.1875 -11.078125 2.1875 -14.078125 C 2.1875 -17.078125 2.734375 -19.65625 3.828125 -21.8125 C 4.929688 -23.976562 6.4375 -25.640625 8.34375 -26.796875 C 10.257812 -27.953125 12.4375 -28.53125 14.875 -28.53125 C 17.300781 -28.53125 19.46875 -27.953125 21.375 -26.796875 C 23.289062 -25.640625 24.796875 -23.976562 25.890625 -21.8125 C 26.992188 -19.65625 27.546875 -17.078125 27.546875 -14.078125 Z M 23.34375 -14.078125 C 23.34375 -16.367188 22.972656 -18.296875 22.234375 -19.859375 C 21.492188 -21.429688 20.484375 -22.625 19.203125 -23.4375 C 17.929688 -24.25 16.488281 -24.65625 14.875 -24.65625 C 13.25 -24.65625 11.800781 -24.25 10.53125 -23.4375 C 9.257812 -22.625 8.253906 -21.429688 7.515625 -19.859375 C 6.773438 -18.296875 6.40625 -16.367188 6.40625 -14.078125 C 6.40625 -11.785156 6.773438 -9.851562 7.515625 -8.28125 C 8.253906 -6.707031 9.257812 -5.515625 10.53125 -4.703125 C 11.800781 -3.890625 13.25 -3.484375 14.875 -3.484375 C 16.488281 -3.484375 17.929688 -3.890625 19.203125 -4.703125 C 20.484375 -5.515625 21.492188 -6.707031 22.234375 -8.28125 C 22.972656 -9.851562 23.34375 -11.785156 23.34375 -14.078125 Z M 23.34375 -14.078125 "/></g></g></g><g fill="#000000" fill-opacity="1"><g transform="translate(554.552851, 38.664077)"><g><path d="M 18.4375 -20.75 C 18.289062 -22.050781 17.6875 -23.0625 16.625 -23.78125 C 15.5625 -24.5 14.222656 -24.859375 12.609375 -24.859375 C 11.460938 -24.859375 10.46875 -24.675781 9.625 -24.3125 C 8.78125 -23.957031 8.125 -23.460938 7.65625 -22.828125 C 7.195312 -22.203125 6.96875 -21.492188 6.96875 -20.703125 C 6.96875 -20.035156 7.125 -19.457031 7.4375 -18.96875 C 7.757812 -18.476562 8.175781 -18.070312 8.6875 -17.75 C 9.207031 -17.425781 9.765625 -17.15625 10.359375 -16.9375 C 10.953125 -16.71875 11.523438 -16.539062 12.078125 -16.40625 L 14.828125 -15.703125 C 15.722656 -15.472656 16.644531 -15.171875 17.59375 -14.796875 C 18.539062 -14.421875 19.414062 -13.925781 20.21875 -13.3125 C 21.019531 -12.695312 21.671875 -11.9375 22.171875 -11.03125 C 22.671875 -10.125 22.921875 -9.039062 22.921875 -7.78125 C 22.921875 -6.1875 22.507812 -4.769531 21.6875 -3.53125 C 20.875 -2.289062 19.691406 -1.3125 18.140625 -0.59375 C 16.585938 0.113281 14.707031 0.46875 12.5 0.46875 C 10.394531 0.46875 8.570312 0.132812 7.03125 -0.53125 C 5.5 -1.207031 4.296875 -2.160156 3.421875 -3.390625 C 2.546875 -4.617188 2.066406 -6.082031 1.984375 -7.78125 L 6.234375 -7.78125 C 6.316406 -6.757812 6.648438 -5.910156 7.234375 -5.234375 C 7.816406 -4.566406 8.5625 -4.066406 9.46875 -3.734375 C 10.382812 -3.410156 11.390625 -3.25 12.484375 -3.25 C 13.679688 -3.25 14.75 -3.4375 15.6875 -3.8125 C 16.625 -4.195312 17.363281 -4.734375 17.90625 -5.421875 C 18.445312 -6.109375 18.71875 -6.910156 18.71875 -7.828125 C 18.71875 -8.660156 18.476562 -9.34375 18 -9.875 C 17.53125 -10.40625 16.894531 -10.84375 16.09375 -11.1875 C 15.300781 -11.53125 14.398438 -11.835938 13.390625 -12.109375 L 10.0625 -13.015625 C 7.800781 -13.628906 6.015625 -14.53125 4.703125 -15.71875 C 3.390625 -16.914062 2.734375 -18.492188 2.734375 -20.453125 C 2.734375 -22.078125 3.171875 -23.492188 4.046875 -24.703125 C 4.929688 -25.910156 6.125 -26.847656 7.625 -27.515625 C 9.125 -28.191406 10.820312 -28.53125 12.71875 -28.53125 C 14.625 -28.53125 16.304688 -28.195312 17.765625 -27.53125 C 19.222656 -26.863281 20.375 -25.941406 21.21875 -24.765625 C 22.0625 -23.597656 22.503906 -22.257812 22.546875 -20.75 Z M 18.4375 -20.75 "/></g></g></g></g></g></svg>