<svg xmlns="http://www.w3.org/2000/svg" xmlns:xlink="http://www.w3.org/1999/xlink" width="1200" zoomAndPan="magnify" viewBox="0 0 900 470.25" height="627" preserveAspectRatio="xMidYMid meet" version="1.0"><defs><g/><clipPath id="5a1a8d5e26"><path d="M 0.714844 0 L 899.28125 0 L 899.28125 469.5 L 0.714844 469.5 Z M 0.714844 0 " clip-rule="nonzero"/></clipPath><radialGradient gradientTransform="matrix(1, 0, 0, 1, 0.716561, 0.00000998408)" gradientUnits="userSpaceOnUse" r="1013.831316" cx="0" id="0b654d52ba" cy="0" fx="0" fy="0"><stop stop-opacity="1" stop-color="rgb(94.386292%, 43.945312%, 2.606201%)" offset="0"/><stop stop-opacity="1" stop-color="rgb(94.140625%, 43.217468%, 3.118896%)" offset="0.00390625"/><stop stop-opacity="1" stop-color="rgb(93.896484%, 42.489624%, 3.631592%)" offset="0.0078125"/><stop stop-opacity="1" stop-color="rgb(93.650818%, 41.76178%, 4.145813%)" offset="0.0117188"/><stop stop-opacity="1" stop-color="rgb(93.405151%, 41.035461%, 4.658508%)" offset="0.015625"/><stop stop-opacity="1" stop-color="rgb(93.161011%, 40.307617%, 5.172729%)" offset="0.0195312"/><stop stop-opacity="1" stop-color="rgb(92.915344%, 39.579773%, 5.685425%)" offset="0.0234375"/><stop stop-opacity="1" stop-color="rgb(92.669678%, 38.851929%, 6.19812%)" offset="0.0273438"/><stop stop-opacity="1" stop-color="rgb(92.425537%, 38.124084%, 6.712341%)" offset="0.03125"/><stop stop-opacity="1" stop-color="rgb(92.179871%, 37.397766%, 7.225037%)" offset="0.0351562"/><stop stop-opacity="1" stop-color="rgb(91.93573%, 36.669922%, 7.737732%)" offset="0.0390625"/><stop stop-opacity="1" stop-color="rgb(91.690063%, 35.942078%, 8.251953%)" offset="0.0429688"/><stop stop-opacity="1" stop-color="rgb(91.444397%, 35.214233%, 8.764648%)" offset="0.046875"/><stop stop-opacity="1" stop-color="rgb(91.200256%, 34.486389%, 9.27887%)" offset="0.0507812"/><stop stop-opacity="1" stop-color="rgb(90.95459%, 33.760071%, 9.791565%)" offset="0.0546875"/><stop stop-opacity="1" stop-color="rgb(90.708923%, 33.032227%, 10.30426%)" offset="0.0585938"/><stop stop-opacity="1" stop-color="rgb(90.464783%, 32.304382%, 10.818481%)" offset="0.0625"/><stop stop-opacity="1" stop-color="rgb(90.219116%, 31.576538%, 11.331177%)" offset="0.0664062"/><stop stop-opacity="1" stop-color="rgb(89.97345%, 30.848694%, 11.845398%)" offset="0.0703125"/><stop stop-opacity="1" stop-color="rgb(89.729309%, 30.122375%, 12.358093%)" offset="0.0742188"/><stop stop-opacity="1" stop-color="rgb(89.483643%, 29.394531%, 12.870789%)" offset="0.078125"/><stop stop-opacity="1" stop-color="rgb(89.237976%, 28.666687%, 13.38501%)" offset="0.0820312"/><stop stop-opacity="1" stop-color="rgb(88.993835%, 27.938843%, 13.897705%)" offset="0.0859375"/><stop stop-opacity="1" stop-color="rgb(88.748169%, 27.210999%, 14.4104%)" offset="0.0898438"/><stop stop-opacity="1" stop-color="rgb(88.504028%, 26.48468%, 14.924622%)" offset="0.09375"/><stop stop-opacity="1" stop-color="rgb(88.258362%, 25.756836%, 15.437317%)" offset="0.0976562"/><stop stop-opacity="1" stop-color="rgb(88.012695%, 25.028992%, 15.951538%)" offset="0.101562"/><stop stop-opacity="1" stop-color="rgb(87.768555%, 24.301147%, 16.464233%)" offset="0.105469"/><stop stop-opacity="1" stop-color="rgb(87.522888%, 23.573303%, 16.976929%)" offset="0.109375"/><stop stop-opacity="1" stop-color="rgb(87.277222%, 22.846985%, 17.49115%)" offset="0.113281"/><stop stop-opacity="1" stop-color="rgb(87.033081%, 22.119141%, 18.003845%)" offset="0.117188"/><stop stop-opacity="1" stop-color="rgb(86.787415%, 21.391296%, 18.518066%)" offset="0.121094"/><stop stop-opacity="1" stop-color="rgb(86.541748%, 20.663452%, 19.030762%)" offset="0.125"/><stop stop-opacity="1" stop-color="rgb(86.297607%, 19.935608%, 19.543457%)" offset="0.128906"/><stop stop-opacity="1" stop-color="rgb(86.051941%, 19.20929%, 20.057678%)" offset="0.132812"/><stop stop-opacity="1" stop-color="rgb(85.8078%, 18.481445%, 20.570374%)" offset="0.136719"/><stop stop-opacity="1" stop-color="rgb(85.562134%, 17.753601%, 21.083069%)" offset="0.140625"/><stop stop-opacity="1" stop-color="rgb(85.316467%, 17.025757%, 21.59729%)" offset="0.144531"/><stop stop-opacity="1" stop-color="rgb(85.072327%, 16.297913%, 22.109985%)" offset="0.148438"/><stop stop-opacity="1" stop-color="rgb(84.82666%, 15.571594%, 22.624207%)" offset="0.152344"/><stop stop-opacity="1" stop-color="rgb(84.580994%, 14.84375%, 23.136902%)" offset="0.15625"/><stop stop-opacity="1" stop-color="rgb(84.336853%, 14.115906%, 23.649597%)" offset="0.160156"/><stop stop-opacity="1" stop-color="rgb(84.091187%, 13.388062%, 24.163818%)" offset="0.164062"/><stop stop-opacity="1" stop-color="rgb(83.84552%, 12.660217%, 24.676514%)" offset="0.167969"/><stop stop-opacity="1" stop-color="rgb(83.601379%, 11.933899%, 25.189209%)" offset="0.171875"/><stop stop-opacity="1" stop-color="rgb(83.355713%, 11.206055%, 25.70343%)" offset="0.175781"/><stop stop-opacity="1" stop-color="rgb(83.110046%, 10.47821%, 26.216125%)" offset="0.179688"/><stop stop-opacity="1" stop-color="rgb(82.865906%, 9.750366%, 26.730347%)" offset="0.183594"/><stop stop-opacity="1" stop-color="rgb(82.620239%, 9.022522%, 27.243042%)" offset="0.1875"/><stop stop-opacity="1" stop-color="rgb(82.376099%, 8.296204%, 27.755737%)" offset="0.191406"/><stop stop-opacity="1" stop-color="rgb(82.130432%, 7.568359%, 28.269958%)" offset="0.195312"/><stop stop-opacity="1" stop-color="rgb(82.124329%, 7.646179%, 28.387451%)" offset="0.199219"/><stop stop-opacity="1" stop-color="rgb(82.417297%, 8.731079%, 28.010559%)" offset="0.203125"/><stop stop-opacity="1" stop-color="rgb(82.76825%, 10.017395%, 27.536011%)" offset="0.207031"/><stop stop-opacity="1" stop-color="rgb(83.120728%, 11.305237%, 27.061462%)" offset="0.210938"/><stop stop-opacity="1" stop-color="rgb(83.473206%, 12.591553%, 26.586914%)" offset="0.214844"/><stop stop-opacity="1" stop-color="rgb(83.825684%, 13.877869%, 26.11084%)" offset="0.21875"/><stop stop-opacity="1" stop-color="rgb(84.178162%, 15.16571%, 25.636292%)" offset="0.222656"/><stop stop-opacity="1" stop-color="rgb(84.53064%, 16.452026%, 25.161743%)" offset="0.226562"/><stop stop-opacity="1" stop-color="rgb(84.883118%, 17.738342%, 24.685669%)" offset="0.230469"/><stop stop-opacity="1" stop-color="rgb(85.235596%, 19.024658%, 24.211121%)" offset="0.234375"/><stop stop-opacity="1" stop-color="rgb(85.588074%, 20.3125%, 23.736572%)" offset="0.238281"/><stop stop-opacity="1" stop-color="rgb(85.940552%, 21.598816%, 23.260498%)" offset="0.242188"/><stop stop-opacity="1" stop-color="rgb(86.29303%, 22.885132%, 22.78595%)" offset="0.246094"/><stop stop-opacity="1" stop-color="rgb(86.643982%, 24.171448%, 22.311401%)" offset="0.25"/><stop stop-opacity="1" stop-color="rgb(86.99646%, 25.45929%, 21.836853%)" offset="0.253906"/><stop stop-opacity="1" stop-color="rgb(87.348938%, 26.745605%, 21.360779%)" offset="0.257812"/><stop stop-opacity="1" stop-color="rgb(87.701416%, 28.031921%, 20.88623%)" offset="0.261719"/><stop stop-opacity="1" stop-color="rgb(88.053894%, 29.318237%, 20.411682%)" offset="0.265625"/><stop stop-opacity="1" stop-color="rgb(88.406372%, 30.606079%, 19.935608%)" offset="0.269531"/><stop stop-opacity="1" stop-color="rgb(88.75885%, 31.892395%, 19.46106%)" offset="0.273438"/><stop stop-opacity="1" stop-color="rgb(89.111328%, 33.178711%, 18.986511%)" offset="0.277344"/><stop stop-opacity="1" stop-color="rgb(89.463806%, 34.465027%, 18.511963%)" offset="0.28125"/><stop stop-opacity="1" stop-color="rgb(89.816284%, 35.752869%, 18.035889%)" offset="0.285156"/><stop stop-opacity="1" stop-color="rgb(90.168762%, 37.039185%, 17.56134%)" offset="0.289062"/><stop stop-opacity="1" stop-color="rgb(90.52124%, 38.3255%, 17.086792%)" offset="0.292969"/><stop stop-opacity="1" stop-color="rgb(90.872192%, 39.613342%, 16.610718%)" offset="0.296875"/><stop stop-opacity="1" stop-color="rgb(91.22467%, 40.899658%, 16.136169%)" offset="0.300781"/><stop stop-opacity="1" stop-color="rgb(91.577148%, 42.185974%, 15.661621%)" offset="0.304688"/><stop stop-opacity="1" stop-color="rgb(91.929626%, 43.47229%, 15.185547%)" offset="0.308594"/><stop stop-opacity="1" stop-color="rgb(92.282104%, 44.760132%, 14.710999%)" offset="0.3125"/><stop stop-opacity="1" stop-color="rgb(92.634583%, 46.046448%, 14.23645%)" offset="0.316406"/><stop stop-opacity="1" stop-color="rgb(92.987061%, 47.332764%, 13.761902%)" offset="0.320312"/><stop stop-opacity="1" stop-color="rgb(93.339539%, 48.61908%, 13.285828%)" offset="0.324219"/><stop stop-opacity="1" stop-color="rgb(93.692017%, 49.906921%, 12.811279%)" offset="0.328125"/><stop stop-opacity="1" stop-color="rgb(94.044495%, 51.193237%, 12.336731%)" offset="0.332031"/><stop stop-opacity="1" stop-color="rgb(94.396973%, 52.479553%, 11.860657%)" offset="0.335938"/><stop stop-opacity="1" stop-color="rgb(94.747925%, 53.765869%, 11.386108%)" offset="0.339844"/><stop stop-opacity="1" stop-color="rgb(95.100403%, 55.053711%, 10.91156%)" offset="0.34375"/><stop stop-opacity="1" stop-color="rgb(95.452881%, 56.340027%, 10.435486%)" offset="0.347656"/><stop stop-opacity="1" stop-color="rgb(95.805359%, 57.626343%, 9.960938%)" offset="0.351562"/><stop stop-opacity="1" stop-color="rgb(96.157837%, 58.914185%, 9.486389%)" offset="0.355469"/><stop stop-opacity="1" stop-color="rgb(96.510315%, 60.2005%, 9.011841%)" offset="0.359375"/><stop stop-opacity="1" stop-color="rgb(96.862793%, 61.486816%, 8.535767%)" offset="0.363281"/><stop stop-opacity="1" stop-color="rgb(97.215271%, 62.773132%, 8.061218%)" offset="0.367188"/><stop stop-opacity="1" stop-color="rgb(97.567749%, 64.060974%, 7.58667%)" offset="0.371094"/><stop stop-opacity="1" stop-color="rgb(97.920227%, 65.34729%, 7.110596%)" offset="0.375"/><stop stop-opacity="1" stop-color="rgb(98.272705%, 66.633606%, 6.636047%)" offset="0.378906"/><stop stop-opacity="1" stop-color="rgb(98.623657%, 67.919922%, 6.161499%)" offset="0.382812"/><stop stop-opacity="1" stop-color="rgb(98.976135%, 69.207764%, 5.686951%)" offset="0.386719"/><stop stop-opacity="1" stop-color="rgb(99.328613%, 70.49408%, 5.210876%)" offset="0.390625"/><stop stop-opacity="1" stop-color="rgb(99.681091%, 71.780396%, 4.736328%)" offset="0.394531"/><stop stop-opacity="1" stop-color="rgb(99.749756%, 72.729492%, 4.597473%)" offset="0.398438"/><stop stop-opacity="1" stop-color="rgb(99.342346%, 73.11554%, 5.01709%)" offset="0.402344"/><stop stop-opacity="1" stop-color="rgb(98.744202%, 73.277283%, 5.659485%)" offset="0.40625"/><stop stop-opacity="1" stop-color="rgb(98.146057%, 73.4375%, 6.303406%)" offset="0.410156"/><stop stop-opacity="1" stop-color="rgb(97.549438%, 73.599243%, 6.947327%)" offset="0.414062"/><stop stop-opacity="1" stop-color="rgb(96.951294%, 73.75946%, 7.589722%)" offset="0.417969"/><stop stop-opacity="1" stop-color="rgb(96.354675%, 73.921204%, 8.233643%)" offset="0.421875"/><stop stop-opacity="1" stop-color="rgb(95.756531%, 74.081421%, 8.877563%)" offset="0.425781"/><stop stop-opacity="1" stop-color="rgb(95.159912%, 74.243164%, 9.519958%)" offset="0.429688"/><stop stop-opacity="1" stop-color="rgb(94.561768%, 74.403381%, 10.163879%)" offset="0.433594"/><stop stop-opacity="1" stop-color="rgb(93.965149%, 74.563599%, 10.806274%)" offset="0.4375"/><stop stop-opacity="1" stop-color="rgb(93.367004%, 74.725342%, 11.450195%)" offset="0.441406"/><stop stop-opacity="1" stop-color="rgb(92.76886%, 74.885559%, 12.094116%)" offset="0.445312"/><stop stop-opacity="1" stop-color="rgb(92.172241%, 75.047302%, 12.736511%)" offset="0.449219"/><stop stop-opacity="1" stop-color="rgb(91.574097%, 75.20752%, 13.380432%)" offset="0.453125"/><stop stop-opacity="1" stop-color="rgb(90.977478%, 75.369263%, 14.024353%)" offset="0.457031"/><stop stop-opacity="1" stop-color="rgb(90.379333%, 75.52948%, 14.666748%)" offset="0.460938"/><stop stop-opacity="1" stop-color="rgb(89.782715%, 75.691223%, 15.310669%)" offset="0.464844"/><stop stop-opacity="1" stop-color="rgb(89.18457%, 75.85144%, 15.953064%)" offset="0.46875"/><stop stop-opacity="1" stop-color="rgb(88.587952%, 76.013184%, 16.596985%)" offset="0.472656"/><stop stop-opacity="1" stop-color="rgb(87.989807%, 76.173401%, 17.240906%)" offset="0.476562"/><stop stop-opacity="1" stop-color="rgb(87.393188%, 76.335144%, 17.883301%)" offset="0.480469"/><stop stop-opacity="1" stop-color="rgb(86.795044%, 76.495361%, 18.527222%)" offset="0.484375"/><stop stop-opacity="1" stop-color="rgb(86.196899%, 76.657104%, 19.171143%)" offset="0.488281"/><stop stop-opacity="1" stop-color="rgb(85.600281%, 76.817322%, 19.813538%)" offset="0.492188"/><stop stop-opacity="1" stop-color="rgb(85.002136%, 76.979065%, 20.457458%)" offset="0.496094"/><stop stop-opacity="1" stop-color="rgb(84.405518%, 77.139282%, 21.101379%)" offset="0.5"/><stop stop-opacity="1" stop-color="rgb(83.807373%, 77.2995%, 21.743774%)" offset="0.503906"/><stop stop-opacity="1" stop-color="rgb(83.210754%, 77.461243%, 22.387695%)" offset="0.507812"/><stop stop-opacity="1" stop-color="rgb(82.61261%, 77.62146%, 23.03009%)" offset="0.511719"/><stop stop-opacity="1" stop-color="rgb(82.015991%, 77.783203%, 23.674011%)" offset="0.515625"/><stop stop-opacity="1" stop-color="rgb(81.417847%, 77.94342%, 24.317932%)" offset="0.519531"/><stop stop-opacity="1" stop-color="rgb(80.819702%, 78.105164%, 24.960327%)" offset="0.523438"/><stop stop-opacity="1" stop-color="rgb(80.223083%, 78.265381%, 25.604248%)" offset="0.527344"/><stop stop-opacity="1" stop-color="rgb(79.624939%, 78.427124%, 26.248169%)" offset="0.53125"/><stop stop-opacity="1" stop-color="rgb(79.02832%, 78.587341%, 26.890564%)" offset="0.535156"/><stop stop-opacity="1" stop-color="rgb(78.430176%, 78.749084%, 27.534485%)" offset="0.539062"/><stop stop-opacity="1" stop-color="rgb(77.833557%, 78.909302%, 28.17688%)" offset="0.542969"/><stop stop-opacity="1" stop-color="rgb(77.235413%, 79.071045%, 28.820801%)" offset="0.546875"/><stop stop-opacity="1" stop-color="rgb(76.638794%, 79.231262%, 29.464722%)" offset="0.550781"/><stop stop-opacity="1" stop-color="rgb(76.040649%, 79.393005%, 30.107117%)" offset="0.554688"/><stop stop-opacity="1" stop-color="rgb(75.442505%, 79.553223%, 30.751038%)" offset="0.558594"/><stop stop-opacity="1" stop-color="rgb(74.845886%, 79.714966%, 31.394958%)" offset="0.5625"/><stop stop-opacity="1" stop-color="rgb(74.247742%, 79.875183%, 32.037354%)" offset="0.566406"/><stop stop-opacity="1" stop-color="rgb(73.651123%, 80.036926%, 32.681274%)" offset="0.570312"/><stop stop-opacity="1" stop-color="rgb(73.052979%, 80.197144%, 33.325195%)" offset="0.574219"/><stop stop-opacity="1" stop-color="rgb(72.45636%, 80.357361%, 33.96759%)" offset="0.578125"/><stop stop-opacity="1" stop-color="rgb(71.858215%, 80.519104%, 34.611511%)" offset="0.582031"/><stop stop-opacity="1" stop-color="rgb(71.261597%, 80.679321%, 35.253906%)" offset="0.585938"/><stop stop-opacity="1" stop-color="rgb(70.663452%, 80.841064%, 35.897827%)" offset="0.589844"/><stop stop-opacity="1" stop-color="rgb(70.066833%, 81.001282%, 36.541748%)" offset="0.59375"/><stop stop-opacity="1" stop-color="rgb(69.50531%, 81.022644%, 37.277222%)" offset="0.597656"/><stop stop-opacity="1" stop-color="rgb(69.036865%, 80.696106%, 38.241577%)" offset="0.601562"/><stop stop-opacity="1" stop-color="rgb(68.623352%, 80.160522%, 39.344788%)" offset="0.605469"/><stop stop-opacity="1" stop-color="rgb(68.209839%, 79.623413%, 40.447998%)" offset="0.609375"/><stop stop-opacity="1" stop-color="rgb(67.796326%, 79.08783%, 41.551208%)" offset="0.613281"/><stop stop-opacity="1" stop-color="rgb(67.382812%, 78.552246%, 42.654419%)" offset="0.617188"/><stop stop-opacity="1" stop-color="rgb(66.969299%, 78.015137%, 43.757629%)" offset="0.621094"/><stop stop-opacity="1" stop-color="rgb(66.555786%, 77.479553%, 44.859314%)" offset="0.625"/><stop stop-opacity="1" stop-color="rgb(66.142273%, 76.94397%, 45.962524%)" offset="0.628906"/><stop stop-opacity="1" stop-color="rgb(65.72876%, 76.40686%, 47.065735%)" offset="0.632812"/><stop stop-opacity="1" stop-color="rgb(65.315247%, 75.871277%, 48.168945%)" offset="0.636719"/><stop stop-opacity="1" stop-color="rgb(64.901733%, 75.334167%, 49.272156%)" offset="0.640625"/><stop stop-opacity="1" stop-color="rgb(64.48822%, 74.798584%, 50.375366%)" offset="0.644531"/><stop stop-opacity="1" stop-color="rgb(64.074707%, 74.263%, 51.478577%)" offset="0.648438"/><stop stop-opacity="1" stop-color="rgb(63.661194%, 73.725891%, 52.581787%)" offset="0.652344"/><stop stop-opacity="1" stop-color="rgb(63.247681%, 73.190308%, 53.684998%)" offset="0.65625"/><stop stop-opacity="1" stop-color="rgb(62.834167%, 72.654724%, 54.788208%)" offset="0.660156"/><stop stop-opacity="1" stop-color="rgb(62.420654%, 72.117615%, 55.891418%)" offset="0.664062"/><stop stop-opacity="1" stop-color="rgb(62.007141%, 71.582031%, 56.994629%)" offset="0.667969"/><stop stop-opacity="1" stop-color="rgb(61.593628%, 71.046448%, 58.097839%)" offset="0.671875"/><stop stop-opacity="1" stop-color="rgb(61.180115%, 70.509338%, 59.20105%)" offset="0.675781"/><stop stop-opacity="1" stop-color="rgb(60.766602%, 69.973755%, 60.30426%)" offset="0.679688"/><stop stop-opacity="1" stop-color="rgb(60.353088%, 69.438171%, 61.407471%)" offset="0.683594"/><stop stop-opacity="1" stop-color="rgb(59.939575%, 68.901062%, 62.510681%)" offset="0.6875"/><stop stop-opacity="1" stop-color="rgb(59.526062%, 68.365479%, 63.613892%)" offset="0.691406"/><stop stop-opacity="1" stop-color="rgb(59.112549%, 67.828369%, 64.715576%)" offset="0.695312"/><stop stop-opacity="1" stop-color="rgb(58.699036%, 67.292786%, 65.818787%)" offset="0.699219"/><stop stop-opacity="1" stop-color="rgb(58.285522%, 66.757202%, 66.921997%)" offset="0.703125"/><stop stop-opacity="1" stop-color="rgb(57.872009%, 66.220093%, 68.025208%)" offset="0.707031"/><stop stop-opacity="1" stop-color="rgb(57.458496%, 65.684509%, 69.128418%)" offset="0.710938"/><stop stop-opacity="1" stop-color="rgb(57.044983%, 65.148926%, 70.231628%)" offset="0.714844"/><stop stop-opacity="1" stop-color="rgb(56.63147%, 64.611816%, 71.334839%)" offset="0.71875"/><stop stop-opacity="1" stop-color="rgb(56.217957%, 64.076233%, 72.438049%)" offset="0.722656"/><stop stop-opacity="1" stop-color="rgb(55.804443%, 63.540649%, 73.54126%)" offset="0.726562"/><stop stop-opacity="1" stop-color="rgb(55.39093%, 63.00354%, 74.64447%)" offset="0.730469"/><stop stop-opacity="1" stop-color="rgb(54.977417%, 62.467957%, 75.747681%)" offset="0.734375"/><stop stop-opacity="1" stop-color="rgb(54.56543%, 61.930847%, 76.850891%)" offset="0.738281"/><stop stop-opacity="1" stop-color="rgb(54.151917%, 61.395264%, 77.954102%)" offset="0.742188"/><stop stop-opacity="1" stop-color="rgb(53.738403%, 60.85968%, 79.057312%)" offset="0.746094"/><stop stop-opacity="1" stop-color="rgb(53.32489%, 60.322571%, 80.160522%)" offset="0.75"/><stop stop-opacity="1" stop-color="rgb(52.911377%, 59.786987%, 81.263733%)" offset="0.753906"/><stop stop-opacity="1" stop-color="rgb(52.497864%, 59.251404%, 82.366943%)" offset="0.757812"/><stop stop-opacity="1" stop-color="rgb(52.084351%, 58.714294%, 83.470154%)" offset="0.761719"/><stop stop-opacity="1" stop-color="rgb(51.670837%, 58.178711%, 84.571838%)" offset="0.765625"/><stop stop-opacity="1" stop-color="rgb(51.257324%, 57.643127%, 85.675049%)" offset="0.769531"/><stop stop-opacity="1" stop-color="rgb(50.843811%, 57.106018%, 86.778259%)" offset="0.773438"/><stop stop-opacity="1" stop-color="rgb(50.430298%, 56.570435%, 87.88147%)" offset="0.777344"/><stop stop-opacity="1" stop-color="rgb(50.016785%, 56.034851%, 88.98468%)" offset="0.78125"/><stop stop-opacity="1" stop-color="rgb(49.603271%, 55.497742%, 90.087891%)" offset="0.785156"/><stop stop-opacity="1" stop-color="rgb(49.189758%, 54.962158%, 91.191101%)" offset="0.789062"/><stop stop-opacity="1" stop-color="rgb(48.776245%, 54.425049%, 92.294312%)" offset="0.792969"/><stop stop-opacity="1" stop-color="rgb(48.420715%, 54.01001%, 93.29071%)" offset="0.796875"/><stop stop-opacity="1" stop-color="rgb(48.350525%, 54.194641%, 93.75%)" offset="0.800781"/><stop stop-opacity="1" stop-color="rgb(48.512268%, 54.86145%, 93.780518%)" offset="0.804688"/><stop stop-opacity="1" stop-color="rgb(48.672485%, 55.528259%, 93.811035%)" offset="0.808594"/><stop stop-opacity="1" stop-color="rgb(48.834229%, 56.193542%, 93.841553%)" offset="0.8125"/><stop stop-opacity="1" stop-color="rgb(48.994446%, 56.860352%, 93.87207%)" offset="0.816406"/><stop stop-opacity="1" stop-color="rgb(49.154663%, 57.525635%, 93.902588%)" offset="0.820312"/><stop stop-opacity="1" stop-color="rgb(49.316406%, 58.192444%, 93.933105%)" offset="0.824219"/><stop stop-opacity="1" stop-color="rgb(49.476624%, 58.859253%, 93.963623%)" offset="0.828125"/><stop stop-opacity="1" stop-color="rgb(49.636841%, 59.524536%, 93.994141%)" offset="0.832031"/><stop stop-opacity="1" stop-color="rgb(49.798584%, 60.191345%, 94.024658%)" offset="0.835938"/><stop stop-opacity="1" stop-color="rgb(49.958801%, 60.856628%, 94.055176%)" offset="0.839844"/><stop stop-opacity="1" stop-color="rgb(50.119019%, 61.523438%, 94.085693%)" offset="0.84375"/><stop stop-opacity="1" stop-color="rgb(50.280762%, 62.190247%, 94.116211%)" offset="0.847656"/><stop stop-opacity="1" stop-color="rgb(50.440979%, 62.85553%, 94.146729%)" offset="0.851562"/><stop stop-opacity="1" stop-color="rgb(50.601196%, 63.522339%, 94.177246%)" offset="0.855469"/><stop stop-opacity="1" stop-color="rgb(50.762939%, 64.187622%, 94.207764%)" offset="0.859375"/><stop stop-opacity="1" stop-color="rgb(50.923157%, 64.854431%, 94.238281%)" offset="0.863281"/><stop stop-opacity="1" stop-color="rgb(51.083374%, 65.52124%, 94.268799%)" offset="0.867188"/><stop stop-opacity="1" stop-color="rgb(51.245117%, 66.186523%, 94.299316%)" offset="0.871094"/><stop stop-opacity="1" stop-color="rgb(51.405334%, 66.853333%, 94.329834%)" offset="0.875"/><stop stop-opacity="1" stop-color="rgb(51.565552%, 67.518616%, 94.360352%)" offset="0.878906"/><stop stop-opacity="1" stop-color="rgb(51.727295%, 68.185425%, 94.390869%)" offset="0.882812"/><stop stop-opacity="1" stop-color="rgb(51.887512%, 68.852234%, 94.421387%)" offset="0.886719"/><stop stop-opacity="1" stop-color="rgb(52.047729%, 69.517517%, 94.451904%)" offset="0.890625"/><stop stop-opacity="1" stop-color="rgb(52.209473%, 70.184326%, 94.482422%)" offset="0.894531"/><stop stop-opacity="1" stop-color="rgb(52.36969%, 70.851135%, 94.512939%)" offset="0.898438"/><stop stop-opacity="1" stop-color="rgb(52.529907%, 71.516418%, 94.543457%)" offset="0.902344"/><stop stop-opacity="1" stop-color="rgb(52.69165%, 72.183228%, 94.572449%)" offset="0.90625"/><stop stop-opacity="1" stop-color="rgb(52.851868%, 72.848511%, 94.602966%)" offset="0.910156"/><stop stop-opacity="1" stop-color="rgb(53.012085%, 73.51532%, 94.633484%)" offset="0.914062"/><stop stop-opacity="1" stop-color="rgb(53.173828%, 74.182129%, 94.664001%)" offset="0.917969"/><stop stop-opacity="1" stop-color="rgb(53.334045%, 74.847412%, 94.694519%)" offset="0.921875"/><stop stop-opacity="1" stop-color="rgb(53.494263%, 75.514221%, 94.725037%)" offset="0.925781"/><stop stop-opacity="1" stop-color="rgb(53.656006%, 76.179504%, 94.755554%)" offset="0.929688"/><stop stop-opacity="1" stop-color="rgb(53.816223%, 76.846313%, 94.786072%)" offset="0.933594"/><stop stop-opacity="1" stop-color="rgb(53.977966%, 77.513123%, 94.816589%)" offset="0.9375"/><stop stop-opacity="1" stop-color="rgb(54.138184%, 78.178406%, 94.847107%)" offset="0.941406"/><stop stop-opacity="1" stop-color="rgb(54.298401%, 78.845215%, 94.877625%)" offset="0.945312"/><stop stop-opacity="1" stop-color="rgb(54.460144%, 79.510498%, 94.908142%)" offset="0.949219"/><stop stop-opacity="1" stop-color="rgb(54.620361%, 80.177307%, 94.93866%)" offset="0.953125"/><stop stop-opacity="1" stop-color="rgb(54.780579%, 80.844116%, 94.969177%)" offset="0.957031"/><stop stop-opacity="1" stop-color="rgb(54.942322%, 81.509399%, 94.999695%)" offset="0.960938"/><stop stop-opacity="1" stop-color="rgb(55.102539%, 82.176208%, 95.030212%)" offset="0.964844"/><stop stop-opacity="1" stop-color="rgb(55.262756%, 82.841492%, 95.06073%)" offset="0.96875"/><stop stop-opacity="1" stop-color="rgb(55.4245%, 83.508301%, 95.091248%)" offset="0.972656"/><stop stop-opacity="1" stop-color="rgb(55.584717%, 84.17511%, 95.121765%)" offset="0.976562"/><stop stop-opacity="1" stop-color="rgb(55.744934%, 84.840393%, 95.152283%)" offset="0.980469"/><stop stop-opacity="1" stop-color="rgb(55.906677%, 85.507202%, 95.1828%)" offset="0.984375"/><stop stop-opacity="1" stop-color="rgb(56.066895%, 86.172485%, 95.213318%)" offset="0.988281"/><stop stop-opacity="1" stop-color="rgb(56.227112%, 86.839294%, 95.243835%)" offset="0.992188"/><stop stop-opacity="1" stop-color="rgb(56.388855%, 87.506104%, 95.274353%)" offset="0.996094"/><stop stop-opacity="1" stop-color="rgb(56.469727%, 87.838745%, 95.289612%)" offset="1"/></radialGradient><clipPath id="5b1472d03d"><path d="M 133.269531 239.300781 L 219.382812 239.300781 L 219.382812 302.949219 L 133.269531 302.949219 Z M 133.269531 239.300781 " clip-rule="nonzero"/></clipPath><clipPath id="b4b3a48cfc"><rect x="0" width="848" y="0" height="118"/></clipPath></defs><g clip-path="url(#5a1a8d5e26)"><path fill="#ffffff" d="M 0.714844 0 L 899.285156 0 L 899.285156 469.5 L 0.714844 469.5 Z M 0.714844 0 " fill-opacity="1" fill-rule="nonzero"/><path fill="url(#0b654d52ba)" d="M 0.714844 0 L 0.714844 469.5 L 899.285156 469.5 L 899.285156 0 Z M 0.714844 0 " fill-rule="nonzero"/></g><g clip-path="url(#5b1472d03d)"><path fill="#000000" d="M 168.753906 239.519531 C 174.429688 238.941406 180.933594 239.886719 186.691406 239.484375 C 189.675781 239.746094 191.691406 241.246094 193.136719 243.773438 C 194.753906 246.59375 195.195312 250.359375 199.121094 250.648438 C 202.832031 250.921875 206.890625 250.382812 210.609375 250.640625 C 215.128906 250.949219 219.070312 254.757812 219.382812 259.300781 L 219.382812 295.644531 C 219.046875 299.527344 215.988281 302.59375 212.097656 302.925781 L 140.335938 302.925781 C 136.375 302.605469 133.53125 299.460938 133.269531 295.539062 L 133.269531 259.300781 C 133.503906 256.023438 135.484375 252.914062 138.515625 251.582031 C 139.113281 251.320312 140.671875 251.007812 140.972656 250.636719 C 141.378906 250.144531 141.179688 249.445312 141.246094 248.894531 C 141.539062 246.515625 143.207031 245.171875 145.546875 245.007812 C 147.21875 244.890625 149.953125 244.878906 151.613281 245.007812 C 153.507812 245.15625 155.082031 246.332031 155.542969 248.199219 C 155.808594 249.261719 155.457031 250.679688 157.03125 250.652344 C 160.8125 250.578125 161.820312 244.480469 163.886719 242.085938 C 165.082031 240.699219 166.914062 239.707031 168.757812 239.519531 Z M 170.242188 242.707031 C 165.222656 243.027344 165.3125 246.75 163.164062 250.292969 C 161.953125 252.289062 159.808594 253.667969 157.460938 253.835938 C 152.648438 254.179688 147.382812 253.476562 142.574219 253.832031 C 139.171875 254.082031 136.683594 256.242188 136.457031 259.722656 C 136.421875 260.257812 136.285156 261.933594 136.855469 262.09375 L 157.644531 262.09375 C 158.113281 261.988281 159.785156 259.714844 160.269531 259.195312 C 171.007812 247.585938 187.925781 247.433594 198.863281 258.875 C 199.859375 259.917969 200.660156 261.246094 201.804688 262.097656 L 215.179688 262.125 C 216.519531 262.183594 216.253906 260.425781 216.171875 259.53125 C 215.878906 256.34375 213.332031 254.058594 210.183594 253.828125 C 206.128906 253.527344 198.367188 254.746094 195.082031 252.773438 C 192.351562 251.128906 191.753906 247.964844 190.289062 245.34375 C 188.925781 242.910156 187.503906 242.847656 184.96875 242.742188 C 180.378906 242.554688 174.800781 242.414062 170.242188 242.707031 Z M 145.253906 248.222656 C 144.09375 248.605469 144.160156 250.402344 145.363281 250.617188 C 146.300781 250.789062 150.398438 250.769531 151.386719 250.632812 C 152.800781 250.441406 152.914062 248.597656 151.605469 248.207031 Z M 178.109375 253.542969 C 162.226562 254.535156 152.097656 271.894531 158.695312 286.382812 C 166.957031 304.542969 192.574219 304.386719 200.6875 286.097656 C 207.710938 270.265625 195.320312 252.46875 178.109375 253.542969 Z M 166.652344 299.839844 C 166.6875 299.660156 166.59375 299.625 166.488281 299.523438 C 166.1875 299.222656 165.46875 298.894531 165.066406 298.605469 C 155.484375 291.699219 151.40625 280.53125 154.777344 269.003906 C 154.945312 268.429688 155.886719 266.132812 155.792969 265.808594 C 155.652344 265.519531 155.332031 265.398438 155.015625 265.40625 L 137.578125 265.414062 C 137.023438 265.433594 136.699219 265.765625 136.511719 266.257812 L 136.457031 292.246094 L 136.59375 292.800781 C 136.726562 292.898438 136.886719 292.914062 137.046875 292.933594 C 138.558594 293.09375 142.878906 293.082031 144.1875 292.527344 C 145.585938 291.933594 146.242188 290.867188 146.351562 289.378906 C 146.769531 283.804688 145.871094 277.585938 146.34375 272.050781 C 146.546875 269.691406 148.257812 267.714844 150.421875 266.882812 C 151.453125 266.484375 152.738281 266.40625 152.929688 267.8125 C 153.1875 269.707031 150.917969 269.777344 150.023438 271.050781 C 149.683594 271.53125 149.546875 272.132812 149.445312 272.703125 C 149.105469 278.347656 149.847656 284.425781 149.4375 290.015625 C 149.199219 293.210938 146.515625 295.890625 143.324219 296.125 C 142.46875 296.1875 136.96875 295.964844 136.792969 296.238281 C 136.761719 297.671875 138.363281 299.054688 139.621094 299.496094 C 139.929688 299.605469 140.808594 299.839844 141.085938 299.839844 Z M 192.589844 299.839844 L 211.457031 299.839844 C 213.75 299.839844 216.21875 297.273438 216.28125 294.992188 L 216.269531 266.554688 C 216.152344 265.929688 215.710938 265.496094 215.074219 265.410156 C 211.59375 265.667969 207.644531 265.078125 204.222656 265.40625 C 203.019531 265.523438 203.726562 266.378906 203.9375 266.980469 C 208.003906 278.550781 204.660156 290.839844 194.8125 298.183594 C 194.078125 298.730469 193.171875 299.160156 192.589844 299.839844 Z M 192.589844 299.839844 " fill-opacity="1" fill-rule="nonzero"/></g><path fill="#000000" d="M 178.855469 256.414062 L 179.886719 256.382812 C 197.007812 256.636719 206.042969 276.734375 195.195312 289.851562 C 185.039062 302.132812 164.285156 297.839844 160.113281 282.414062 C 156.699219 269.78125 165.738281 256.925781 178.855469 256.414062 Z M 178.324219 259.601562 C 166.484375 260.417969 159.015625 273.234375 163.902344 284.042969 C 170.097656 297.746094 190.324219 297.066406 195.675781 283.105469 C 200.261719 271.132812 191.082031 258.71875 178.324219 259.601562 Z M 178.324219 259.601562 " fill-opacity="1" fill-rule="nonzero"/><path fill="#000000" d="M 177.898438 263.210938 C 180.558594 262.957031 183.644531 263.332031 186.019531 264.59375 C 187.015625 265.121094 187.953125 265.902344 187.105469 267.105469 C 186.097656 268.539062 184.832031 267.238281 183.714844 266.792969 C 173.308594 262.617188 163.683594 275.527344 171.273438 284.328125 C 177.738281 291.828125 189.957031 287.34375 190.574219 277.691406 C 190.652344 276.453125 189.964844 273.449219 191.710938 273.089844 C 192.945312 272.835938 193.292969 273.695312 193.4375 274.710938 C 195.214844 287.285156 180.191406 295.847656 170.429688 287.40625 C 161.539062 279.722656 166.429688 264.316406 177.898438 263.214844 Z M 177.898438 263.210938 " fill-opacity="1" fill-rule="nonzero"/><path fill="#000000" d="M 189.902344 265.652344 C 191.070312 265.449219 191.800781 266.253906 192.421875 267.121094 C 193.039062 267.988281 193.464844 268.753906 193 269.804688 L 180.789062 286.183594 C 179.054688 287.558594 177.609375 287.207031 176.28125 285.589844 C 174.023438 282.828125 172.042969 279.652344 169.859375 276.8125 C 168.78125 274.882812 170.875 271.46875 173.128906 273.015625 C 173.351562 273.164062 173.691406 273.542969 173.878906 273.753906 C 175.527344 275.628906 176.867188 278.046875 178.503906 279.964844 L 188.871094 266.207031 C 189.160156 265.96875 189.527344 265.714844 189.902344 265.648438 Z M 189.902344 265.652344 " fill-opacity="1" fill-rule="nonzero"/><g transform="matrix(1, 0, 0, 1, 28, 140)"><g clip-path="url(#b4b3a48cfc)"><g fill="#000000" fill-opacity="1"><g transform="translate(0.228808, 89.552399)"><g><path d="M 49.234375 -64.484375 C 49.234375 -65.515625 49.5625 -66.320312 50.21875 -66.90625 C 50.882812 -67.488281 51.929688 -67.78125 53.359375 -67.78125 L 68.65625 -67.78125 C 70.070312 -67.78125 71.117188 -67.488281 71.796875 -66.90625 C 72.472656 -66.320312 72.8125 -65.515625 72.8125 -64.484375 C 72.8125 -63.742188 72.609375 -63.128906 72.203125 -62.640625 C 71.804688 -62.160156 71.1875 -61.710938 70.34375 -61.296875 L 68.9375 -60.609375 C 67.75 -60.035156 66.757812 -59.207031 65.96875 -58.125 C 65.175781 -57.039062 64.410156 -55.320312 63.671875 -52.96875 L 50.5 -12.25 C 49.976562 -10.632812 49.613281 -9.375 49.40625 -8.46875 C 49.195312 -7.5625 49.09375 -6.644531 49.09375 -5.71875 L 49.09375 -3.046875 C 49.09375 -2.078125 48.773438 -1.328125 48.140625 -0.796875 C 47.515625 -0.265625 46.734375 0 45.796875 0 L 28.078125 0 C 27.171875 0 26.421875 -0.265625 25.828125 -0.796875 C 25.234375 -1.328125 24.9375 -2.128906 24.9375 -3.203125 L 24.9375 -5.8125 C 24.9375 -6.351562 24.828125 -7.007812 24.609375 -7.78125 C 24.398438 -8.5625 24.15625 -9.40625 23.875 -10.3125 L 8.328125 -56.25 C 7.910156 -57.476562 7.472656 -58.375 7.015625 -58.9375 C 6.566406 -59.507812 5.921875 -60.003906 5.078125 -60.421875 L 3.671875 -61.09375 C 2.285156 -61.800781 1.59375 -62.929688 1.59375 -64.484375 C 1.59375 -65.515625 1.929688 -66.320312 2.609375 -66.90625 C 3.285156 -67.488281 4.335938 -67.78125 5.765625 -67.78125 L 33.59375 -67.78125 C 35.050781 -67.78125 36.109375 -67.488281 36.765625 -66.90625 C 37.429688 -66.320312 37.765625 -65.515625 37.765625 -64.484375 C 37.765625 -63.679688 37.5625 -63.035156 37.15625 -62.546875 C 36.75 -62.066406 36.113281 -61.632812 35.25 -61.25 L 33.640625 -60.515625 C 32.804688 -60.128906 32.273438 -59.53125 32.046875 -58.71875 C 31.828125 -57.914062 31.972656 -56.738281 32.484375 -55.1875 L 44.390625 -19.078125 L 55.765625 -53.734375 C 56.316406 -55.378906 56.40625 -56.734375 56.03125 -57.796875 C 55.664062 -58.867188 54.675781 -59.804688 53.0625 -60.609375 L 51.703125 -61.296875 C 50.898438 -61.679688 50.285156 -62.097656 49.859375 -62.546875 C 49.441406 -63.003906 49.234375 -63.648438 49.234375 -64.484375 Z M 49.234375 -64.484375 "/></g></g></g><g fill="#000000" fill-opacity="1"><g transform="translate(73.723217, 89.552399)"><g><path d="M 38.6875 -69.71875 C 44.300781 -69.71875 49.34375 -68.851562 53.8125 -67.125 C 58.28125 -65.394531 62.085938 -62.929688 65.234375 -59.734375 C 68.378906 -56.546875 70.78125 -52.734375 72.4375 -48.296875 C 74.101562 -43.859375 74.9375 -38.910156 74.9375 -33.453125 C 74.9375 -28.515625 74.113281 -23.898438 72.46875 -19.609375 C 70.820312 -15.316406 68.453125 -11.554688 65.359375 -8.328125 C 62.265625 -5.097656 58.515625 -2.578125 54.109375 -0.765625 C 49.703125 1.035156 44.738281 1.9375 39.21875 1.9375 C 33.601562 1.9375 28.554688 1.070312 24.078125 -0.65625 C 19.609375 -2.382812 15.800781 -4.84375 12.65625 -8.03125 C 9.507812 -11.226562 7.101562 -15.046875 5.4375 -19.484375 C 3.78125 -23.921875 2.953125 -28.867188 2.953125 -34.328125 C 2.953125 -39.265625 3.773438 -43.878906 5.421875 -48.171875 C 7.066406 -52.460938 9.4375 -56.222656 12.53125 -59.453125 C 15.632812 -62.679688 19.390625 -65.195312 23.796875 -67 C 28.203125 -68.8125 33.164062 -69.71875 38.6875 -69.71875 Z M 51.84375 -20.1875 C 51.84375 -24.507812 51.492188 -28.742188 50.796875 -32.890625 C 50.109375 -37.046875 49.164062 -40.929688 47.96875 -44.546875 C 46.78125 -48.160156 45.425781 -51.335938 43.90625 -54.078125 C 42.394531 -56.816406 40.804688 -58.96875 39.140625 -60.53125 C 37.484375 -62.101562 35.832031 -62.890625 34.1875 -62.890625 C 31.570312 -62.890625 29.59375 -61.585938 28.25 -58.984375 C 26.90625 -56.390625 26.234375 -52.59375 26.234375 -47.59375 C 26.234375 -43.300781 26.582031 -39.078125 27.28125 -34.921875 C 27.976562 -30.773438 28.921875 -26.882812 30.109375 -23.25 C 31.304688 -19.625 32.660156 -16.441406 34.171875 -13.703125 C 35.691406 -10.960938 37.28125 -8.804688 38.9375 -7.234375 C 40.601562 -5.671875 42.257812 -4.890625 43.90625 -4.890625 C 46.550781 -4.890625 48.535156 -6.1875 49.859375 -8.78125 C 51.179688 -11.382812 51.84375 -15.1875 51.84375 -20.1875 Z M 51.84375 -20.1875 "/></g></g></g><g fill="#000000" fill-opacity="1"><g transform="translate(151.623431, 89.552399)"><g><path d="M 19.890625 -67.78125 L 52.328125 -67.78125 C 53.816406 -67.78125 55.082031 -67.90625 56.125 -68.15625 C 57.175781 -68.414062 58.125 -68.664062 58.96875 -68.90625 C 59.8125 -69.15625 60.648438 -69.28125 61.484375 -69.28125 C 63.066406 -69.28125 64.242188 -68.898438 65.015625 -68.140625 C 65.796875 -67.378906 66.425781 -66.097656 66.90625 -64.296875 L 70 -48.171875 C 70.257812 -46.878906 70.15625 -45.828125 69.6875 -45.015625 C 69.21875 -44.210938 68.421875 -43.71875 67.296875 -43.53125 C 66.265625 -43.300781 65.351562 -43.363281 64.5625 -43.71875 C 63.769531 -44.070312 63.097656 -44.796875 62.546875 -45.890625 C 61.128906 -48.734375 59.867188 -51.097656 58.765625 -52.984375 C 57.671875 -54.878906 56.644531 -56.363281 55.6875 -57.4375 C 54.738281 -58.519531 53.796875 -59.296875 52.859375 -59.765625 C 51.929688 -60.234375 50.914062 -60.46875 49.8125 -60.46875 L 47.34375 -60.46875 L 47.34375 -10.75 C 47.34375 -9.257812 48.164062 -8.191406 49.8125 -7.546875 L 51.65625 -6.875 C 52.5625 -6.550781 53.207031 -6.082031 53.59375 -5.46875 C 53.976562 -4.851562 54.171875 -4.128906 54.171875 -3.296875 C 54.171875 -2.296875 53.832031 -1.492188 53.15625 -0.890625 C 52.476562 -0.296875 51.429688 0 50.015625 0 L 22.21875 0 C 20.800781 0 19.753906 -0.296875 19.078125 -0.890625 C 18.398438 -1.492188 18.0625 -2.296875 18.0625 -3.296875 C 18.0625 -4.128906 18.253906 -4.851562 18.640625 -5.46875 C 19.023438 -6.082031 19.671875 -6.550781 20.578125 -6.875 L 22.421875 -7.546875 C 24.066406 -8.191406 24.890625 -9.257812 24.890625 -10.75 L 24.890625 -60.46875 L 22.421875 -60.46875 C 21.316406 -60.46875 20.296875 -60.234375 19.359375 -59.765625 C 18.429688 -59.296875 17.488281 -58.519531 16.53125 -57.4375 C 15.582031 -56.363281 14.554688 -54.878906 13.453125 -52.984375 C 12.359375 -51.097656 11.101562 -48.734375 9.6875 -45.890625 C 9.132812 -44.796875 8.460938 -44.070312 7.671875 -43.71875 C 6.878906 -43.363281 5.96875 -43.300781 4.9375 -43.53125 C 3.84375 -43.71875 3.0625 -44.210938 2.59375 -45.015625 C 2.125 -45.828125 2.003906 -46.878906 2.234375 -48.171875 L 5.328125 -64.296875 C 5.804688 -66.097656 6.429688 -67.378906 7.203125 -68.140625 C 7.984375 -68.898438 9.164062 -69.28125 10.75 -69.28125 C 11.582031 -69.28125 12.421875 -69.15625 13.265625 -68.90625 C 14.109375 -68.664062 15.050781 -68.414062 16.09375 -68.15625 C 17.144531 -67.90625 18.410156 -67.78125 19.890625 -67.78125 Z M 19.890625 -67.78125 "/></g></g></g><g fill="#000000" fill-opacity="1"><g transform="translate(223.859067, 89.552399)"><g><path d="M 38.6875 -69.71875 C 44.300781 -69.71875 49.34375 -68.851562 53.8125 -67.125 C 58.28125 -65.394531 62.085938 -62.929688 65.234375 -59.734375 C 68.378906 -56.546875 70.78125 -52.734375 72.4375 -48.296875 C 74.101562 -43.859375 74.9375 -38.910156 74.9375 -33.453125 C 74.9375 -28.515625 74.113281 -23.898438 72.46875 -19.609375 C 70.820312 -15.316406 68.453125 -11.554688 65.359375 -8.328125 C 62.265625 -5.097656 58.515625 -2.578125 54.109375 -0.765625 C 49.703125 1.035156 44.738281 1.9375 39.21875 1.9375 C 33.601562 1.9375 28.554688 1.070312 24.078125 -0.65625 C 19.609375 -2.382812 15.800781 -4.84375 12.65625 -8.03125 C 9.507812 -11.226562 7.101562 -15.046875 5.4375 -19.484375 C 3.78125 -23.921875 2.953125 -28.867188 2.953125 -34.328125 C 2.953125 -39.265625 3.773438 -43.878906 5.421875 -48.171875 C 7.066406 -52.460938 9.4375 -56.222656 12.53125 -59.453125 C 15.632812 -62.679688 19.390625 -65.195312 23.796875 -67 C 28.203125 -68.8125 33.164062 -69.71875 38.6875 -69.71875 Z M 51.84375 -20.1875 C 51.84375 -24.507812 51.492188 -28.742188 50.796875 -32.890625 C 50.109375 -37.046875 49.164062 -40.929688 47.96875 -44.546875 C 46.78125 -48.160156 45.425781 -51.335938 43.90625 -54.078125 C 42.394531 -56.816406 40.804688 -58.96875 39.140625 -60.53125 C 37.484375 -62.101562 35.832031 -62.890625 34.1875 -62.890625 C 31.570312 -62.890625 29.59375 -61.585938 28.25 -58.984375 C 26.90625 -56.390625 26.234375 -52.59375 26.234375 -47.59375 C 26.234375 -43.300781 26.582031 -39.078125 27.28125 -34.921875 C 27.976562 -30.773438 28.921875 -26.882812 30.109375 -23.25 C 31.304688 -19.625 32.660156 -16.441406 34.171875 -13.703125 C 35.691406 -10.960938 37.28125 -8.804688 38.9375 -7.234375 C 40.601562 -5.671875 42.257812 -4.890625 43.90625 -4.890625 C 46.550781 -4.890625 48.535156 -6.1875 49.859375 -8.78125 C 51.179688 -11.382812 51.84375 -15.1875 51.84375 -20.1875 Z M 51.84375 -20.1875 "/></g></g></g><g fill="#000000" fill-opacity="1"><g transform="translate(301.759281, 89.552399)"><g><path d="M 67.96875 -1.890625 C 67.96875 0.660156 66.695312 1.9375 64.15625 1.9375 C 63.082031 1.9375 62.101562 1.648438 61.21875 1.078125 C 60.332031 0.515625 59.484375 -0.132812 58.671875 -0.875 C 57.867188 -1.613281 57.101562 -2.265625 56.375 -2.828125 C 55.644531 -3.390625 54.925781 -3.671875 54.21875 -3.671875 C 53.445312 -3.671875 52.59375 -3.390625 51.65625 -2.828125 C 50.71875 -2.265625 49.59375 -1.617188 48.28125 -0.890625 C 46.976562 -0.171875 45.390625 0.46875 43.515625 1.03125 C 41.648438 1.601562 39.378906 1.890625 36.703125 1.890625 C 31.367188 1.890625 26.613281 1.050781 22.4375 -0.625 C 18.257812 -2.300781 14.71875 -4.707031 11.8125 -7.84375 C 8.90625 -10.976562 6.691406 -14.738281 5.171875 -19.125 C 3.660156 -23.507812 2.90625 -28.429688 2.90625 -33.890625 C 2.90625 -38.023438 3.484375 -41.898438 4.640625 -45.515625 C 5.804688 -49.128906 7.453125 -52.421875 9.578125 -55.390625 C 11.710938 -58.359375 14.25 -60.90625 17.1875 -63.03125 C 20.125 -65.164062 23.375 -66.8125 26.9375 -67.96875 C 30.507812 -69.132812 34.296875 -69.71875 38.296875 -69.71875 C 40.710938 -69.71875 42.785156 -69.554688 44.515625 -69.234375 C 46.242188 -68.910156 47.710938 -68.546875 48.921875 -68.140625 C 50.128906 -67.734375 51.148438 -67.367188 51.984375 -67.046875 C 52.828125 -66.722656 53.585938 -66.5625 54.265625 -66.5625 C 54.941406 -66.5625 55.53125 -66.707031 56.03125 -67 C 56.539062 -67.289062 57.019531 -67.640625 57.46875 -68.046875 C 57.914062 -68.453125 58.40625 -68.796875 58.9375 -69.078125 C 59.476562 -69.367188 60.101562 -69.515625 60.8125 -69.515625 C 61.613281 -69.515625 62.28125 -69.253906 62.8125 -68.734375 C 63.34375 -68.222656 63.789062 -67.359375 64.15625 -66.140625 L 69.140625 -49 C 69.429688 -48 69.304688 -47.101562 68.765625 -46.3125 C 68.234375 -45.519531 67.46875 -44.992188 66.46875 -44.734375 C 65.375 -44.472656 64.375 -44.546875 63.46875 -44.953125 C 62.5625 -45.359375 61.867188 -46.125 61.390625 -47.25 C 59.742188 -51.15625 57.863281 -54.179688 55.75 -56.328125 C 53.632812 -58.472656 51.398438 -59.960938 49.046875 -60.796875 C 46.691406 -61.640625 44.316406 -62.0625 41.921875 -62.0625 C 38.472656 -62.0625 35.515625 -61.066406 33.046875 -59.078125 C 30.578125 -57.097656 28.6875 -54.273438 27.375 -50.609375 C 26.070312 -46.953125 25.421875 -42.601562 25.421875 -37.5625 C 25.421875 -31.082031 26.191406 -25.671875 27.734375 -21.328125 C 29.285156 -16.984375 31.425781 -13.726562 34.15625 -11.5625 C 36.882812 -9.40625 40.007812 -8.328125 43.53125 -8.328125 C 45.132812 -8.328125 46.300781 -8.773438 47.03125 -9.671875 C 47.757812 -10.578125 48.125 -11.742188 48.125 -13.171875 L 48.125 -23.96875 C 48.125 -24.644531 47.960938 -25.160156 47.640625 -25.515625 C 47.316406 -25.867188 46.65625 -26.191406 45.65625 -26.484375 L 43.53125 -27.109375 C 42.519531 -27.398438 41.734375 -27.816406 41.171875 -28.359375 C 40.609375 -28.910156 40.328125 -29.609375 40.328125 -30.453125 C 40.328125 -31.421875 40.664062 -32.1875 41.34375 -32.75 C 42.019531 -33.3125 43.070312 -33.59375 44.5 -33.59375 L 69.515625 -33.59375 C 70.972656 -33.59375 72.039062 -33.3125 72.71875 -32.75 C 73.394531 -32.1875 73.734375 -31.4375 73.734375 -30.5 C 73.734375 -29.695312 73.519531 -29.046875 73.09375 -28.546875 C 72.675781 -28.046875 72.050781 -27.613281 71.21875 -27.25 L 70.109375 -26.828125 C 69.460938 -26.566406 68.941406 -26.222656 68.546875 -25.796875 C 68.160156 -25.378906 67.96875 -24.769531 67.96875 -23.96875 Z M 67.96875 -1.890625 "/></g></g></g><g fill="#000000" fill-opacity="1"><g transform="translate(377.771304, 89.552399)"><g><path d="M 73.390625 -44.015625 C 73.390625 -40.523438 72.421875 -37.367188 70.484375 -34.546875 C 68.546875 -31.722656 65.804688 -29.535156 62.265625 -27.984375 L 72.578125 -10.3125 C 73.148438 -9.3125 73.671875 -8.5625 74.140625 -8.0625 C 74.609375 -7.5625 75.21875 -7.132812 75.96875 -6.78125 C 76.769531 -6.394531 77.351562 -5.925781 77.71875 -5.375 C 78.09375 -4.820312 78.28125 -4.128906 78.28125 -3.296875 C 78.28125 -2.296875 77.941406 -1.492188 77.265625 -0.890625 C 76.585938 -0.296875 75.539062 0 74.125 0 L 50.109375 0 C 47.460938 0 46.140625 -1.097656 46.140625 -3.296875 C 46.140625 -4.296875 46.609375 -5.132812 47.546875 -5.8125 L 48.125 -6.25 C 48.707031 -6.695312 49.035156 -7.128906 49.109375 -7.546875 C 49.191406 -7.972656 49.023438 -8.585938 48.609375 -9.390625 L 41.4375 -23.625 C 38.4375 -23.71875 35.820312 -24.101562 33.59375 -24.78125 L 33.59375 -10.75 C 33.59375 -9.9375 33.742188 -9.285156 34.046875 -8.796875 C 34.359375 -8.316406 34.867188 -7.898438 35.578125 -7.546875 L 36.9375 -6.875 C 37.9375 -6.394531 38.601562 -5.882812 38.9375 -5.34375 C 39.28125 -4.8125 39.453125 -4.128906 39.453125 -3.296875 C 39.453125 -2.296875 39.113281 -1.492188 38.4375 -0.890625 C 37.757812 -0.296875 36.710938 0 35.296875 0 L 8.46875 0 C 7.050781 0 6.003906 -0.296875 5.328125 -0.890625 C 4.648438 -1.492188 4.3125 -2.296875 4.3125 -3.296875 C 4.3125 -4.128906 4.503906 -4.851562 4.890625 -5.46875 C 5.273438 -6.082031 5.921875 -6.550781 6.828125 -6.875 L 8.671875 -7.546875 C 10.316406 -8.191406 11.140625 -9.257812 11.140625 -10.75 L 11.140625 -57.03125 C 11.140625 -58.550781 10.316406 -59.617188 8.671875 -60.234375 L 6.828125 -60.90625 C 5.921875 -61.257812 5.273438 -61.734375 4.890625 -62.328125 C 4.503906 -62.929688 4.3125 -63.648438 4.3125 -64.484375 C 4.3125 -65.515625 4.648438 -66.320312 5.328125 -66.90625 C 6.003906 -67.488281 7.050781 -67.78125 8.46875 -67.78125 L 36.40625 -67.78125 C 44.375 -67.78125 51.109375 -66.78125 56.609375 -64.78125 C 62.117188 -62.78125 66.289062 -59.992188 69.125 -56.421875 C 71.96875 -52.859375 73.390625 -48.722656 73.390625 -44.015625 Z M 33.59375 -61.484375 L 33.59375 -30.84375 C 34.945312 -30.550781 36.515625 -30.40625 38.296875 -30.40625 C 42.140625 -30.40625 45.125 -31.46875 47.25 -33.59375 C 49.382812 -35.726562 50.453125 -39.039062 50.453125 -43.53125 C 50.453125 -46.144531 50.078125 -48.539062 49.328125 -50.71875 C 48.585938 -52.894531 47.546875 -54.789062 46.203125 -56.40625 C 44.867188 -58.019531 43.289062 -59.269531 41.46875 -60.15625 C 39.644531 -61.039062 37.648438 -61.484375 35.484375 -61.484375 Z M 33.59375 -61.484375 "/></g></g></g><g fill="#000000" fill-opacity="1"><g transform="translate(458.285966, 89.552399)"><g><path d="M 25.078125 -3.296875 C 25.078125 -2.296875 24.742188 -1.492188 24.078125 -0.890625 C 23.421875 -0.296875 22.382812 0 20.96875 0 L 5.46875 0 C 4.082031 0 3.050781 -0.296875 2.375 -0.890625 C 1.695312 -1.492188 1.359375 -2.296875 1.359375 -3.296875 C 1.359375 -4.585938 2.082031 -5.679688 3.53125 -6.578125 L 4.546875 -7.21875 C 5.253906 -7.664062 5.847656 -8.144531 6.328125 -8.65625 C 6.816406 -9.175781 7.265625 -9.894531 7.671875 -10.8125 C 8.078125 -11.738281 8.519531 -12.992188 9 -14.578125 L 21.40625 -54.609375 C 21.976562 -56.515625 22.179688 -57.894531 22.015625 -58.75 C 21.859375 -59.601562 21.203125 -60.304688 20.046875 -60.859375 C 19.140625 -61.304688 18.5 -61.820312 18.125 -62.40625 C 17.757812 -62.988281 17.578125 -63.679688 17.578125 -64.484375 C 17.578125 -65.515625 17.914062 -66.320312 18.59375 -66.90625 C 19.269531 -67.488281 20.316406 -67.78125 21.734375 -67.78125 L 52.875 -67.78125 C 54.289062 -67.78125 55.335938 -67.488281 56.015625 -66.90625 C 56.691406 -66.320312 57.03125 -65.515625 57.03125 -64.484375 C 57.03125 -63.617188 56.828125 -62.898438 56.421875 -62.328125 C 56.023438 -61.765625 55.453125 -61.304688 54.703125 -60.953125 C 53.898438 -60.566406 53.425781 -60.039062 53.28125 -59.375 C 53.132812 -58.71875 53.285156 -57.675781 53.734375 -56.25 L 67.046875 -14.09375 C 67.722656 -11.925781 68.335938 -10.332031 68.890625 -9.3125 C 69.441406 -8.300781 70.171875 -7.566406 71.078125 -7.109375 C 72.203125 -6.535156 72.957031 -5.972656 73.34375 -5.421875 C 73.726562 -4.867188 73.921875 -4.160156 73.921875 -3.296875 C 73.921875 -2.296875 73.582031 -1.492188 72.90625 -0.890625 C 72.226562 -0.296875 71.179688 0 69.765625 0 L 44.203125 0 C 42.742188 0 41.679688 -0.296875 41.015625 -0.890625 C 40.359375 -1.492188 40.03125 -2.296875 40.03125 -3.296875 C 40.03125 -4.097656 40.238281 -4.75 40.65625 -5.25 C 41.082031 -5.75 41.71875 -6.191406 42.5625 -6.578125 L 44.109375 -7.3125 C 44.941406 -7.695312 45.296875 -8.21875 45.171875 -8.875 C 45.046875 -9.539062 44.753906 -10.617188 44.296875 -12.109375 L 41.4375 -21.640625 L 20 -21.640625 L 18.203125 -15.828125 C 17.679688 -14.179688 17.410156 -12.847656 17.390625 -11.828125 C 17.378906 -10.816406 17.679688 -9.960938 18.296875 -9.265625 C 18.910156 -8.578125 19.894531 -7.878906 21.25 -7.171875 L 22.609375 -6.484375 C 23.347656 -6.097656 23.941406 -5.671875 24.390625 -5.203125 C 24.847656 -4.734375 25.078125 -4.097656 25.078125 -3.296875 Z M 22.21875 -28.859375 L 39.265625 -28.859375 L 30.84375 -56.6875 Z M 22.21875 -28.859375 "/></g></g></g><g fill="#000000" fill-opacity="1"><g transform="translate(534.588503, 89.552399)"><g><path d="M 71.65625 -42.359375 C 71.65625 -38.128906 70.523438 -34.445312 68.265625 -31.3125 C 66.003906 -28.1875 62.75 -25.769531 58.5 -24.0625 C 54.257812 -22.351562 49.1875 -21.5 43.28125 -21.5 C 39.726562 -21.5 36.5 -21.867188 33.59375 -22.609375 L 33.59375 -10.75 C 33.59375 -9.9375 33.78125 -9.25 34.15625 -8.6875 C 34.53125 -8.125 35.164062 -7.742188 36.0625 -7.546875 L 38.96875 -6.921875 C 40 -6.691406 40.738281 -6.296875 41.1875 -5.734375 C 41.644531 -5.171875 41.875 -4.359375 41.875 -3.296875 C 41.875 -2.296875 41.535156 -1.492188 40.859375 -0.890625 C 40.179688 -0.296875 39.132812 0 37.71875 0 L 8.46875 0 C 7.050781 0 6.003906 -0.296875 5.328125 -0.890625 C 4.648438 -1.492188 4.3125 -2.296875 4.3125 -3.296875 C 4.3125 -4.128906 4.503906 -4.851562 4.890625 -5.46875 C 5.273438 -6.082031 5.921875 -6.550781 6.828125 -6.875 L 8.671875 -7.546875 C 10.316406 -8.191406 11.140625 -9.257812 11.140625 -10.75 L 11.140625 -57.03125 C 11.140625 -58.550781 10.316406 -59.617188 8.671875 -60.234375 L 6.828125 -60.90625 C 5.921875 -61.257812 5.273438 -61.734375 4.890625 -62.328125 C 4.503906 -62.929688 4.3125 -63.648438 4.3125 -64.484375 C 4.3125 -65.515625 4.648438 -66.320312 5.328125 -66.90625 C 6.003906 -67.488281 7.050781 -67.78125 8.46875 -67.78125 L 35.4375 -67.78125 C 41.25 -67.78125 46.394531 -67.15625 50.875 -65.90625 C 55.363281 -64.664062 59.15625 -62.90625 62.25 -60.625 C 65.351562 -58.351562 67.695312 -55.671875 69.28125 -52.578125 C 70.863281 -49.484375 71.65625 -46.078125 71.65625 -42.359375 Z M 33.59375 -60.90625 L 33.59375 -28.765625 C 34.113281 -28.691406 34.644531 -28.628906 35.1875 -28.578125 C 35.738281 -28.535156 36.320312 -28.515625 36.9375 -28.515625 C 39.320312 -28.515625 41.5 -29.035156 43.46875 -30.078125 C 45.4375 -31.128906 47.007812 -32.726562 48.1875 -34.875 C 49.375 -37.03125 49.96875 -39.71875 49.96875 -42.9375 C 49.96875 -46.65625 49.304688 -49.851562 47.984375 -52.53125 C 46.660156 -55.207031 44.859375 -57.269531 42.578125 -58.71875 C 40.304688 -60.175781 37.703125 -60.90625 34.765625 -60.90625 Z M 33.59375 -60.90625 "/></g></g></g><g fill="#000000" fill-opacity="1"><g transform="translate(608.857559, 89.552399)"><g><path d="M 33.59375 -10.75 C 33.59375 -9.257812 34.414062 -8.191406 36.0625 -7.546875 L 37.90625 -6.875 C 38.8125 -6.550781 39.457031 -6.082031 39.84375 -5.46875 C 40.226562 -4.851562 40.421875 -4.128906 40.421875 -3.296875 C 40.421875 -2.296875 40.082031 -1.492188 39.40625 -0.890625 C 38.726562 -0.296875 37.679688 0 36.265625 0 L 8.46875 0 C 7.050781 0 6.003906 -0.296875 5.328125 -0.890625 C 4.648438 -1.492188 4.3125 -2.296875 4.3125 -3.296875 C 4.3125 -4.128906 4.503906 -4.851562 4.890625 -5.46875 C 5.273438 -6.082031 5.921875 -6.550781 6.828125 -6.875 L 8.671875 -7.546875 C 10.316406 -8.191406 11.140625 -9.257812 11.140625 -10.75 L 11.140625 -57.03125 C 11.140625 -58.550781 10.316406 -59.617188 8.671875 -60.234375 L 6.828125 -60.90625 C 5.921875 -61.257812 5.273438 -61.734375 4.890625 -62.328125 C 4.503906 -62.929688 4.3125 -63.648438 4.3125 -64.484375 C 4.3125 -65.515625 4.648438 -66.320312 5.328125 -66.90625 C 6.003906 -67.488281 7.050781 -67.78125 8.46875 -67.78125 L 36.265625 -67.78125 C 37.679688 -67.78125 38.726562 -67.488281 39.40625 -66.90625 C 40.082031 -66.320312 40.421875 -65.515625 40.421875 -64.484375 C 40.421875 -63.648438 40.226562 -62.929688 39.84375 -62.328125 C 39.457031 -61.734375 38.8125 -61.257812 37.90625 -60.90625 L 36.0625 -60.234375 C 34.414062 -59.617188 33.59375 -58.550781 33.59375 -57.03125 L 33.59375 -35.6875 L 53.78125 -35.6875 L 53.78125 -57.03125 C 53.78125 -58.550781 52.957031 -59.617188 51.3125 -60.234375 L 49.484375 -60.90625 C 48.578125 -61.257812 47.929688 -61.734375 47.546875 -62.328125 C 47.160156 -62.929688 46.96875 -63.648438 46.96875 -64.484375 C 46.96875 -65.515625 47.304688 -66.320312 47.984375 -66.90625 C 48.660156 -67.488281 49.707031 -67.78125 51.125 -67.78125 L 78.921875 -67.78125 C 80.335938 -67.78125 81.382812 -67.488281 82.0625 -66.90625 C 82.738281 -66.320312 83.078125 -65.515625 83.078125 -64.484375 C 83.078125 -63.648438 82.882812 -62.929688 82.5 -62.328125 C 82.113281 -61.734375 81.46875 -61.257812 80.5625 -60.90625 L 78.71875 -60.234375 C 77.070312 -59.617188 76.25 -58.550781 76.25 -57.03125 L 76.25 -10.75 C 76.25 -9.257812 77.070312 -8.191406 78.71875 -7.546875 L 80.5625 -6.875 C 81.46875 -6.550781 82.113281 -6.082031 82.5 -5.46875 C 82.882812 -4.851562 83.078125 -4.128906 83.078125 -3.296875 C 83.078125 -2.296875 82.738281 -1.492188 82.0625 -0.890625 C 81.382812 -0.296875 80.335938 0 78.921875 0 L 51.125 0 C 49.707031 0 48.660156 -0.296875 47.984375 -0.890625 C 47.304688 -1.492188 46.96875 -2.296875 46.96875 -3.296875 C 46.96875 -4.128906 47.160156 -4.851562 47.546875 -5.46875 C 47.929688 -6.082031 48.578125 -6.550781 49.484375 -6.875 L 51.3125 -7.546875 C 52.957031 -8.191406 53.78125 -9.257812 53.78125 -10.75 L 53.78125 -28.46875 L 33.59375 -28.46875 Z M 33.59375 -10.75 "/></g></g></g><g fill="#000000" fill-opacity="1"><g transform="translate(696.247186, 89.552399)"><g><path d="M 4.3125 -64.484375 C 4.3125 -65.515625 4.648438 -66.320312 5.328125 -66.90625 C 6.003906 -67.488281 7.050781 -67.78125 8.46875 -67.78125 L 44.984375 -67.78125 C 46.460938 -67.78125 47.6875 -67.925781 48.65625 -68.21875 C 49.625 -68.507812 50.535156 -68.796875 51.390625 -69.078125 C 52.242188 -69.367188 53.238281 -69.515625 54.375 -69.515625 C 55.820312 -69.515625 56.914062 -69.101562 57.65625 -68.28125 C 58.40625 -67.457031 59.050781 -66.128906 59.59375 -64.296875 L 63.71875 -50.6875 C 64.394531 -48.363281 63.710938 -46.832031 61.671875 -46.09375 C 60.515625 -45.664062 59.472656 -45.660156 58.546875 -46.078125 C 57.628906 -46.503906 56.882812 -47.265625 56.3125 -48.359375 C 54.914062 -50.910156 53.601562 -53 52.375 -54.625 C 51.15625 -56.257812 49.921875 -57.53125 48.671875 -58.4375 C 47.429688 -59.34375 46.125 -59.972656 44.75 -60.328125 C 43.382812 -60.679688 41.847656 -60.859375 40.140625 -60.859375 L 33.59375 -60.859375 L 33.59375 -37.8125 L 37.8125 -37.8125 C 39.164062 -37.8125 40.238281 -37.972656 41.03125 -38.296875 C 41.820312 -38.617188 42.46875 -39.195312 42.96875 -40.03125 C 43.46875 -40.875 43.941406 -42.054688 44.390625 -43.578125 C 44.710938 -44.671875 45.179688 -45.457031 45.796875 -45.9375 C 46.410156 -46.425781 47.125 -46.671875 47.9375 -46.671875 C 48.769531 -46.671875 49.457031 -46.421875 50 -45.921875 C 50.550781 -45.421875 50.941406 -44.71875 51.171875 -43.8125 L 54.953125 -28.5625 C 55.492188 -26.269531 54.863281 -24.816406 53.0625 -24.203125 C 52.15625 -23.878906 51.304688 -23.832031 50.515625 -24.0625 C 49.722656 -24.289062 49.054688 -24.804688 48.515625 -25.609375 C 47.484375 -27.097656 46.535156 -28.226562 45.671875 -29 C 44.816406 -29.769531 43.863281 -30.300781 42.8125 -30.59375 C 41.769531 -30.882812 40.410156 -31.03125 38.734375 -31.03125 L 33.59375 -31.03125 L 33.59375 -12.828125 C 33.59375 -10.859375 34.082031 -9.378906 35.0625 -8.390625 C 36.050781 -7.410156 37.46875 -6.921875 39.3125 -6.921875 L 41.59375 -6.921875 C 43.394531 -6.921875 45.035156 -7.125 46.515625 -7.53125 C 48.003906 -7.9375 49.398438 -8.65625 50.703125 -9.6875 C 52.015625 -10.71875 53.316406 -12.175781 54.609375 -14.0625 C 55.898438 -15.945312 57.238281 -18.375 58.625 -21.34375 C 59.113281 -22.382812 59.769531 -23.085938 60.59375 -23.453125 C 61.414062 -23.828125 62.34375 -23.914062 63.375 -23.71875 C 64.5 -23.5 65.320312 -22.976562 65.84375 -22.15625 C 66.363281 -21.332031 66.441406 -20.304688 66.078125 -19.078125 L 61.578125 -3.484375 C 61.066406 -1.710938 60.429688 -0.398438 59.671875 0.453125 C 58.910156 1.316406 57.738281 1.75 56.15625 1.75 C 55.15625 1.75 54.242188 1.601562 53.421875 1.3125 C 52.597656 1.019531 51.691406 0.726562 50.703125 0.4375 C 49.722656 0.144531 48.492188 0 47.015625 0 L 8.46875 0 C 7.050781 0 6.003906 -0.296875 5.328125 -0.890625 C 4.648438 -1.492188 4.3125 -2.296875 4.3125 -3.296875 C 4.3125 -4.128906 4.503906 -4.851562 4.890625 -5.46875 C 5.273438 -6.082031 5.921875 -6.550781 6.828125 -6.875 L 8.671875 -7.546875 C 10.316406 -8.191406 11.140625 -9.257812 11.140625 -10.75 L 11.140625 -57.03125 C 11.140625 -58.550781 10.316406 -59.617188 8.671875 -60.234375 L 6.828125 -60.90625 C 5.921875 -61.257812 5.273438 -61.734375 4.890625 -62.328125 C 4.503906 -62.929688 4.3125 -63.648438 4.3125 -64.484375 Z M 4.3125 -64.484375 "/></g></g></g><g fill="#000000" fill-opacity="1"><g transform="translate(763.253985, 89.552399)"><g><path d="M 73.390625 -44.015625 C 73.390625 -40.523438 72.421875 -37.367188 70.484375 -34.546875 C 68.546875 -31.722656 65.804688 -29.535156 62.265625 -27.984375 L 72.578125 -10.3125 C 73.148438 -9.3125 73.671875 -8.5625 74.140625 -8.0625 C 74.609375 -7.5625 75.21875 -7.132812 75.96875 -6.78125 C 76.769531 -6.394531 77.351562 -5.925781 77.71875 -5.375 C 78.09375 -4.820312 78.28125 -4.128906 78.28125 -3.296875 C 78.28125 -2.296875 77.941406 -1.492188 77.265625 -0.890625 C 76.585938 -0.296875 75.539062 0 74.125 0 L 50.109375 0 C 47.460938 0 46.140625 -1.097656 46.140625 -3.296875 C 46.140625 -4.296875 46.609375 -5.132812 47.546875 -5.8125 L 48.125 -6.25 C 48.707031 -6.695312 49.035156 -7.128906 49.109375 -7.546875 C 49.191406 -7.972656 49.023438 -8.585938 48.609375 -9.390625 L 41.4375 -23.625 C 38.4375 -23.71875 35.820312 -24.101562 33.59375 -24.78125 L 33.59375 -10.75 C 33.59375 -9.9375 33.742188 -9.285156 34.046875 -8.796875 C 34.359375 -8.316406 34.867188 -7.898438 35.578125 -7.546875 L 36.9375 -6.875 C 37.9375 -6.394531 38.601562 -5.882812 38.9375 -5.34375 C 39.28125 -4.8125 39.453125 -4.128906 39.453125 -3.296875 C 39.453125 -2.296875 39.113281 -1.492188 38.4375 -0.890625 C 37.757812 -0.296875 36.710938 0 35.296875 0 L 8.46875 0 C 7.050781 0 6.003906 -0.296875 5.328125 -0.890625 C 4.648438 -1.492188 4.3125 -2.296875 4.3125 -3.296875 C 4.3125 -4.128906 4.503906 -4.851562 4.890625 -5.46875 C 5.273438 -6.082031 5.921875 -6.550781 6.828125 -6.875 L 8.671875 -7.546875 C 10.316406 -8.191406 11.140625 -9.257812 11.140625 -10.75 L 11.140625 -57.03125 C 11.140625 -58.550781 10.316406 -59.617188 8.671875 -60.234375 L 6.828125 -60.90625 C 5.921875 -61.257812 5.273438 -61.734375 4.890625 -62.328125 C 4.503906 -62.929688 4.3125 -63.648438 4.3125 -64.484375 C 4.3125 -65.515625 4.648438 -66.320312 5.328125 -66.90625 C 6.003906 -67.488281 7.050781 -67.78125 8.46875 -67.78125 L 36.40625 -67.78125 C 44.375 -67.78125 51.109375 -66.78125 56.609375 -64.78125 C 62.117188 -62.78125 66.289062 -59.992188 69.125 -56.421875 C 71.96875 -52.859375 73.390625 -48.722656 73.390625 -44.015625 Z M 33.59375 -61.484375 L 33.59375 -30.84375 C 34.945312 -30.550781 36.515625 -30.40625 38.296875 -30.40625 C 42.140625 -30.40625 45.125 -31.46875 47.25 -33.59375 C 49.382812 -35.726562 50.453125 -39.039062 50.453125 -43.53125 C 50.453125 -46.144531 50.078125 -48.539062 49.328125 -50.71875 C 48.585938 -52.894531 47.546875 -54.789062 46.203125 -56.40625 C 44.867188 -58.019531 43.289062 -59.269531 41.46875 -60.15625 C 39.644531 -61.039062 37.648438 -61.484375 35.484375 -61.484375 Z M 33.59375 -61.484375 "/></g></g></g></g></g><g fill="#000000" fill-opacity="1"><g transform="translate(228.944552, 296.063071)"><g><path d="M 13.53125 0 L 3.421875 0 L 3.421875 -31.21875 L 13.859375 -31.21875 C 16.910156 -31.21875 19.535156 -30.59375 21.734375 -29.34375 C 23.929688 -28.101562 25.613281 -26.320312 26.78125 -24 C 27.957031 -21.675781 28.546875 -18.894531 28.546875 -15.65625 C 28.546875 -12.40625 27.953125 -9.609375 26.765625 -7.265625 C 25.585938 -4.929688 23.878906 -3.132812 21.640625 -1.875 C 19.410156 -0.625 16.707031 0 13.53125 0 Z M 8.140625 -4.109375 L 13.28125 -4.109375 C 15.65625 -4.109375 17.628906 -4.554688 19.203125 -5.453125 C 20.773438 -6.359375 21.953125 -7.664062 22.734375 -9.375 C 23.523438 -11.09375 23.921875 -13.1875 23.921875 -15.65625 C 23.921875 -18.101562 23.53125 -20.179688 22.75 -21.890625 C 21.96875 -23.597656 20.8125 -24.890625 19.28125 -25.765625 C 17.75 -26.648438 15.84375 -27.09375 13.5625 -27.09375 L 8.140625 -27.09375 Z M 8.140625 -4.109375 "/></g></g></g><g fill="#000000" fill-opacity="1"><g transform="translate(259.234003, 296.063071)"><g><path d="M 8.140625 -31.21875 L 8.140625 0 L 3.421875 0 L 3.421875 -31.21875 Z M 8.140625 -31.21875 "/></g></g></g><g fill="#000000" fill-opacity="1"><g transform="translate(270.11752, 296.063071)"><g><path d="M 20.453125 -23.015625 C 20.296875 -24.460938 19.625 -25.582031 18.4375 -26.375 C 17.257812 -27.175781 15.78125 -27.578125 14 -27.578125 C 12.71875 -27.578125 11.609375 -27.375 10.671875 -26.96875 C 9.734375 -26.570312 9.007812 -26.023438 8.5 -25.328125 C 7.988281 -24.628906 7.734375 -23.835938 7.734375 -22.953125 C 7.734375 -22.210938 7.90625 -21.570312 8.25 -21.03125 C 8.601562 -20.488281 9.066406 -20.035156 9.640625 -19.671875 C 10.210938 -19.316406 10.828125 -19.019531 11.484375 -18.78125 C 12.148438 -18.539062 12.785156 -18.347656 13.390625 -18.203125 L 16.453125 -17.40625 C 17.441406 -17.164062 18.457031 -16.835938 19.5 -16.421875 C 20.550781 -16.003906 21.523438 -15.453125 22.421875 -14.765625 C 23.316406 -14.085938 24.039062 -13.242188 24.59375 -12.234375 C 25.144531 -11.234375 25.421875 -10.03125 25.421875 -8.625 C 25.421875 -6.851562 24.96875 -5.28125 24.0625 -3.90625 C 23.15625 -2.539062 21.835938 -1.460938 20.109375 -0.671875 C 18.390625 0.117188 16.3125 0.515625 13.875 0.515625 C 11.53125 0.515625 9.503906 0.144531 7.796875 -0.59375 C 6.097656 -1.332031 4.765625 -2.382812 3.796875 -3.75 C 2.828125 -5.125 2.289062 -6.75 2.1875 -8.625 L 6.921875 -8.625 C 7.015625 -7.5 7.382812 -6.5625 8.03125 -5.8125 C 8.675781 -5.0625 9.503906 -4.503906 10.515625 -4.140625 C 11.523438 -3.785156 12.632812 -3.609375 13.84375 -3.609375 C 15.175781 -3.609375 16.363281 -3.816406 17.40625 -4.234375 C 18.445312 -4.660156 19.265625 -5.253906 19.859375 -6.015625 C 20.460938 -6.773438 20.765625 -7.660156 20.765625 -8.671875 C 20.765625 -9.597656 20.5 -10.351562 19.96875 -10.9375 C 19.445312 -11.53125 18.738281 -12.019531 17.84375 -12.40625 C 16.957031 -12.789062 15.957031 -13.128906 14.84375 -13.421875 L 11.15625 -14.4375 C 8.65625 -15.113281 6.675781 -16.113281 5.21875 -17.4375 C 3.757812 -18.757812 3.03125 -20.507812 3.03125 -22.6875 C 3.03125 -24.476562 3.515625 -26.046875 4.484375 -27.390625 C 5.460938 -28.734375 6.785156 -29.773438 8.453125 -30.515625 C 10.117188 -31.265625 12 -31.640625 14.09375 -31.640625 C 16.207031 -31.640625 18.070312 -31.269531 19.6875 -30.53125 C 21.3125 -29.789062 22.59375 -28.769531 23.53125 -27.46875 C 24.46875 -26.175781 24.957031 -24.691406 25 -23.015625 Z M 20.453125 -23.015625 "/></g></g></g><g fill="#000000" fill-opacity="1"><g transform="translate(297.053239, 296.063071)"><g><path d="M 29.359375 -21.0625 L 24.59375 -21.0625 C 24.414062 -22.082031 24.078125 -22.976562 23.578125 -23.75 C 23.078125 -24.519531 22.46875 -25.171875 21.75 -25.703125 C 21.03125 -26.242188 20.222656 -26.648438 19.328125 -26.921875 C 18.441406 -27.203125 17.5 -27.34375 16.5 -27.34375 C 14.707031 -27.34375 13.101562 -26.890625 11.6875 -25.984375 C 10.269531 -25.078125 9.148438 -23.75 8.328125 -22 C 7.515625 -20.257812 7.109375 -18.128906 7.109375 -15.609375 C 7.109375 -13.066406 7.515625 -10.921875 8.328125 -9.171875 C 9.148438 -7.421875 10.269531 -6.097656 11.6875 -5.203125 C 13.113281 -4.316406 14.710938 -3.875 16.484375 -3.875 C 17.472656 -3.875 18.410156 -4.003906 19.296875 -4.265625 C 20.191406 -4.535156 21 -4.9375 21.71875 -5.46875 C 22.4375 -6 23.046875 -6.644531 23.546875 -7.40625 C 24.054688 -8.175781 24.40625 -9.0625 24.59375 -10.0625 L 29.359375 -10.046875 C 29.097656 -8.515625 28.601562 -7.101562 27.875 -5.8125 C 27.15625 -4.53125 26.226562 -3.421875 25.09375 -2.484375 C 23.957031 -1.554688 22.660156 -0.835938 21.203125 -0.328125 C 19.753906 0.171875 18.175781 0.421875 16.46875 0.421875 C 13.757812 0.421875 11.347656 -0.21875 9.234375 -1.5 C 7.117188 -2.78125 5.453125 -4.617188 4.234375 -7.015625 C 3.023438 -9.421875 2.421875 -12.285156 2.421875 -15.609375 C 2.421875 -18.941406 3.03125 -21.800781 4.25 -24.1875 C 5.46875 -26.582031 7.132812 -28.421875 9.25 -29.703125 C 11.363281 -30.992188 13.769531 -31.640625 16.46875 -31.640625 C 18.125 -31.640625 19.671875 -31.398438 21.109375 -30.921875 C 22.546875 -30.453125 23.835938 -29.765625 24.984375 -28.859375 C 26.128906 -27.953125 27.078125 -26.84375 27.828125 -25.53125 C 28.578125 -24.226562 29.085938 -22.738281 29.359375 -21.0625 Z M 29.359375 -21.0625 "/></g></g></g><g fill="#000000" fill-opacity="1"><g transform="translate(327.937212, 296.063071)"><g><path d="M 30.546875 -15.609375 C 30.546875 -12.273438 29.9375 -9.410156 28.71875 -7.015625 C 27.5 -4.617188 25.828125 -2.78125 23.703125 -1.5 C 21.585938 -0.21875 19.179688 0.421875 16.484375 0.421875 C 13.785156 0.421875 11.375 -0.21875 9.25 -1.5 C 7.132812 -2.78125 5.46875 -4.617188 4.25 -7.015625 C 3.03125 -9.421875 2.421875 -12.285156 2.421875 -15.609375 C 2.421875 -18.941406 3.03125 -21.800781 4.25 -24.1875 C 5.46875 -26.582031 7.132812 -28.421875 9.25 -29.703125 C 11.375 -30.992188 13.785156 -31.640625 16.484375 -31.640625 C 19.179688 -31.640625 21.585938 -30.992188 23.703125 -29.703125 C 25.828125 -28.421875 27.5 -26.582031 28.71875 -24.1875 C 29.9375 -21.800781 30.546875 -18.941406 30.546875 -15.609375 Z M 25.875 -15.609375 C 25.875 -18.148438 25.460938 -20.289062 24.640625 -22.03125 C 23.828125 -23.769531 22.710938 -25.085938 21.296875 -25.984375 C 19.878906 -26.890625 18.273438 -27.34375 16.484375 -27.34375 C 14.691406 -27.34375 13.085938 -26.890625 11.671875 -25.984375 C 10.265625 -25.085938 9.148438 -23.769531 8.328125 -22.03125 C 7.515625 -20.289062 7.109375 -18.148438 7.109375 -15.609375 C 7.109375 -13.066406 7.515625 -10.921875 8.328125 -9.171875 C 9.148438 -7.429688 10.265625 -6.113281 11.671875 -5.21875 C 13.085938 -4.320312 14.691406 -3.875 16.484375 -3.875 C 18.273438 -3.875 19.878906 -4.320312 21.296875 -5.21875 C 22.710938 -6.113281 23.828125 -7.429688 24.640625 -9.171875 C 25.460938 -10.921875 25.875 -13.066406 25.875 -15.609375 Z M 25.875 -15.609375 "/></g></g></g><g fill="#000000" fill-opacity="1"><g transform="translate(358.668707, 296.063071)"><g><path d="M 6.15625 -31.21875 L 14.84375 -5.796875 L 15.203125 -5.796875 L 23.890625 -31.21875 L 28.96875 -31.21875 L 17.734375 0 L 12.296875 0 L 1.0625 -31.21875 Z M 6.15625 -31.21875 "/></g></g></g><g fill="#000000" fill-opacity="1"><g transform="translate(388.028263, 296.063071)"><g><path d="M 3.421875 0 L 3.421875 -31.21875 L 23 -31.21875 L 23 -27.15625 L 8.140625 -27.15625 L 8.140625 -17.65625 L 21.984375 -17.65625 L 21.984375 -13.609375 L 8.140625 -13.609375 L 8.140625 -4.046875 L 23.1875 -4.046875 L 23.1875 0 Z M 3.421875 0 "/></g></g></g><g fill="#000000" fill-opacity="1"><g transform="translate(413.226131, 296.063071)"><g><path d="M 3.421875 0 L 3.421875 -31.21875 L 14.5625 -31.21875 C 16.976562 -31.21875 18.984375 -30.800781 20.578125 -29.96875 C 22.179688 -29.132812 23.378906 -27.984375 24.171875 -26.515625 C 24.960938 -25.046875 25.359375 -23.351562 25.359375 -21.4375 C 25.359375 -19.519531 24.957031 -17.835938 24.15625 -16.390625 C 23.363281 -14.941406 22.164062 -13.816406 20.5625 -13.015625 C 18.96875 -12.210938 16.960938 -11.8125 14.546875 -11.8125 L 6.109375 -11.8125 L 6.109375 -15.859375 L 14.109375 -15.859375 C 15.640625 -15.859375 16.882812 -16.078125 17.84375 -16.515625 C 18.800781 -16.953125 19.503906 -17.585938 19.953125 -18.421875 C 20.398438 -19.253906 20.625 -20.257812 20.625 -21.4375 C 20.625 -22.613281 20.394531 -23.632812 19.9375 -24.5 C 19.488281 -25.363281 18.785156 -26.023438 17.828125 -26.484375 C 16.867188 -26.941406 15.609375 -27.171875 14.046875 -27.171875 L 8.140625 -27.171875 L 8.140625 0 Z M 18.84375 -14.078125 L 26.546875 0 L 21.1875 0 L 13.625 -14.078125 Z M 18.84375 -14.078125 "/></g></g></g><g fill="#000000" fill-opacity="1"><g transform="translate(440.222841, 296.063071)"><g/></g></g><g fill="#000000" fill-opacity="1"><g transform="translate(450.908175, 296.063071)"><g><path d="M 1.015625 -31.21875 L 6.375 -31.21875 L 14.53125 -17.03125 L 14.859375 -17.03125 L 23.015625 -31.21875 L 28.359375 -31.21875 L 17.046875 -12.25 L 17.046875 0 L 12.34375 0 L 12.34375 -12.25 Z M 1.015625 -31.21875 "/></g></g></g><g fill="#000000" fill-opacity="1"><g transform="translate(477.996304, 296.063071)"><g><path d="M 30.546875 -15.609375 C 30.546875 -12.273438 29.9375 -9.410156 28.71875 -7.015625 C 27.5 -4.617188 25.828125 -2.78125 23.703125 -1.5 C 21.585938 -0.21875 19.179688 0.421875 16.484375 0.421875 C 13.785156 0.421875 11.375 -0.21875 9.25 -1.5 C 7.132812 -2.78125 5.46875 -4.617188 4.25 -7.015625 C 3.03125 -9.421875 2.421875 -12.285156 2.421875 -15.609375 C 2.421875 -18.941406 3.03125 -21.800781 4.25 -24.1875 C 5.46875 -26.582031 7.132812 -28.421875 9.25 -29.703125 C 11.375 -30.992188 13.785156 -31.640625 16.484375 -31.640625 C 19.179688 -31.640625 21.585938 -30.992188 23.703125 -29.703125 C 25.828125 -28.421875 27.5 -26.582031 28.71875 -24.1875 C 29.9375 -21.800781 30.546875 -18.941406 30.546875 -15.609375 Z M 25.875 -15.609375 C 25.875 -18.148438 25.460938 -20.289062 24.640625 -22.03125 C 23.828125 -23.769531 22.710938 -25.085938 21.296875 -25.984375 C 19.878906 -26.890625 18.273438 -27.34375 16.484375 -27.34375 C 14.691406 -27.34375 13.085938 -26.890625 11.671875 -25.984375 C 10.265625 -25.085938 9.148438 -23.769531 8.328125 -22.03125 C 7.515625 -20.289062 7.109375 -18.148438 7.109375 -15.609375 C 7.109375 -13.066406 7.515625 -10.921875 8.328125 -9.171875 C 9.148438 -7.429688 10.265625 -6.113281 11.671875 -5.21875 C 13.085938 -4.320312 14.691406 -3.875 16.484375 -3.875 C 18.273438 -3.875 19.878906 -4.320312 21.296875 -5.21875 C 22.710938 -6.113281 23.828125 -7.429688 24.640625 -9.171875 C 25.460938 -10.921875 25.875 -13.066406 25.875 -15.609375 Z M 25.875 -15.609375 "/></g></g></g><g fill="#000000" fill-opacity="1"><g transform="translate(510.282746, 296.063071)"><g><path d="M 23.5 -31.21875 L 28.234375 -31.21875 L 28.234375 -10.6875 C 28.234375 -8.5 27.71875 -6.5625 26.6875 -4.875 C 25.664062 -3.195312 24.222656 -1.878906 22.359375 -0.921875 C 20.503906 0.0351562 18.328125 0.515625 15.828125 0.515625 C 13.335938 0.515625 11.160156 0.0351562 9.296875 -0.921875 C 7.441406 -1.878906 6 -3.195312 4.96875 -4.875 C 3.9375 -6.5625 3.421875 -8.5 3.421875 -10.6875 L 3.421875 -31.21875 L 8.140625 -31.21875 L 8.140625 -11.0625 C 8.140625 -9.65625 8.453125 -8.398438 9.078125 -7.296875 C 9.703125 -6.203125 10.585938 -5.34375 11.734375 -4.71875 C 12.878906 -4.09375 14.242188 -3.78125 15.828125 -3.78125 C 17.410156 -3.78125 18.773438 -4.09375 19.921875 -4.71875 C 21.078125 -5.34375 21.960938 -6.203125 22.578125 -7.296875 C 23.191406 -8.398438 23.5 -9.65625 23.5 -11.0625 Z M 23.5 -31.21875 "/></g></g></g><g fill="#000000" fill-opacity="1"><g transform="translate(541.258183, 296.063071)"><g><path d="M 3.421875 0 L 3.421875 -31.21875 L 14.5625 -31.21875 C 16.976562 -31.21875 18.984375 -30.800781 20.578125 -29.96875 C 22.179688 -29.132812 23.378906 -27.984375 24.171875 -26.515625 C 24.960938 -25.046875 25.359375 -23.351562 25.359375 -21.4375 C 25.359375 -19.519531 24.957031 -17.835938 24.15625 -16.390625 C 23.363281 -14.941406 22.164062 -13.816406 20.5625 -13.015625 C 18.96875 -12.210938 16.960938 -11.8125 14.546875 -11.8125 L 6.109375 -11.8125 L 6.109375 -15.859375 L 14.109375 -15.859375 C 15.640625 -15.859375 16.882812 -16.078125 17.84375 -16.515625 C 18.800781 -16.953125 19.503906 -17.585938 19.953125 -18.421875 C 20.398438 -19.253906 20.625 -20.257812 20.625 -21.4375 C 20.625 -22.613281 20.394531 -23.632812 19.9375 -24.5 C 19.488281 -25.363281 18.785156 -26.023438 17.828125 -26.484375 C 16.867188 -26.941406 15.609375 -27.171875 14.046875 -27.171875 L 8.140625 -27.171875 L 8.140625 0 Z M 18.84375 -14.078125 L 26.546875 0 L 21.1875 0 L 13.625 -14.078125 Z M 18.84375 -14.078125 "/></g></g></g><g fill="#000000" fill-opacity="1"><g transform="translate(568.254882, 296.063071)"><g/></g></g><g fill="#000000" fill-opacity="1"><g transform="translate(578.94024, 296.063071)"><g><path d="M 3.421875 0 L 3.421875 -31.21875 L 14.859375 -31.21875 C 17.078125 -31.21875 18.910156 -30.851562 20.359375 -30.125 C 21.816406 -29.394531 22.90625 -28.410156 23.625 -27.171875 C 24.34375 -25.941406 24.703125 -24.554688 24.703125 -23.015625 C 24.703125 -21.710938 24.460938 -20.613281 23.984375 -19.71875 C 23.515625 -18.832031 22.878906 -18.125 22.078125 -17.59375 C 21.273438 -17.0625 20.398438 -16.675781 19.453125 -16.4375 L 19.453125 -16.125 C 20.484375 -16.070312 21.492188 -15.738281 22.484375 -15.125 C 23.472656 -14.507812 24.289062 -13.640625 24.9375 -12.515625 C 25.59375 -11.390625 25.921875 -10.015625 25.921875 -8.390625 C 25.921875 -6.796875 25.546875 -5.363281 24.796875 -4.09375 C 24.054688 -2.832031 22.90625 -1.832031 21.34375 -1.09375 C 19.789062 -0.363281 17.804688 0 15.390625 0 Z M 8.140625 -4.046875 L 14.9375 -4.046875 C 17.195312 -4.046875 18.8125 -4.476562 19.78125 -5.34375 C 20.757812 -6.21875 21.25 -7.3125 21.25 -8.625 C 21.25 -9.613281 21 -10.519531 20.5 -11.34375 C 20 -12.164062 19.289062 -12.816406 18.375 -13.296875 C 17.457031 -13.785156 16.367188 -14.03125 15.109375 -14.03125 L 8.140625 -14.03125 Z M 8.140625 -17.71875 L 14.453125 -17.71875 C 15.503906 -17.71875 16.453125 -17.921875 17.296875 -18.328125 C 18.148438 -18.734375 18.828125 -19.300781 19.328125 -20.03125 C 19.835938 -20.769531 20.09375 -21.644531 20.09375 -22.65625 C 20.09375 -23.9375 19.640625 -25.015625 18.734375 -25.890625 C 17.828125 -26.765625 16.441406 -27.203125 14.578125 -27.203125 L 8.140625 -27.203125 Z M 8.140625 -17.71875 "/></g></g></g><g fill="#000000" fill-opacity="1"><g transform="translate(606.333256, 296.063071)"><g><path d="M 3.421875 0 L 3.421875 -31.21875 L 23 -31.21875 L 23 -27.15625 L 8.140625 -27.15625 L 8.140625 -17.65625 L 21.984375 -17.65625 L 21.984375 -13.609375 L 8.140625 -13.609375 L 8.140625 -4.046875 L 23.1875 -4.046875 L 23.1875 0 Z M 3.421875 0 "/></g></g></g><g fill="#000000" fill-opacity="1"><g transform="translate(631.531134, 296.063071)"><g><path d="M 20.453125 -23.015625 C 20.296875 -24.460938 19.625 -25.582031 18.4375 -26.375 C 17.257812 -27.175781 15.78125 -27.578125 14 -27.578125 C 12.71875 -27.578125 11.609375 -27.375 10.671875 -26.96875 C 9.734375 -26.570312 9.007812 -26.023438 8.5 -25.328125 C 7.988281 -24.628906 7.734375 -23.835938 7.734375 -22.953125 C 7.734375 -22.210938 7.90625 -21.570312 8.25 -21.03125 C 8.601562 -20.488281 9.066406 -20.035156 9.640625 -19.671875 C 10.210938 -19.316406 10.828125 -19.019531 11.484375 -18.78125 C 12.148438 -18.539062 12.785156 -18.347656 13.390625 -18.203125 L 16.453125 -17.40625 C 17.441406 -17.164062 18.457031 -16.835938 19.5 -16.421875 C 20.550781 -16.003906 21.523438 -15.453125 22.421875 -14.765625 C 23.316406 -14.085938 24.039062 -13.242188 24.59375 -12.234375 C 25.144531 -11.234375 25.421875 -10.03125 25.421875 -8.625 C 25.421875 -6.851562 24.96875 -5.28125 24.0625 -3.90625 C 23.15625 -2.539062 21.835938 -1.460938 20.109375 -0.671875 C 18.390625 0.117188 16.3125 0.515625 13.875 0.515625 C 11.53125 0.515625 9.503906 0.144531 7.796875 -0.59375 C 6.097656 -1.332031 4.765625 -2.382812 3.796875 -3.75 C 2.828125 -5.125 2.289062 -6.75 2.1875 -8.625 L 6.921875 -8.625 C 7.015625 -7.5 7.382812 -6.5625 8.03125 -5.8125 C 8.675781 -5.0625 9.503906 -4.503906 10.515625 -4.140625 C 11.523438 -3.785156 12.632812 -3.609375 13.84375 -3.609375 C 15.175781 -3.609375 16.363281 -3.816406 17.40625 -4.234375 C 18.445312 -4.660156 19.265625 -5.253906 19.859375 -6.015625 C 20.460938 -6.773438 20.765625 -7.660156 20.765625 -8.671875 C 20.765625 -9.597656 20.5 -10.351562 19.96875 -10.9375 C 19.445312 -11.53125 18.738281 -12.019531 17.84375 -12.40625 C 16.957031 -12.789062 15.957031 -13.128906 14.84375 -13.421875 L 11.15625 -14.4375 C 8.65625 -15.113281 6.675781 -16.113281 5.21875 -17.4375 C 3.757812 -18.757812 3.03125 -20.507812 3.03125 -22.6875 C 3.03125 -24.476562 3.515625 -26.046875 4.484375 -27.390625 C 5.460938 -28.734375 6.785156 -29.773438 8.453125 -30.515625 C 10.117188 -31.265625 12 -31.640625 14.09375 -31.640625 C 16.207031 -31.640625 18.070312 -31.269531 19.6875 -30.53125 C 21.3125 -29.789062 22.59375 -28.769531 23.53125 -27.46875 C 24.46875 -26.175781 24.957031 -24.691406 25 -23.015625 Z M 20.453125 -23.015625 "/></g></g></g><g fill="#000000" fill-opacity="1"><g transform="translate(658.466842, 296.063071)"><g><path d="M 1.890625 -27.15625 L 1.890625 -31.21875 L 26.046875 -31.21875 L 26.046875 -27.15625 L 16.3125 -27.15625 L 16.3125 0 L 11.609375 0 L 11.609375 -27.15625 Z M 1.890625 -27.15625 "/></g></g></g><g fill="#000000" fill-opacity="1"><g transform="translate(685.722702, 296.063071)"><g/></g></g><g fill="#000000" fill-opacity="1"><g transform="translate(696.408037, 296.063071)"><g><path d="M 3.421875 0 L 3.421875 -31.21875 L 14.5625 -31.21875 C 16.988281 -31.21875 19 -30.773438 20.59375 -29.890625 C 22.1875 -29.003906 23.378906 -27.796875 24.171875 -26.265625 C 24.960938 -24.734375 25.359375 -23.015625 25.359375 -21.109375 C 25.359375 -19.191406 24.957031 -17.46875 24.15625 -15.9375 C 23.363281 -14.40625 22.164062 -13.191406 20.5625 -12.296875 C 18.96875 -11.410156 16.960938 -10.96875 14.546875 -10.96875 L 6.890625 -10.96875 L 6.890625 -14.96875 L 14.109375 -14.96875 C 15.648438 -14.96875 16.894531 -15.234375 17.84375 -15.765625 C 18.800781 -16.296875 19.503906 -17.023438 19.953125 -17.953125 C 20.398438 -18.878906 20.625 -19.929688 20.625 -21.109375 C 20.625 -22.285156 20.398438 -23.332031 19.953125 -24.25 C 19.503906 -25.164062 18.800781 -25.878906 17.84375 -26.390625 C 16.882812 -26.910156 15.617188 -27.171875 14.046875 -27.171875 L 8.140625 -27.171875 L 8.140625 0 Z M 3.421875 0 "/></g></g></g><g fill="#000000" fill-opacity="1"><g transform="translate(723.160839, 296.063071)"><g><path d="M 3.421875 0 L 3.421875 -31.21875 L 8.140625 -31.21875 L 8.140625 -17.65625 L 23.703125 -17.65625 L 23.703125 -31.21875 L 28.421875 -31.21875 L 28.421875 0 L 23.703125 0 L 23.703125 -13.609375 L 8.140625 -13.609375 L 8.140625 0 Z M 3.421875 0 "/></g></g></g><g fill="#000000" fill-opacity="1"><g transform="translate(754.334447, 296.063071)"><g><path d="M 30.546875 -15.609375 C 30.546875 -12.273438 29.9375 -9.410156 28.71875 -7.015625 C 27.5 -4.617188 25.828125 -2.78125 23.703125 -1.5 C 21.585938 -0.21875 19.179688 0.421875 16.484375 0.421875 C 13.785156 0.421875 11.375 -0.21875 9.25 -1.5 C 7.132812 -2.78125 5.46875 -4.617188 4.25 -7.015625 C 3.03125 -9.421875 2.421875 -12.285156 2.421875 -15.609375 C 2.421875 -18.941406 3.03125 -21.800781 4.25 -24.1875 C 5.46875 -26.582031 7.132812 -28.421875 9.25 -29.703125 C 11.375 -30.992188 13.785156 -31.640625 16.484375 -31.640625 C 19.179688 -31.640625 21.585938 -30.992188 23.703125 -29.703125 C 25.828125 -28.421875 27.5 -26.582031 28.71875 -24.1875 C 29.9375 -21.800781 30.546875 -18.941406 30.546875 -15.609375 Z M 25.875 -15.609375 C 25.875 -18.148438 25.460938 -20.289062 24.640625 -22.03125 C 23.828125 -23.769531 22.710938 -25.085938 21.296875 -25.984375 C 19.878906 -26.890625 18.273438 -27.34375 16.484375 -27.34375 C 14.691406 -27.34375 13.085938 -26.890625 11.671875 -25.984375 C 10.265625 -25.085938 9.148438 -23.769531 8.328125 -22.03125 C 7.515625 -20.289062 7.109375 -18.148438 7.109375 -15.609375 C 7.109375 -13.066406 7.515625 -10.921875 8.328125 -9.171875 C 9.148438 -7.429688 10.265625 -6.113281 11.671875 -5.21875 C 13.085938 -4.320312 14.691406 -3.875 16.484375 -3.875 C 18.273438 -3.875 19.878906 -4.320312 21.296875 -5.21875 C 22.710938 -6.113281 23.828125 -7.429688 24.640625 -9.171875 C 25.460938 -10.921875 25.875 -13.066406 25.875 -15.609375 Z M 25.875 -15.609375 "/></g></g></g><g fill="#000000" fill-opacity="1"><g transform="translate(785.309885, 296.063071)"><g><path d="M 1.890625 -27.15625 L 1.890625 -31.21875 L 26.046875 -31.21875 L 26.046875 -27.15625 L 16.3125 -27.15625 L 16.3125 0 L 11.609375 0 L 11.609375 -27.15625 Z M 1.890625 -27.15625 "/></g></g></g><g fill="#000000" fill-opacity="1"><g transform="translate(811.254695, 296.063071)"><g><path d="M 30.546875 -15.609375 C 30.546875 -12.273438 29.9375 -9.410156 28.71875 -7.015625 C 27.5 -4.617188 25.828125 -2.78125 23.703125 -1.5 C 21.585938 -0.21875 19.179688 0.421875 16.484375 0.421875 C 13.785156 0.421875 11.375 -0.21875 9.25 -1.5 C 7.132812 -2.78125 5.46875 -4.617188 4.25 -7.015625 C 3.03125 -9.421875 2.421875 -12.285156 2.421875 -15.609375 C 2.421875 -18.941406 3.03125 -21.800781 4.25 -24.1875 C 5.46875 -26.582031 7.132812 -28.421875 9.25 -29.703125 C 11.375 -30.992188 13.785156 -31.640625 16.484375 -31.640625 C 19.179688 -31.640625 21.585938 -30.992188 23.703125 -29.703125 C 25.828125 -28.421875 27.5 -26.582031 28.71875 -24.1875 C 29.9375 -21.800781 30.546875 -18.941406 30.546875 -15.609375 Z M 25.875 -15.609375 C 25.875 -18.148438 25.460938 -20.289062 24.640625 -22.03125 C 23.828125 -23.769531 22.710938 -25.085938 21.296875 -25.984375 C 19.878906 -26.890625 18.273438 -27.34375 16.484375 -27.34375 C 14.691406 -27.34375 13.085938 -26.890625 11.671875 -25.984375 C 10.265625 -25.085938 9.148438 -23.769531 8.328125 -22.03125 C 7.515625 -20.289062 7.109375 -18.148438 7.109375 -15.609375 C 7.109375 -13.066406 7.515625 -10.921875 8.328125 -9.171875 C 9.148438 -7.429688 10.265625 -6.113281 11.671875 -5.21875 C 13.085938 -4.320312 14.691406 -3.875 16.484375 -3.875 C 18.273438 -3.875 19.878906 -4.320312 21.296875 -5.21875 C 22.710938 -6.113281 23.828125 -7.429688 24.640625 -9.171875 C 25.460938 -10.921875 25.875 -13.066406 25.875 -15.609375 Z M 25.875 -15.609375 "/></g></g></g><g fill="#000000" fill-opacity="1"><g transform="translate(843.541137, 296.063071)"><g><path d="M 20.453125 -23.015625 C 20.296875 -24.460938 19.625 -25.582031 18.4375 -26.375 C 17.257812 -27.175781 15.78125 -27.578125 14 -27.578125 C 12.71875 -27.578125 11.609375 -27.375 10.671875 -26.96875 C 9.734375 -26.570312 9.007812 -26.023438 8.5 -25.328125 C 7.988281 -24.628906 7.734375 -23.835938 7.734375 -22.953125 C 7.734375 -22.210938 7.90625 -21.570312 8.25 -21.03125 C 8.601562 -20.488281 9.066406 -20.035156 9.640625 -19.671875 C 10.210938 -19.316406 10.828125 -19.019531 11.484375 -18.78125 C 12.148438 -18.539062 12.785156 -18.347656 13.390625 -18.203125 L 16.453125 -17.40625 C 17.441406 -17.164062 18.457031 -16.835938 19.5 -16.421875 C 20.550781 -16.003906 21.523438 -15.453125 22.421875 -14.765625 C 23.316406 -14.085938 24.039062 -13.242188 24.59375 -12.234375 C 25.144531 -11.234375 25.421875 -10.03125 25.421875 -8.625 C 25.421875 -6.851562 24.96875 -5.28125 24.0625 -3.90625 C 23.15625 -2.539062 21.835938 -1.460938 20.109375 -0.671875 C 18.390625 0.117188 16.3125 0.515625 13.875 0.515625 C 11.53125 0.515625 9.503906 0.144531 7.796875 -0.59375 C 6.097656 -1.332031 4.765625 -2.382812 3.796875 -3.75 C 2.828125 -5.125 2.289062 -6.75 2.1875 -8.625 L 6.921875 -8.625 C 7.015625 -7.5 7.382812 -6.5625 8.03125 -5.8125 C 8.675781 -5.0625 9.503906 -4.503906 10.515625 -4.140625 C 11.523438 -3.785156 12.632812 -3.609375 13.84375 -3.609375 C 15.175781 -3.609375 16.363281 -3.816406 17.40625 -4.234375 C 18.445312 -4.660156 19.265625 -5.253906 19.859375 -6.015625 C 20.460938 -6.773438 20.765625 -7.660156 20.765625 -8.671875 C 20.765625 -9.597656 20.5 -10.351562 19.96875 -10.9375 C 19.445312 -11.53125 18.738281 -12.019531 17.84375 -12.40625 C 16.957031 -12.789062 15.957031 -13.128906 14.84375 -13.421875 L 11.15625 -14.4375 C 8.65625 -15.113281 6.675781 -16.113281 5.21875 -17.4375 C 3.757812 -18.757812 3.03125 -20.507812 3.03125 -22.6875 C 3.03125 -24.476562 3.515625 -26.046875 4.484375 -27.390625 C 5.460938 -28.734375 6.785156 -29.773438 8.453125 -30.515625 C 10.117188 -31.265625 12 -31.640625 14.09375 -31.640625 C 16.207031 -31.640625 18.070312 -31.269531 19.6875 -30.53125 C 21.3125 -29.789062 22.59375 -28.769531 23.53125 -27.46875 C 24.46875 -26.175781 24.957031 -24.691406 25 -23.015625 Z M 20.453125 -23.015625 "/></g></g></g></svg>