<svg xmlns="http://www.w3.org/2000/svg" xmlns:xlink="http://www.w3.org/1999/xlink" width="1200" zoomAndPan="magnify" viewBox="0 0 900 899.99999" height="1200" preserveAspectRatio="xMidYMid meet" version="1.0"><defs><g/><radialGradient gradientTransform="matrix(1, 0, 0, 1, 0.0000048, 0.00002)" gradientUnits="userSpaceOnUse" r="1272.791986" cx="0" id="35816264fe" cy="0" fx="0" fy="0"><stop stop-opacity="1" stop-color="rgb(94.386292%, 43.945312%, 2.606201%)" offset="0"/><stop stop-opacity="1" stop-color="rgb(94.140625%, 43.217468%, 3.118896%)" offset="0.00390625"/><stop stop-opacity="1" stop-color="rgb(93.896484%, 42.489624%, 3.631592%)" offset="0.0078125"/><stop stop-opacity="1" stop-color="rgb(93.650818%, 41.76178%, 4.145813%)" offset="0.0117188"/><stop stop-opacity="1" stop-color="rgb(93.405151%, 41.035461%, 4.658508%)" offset="0.015625"/><stop stop-opacity="1" stop-color="rgb(93.161011%, 40.307617%, 5.172729%)" offset="0.0195312"/><stop stop-opacity="1" stop-color="rgb(92.915344%, 39.579773%, 5.685425%)" offset="0.0234375"/><stop stop-opacity="1" stop-color="rgb(92.669678%, 38.851929%, 6.19812%)" offset="0.0273438"/><stop stop-opacity="1" stop-color="rgb(92.425537%, 38.124084%, 6.712341%)" offset="0.03125"/><stop stop-opacity="1" stop-color="rgb(92.179871%, 37.397766%, 7.225037%)" offset="0.0351562"/><stop stop-opacity="1" stop-color="rgb(91.93573%, 36.669922%, 7.737732%)" offset="0.0390625"/><stop stop-opacity="1" stop-color="rgb(91.690063%, 35.942078%, 8.251953%)" offset="0.0429688"/><stop stop-opacity="1" stop-color="rgb(91.444397%, 35.214233%, 8.764648%)" offset="0.046875"/><stop stop-opacity="1" stop-color="rgb(91.200256%, 34.486389%, 9.27887%)" offset="0.0507812"/><stop stop-opacity="1" stop-color="rgb(90.95459%, 33.760071%, 9.791565%)" offset="0.0546875"/><stop stop-opacity="1" stop-color="rgb(90.708923%, 33.032227%, 10.30426%)" offset="0.0585938"/><stop stop-opacity="1" stop-color="rgb(90.464783%, 32.304382%, 10.818481%)" offset="0.0625"/><stop stop-opacity="1" stop-color="rgb(90.219116%, 31.576538%, 11.331177%)" offset="0.0664062"/><stop stop-opacity="1" stop-color="rgb(89.97345%, 30.848694%, 11.845398%)" offset="0.0703125"/><stop stop-opacity="1" stop-color="rgb(89.729309%, 30.122375%, 12.358093%)" offset="0.0742188"/><stop stop-opacity="1" stop-color="rgb(89.483643%, 29.394531%, 12.870789%)" offset="0.078125"/><stop stop-opacity="1" stop-color="rgb(89.237976%, 28.666687%, 13.38501%)" offset="0.0820312"/><stop stop-opacity="1" stop-color="rgb(88.993835%, 27.938843%, 13.897705%)" offset="0.0859375"/><stop stop-opacity="1" stop-color="rgb(88.748169%, 27.210999%, 14.4104%)" offset="0.0898438"/><stop stop-opacity="1" stop-color="rgb(88.504028%, 26.48468%, 14.924622%)" offset="0.09375"/><stop stop-opacity="1" stop-color="rgb(88.258362%, 25.756836%, 15.437317%)" offset="0.0976562"/><stop stop-opacity="1" stop-color="rgb(88.012695%, 25.028992%, 15.951538%)" offset="0.101562"/><stop stop-opacity="1" stop-color="rgb(87.768555%, 24.301147%, 16.464233%)" offset="0.105469"/><stop stop-opacity="1" stop-color="rgb(87.522888%, 23.573303%, 16.976929%)" offset="0.109375"/><stop stop-opacity="1" stop-color="rgb(87.277222%, 22.846985%, 17.49115%)" offset="0.113281"/><stop stop-opacity="1" stop-color="rgb(87.033081%, 22.119141%, 18.003845%)" offset="0.117188"/><stop stop-opacity="1" stop-color="rgb(86.787415%, 21.391296%, 18.518066%)" offset="0.121094"/><stop stop-opacity="1" stop-color="rgb(86.541748%, 20.663452%, 19.030762%)" offset="0.125"/><stop stop-opacity="1" stop-color="rgb(86.297607%, 19.935608%, 19.543457%)" offset="0.128906"/><stop stop-opacity="1" stop-color="rgb(86.051941%, 19.20929%, 20.057678%)" offset="0.132812"/><stop stop-opacity="1" stop-color="rgb(85.8078%, 18.481445%, 20.570374%)" offset="0.136719"/><stop stop-opacity="1" stop-color="rgb(85.562134%, 17.753601%, 21.083069%)" offset="0.140625"/><stop stop-opacity="1" stop-color="rgb(85.316467%, 17.025757%, 21.59729%)" offset="0.144531"/><stop stop-opacity="1" stop-color="rgb(85.072327%, 16.297913%, 22.109985%)" offset="0.148438"/><stop stop-opacity="1" stop-color="rgb(84.82666%, 15.571594%, 22.624207%)" offset="0.152344"/><stop stop-opacity="1" stop-color="rgb(84.580994%, 14.84375%, 23.136902%)" offset="0.15625"/><stop stop-opacity="1" stop-color="rgb(84.336853%, 14.115906%, 23.649597%)" offset="0.160156"/><stop stop-opacity="1" stop-color="rgb(84.091187%, 13.388062%, 24.163818%)" offset="0.164062"/><stop stop-opacity="1" stop-color="rgb(83.84552%, 12.660217%, 24.676514%)" offset="0.167969"/><stop stop-opacity="1" stop-color="rgb(83.601379%, 11.933899%, 25.189209%)" offset="0.171875"/><stop stop-opacity="1" stop-color="rgb(83.355713%, 11.206055%, 25.70343%)" offset="0.175781"/><stop stop-opacity="1" stop-color="rgb(83.110046%, 10.47821%, 26.216125%)" offset="0.179688"/><stop stop-opacity="1" stop-color="rgb(82.865906%, 9.750366%, 26.730347%)" offset="0.183594"/><stop stop-opacity="1" stop-color="rgb(82.620239%, 9.022522%, 27.243042%)" offset="0.1875"/><stop stop-opacity="1" stop-color="rgb(82.376099%, 8.296204%, 27.755737%)" offset="0.191406"/><stop stop-opacity="1" stop-color="rgb(82.130432%, 7.568359%, 28.269958%)" offset="0.195312"/><stop stop-opacity="1" stop-color="rgb(82.124329%, 7.646179%, 28.387451%)" offset="0.199219"/><stop stop-opacity="1" stop-color="rgb(82.417297%, 8.731079%, 28.010559%)" offset="0.203125"/><stop stop-opacity="1" stop-color="rgb(82.76825%, 10.017395%, 27.536011%)" offset="0.207031"/><stop stop-opacity="1" stop-color="rgb(83.120728%, 11.305237%, 27.061462%)" offset="0.210938"/><stop stop-opacity="1" stop-color="rgb(83.473206%, 12.591553%, 26.586914%)" offset="0.214844"/><stop stop-opacity="1" stop-color="rgb(83.825684%, 13.877869%, 26.11084%)" offset="0.21875"/><stop stop-opacity="1" stop-color="rgb(84.178162%, 15.16571%, 25.636292%)" offset="0.222656"/><stop stop-opacity="1" stop-color="rgb(84.53064%, 16.452026%, 25.161743%)" offset="0.226562"/><stop stop-opacity="1" stop-color="rgb(84.883118%, 17.738342%, 24.685669%)" offset="0.230469"/><stop stop-opacity="1" stop-color="rgb(85.235596%, 19.024658%, 24.211121%)" offset="0.234375"/><stop stop-opacity="1" stop-color="rgb(85.588074%, 20.3125%, 23.736572%)" offset="0.238281"/><stop stop-opacity="1" stop-color="rgb(85.940552%, 21.598816%, 23.260498%)" offset="0.242188"/><stop stop-opacity="1" stop-color="rgb(86.29303%, 22.885132%, 22.78595%)" offset="0.246094"/><stop stop-opacity="1" stop-color="rgb(86.643982%, 24.171448%, 22.311401%)" offset="0.25"/><stop stop-opacity="1" stop-color="rgb(86.99646%, 25.45929%, 21.836853%)" offset="0.253906"/><stop stop-opacity="1" stop-color="rgb(87.348938%, 26.745605%, 21.360779%)" offset="0.257812"/><stop stop-opacity="1" stop-color="rgb(87.701416%, 28.031921%, 20.88623%)" offset="0.261719"/><stop stop-opacity="1" stop-color="rgb(88.053894%, 29.318237%, 20.411682%)" offset="0.265625"/><stop stop-opacity="1" stop-color="rgb(88.406372%, 30.606079%, 19.935608%)" offset="0.269531"/><stop stop-opacity="1" stop-color="rgb(88.75885%, 31.892395%, 19.46106%)" offset="0.273438"/><stop stop-opacity="1" stop-color="rgb(89.111328%, 33.178711%, 18.986511%)" offset="0.277344"/><stop stop-opacity="1" stop-color="rgb(89.463806%, 34.465027%, 18.511963%)" offset="0.28125"/><stop stop-opacity="1" stop-color="rgb(89.816284%, 35.752869%, 18.035889%)" offset="0.285156"/><stop stop-opacity="1" stop-color="rgb(90.168762%, 37.039185%, 17.56134%)" offset="0.289062"/><stop stop-opacity="1" stop-color="rgb(90.52124%, 38.3255%, 17.086792%)" offset="0.292969"/><stop stop-opacity="1" stop-color="rgb(90.872192%, 39.613342%, 16.610718%)" offset="0.296875"/><stop stop-opacity="1" stop-color="rgb(91.22467%, 40.899658%, 16.136169%)" offset="0.300781"/><stop stop-opacity="1" stop-color="rgb(91.577148%, 42.185974%, 15.661621%)" offset="0.304688"/><stop stop-opacity="1" stop-color="rgb(91.929626%, 43.47229%, 15.185547%)" offset="0.308594"/><stop stop-opacity="1" stop-color="rgb(92.282104%, 44.760132%, 14.710999%)" offset="0.3125"/><stop stop-opacity="1" stop-color="rgb(92.634583%, 46.046448%, 14.23645%)" offset="0.316406"/><stop stop-opacity="1" stop-color="rgb(92.987061%, 47.332764%, 13.761902%)" offset="0.320312"/><stop stop-opacity="1" stop-color="rgb(93.339539%, 48.61908%, 13.285828%)" offset="0.324219"/><stop stop-opacity="1" stop-color="rgb(93.692017%, 49.906921%, 12.811279%)" offset="0.328125"/><stop stop-opacity="1" stop-color="rgb(94.044495%, 51.193237%, 12.336731%)" offset="0.332031"/><stop stop-opacity="1" stop-color="rgb(94.396973%, 52.479553%, 11.860657%)" offset="0.335938"/><stop stop-opacity="1" stop-color="rgb(94.747925%, 53.765869%, 11.386108%)" offset="0.339844"/><stop stop-opacity="1" stop-color="rgb(95.100403%, 55.053711%, 10.91156%)" offset="0.34375"/><stop stop-opacity="1" stop-color="rgb(95.452881%, 56.340027%, 10.435486%)" offset="0.347656"/><stop stop-opacity="1" stop-color="rgb(95.805359%, 57.626343%, 9.960938%)" offset="0.351562"/><stop stop-opacity="1" stop-color="rgb(96.157837%, 58.914185%, 9.486389%)" offset="0.355469"/><stop stop-opacity="1" stop-color="rgb(96.510315%, 60.2005%, 9.011841%)" offset="0.359375"/><stop stop-opacity="1" stop-color="rgb(96.862793%, 61.486816%, 8.535767%)" offset="0.363281"/><stop stop-opacity="1" stop-color="rgb(97.215271%, 62.773132%, 8.061218%)" offset="0.367188"/><stop stop-opacity="1" stop-color="rgb(97.567749%, 64.060974%, 7.58667%)" offset="0.371094"/><stop stop-opacity="1" stop-color="rgb(97.920227%, 65.34729%, 7.110596%)" offset="0.375"/><stop stop-opacity="1" stop-color="rgb(98.272705%, 66.633606%, 6.636047%)" offset="0.378906"/><stop stop-opacity="1" stop-color="rgb(98.623657%, 67.919922%, 6.161499%)" offset="0.382812"/><stop stop-opacity="1" stop-color="rgb(98.976135%, 69.207764%, 5.686951%)" offset="0.386719"/><stop stop-opacity="1" stop-color="rgb(99.328613%, 70.49408%, 5.210876%)" offset="0.390625"/><stop stop-opacity="1" stop-color="rgb(99.681091%, 71.780396%, 4.736328%)" offset="0.394531"/><stop stop-opacity="1" stop-color="rgb(99.749756%, 72.729492%, 4.597473%)" offset="0.398438"/><stop stop-opacity="1" stop-color="rgb(99.342346%, 73.11554%, 5.01709%)" offset="0.402344"/><stop stop-opacity="1" stop-color="rgb(98.744202%, 73.277283%, 5.659485%)" offset="0.40625"/><stop stop-opacity="1" stop-color="rgb(98.146057%, 73.4375%, 6.303406%)" offset="0.410156"/><stop stop-opacity="1" stop-color="rgb(97.549438%, 73.599243%, 6.947327%)" offset="0.414062"/><stop stop-opacity="1" stop-color="rgb(96.951294%, 73.75946%, 7.589722%)" offset="0.417969"/><stop stop-opacity="1" stop-color="rgb(96.354675%, 73.921204%, 8.233643%)" offset="0.421875"/><stop stop-opacity="1" stop-color="rgb(95.756531%, 74.081421%, 8.877563%)" offset="0.425781"/><stop stop-opacity="1" stop-color="rgb(95.159912%, 74.243164%, 9.519958%)" offset="0.429688"/><stop stop-opacity="1" stop-color="rgb(94.561768%, 74.403381%, 10.163879%)" offset="0.433594"/><stop stop-opacity="1" stop-color="rgb(93.965149%, 74.563599%, 10.806274%)" offset="0.4375"/><stop stop-opacity="1" stop-color="rgb(93.367004%, 74.725342%, 11.450195%)" offset="0.441406"/><stop stop-opacity="1" stop-color="rgb(92.76886%, 74.885559%, 12.094116%)" offset="0.445312"/><stop stop-opacity="1" stop-color="rgb(92.172241%, 75.047302%, 12.736511%)" offset="0.449219"/><stop stop-opacity="1" stop-color="rgb(91.574097%, 75.20752%, 13.380432%)" offset="0.453125"/><stop stop-opacity="1" stop-color="rgb(90.977478%, 75.369263%, 14.024353%)" offset="0.457031"/><stop stop-opacity="1" stop-color="rgb(90.379333%, 75.52948%, 14.666748%)" offset="0.460938"/><stop stop-opacity="1" stop-color="rgb(89.782715%, 75.691223%, 15.310669%)" offset="0.464844"/><stop stop-opacity="1" stop-color="rgb(89.18457%, 75.85144%, 15.953064%)" offset="0.46875"/><stop stop-opacity="1" stop-color="rgb(88.587952%, 76.013184%, 16.596985%)" offset="0.472656"/><stop stop-opacity="1" stop-color="rgb(87.989807%, 76.173401%, 17.240906%)" offset="0.476562"/><stop stop-opacity="1" stop-color="rgb(87.393188%, 76.335144%, 17.883301%)" offset="0.480469"/><stop stop-opacity="1" stop-color="rgb(86.795044%, 76.495361%, 18.527222%)" offset="0.484375"/><stop stop-opacity="1" stop-color="rgb(86.196899%, 76.657104%, 19.171143%)" offset="0.488281"/><stop stop-opacity="1" stop-color="rgb(85.600281%, 76.817322%, 19.813538%)" offset="0.492188"/><stop stop-opacity="1" stop-color="rgb(85.002136%, 76.979065%, 20.457458%)" offset="0.496094"/><stop stop-opacity="1" stop-color="rgb(84.405518%, 77.139282%, 21.101379%)" offset="0.5"/><stop stop-opacity="1" stop-color="rgb(83.807373%, 77.2995%, 21.743774%)" offset="0.503906"/><stop stop-opacity="1" stop-color="rgb(83.210754%, 77.461243%, 22.387695%)" offset="0.507812"/><stop stop-opacity="1" stop-color="rgb(82.61261%, 77.62146%, 23.03009%)" offset="0.511719"/><stop stop-opacity="1" stop-color="rgb(82.015991%, 77.783203%, 23.674011%)" offset="0.515625"/><stop stop-opacity="1" stop-color="rgb(81.417847%, 77.94342%, 24.317932%)" offset="0.519531"/><stop stop-opacity="1" stop-color="rgb(80.819702%, 78.105164%, 24.960327%)" offset="0.523438"/><stop stop-opacity="1" stop-color="rgb(80.223083%, 78.265381%, 25.604248%)" offset="0.527344"/><stop stop-opacity="1" stop-color="rgb(79.624939%, 78.427124%, 26.248169%)" offset="0.53125"/><stop stop-opacity="1" stop-color="rgb(79.02832%, 78.587341%, 26.890564%)" offset="0.535156"/><stop stop-opacity="1" stop-color="rgb(78.430176%, 78.749084%, 27.534485%)" offset="0.539062"/><stop stop-opacity="1" stop-color="rgb(77.833557%, 78.909302%, 28.17688%)" offset="0.542969"/><stop stop-opacity="1" stop-color="rgb(77.235413%, 79.071045%, 28.820801%)" offset="0.546875"/><stop stop-opacity="1" stop-color="rgb(76.638794%, 79.231262%, 29.464722%)" offset="0.550781"/><stop stop-opacity="1" stop-color="rgb(76.040649%, 79.393005%, 30.107117%)" offset="0.554688"/><stop stop-opacity="1" stop-color="rgb(75.442505%, 79.553223%, 30.751038%)" offset="0.558594"/><stop stop-opacity="1" stop-color="rgb(74.845886%, 79.714966%, 31.394958%)" offset="0.5625"/><stop stop-opacity="1" stop-color="rgb(74.247742%, 79.875183%, 32.037354%)" offset="0.566406"/><stop stop-opacity="1" stop-color="rgb(73.651123%, 80.036926%, 32.681274%)" offset="0.570312"/><stop stop-opacity="1" stop-color="rgb(73.052979%, 80.197144%, 33.325195%)" offset="0.574219"/><stop stop-opacity="1" stop-color="rgb(72.45636%, 80.357361%, 33.96759%)" offset="0.578125"/><stop stop-opacity="1" stop-color="rgb(71.858215%, 80.519104%, 34.611511%)" offset="0.582031"/><stop stop-opacity="1" stop-color="rgb(71.261597%, 80.679321%, 35.253906%)" offset="0.585938"/><stop stop-opacity="1" stop-color="rgb(70.663452%, 80.841064%, 35.897827%)" offset="0.589844"/><stop stop-opacity="1" stop-color="rgb(70.066833%, 81.001282%, 36.541748%)" offset="0.59375"/><stop stop-opacity="1" stop-color="rgb(69.50531%, 81.022644%, 37.277222%)" offset="0.597656"/><stop stop-opacity="1" stop-color="rgb(69.036865%, 80.696106%, 38.241577%)" offset="0.601562"/><stop stop-opacity="1" stop-color="rgb(68.623352%, 80.160522%, 39.344788%)" offset="0.605469"/><stop stop-opacity="1" stop-color="rgb(68.209839%, 79.623413%, 40.447998%)" offset="0.609375"/><stop stop-opacity="1" stop-color="rgb(67.796326%, 79.08783%, 41.551208%)" offset="0.613281"/><stop stop-opacity="1" stop-color="rgb(67.382812%, 78.552246%, 42.654419%)" offset="0.617188"/><stop stop-opacity="1" stop-color="rgb(66.969299%, 78.015137%, 43.757629%)" offset="0.621094"/><stop stop-opacity="1" stop-color="rgb(66.555786%, 77.479553%, 44.859314%)" offset="0.625"/><stop stop-opacity="1" stop-color="rgb(66.142273%, 76.94397%, 45.962524%)" offset="0.628906"/><stop stop-opacity="1" stop-color="rgb(65.72876%, 76.40686%, 47.065735%)" offset="0.632812"/><stop stop-opacity="1" stop-color="rgb(65.315247%, 75.871277%, 48.168945%)" offset="0.636719"/><stop stop-opacity="1" stop-color="rgb(64.901733%, 75.334167%, 49.272156%)" offset="0.640625"/><stop stop-opacity="1" stop-color="rgb(64.48822%, 74.798584%, 50.375366%)" offset="0.644531"/><stop stop-opacity="1" stop-color="rgb(64.074707%, 74.263%, 51.478577%)" offset="0.648438"/><stop stop-opacity="1" stop-color="rgb(63.661194%, 73.725891%, 52.581787%)" offset="0.652344"/><stop stop-opacity="1" stop-color="rgb(63.247681%, 73.190308%, 53.684998%)" offset="0.65625"/><stop stop-opacity="1" stop-color="rgb(62.834167%, 72.654724%, 54.788208%)" offset="0.660156"/><stop stop-opacity="1" stop-color="rgb(62.420654%, 72.117615%, 55.891418%)" offset="0.664062"/><stop stop-opacity="1" stop-color="rgb(62.007141%, 71.582031%, 56.994629%)" offset="0.667969"/><stop stop-opacity="1" stop-color="rgb(61.593628%, 71.046448%, 58.097839%)" offset="0.671875"/><stop stop-opacity="1" stop-color="rgb(61.180115%, 70.509338%, 59.20105%)" offset="0.675781"/><stop stop-opacity="1" stop-color="rgb(60.766602%, 69.973755%, 60.30426%)" offset="0.679688"/><stop stop-opacity="1" stop-color="rgb(60.353088%, 69.438171%, 61.407471%)" offset="0.683594"/><stop stop-opacity="1" stop-color="rgb(59.939575%, 68.901062%, 62.510681%)" offset="0.6875"/><stop stop-opacity="1" stop-color="rgb(59.526062%, 68.365479%, 63.613892%)" offset="0.691406"/><stop stop-opacity="1" stop-color="rgb(59.112549%, 67.828369%, 64.715576%)" offset="0.695312"/><stop stop-opacity="1" stop-color="rgb(58.699036%, 67.292786%, 65.818787%)" offset="0.699219"/><stop stop-opacity="1" stop-color="rgb(58.285522%, 66.757202%, 66.921997%)" offset="0.703125"/><stop stop-opacity="1" stop-color="rgb(57.872009%, 66.220093%, 68.025208%)" offset="0.707031"/><stop stop-opacity="1" stop-color="rgb(57.458496%, 65.684509%, 69.128418%)" offset="0.710938"/><stop stop-opacity="1" stop-color="rgb(57.044983%, 65.148926%, 70.231628%)" offset="0.714844"/><stop stop-opacity="1" stop-color="rgb(56.63147%, 64.611816%, 71.334839%)" offset="0.71875"/><stop stop-opacity="1" stop-color="rgb(56.217957%, 64.076233%, 72.438049%)" offset="0.722656"/><stop stop-opacity="1" stop-color="rgb(55.804443%, 63.540649%, 73.54126%)" offset="0.726562"/><stop stop-opacity="1" stop-color="rgb(55.39093%, 63.00354%, 74.64447%)" offset="0.730469"/><stop stop-opacity="1" stop-color="rgb(54.977417%, 62.467957%, 75.747681%)" offset="0.734375"/><stop stop-opacity="1" stop-color="rgb(54.56543%, 61.930847%, 76.850891%)" offset="0.738281"/><stop stop-opacity="1" stop-color="rgb(54.151917%, 61.395264%, 77.954102%)" offset="0.742188"/><stop stop-opacity="1" stop-color="rgb(53.738403%, 60.85968%, 79.057312%)" offset="0.746094"/><stop stop-opacity="1" stop-color="rgb(53.32489%, 60.322571%, 80.160522%)" offset="0.75"/><stop stop-opacity="1" stop-color="rgb(52.911377%, 59.786987%, 81.263733%)" offset="0.753906"/><stop stop-opacity="1" stop-color="rgb(52.497864%, 59.251404%, 82.366943%)" offset="0.757812"/><stop stop-opacity="1" stop-color="rgb(52.084351%, 58.714294%, 83.470154%)" offset="0.761719"/><stop stop-opacity="1" stop-color="rgb(51.670837%, 58.178711%, 84.571838%)" offset="0.765625"/><stop stop-opacity="1" stop-color="rgb(51.257324%, 57.643127%, 85.675049%)" offset="0.769531"/><stop stop-opacity="1" stop-color="rgb(50.843811%, 57.106018%, 86.778259%)" offset="0.773438"/><stop stop-opacity="1" stop-color="rgb(50.430298%, 56.570435%, 87.88147%)" offset="0.777344"/><stop stop-opacity="1" stop-color="rgb(50.016785%, 56.034851%, 88.98468%)" offset="0.78125"/><stop stop-opacity="1" stop-color="rgb(49.603271%, 55.497742%, 90.087891%)" offset="0.785156"/><stop stop-opacity="1" stop-color="rgb(49.189758%, 54.962158%, 91.191101%)" offset="0.789062"/><stop stop-opacity="1" stop-color="rgb(48.776245%, 54.425049%, 92.294312%)" offset="0.792969"/><stop stop-opacity="1" stop-color="rgb(48.420715%, 54.01001%, 93.29071%)" offset="0.796875"/><stop stop-opacity="1" stop-color="rgb(48.350525%, 54.194641%, 93.75%)" offset="0.800781"/><stop stop-opacity="1" stop-color="rgb(48.512268%, 54.86145%, 93.780518%)" offset="0.804688"/><stop stop-opacity="1" stop-color="rgb(48.672485%, 55.528259%, 93.811035%)" offset="0.808594"/><stop stop-opacity="1" stop-color="rgb(48.834229%, 56.193542%, 93.841553%)" offset="0.8125"/><stop stop-opacity="1" stop-color="rgb(48.994446%, 56.860352%, 93.87207%)" offset="0.816406"/><stop stop-opacity="1" stop-color="rgb(49.154663%, 57.525635%, 93.902588%)" offset="0.820312"/><stop stop-opacity="1" stop-color="rgb(49.316406%, 58.192444%, 93.933105%)" offset="0.824219"/><stop stop-opacity="1" stop-color="rgb(49.476624%, 58.859253%, 93.963623%)" offset="0.828125"/><stop stop-opacity="1" stop-color="rgb(49.636841%, 59.524536%, 93.994141%)" offset="0.832031"/><stop stop-opacity="1" stop-color="rgb(49.798584%, 60.191345%, 94.024658%)" offset="0.835938"/><stop stop-opacity="1" stop-color="rgb(49.958801%, 60.856628%, 94.055176%)" offset="0.839844"/><stop stop-opacity="1" stop-color="rgb(50.119019%, 61.523438%, 94.085693%)" offset="0.84375"/><stop stop-opacity="1" stop-color="rgb(50.280762%, 62.190247%, 94.116211%)" offset="0.847656"/><stop stop-opacity="1" stop-color="rgb(50.440979%, 62.85553%, 94.146729%)" offset="0.851562"/><stop stop-opacity="1" stop-color="rgb(50.601196%, 63.522339%, 94.177246%)" offset="0.855469"/><stop stop-opacity="1" stop-color="rgb(50.762939%, 64.187622%, 94.207764%)" offset="0.859375"/><stop stop-opacity="1" stop-color="rgb(50.923157%, 64.854431%, 94.238281%)" offset="0.863281"/><stop stop-opacity="1" stop-color="rgb(51.083374%, 65.52124%, 94.268799%)" offset="0.867188"/><stop stop-opacity="1" stop-color="rgb(51.245117%, 66.186523%, 94.299316%)" offset="0.871094"/><stop stop-opacity="1" stop-color="rgb(51.405334%, 66.853333%, 94.329834%)" offset="0.875"/><stop stop-opacity="1" stop-color="rgb(51.565552%, 67.518616%, 94.360352%)" offset="0.878906"/><stop stop-opacity="1" stop-color="rgb(51.727295%, 68.185425%, 94.390869%)" offset="0.882812"/><stop stop-opacity="1" stop-color="rgb(51.887512%, 68.852234%, 94.421387%)" offset="0.886719"/><stop stop-opacity="1" stop-color="rgb(52.047729%, 69.517517%, 94.451904%)" offset="0.890625"/><stop stop-opacity="1" stop-color="rgb(52.209473%, 70.184326%, 94.482422%)" offset="0.894531"/><stop stop-opacity="1" stop-color="rgb(52.36969%, 70.851135%, 94.512939%)" offset="0.898438"/><stop stop-opacity="1" stop-color="rgb(52.529907%, 71.516418%, 94.543457%)" offset="0.902344"/><stop stop-opacity="1" stop-color="rgb(52.69165%, 72.183228%, 94.572449%)" offset="0.90625"/><stop stop-opacity="1" stop-color="rgb(52.851868%, 72.848511%, 94.602966%)" offset="0.910156"/><stop stop-opacity="1" stop-color="rgb(53.012085%, 73.51532%, 94.633484%)" offset="0.914062"/><stop stop-opacity="1" stop-color="rgb(53.173828%, 74.182129%, 94.664001%)" offset="0.917969"/><stop stop-opacity="1" stop-color="rgb(53.334045%, 74.847412%, 94.694519%)" offset="0.921875"/><stop stop-opacity="1" stop-color="rgb(53.494263%, 75.514221%, 94.725037%)" offset="0.925781"/><stop stop-opacity="1" stop-color="rgb(53.656006%, 76.179504%, 94.755554%)" offset="0.929688"/><stop stop-opacity="1" stop-color="rgb(53.816223%, 76.846313%, 94.786072%)" offset="0.933594"/><stop stop-opacity="1" stop-color="rgb(53.977966%, 77.513123%, 94.816589%)" offset="0.9375"/><stop stop-opacity="1" stop-color="rgb(54.138184%, 78.178406%, 94.847107%)" offset="0.941406"/><stop stop-opacity="1" stop-color="rgb(54.298401%, 78.845215%, 94.877625%)" offset="0.945312"/><stop stop-opacity="1" stop-color="rgb(54.460144%, 79.510498%, 94.908142%)" offset="0.949219"/><stop stop-opacity="1" stop-color="rgb(54.620361%, 80.177307%, 94.93866%)" offset="0.953125"/><stop stop-opacity="1" stop-color="rgb(54.780579%, 80.844116%, 94.969177%)" offset="0.957031"/><stop stop-opacity="1" stop-color="rgb(54.942322%, 81.509399%, 94.999695%)" offset="0.960938"/><stop stop-opacity="1" stop-color="rgb(55.102539%, 82.176208%, 95.030212%)" offset="0.964844"/><stop stop-opacity="1" stop-color="rgb(55.262756%, 82.841492%, 95.06073%)" offset="0.96875"/><stop stop-opacity="1" stop-color="rgb(55.4245%, 83.508301%, 95.091248%)" offset="0.972656"/><stop stop-opacity="1" stop-color="rgb(55.584717%, 84.17511%, 95.121765%)" offset="0.976562"/><stop stop-opacity="1" stop-color="rgb(55.744934%, 84.840393%, 95.152283%)" offset="0.980469"/><stop stop-opacity="1" stop-color="rgb(55.906677%, 85.507202%, 95.1828%)" offset="0.984375"/><stop stop-opacity="1" stop-color="rgb(56.066895%, 86.172485%, 95.213318%)" offset="0.988281"/><stop stop-opacity="1" stop-color="rgb(56.227112%, 86.839294%, 95.243835%)" offset="0.992188"/><stop stop-opacity="1" stop-color="rgb(56.388855%, 87.506104%, 95.274353%)" offset="0.996094"/><stop stop-opacity="1" stop-color="rgb(56.469727%, 87.838745%, 95.289612%)" offset="1"/></radialGradient><clipPath id="e501be65a8"><path d="M 364.109375 264.789062 L 535.859375 264.789062 L 535.859375 391.539062 L 364.109375 391.539062 Z M 364.109375 264.789062 " clip-rule="nonzero"/></clipPath></defs><rect x="-90" width="1080" fill="#ffffff" y="-89.999999" height="1079.999988" fill-opacity="1"/><rect x="-90" fill="url(#35816264fe)" width="1080" y="-89.999999" height="1079.999988"/><g clip-path="url(#e501be65a8)"><path fill="#000000" d="M 434.886719 265.222656 C 446.207031 264.078125 459.171875 265.960938 470.664062 265.152344 C 476.613281 265.679688 480.628906 268.664062 483.515625 273.695312 C 486.738281 279.316406 487.617188 286.8125 495.453125 287.386719 C 502.851562 287.929688 510.949219 286.863281 518.367188 287.371094 C 527.378906 287.988281 535.242188 295.566406 535.859375 304.613281 L 535.859375 376.988281 C 535.195312 384.71875 529.089844 390.824219 521.335938 391.480469 L 378.207031 391.480469 C 370.304688 390.847656 364.632812 384.585938 364.109375 376.777344 L 364.109375 304.613281 C 364.578125 298.089844 368.53125 291.898438 374.574219 289.246094 C 375.761719 288.726562 378.871094 288.105469 379.476562 287.367188 C 380.285156 286.386719 379.886719 284.992188 380.023438 283.890625 C 380.605469 279.15625 383.929688 276.480469 388.59375 276.15625 C 391.929688 275.925781 397.382812 275.894531 400.699219 276.15625 C 404.472656 276.453125 407.609375 278.792969 408.535156 282.511719 C 409.0625 284.625 408.363281 287.453125 411.5 287.394531 C 419.039062 287.25 421.050781 275.101562 425.171875 270.339844 C 427.5625 267.578125 431.21875 265.597656 434.886719 265.222656 Z M 437.851562 271.570312 C 427.84375 272.210938 428.019531 279.625 423.734375 286.679688 C 421.316406 290.652344 417.039062 293.398438 412.355469 293.730469 C 402.761719 294.417969 392.257812 293.019531 382.667969 293.726562 C 375.878906 294.226562 370.921875 298.523438 370.464844 305.457031 C 370.394531 306.527344 370.125 309.855469 371.261719 310.183594 L 412.726562 310.183594 C 413.664062 309.96875 416.996094 305.445312 417.960938 304.402344 C 439.382812 281.285156 473.125 280.988281 494.933594 303.769531 C 496.921875 305.847656 498.523438 308.492188 500.800781 310.183594 L 527.480469 310.238281 C 530.15625 310.355469 529.621094 306.855469 529.457031 305.070312 C 528.871094 298.726562 523.792969 294.179688 517.515625 293.71875 C 509.425781 293.121094 493.949219 295.550781 487.394531 291.617188 C 481.949219 288.347656 480.757812 282.039062 477.832031 276.828125 C 475.113281 271.980469 472.28125 271.851562 467.21875 271.644531 C 458.070312 271.269531 446.941406 270.992188 437.847656 271.574219 Z M 388.011719 282.554688 C 385.695312 283.316406 385.832031 286.894531 388.230469 287.328125 C 390.097656 287.664062 398.269531 287.625 400.246094 287.359375 C 403.0625 286.976562 403.289062 283.304688 400.679688 282.523438 L 388.015625 282.554688 Z M 453.542969 293.152344 C 421.863281 295.128906 401.667969 329.691406 414.816406 358.542969 C 431.300781 394.707031 482.390625 394.390625 498.574219 357.976562 C 512.582031 326.453125 487.871094 291.011719 453.542969 293.152344 Z M 430.6875 385.335938 C 430.765625 384.980469 430.574219 384.910156 430.367188 384.707031 C 429.761719 384.113281 428.332031 383.457031 427.53125 382.882812 C 408.417969 369.125 400.28125 346.886719 407.003906 323.933594 C 407.339844 322.792969 409.21875 318.222656 409.03125 317.570312 C 408.75 317 408.113281 316.757812 407.484375 316.777344 L 372.703125 316.789062 C 371.597656 316.832031 370.949219 317.488281 370.578125 318.472656 L 370.46875 370.21875 L 370.738281 371.324219 C 371.003906 371.515625 371.324219 371.550781 371.640625 371.585938 C 374.660156 371.90625 383.277344 371.882812 385.886719 370.777344 C 388.671875 369.597656 389.980469 367.472656 390.203125 364.507812 C 391.039062 353.414062 389.246094 341.023438 390.1875 330.003906 C 390.589844 325.308594 394.003906 321.371094 398.320312 319.710938 C 400.375 318.921875 402.9375 318.765625 403.320312 321.566406 C 403.839844 325.335938 399.3125 325.480469 397.523438 328.015625 C 396.847656 328.972656 396.570312 330.171875 396.371094 331.308594 C 395.699219 342.539062 397.171875 354.648438 396.351562 365.777344 C 395.882812 372.136719 390.527344 377.476562 384.164062 377.941406 C 382.457031 378.066406 371.488281 377.621094 371.140625 378.171875 C 371.078125 381.027344 374.265625 383.777344 376.78125 384.65625 C 377.390625 384.871094 379.144531 385.335938 379.703125 385.335938 L 430.691406 385.335938 Z M 482.421875 385.335938 L 520.054688 385.335938 C 524.625 385.335938 529.554688 380.226562 529.671875 375.683594 L 529.648438 319.058594 C 529.417969 317.816406 528.535156 316.949219 527.265625 316.78125 C 520.328125 317.296875 512.449219 316.121094 505.625 316.773438 C 503.226562 317.003906 504.636719 318.710938 505.054688 319.90625 C 513.167969 342.949219 506.5 367.414062 486.855469 382.042969 C 485.390625 383.132812 483.585938 383.988281 482.421875 385.339844 Z M 482.421875 385.335938 " fill-opacity="1" fill-rule="nonzero"/></g><path fill="#000000" d="M 455.027344 298.863281 L 457.085938 298.804688 C 491.234375 299.3125 509.253906 339.332031 487.621094 365.453125 C 467.367188 389.90625 425.972656 381.355469 417.652344 350.640625 C 410.839844 325.488281 428.867188 299.886719 455.027344 298.867188 Z M 453.96875 305.210938 C 430.359375 306.839844 415.460938 332.359375 425.207031 353.886719 C 437.5625 381.167969 477.90625 379.816406 488.574219 352.019531 C 497.726562 328.175781 479.414062 303.457031 453.96875 305.210938 Z M 453.96875 305.210938 " fill-opacity="1" fill-rule="nonzero"/><path fill="#000000" d="M 453.117188 312.40625 C 458.425781 311.894531 464.578125 312.648438 469.320312 315.15625 C 471.308594 316.207031 473.175781 317.761719 471.488281 320.15625 C 469.476562 323.007812 466.949219 320.425781 464.722656 319.535156 C 443.964844 311.214844 424.773438 336.925781 439.90625 354.453125 C 452.804688 369.390625 477.167969 360.457031 478.402344 341.234375 C 478.558594 338.769531 477.183594 332.785156 480.667969 332.070312 C 483.132812 331.566406 483.828125 333.28125 484.113281 335.304688 C 487.660156 360.34375 457.699219 377.390625 438.222656 360.578125 C 420.492188 345.277344 430.25 314.605469 453.121094 312.40625 Z M 453.117188 312.40625 " fill-opacity="1" fill-rule="nonzero"/><path fill="#000000" d="M 477.066406 317.261719 C 479.394531 316.859375 480.851562 318.464844 482.085938 320.1875 C 483.320312 321.914062 484.171875 323.441406 483.238281 325.535156 L 458.886719 358.144531 C 455.425781 360.882812 452.542969 360.183594 449.898438 356.960938 C 445.390625 351.46875 441.441406 345.136719 437.089844 339.488281 C 434.9375 335.644531 439.113281 328.847656 443.613281 331.921875 C 444.050781 332.222656 444.730469 332.972656 445.101562 333.398438 C 448.390625 337.132812 451.0625 341.949219 454.332031 345.765625 L 475.003906 318.371094 C 475.582031 317.890625 476.316406 317.386719 477.066406 317.257812 Z M 477.066406 317.261719 " fill-opacity="1" fill-rule="nonzero"/><g fill="#000000" fill-opacity="1"><g transform="translate(27.603006, 484.874995)"><g><path d="M 49.3125 -64.59375 C 49.3125 -65.625 49.644531 -66.429688 50.3125 -67.015625 C 50.976562 -67.597656 52.019531 -67.890625 53.4375 -67.890625 L 68.765625 -67.890625 C 70.179688 -67.890625 71.226562 -67.597656 71.90625 -67.015625 C 72.59375 -66.429688 72.9375 -65.625 72.9375 -64.59375 C 72.9375 -63.84375 72.734375 -63.222656 72.328125 -62.734375 C 71.921875 -62.253906 71.296875 -61.804688 70.453125 -61.390625 L 69.046875 -60.71875 C 67.859375 -60.132812 66.863281 -59.300781 66.0625 -58.21875 C 65.269531 -57.132812 64.503906 -55.410156 63.765625 -53.046875 L 50.578125 -12.265625 C 50.054688 -10.648438 49.691406 -9.390625 49.484375 -8.484375 C 49.273438 -7.578125 49.171875 -6.65625 49.171875 -5.71875 L 49.171875 -3.0625 C 49.171875 -2.082031 48.851562 -1.328125 48.21875 -0.796875 C 47.59375 -0.265625 46.8125 0 45.875 0 L 28.125 0 C 27.21875 0 26.460938 -0.265625 25.859375 -0.796875 C 25.265625 -1.328125 24.96875 -2.128906 24.96875 -3.203125 L 24.96875 -5.8125 C 24.96875 -6.363281 24.863281 -7.023438 24.65625 -7.796875 C 24.445312 -8.578125 24.195312 -9.421875 23.90625 -10.328125 L 8.34375 -56.34375 C 7.914062 -57.570312 7.476562 -58.46875 7.03125 -59.03125 C 6.582031 -59.601562 5.9375 -60.097656 5.09375 -60.515625 L 3.6875 -61.203125 C 2.289062 -61.910156 1.59375 -63.039062 1.59375 -64.59375 C 1.59375 -65.625 1.929688 -66.429688 2.609375 -67.015625 C 3.296875 -67.597656 4.347656 -67.890625 5.765625 -67.890625 L 33.65625 -67.890625 C 35.101562 -67.890625 36.160156 -67.597656 36.828125 -67.015625 C 37.492188 -66.429688 37.828125 -65.625 37.828125 -64.59375 C 37.828125 -63.78125 37.625 -63.128906 37.21875 -62.640625 C 36.8125 -62.160156 36.171875 -61.726562 35.296875 -61.34375 L 33.703125 -60.609375 C 32.859375 -60.222656 32.320312 -59.625 32.09375 -58.8125 C 31.875 -58.007812 32.019531 -56.832031 32.53125 -55.28125 L 44.46875 -19.109375 L 55.859375 -53.828125 C 56.410156 -55.472656 56.5 -56.828125 56.125 -57.890625 C 55.757812 -58.960938 54.765625 -59.90625 53.140625 -60.71875 L 51.796875 -61.390625 C 50.984375 -61.773438 50.363281 -62.191406 49.9375 -62.640625 C 49.519531 -63.097656 49.3125 -63.75 49.3125 -64.59375 Z M 49.3125 -64.59375 "/></g></g></g><g fill="#000000" fill-opacity="1"><g transform="translate(101.205198, 484.874995)"><g><path d="M 38.75 -69.828125 C 44.375 -69.828125 49.421875 -68.960938 53.890625 -67.234375 C 58.367188 -65.503906 62.1875 -63.035156 65.34375 -59.828125 C 68.5 -56.628906 70.90625 -52.804688 72.5625 -48.359375 C 74.226562 -43.921875 75.0625 -38.972656 75.0625 -33.515625 C 75.0625 -28.566406 74.238281 -23.941406 72.59375 -19.640625 C 70.945312 -15.335938 68.570312 -11.566406 65.46875 -8.328125 C 62.363281 -5.097656 58.601562 -2.578125 54.1875 -0.765625 C 49.78125 1.035156 44.8125 1.9375 39.28125 1.9375 C 33.65625 1.9375 28.601562 1.070312 24.125 -0.65625 C 19.644531 -2.382812 15.828125 -4.847656 12.671875 -8.046875 C 9.523438 -11.242188 7.117188 -15.066406 5.453125 -19.515625 C 3.785156 -23.960938 2.953125 -28.914062 2.953125 -34.375 C 2.953125 -39.320312 3.773438 -43.945312 5.421875 -48.25 C 7.078125 -52.550781 9.457031 -56.316406 12.5625 -59.546875 C 15.664062 -62.773438 19.421875 -65.296875 23.828125 -67.109375 C 28.242188 -68.921875 33.21875 -69.828125 38.75 -69.828125 Z M 51.9375 -20.21875 C 51.9375 -24.550781 51.585938 -28.796875 50.890625 -32.953125 C 50.191406 -37.109375 49.242188 -40.992188 48.046875 -44.609375 C 46.859375 -48.234375 45.503906 -51.414062 43.984375 -54.15625 C 42.460938 -56.90625 40.867188 -59.0625 39.203125 -60.625 C 37.535156 -62.195312 35.878906 -62.984375 34.234375 -62.984375 C 31.617188 -62.984375 29.640625 -61.679688 28.296875 -59.078125 C 26.953125 -56.484375 26.28125 -52.679688 26.28125 -47.671875 C 26.28125 -43.367188 26.628906 -39.140625 27.328125 -34.984375 C 28.023438 -30.828125 28.96875 -26.929688 30.15625 -23.296875 C 31.351562 -19.660156 32.710938 -16.46875 34.234375 -13.71875 C 35.753906 -10.96875 37.347656 -8.804688 39.015625 -7.234375 C 40.679688 -5.671875 42.335938 -4.890625 43.984375 -4.890625 C 46.628906 -4.890625 48.613281 -6.191406 49.9375 -8.796875 C 51.269531 -11.398438 51.9375 -15.207031 51.9375 -20.21875 Z M 51.9375 -20.21875 "/></g></g></g><g fill="#000000" fill-opacity="1"><g transform="translate(179.219637, 484.874995)"><g><path d="M 19.9375 -67.890625 L 52.421875 -67.890625 C 53.910156 -67.890625 55.175781 -68.019531 56.21875 -68.28125 C 57.269531 -68.539062 58.21875 -68.789062 59.0625 -69.03125 C 59.90625 -69.269531 60.742188 -69.390625 61.578125 -69.390625 C 63.171875 -69.390625 64.351562 -69.007812 65.125 -68.25 C 65.894531 -67.488281 66.523438 -66.203125 67.015625 -64.390625 L 70.125 -48.25 C 70.375 -46.957031 70.265625 -45.90625 69.796875 -45.09375 C 69.328125 -44.289062 68.53125 -43.789062 67.40625 -43.59375 C 66.375 -43.363281 65.457031 -43.425781 64.65625 -43.78125 C 63.863281 -44.144531 63.195312 -44.875 62.65625 -45.96875 C 61.226562 -48.8125 59.960938 -51.175781 58.859375 -53.0625 C 57.765625 -54.957031 56.738281 -56.445312 55.78125 -57.53125 C 54.832031 -58.613281 53.890625 -59.390625 52.953125 -59.859375 C 52.015625 -60.328125 51 -60.5625 49.90625 -60.5625 L 47.421875 -60.5625 L 47.421875 -10.765625 C 47.421875 -9.273438 48.25 -8.207031 49.90625 -7.5625 L 51.734375 -6.890625 C 52.640625 -6.566406 53.285156 -6.097656 53.671875 -5.484375 C 54.066406 -4.867188 54.265625 -4.140625 54.265625 -3.296875 C 54.265625 -2.296875 53.921875 -1.492188 53.234375 -0.890625 C 52.554688 -0.296875 51.507812 0 50.09375 0 L 22.265625 0 C 20.835938 0 19.785156 -0.296875 19.109375 -0.890625 C 18.429688 -1.492188 18.09375 -2.296875 18.09375 -3.296875 C 18.09375 -4.140625 18.285156 -4.867188 18.671875 -5.484375 C 19.054688 -6.097656 19.703125 -6.566406 20.609375 -6.890625 L 22.453125 -7.5625 C 24.097656 -8.207031 24.921875 -9.273438 24.921875 -10.765625 L 24.921875 -60.5625 L 22.453125 -60.5625 C 21.347656 -60.5625 20.328125 -60.328125 19.390625 -59.859375 C 18.453125 -59.390625 17.503906 -58.613281 16.546875 -57.53125 C 15.597656 -56.445312 14.570312 -54.957031 13.46875 -53.0625 C 12.375 -51.175781 11.117188 -48.8125 9.703125 -45.96875 C 9.148438 -44.875 8.476562 -44.144531 7.6875 -43.78125 C 6.894531 -43.425781 5.984375 -43.363281 4.953125 -43.59375 C 3.847656 -43.789062 3.0625 -44.289062 2.59375 -45.09375 C 2.125 -45.90625 2.003906 -46.957031 2.234375 -48.25 L 5.328125 -64.390625 C 5.816406 -66.203125 6.445312 -67.488281 7.21875 -68.25 C 8 -69.007812 9.179688 -69.390625 10.765625 -69.390625 C 11.609375 -69.390625 12.445312 -69.269531 13.28125 -69.03125 C 14.125 -68.789062 15.070312 -68.539062 16.125 -68.28125 C 17.175781 -68.019531 18.445312 -67.890625 19.9375 -67.890625 Z M 19.9375 -67.890625 "/></g></g></g><g fill="#000000" fill-opacity="1"><g transform="translate(251.56117, 484.874995)"><g><path d="M 38.75 -69.828125 C 44.375 -69.828125 49.421875 -68.960938 53.890625 -67.234375 C 58.367188 -65.503906 62.1875 -63.035156 65.34375 -59.828125 C 68.5 -56.628906 70.90625 -52.804688 72.5625 -48.359375 C 74.226562 -43.921875 75.0625 -38.972656 75.0625 -33.515625 C 75.0625 -28.566406 74.238281 -23.941406 72.59375 -19.640625 C 70.945312 -15.335938 68.570312 -11.566406 65.46875 -8.328125 C 62.363281 -5.097656 58.601562 -2.578125 54.1875 -0.765625 C 49.78125 1.035156 44.8125 1.9375 39.28125 1.9375 C 33.65625 1.9375 28.601562 1.070312 24.125 -0.65625 C 19.644531 -2.382812 15.828125 -4.847656 12.671875 -8.046875 C 9.523438 -11.242188 7.117188 -15.066406 5.453125 -19.515625 C 3.785156 -23.960938 2.953125 -28.914062 2.953125 -34.375 C 2.953125 -39.320312 3.773438 -43.945312 5.421875 -48.25 C 7.078125 -52.550781 9.457031 -56.316406 12.5625 -59.546875 C 15.664062 -62.773438 19.421875 -65.296875 23.828125 -67.109375 C 28.242188 -68.921875 33.21875 -69.828125 38.75 -69.828125 Z M 51.9375 -20.21875 C 51.9375 -24.550781 51.585938 -28.796875 50.890625 -32.953125 C 50.191406 -37.109375 49.242188 -40.992188 48.046875 -44.609375 C 46.859375 -48.234375 45.503906 -51.414062 43.984375 -54.15625 C 42.460938 -56.90625 40.867188 -59.0625 39.203125 -60.625 C 37.535156 -62.195312 35.878906 -62.984375 34.234375 -62.984375 C 31.617188 -62.984375 29.640625 -61.679688 28.296875 -59.078125 C 26.953125 -56.484375 26.28125 -52.679688 26.28125 -47.671875 C 26.28125 -43.367188 26.628906 -39.140625 27.328125 -34.984375 C 28.023438 -30.828125 28.96875 -26.929688 30.15625 -23.296875 C 31.351562 -19.660156 32.710938 -16.46875 34.234375 -13.71875 C 35.753906 -10.96875 37.347656 -8.804688 39.015625 -7.234375 C 40.679688 -5.671875 42.335938 -4.890625 43.984375 -4.890625 C 46.628906 -4.890625 48.613281 -6.191406 49.9375 -8.796875 C 51.269531 -11.398438 51.9375 -15.207031 51.9375 -20.21875 Z M 51.9375 -20.21875 "/></g></g></g><g fill="#000000" fill-opacity="1"><g transform="translate(329.575632, 484.874995)"><g><path d="M 68.078125 -1.890625 C 68.078125 0.660156 66.800781 1.9375 64.25 1.9375 C 63.1875 1.9375 62.207031 1.65625 61.3125 1.09375 C 60.425781 0.53125 59.578125 -0.117188 58.765625 -0.859375 C 57.960938 -1.609375 57.195312 -2.265625 56.46875 -2.828125 C 55.738281 -3.398438 55.019531 -3.6875 54.3125 -3.6875 C 53.53125 -3.6875 52.671875 -3.398438 51.734375 -2.828125 C 50.796875 -2.265625 49.671875 -1.617188 48.359375 -0.890625 C 47.054688 -0.171875 45.46875 0.46875 43.59375 1.03125 C 41.71875 1.601562 39.4375 1.890625 36.75 1.890625 C 31.414062 1.890625 26.65625 1.050781 22.46875 -0.625 C 18.289062 -2.3125 14.742188 -4.722656 11.828125 -7.859375 C 8.921875 -10.992188 6.707031 -14.757812 5.1875 -19.15625 C 3.664062 -23.550781 2.90625 -28.476562 2.90625 -33.9375 C 2.90625 -38.082031 3.488281 -41.960938 4.65625 -45.578125 C 5.820312 -49.203125 7.46875 -52.5 9.59375 -55.46875 C 11.726562 -58.445312 14.265625 -61.003906 17.203125 -63.140625 C 20.148438 -65.273438 23.410156 -66.921875 26.984375 -68.078125 C 30.554688 -69.242188 34.347656 -69.828125 38.359375 -69.828125 C 40.785156 -69.828125 42.863281 -69.664062 44.59375 -69.34375 C 46.320312 -69.019531 47.789062 -68.65625 49 -68.25 C 50.207031 -67.84375 51.234375 -67.476562 52.078125 -67.15625 C 52.921875 -66.832031 53.679688 -66.671875 54.359375 -66.671875 C 55.035156 -66.671875 55.625 -66.816406 56.125 -67.109375 C 56.625 -67.398438 57.097656 -67.75 57.546875 -68.15625 C 58.003906 -68.5625 58.5 -68.910156 59.03125 -69.203125 C 59.570312 -69.492188 60.195312 -69.640625 60.90625 -69.640625 C 61.71875 -69.640625 62.390625 -69.378906 62.921875 -68.859375 C 63.453125 -68.335938 63.894531 -67.460938 64.25 -66.234375 L 69.25 -49.078125 C 69.539062 -48.078125 69.414062 -47.175781 68.875 -46.375 C 68.34375 -45.582031 67.578125 -45.0625 66.578125 -44.8125 C 65.484375 -44.550781 64.484375 -44.617188 63.578125 -45.015625 C 62.671875 -45.421875 61.972656 -46.191406 61.484375 -47.328125 C 59.835938 -51.242188 57.953125 -54.273438 55.828125 -56.421875 C 53.710938 -58.566406 51.472656 -60.0625 49.109375 -60.90625 C 46.753906 -61.75 44.382812 -62.171875 42 -62.171875 C 38.539062 -62.171875 35.570312 -61.175781 33.09375 -59.1875 C 30.625 -57.195312 28.734375 -54.363281 27.421875 -50.6875 C 26.109375 -47.019531 25.453125 -42.664062 25.453125 -37.625 C 25.453125 -31.132812 26.226562 -25.710938 27.78125 -21.359375 C 29.332031 -17.015625 31.472656 -13.757812 34.203125 -11.59375 C 36.941406 -9.425781 40.070312 -8.34375 43.59375 -8.34375 C 45.207031 -8.34375 46.378906 -8.796875 47.109375 -9.703125 C 47.835938 -10.609375 48.203125 -11.769531 48.203125 -13.1875 L 48.203125 -24 C 48.203125 -24.675781 48.039062 -25.191406 47.71875 -25.546875 C 47.394531 -25.910156 46.734375 -26.238281 45.734375 -26.53125 L 43.59375 -27.15625 C 42.59375 -27.445312 41.804688 -27.863281 41.234375 -28.40625 C 40.671875 -28.957031 40.390625 -29.65625 40.390625 -30.5 C 40.390625 -31.46875 40.726562 -32.234375 41.40625 -32.796875 C 42.09375 -33.367188 43.144531 -33.65625 44.5625 -33.65625 L 69.640625 -33.65625 C 71.085938 -33.65625 72.148438 -33.367188 72.828125 -32.796875 C 73.515625 -32.234375 73.859375 -31.484375 73.859375 -30.546875 C 73.859375 -29.742188 73.644531 -29.085938 73.21875 -28.578125 C 72.800781 -28.078125 72.171875 -27.648438 71.328125 -27.296875 L 70.21875 -26.859375 C 69.570312 -26.609375 69.050781 -26.269531 68.65625 -25.84375 C 68.269531 -25.425781 68.078125 -24.8125 68.078125 -24 Z M 68.078125 -1.890625 "/></g></g></g><g fill="#000000" fill-opacity="1"><g transform="translate(405.699094, 484.874995)"><g><path d="M 73.515625 -44.078125 C 73.515625 -40.585938 72.539062 -37.425781 70.59375 -34.59375 C 68.65625 -31.769531 65.910156 -29.582031 62.359375 -28.03125 L 72.6875 -10.328125 C 73.269531 -9.328125 73.796875 -8.578125 74.265625 -8.078125 C 74.734375 -7.578125 75.335938 -7.144531 76.078125 -6.78125 C 76.890625 -6.394531 77.476562 -5.925781 77.84375 -5.375 C 78.21875 -4.832031 78.40625 -4.140625 78.40625 -3.296875 C 78.40625 -2.296875 78.066406 -1.492188 77.390625 -0.890625 C 76.710938 -0.296875 75.660156 0 74.234375 0 L 50.1875 0 C 47.539062 0 46.21875 -1.097656 46.21875 -3.296875 C 46.21875 -4.296875 46.6875 -5.132812 47.625 -5.8125 L 48.203125 -6.25 C 48.785156 -6.707031 49.113281 -7.144531 49.1875 -7.5625 C 49.269531 -7.976562 49.101562 -8.59375 48.6875 -9.40625 L 41.515625 -23.671875 C 38.503906 -23.765625 35.882812 -24.148438 33.65625 -24.828125 L 33.65625 -10.765625 C 33.65625 -9.953125 33.804688 -9.300781 34.109375 -8.8125 C 34.421875 -8.332031 34.929688 -7.914062 35.640625 -7.5625 L 37 -6.890625 C 38 -6.398438 38.664062 -5.890625 39 -5.359375 C 39.34375 -4.828125 39.515625 -4.140625 39.515625 -3.296875 C 39.515625 -2.296875 39.175781 -1.492188 38.5 -0.890625 C 37.820312 -0.296875 36.769531 0 35.34375 0 L 8.484375 0 C 7.066406 0 6.015625 -0.296875 5.328125 -0.890625 C 4.648438 -1.492188 4.3125 -2.296875 4.3125 -3.296875 C 4.3125 -4.140625 4.503906 -4.867188 4.890625 -5.484375 C 5.285156 -6.097656 5.9375 -6.566406 6.84375 -6.890625 L 8.6875 -7.5625 C 10.332031 -8.207031 11.15625 -9.273438 11.15625 -10.765625 L 11.15625 -57.125 C 11.15625 -58.644531 10.332031 -59.710938 8.6875 -60.328125 L 6.84375 -61 C 5.9375 -61.351562 5.285156 -61.828125 4.890625 -62.421875 C 4.503906 -63.023438 4.3125 -63.75 4.3125 -64.59375 C 4.3125 -65.625 4.648438 -66.429688 5.328125 -67.015625 C 6.015625 -67.597656 7.066406 -67.890625 8.484375 -67.890625 L 36.46875 -67.890625 C 44.445312 -67.890625 51.191406 -66.882812 56.703125 -64.875 C 62.222656 -62.875 66.40625 -60.085938 69.25 -56.515625 C 72.09375 -52.941406 73.515625 -48.796875 73.515625 -44.078125 Z M 33.65625 -61.578125 L 33.65625 -30.890625 C 35.007812 -30.597656 36.578125 -30.453125 38.359375 -30.453125 C 42.203125 -30.453125 45.191406 -31.519531 47.328125 -33.65625 C 49.460938 -35.789062 50.53125 -39.101562 50.53125 -43.59375 C 50.53125 -46.207031 50.15625 -48.601562 49.40625 -50.78125 C 48.664062 -52.96875 47.625 -54.867188 46.28125 -56.484375 C 44.9375 -58.109375 43.351562 -59.363281 41.53125 -60.25 C 39.707031 -61.132812 37.710938 -61.578125 35.546875 -61.578125 Z M 33.65625 -61.578125 "/></g></g></g><g fill="#000000" fill-opacity="1"><g transform="translate(486.331803, 484.874995)"><g><path d="M 25.125 -3.296875 C 25.125 -2.296875 24.789062 -1.492188 24.125 -0.890625 C 23.457031 -0.296875 22.414062 0 21 0 L 5.484375 0 C 4.085938 0 3.050781 -0.296875 2.375 -0.890625 C 1.695312 -1.492188 1.359375 -2.296875 1.359375 -3.296875 C 1.359375 -4.585938 2.085938 -5.6875 3.546875 -6.59375 L 4.5625 -7.21875 C 5.269531 -7.675781 5.863281 -8.160156 6.34375 -8.671875 C 6.832031 -9.191406 7.28125 -9.910156 7.6875 -10.828125 C 8.09375 -11.753906 8.535156 -13.007812 9.015625 -14.59375 L 21.4375 -54.703125 C 22.019531 -56.609375 22.226562 -57.988281 22.0625 -58.84375 C 21.90625 -59.695312 21.242188 -60.398438 20.078125 -60.953125 C 19.171875 -61.410156 18.53125 -61.925781 18.15625 -62.5 C 17.789062 -63.082031 17.609375 -63.78125 17.609375 -64.59375 C 17.609375 -65.625 17.945312 -66.429688 18.625 -67.015625 C 19.300781 -67.597656 20.347656 -67.890625 21.765625 -67.890625 L 52.953125 -67.890625 C 54.378906 -67.890625 55.429688 -67.597656 56.109375 -67.015625 C 56.785156 -66.429688 57.125 -65.625 57.125 -64.59375 C 57.125 -63.71875 56.921875 -62.992188 56.515625 -62.421875 C 56.109375 -61.859375 55.535156 -61.398438 54.796875 -61.046875 C 53.984375 -60.660156 53.503906 -60.132812 53.359375 -59.46875 C 53.210938 -58.8125 53.367188 -57.769531 53.828125 -56.34375 L 67.15625 -14.109375 C 67.84375 -11.941406 68.457031 -10.347656 69 -9.328125 C 69.550781 -8.316406 70.28125 -7.582031 71.1875 -7.125 C 72.320312 -6.539062 73.082031 -5.972656 73.46875 -5.421875 C 73.851562 -4.878906 74.046875 -4.171875 74.046875 -3.296875 C 74.046875 -2.296875 73.707031 -1.492188 73.03125 -0.890625 C 72.351562 -0.296875 71.300781 0 69.875 0 L 44.265625 0 C 42.816406 0 41.757812 -0.296875 41.09375 -0.890625 C 40.4375 -1.492188 40.109375 -2.296875 40.109375 -3.296875 C 40.109375 -4.109375 40.316406 -4.765625 40.734375 -5.265625 C 41.148438 -5.765625 41.78125 -6.207031 42.625 -6.59375 L 44.171875 -7.328125 C 45.015625 -7.710938 45.367188 -8.234375 45.234375 -8.890625 C 45.109375 -9.554688 44.820312 -10.632812 44.375 -12.125 L 41.515625 -21.671875 L 20.03125 -21.671875 L 18.234375 -15.859375 C 17.710938 -14.210938 17.441406 -12.878906 17.421875 -11.859375 C 17.410156 -10.835938 17.710938 -9.976562 18.328125 -9.28125 C 18.941406 -8.59375 19.925781 -7.890625 21.28125 -7.171875 L 22.640625 -6.5 C 23.390625 -6.113281 23.988281 -5.6875 24.4375 -5.21875 C 24.894531 -4.75 25.125 -4.109375 25.125 -3.296875 Z M 22.265625 -28.90625 L 39.328125 -28.90625 L 30.890625 -56.78125 Z M 22.265625 -28.90625 "/></g></g></g><g fill="#000000" fill-opacity="1"><g transform="translate(562.746197, 484.874995)"><g><path d="M 71.765625 -42.4375 C 71.765625 -38.195312 70.632812 -34.507812 68.375 -31.375 C 66.113281 -28.238281 62.851562 -25.8125 58.59375 -24.09375 C 54.34375 -22.382812 49.265625 -21.53125 43.359375 -21.53125 C 39.796875 -21.53125 36.5625 -21.898438 33.65625 -22.640625 L 33.65625 -10.765625 C 33.65625 -9.953125 33.835938 -9.265625 34.203125 -8.703125 C 34.578125 -8.140625 35.21875 -7.757812 36.125 -7.5625 L 39.03125 -6.9375 C 40.070312 -6.707031 40.816406 -6.304688 41.265625 -5.734375 C 41.722656 -5.171875 41.953125 -4.359375 41.953125 -3.296875 C 41.953125 -2.296875 41.609375 -1.492188 40.921875 -0.890625 C 40.242188 -0.296875 39.195312 0 37.78125 0 L 8.484375 0 C 7.066406 0 6.015625 -0.296875 5.328125 -0.890625 C 4.648438 -1.492188 4.3125 -2.296875 4.3125 -3.296875 C 4.3125 -4.140625 4.503906 -4.867188 4.890625 -5.484375 C 5.285156 -6.097656 5.9375 -6.566406 6.84375 -6.890625 L 8.6875 -7.5625 C 10.332031 -8.207031 11.15625 -9.273438 11.15625 -10.765625 L 11.15625 -57.125 C 11.15625 -58.644531 10.332031 -59.710938 8.6875 -60.328125 L 6.84375 -61 C 5.9375 -61.351562 5.285156 -61.828125 4.890625 -62.421875 C 4.503906 -63.023438 4.3125 -63.75 4.3125 -64.59375 C 4.3125 -65.625 4.648438 -66.429688 5.328125 -67.015625 C 6.015625 -67.597656 7.066406 -67.890625 8.484375 -67.890625 L 35.5 -67.890625 C 41.3125 -67.890625 46.460938 -67.265625 50.953125 -66.015625 C 55.453125 -64.773438 59.253906 -63.015625 62.359375 -60.734375 C 65.460938 -58.453125 67.804688 -55.757812 69.390625 -52.65625 C 70.972656 -49.550781 71.765625 -46.144531 71.765625 -42.4375 Z M 33.65625 -61 L 33.65625 -28.796875 C 34.164062 -28.734375 34.695312 -28.675781 35.25 -28.625 C 35.800781 -28.582031 36.382812 -28.5625 37 -28.5625 C 39.394531 -28.5625 41.578125 -29.085938 43.546875 -30.140625 C 45.515625 -31.191406 47.085938 -32.789062 48.265625 -34.9375 C 49.453125 -37.082031 50.046875 -39.773438 50.046875 -43.015625 C 50.046875 -46.734375 49.378906 -49.929688 48.046875 -52.609375 C 46.722656 -55.296875 44.921875 -57.363281 42.640625 -58.8125 C 40.367188 -60.269531 37.757812 -61 34.8125 -61 Z M 33.65625 -61 "/></g></g></g><g fill="#000000" fill-opacity="1"><g transform="translate(637.124137, 484.874995)"><g><path d="M 33.65625 -10.765625 C 33.65625 -9.273438 34.476562 -8.207031 36.125 -7.5625 L 37.96875 -6.890625 C 38.875 -6.566406 39.519531 -6.097656 39.90625 -5.484375 C 40.289062 -4.867188 40.484375 -4.140625 40.484375 -3.296875 C 40.484375 -2.296875 40.144531 -1.492188 39.46875 -0.890625 C 38.789062 -0.296875 37.742188 0 36.328125 0 L 8.484375 0 C 7.066406 0 6.015625 -0.296875 5.328125 -0.890625 C 4.648438 -1.492188 4.3125 -2.296875 4.3125 -3.296875 C 4.3125 -4.140625 4.503906 -4.867188 4.890625 -5.484375 C 5.285156 -6.097656 5.9375 -6.566406 6.84375 -6.890625 L 8.6875 -7.5625 C 10.332031 -8.207031 11.15625 -9.273438 11.15625 -10.765625 L 11.15625 -57.125 C 11.15625 -58.644531 10.332031 -59.710938 8.6875 -60.328125 L 6.84375 -61 C 5.9375 -61.351562 5.285156 -61.828125 4.890625 -62.421875 C 4.503906 -63.023438 4.3125 -63.75 4.3125 -64.59375 C 4.3125 -65.625 4.648438 -66.429688 5.328125 -67.015625 C 6.015625 -67.597656 7.066406 -67.890625 8.484375 -67.890625 L 36.328125 -67.890625 C 37.742188 -67.890625 38.789062 -67.597656 39.46875 -67.015625 C 40.144531 -66.429688 40.484375 -65.625 40.484375 -64.59375 C 40.484375 -63.75 40.289062 -63.023438 39.90625 -62.421875 C 39.519531 -61.828125 38.875 -61.351562 37.96875 -61 L 36.125 -60.328125 C 34.476562 -59.710938 33.65625 -58.644531 33.65625 -57.125 L 33.65625 -35.734375 L 53.875 -35.734375 L 53.875 -57.125 C 53.875 -58.644531 53.050781 -59.710938 51.40625 -60.328125 L 49.5625 -61 C 48.65625 -61.351562 48.003906 -61.828125 47.609375 -62.421875 C 47.222656 -63.023438 47.03125 -63.75 47.03125 -64.59375 C 47.03125 -65.625 47.367188 -66.429688 48.046875 -67.015625 C 48.734375 -67.597656 49.785156 -67.890625 51.203125 -67.890625 L 79.046875 -67.890625 C 80.460938 -67.890625 81.507812 -67.597656 82.1875 -67.015625 C 82.875 -66.429688 83.21875 -65.625 83.21875 -64.59375 C 83.21875 -63.75 83.019531 -63.023438 82.625 -62.421875 C 82.238281 -61.828125 81.59375 -61.351562 80.6875 -61 L 78.84375 -60.328125 C 77.195312 -59.710938 76.375 -58.644531 76.375 -57.125 L 76.375 -10.765625 C 76.375 -9.273438 77.195312 -8.207031 78.84375 -7.5625 L 80.6875 -6.890625 C 81.59375 -6.566406 82.238281 -6.097656 82.625 -5.484375 C 83.019531 -4.867188 83.21875 -4.140625 83.21875 -3.296875 C 83.21875 -2.296875 82.875 -1.492188 82.1875 -0.890625 C 81.507812 -0.296875 80.460938 0 79.046875 0 L 51.203125 0 C 49.785156 0 48.734375 -0.296875 48.046875 -0.890625 C 47.367188 -1.492188 47.03125 -2.296875 47.03125 -3.296875 C 47.03125 -4.140625 47.222656 -4.867188 47.609375 -5.484375 C 48.003906 -6.097656 48.65625 -6.566406 49.5625 -6.890625 L 51.40625 -7.5625 C 53.050781 -8.207031 53.875 -9.273438 53.875 -10.765625 L 53.875 -28.515625 L 33.65625 -28.515625 Z M 33.65625 -10.765625 "/></g></g></g><g fill="#000000" fill-opacity="1"><g transform="translate(724.64191, 484.874995)"><g><path d="M 4.3125 -64.59375 C 4.3125 -65.625 4.648438 -66.429688 5.328125 -67.015625 C 6.015625 -67.597656 7.066406 -67.890625 8.484375 -67.890625 L 45.046875 -67.890625 C 46.535156 -67.890625 47.765625 -68.035156 48.734375 -68.328125 C 49.703125 -68.617188 50.613281 -68.910156 51.46875 -69.203125 C 52.332031 -69.492188 53.328125 -69.640625 54.453125 -69.640625 C 55.910156 -69.640625 57.007812 -69.222656 57.75 -68.390625 C 58.5 -67.566406 59.144531 -66.234375 59.6875 -64.390625 L 63.8125 -50.765625 C 64.488281 -48.441406 63.8125 -46.910156 61.78125 -46.171875 C 60.613281 -45.742188 59.566406 -45.738281 58.640625 -46.15625 C 57.722656 -46.582031 56.972656 -47.34375 56.390625 -48.4375 C 55.003906 -51 53.695312 -53.09375 52.46875 -54.71875 C 51.238281 -56.351562 50 -57.625 48.75 -58.53125 C 47.507812 -59.4375 46.203125 -60.066406 44.828125 -60.421875 C 43.453125 -60.773438 41.910156 -60.953125 40.203125 -60.953125 L 33.65625 -60.953125 L 33.65625 -37.875 L 37.875 -37.875 C 39.226562 -37.875 40.300781 -38.035156 41.09375 -38.359375 C 41.882812 -38.679688 42.53125 -39.257812 43.03125 -40.09375 C 43.53125 -40.9375 44.007812 -42.117188 44.46875 -43.640625 C 44.789062 -44.742188 45.257812 -45.535156 45.875 -46.015625 C 46.488281 -46.503906 47.195312 -46.75 48 -46.75 C 48.84375 -46.75 49.539062 -46.5 50.09375 -46 C 50.644531 -45.5 51.03125 -44.796875 51.25 -43.890625 L 55.03125 -28.609375 C 55.582031 -26.316406 54.953125 -24.863281 53.140625 -24.25 C 52.242188 -23.925781 51.394531 -23.875 50.59375 -24.09375 C 49.800781 -24.320312 49.132812 -24.84375 48.59375 -25.65625 C 47.550781 -27.144531 46.601562 -28.273438 45.75 -29.046875 C 44.894531 -29.816406 43.941406 -30.347656 42.890625 -30.640625 C 41.835938 -30.929688 40.472656 -31.078125 38.796875 -31.078125 L 33.65625 -31.078125 L 33.65625 -12.84375 C 33.65625 -10.875 34.144531 -9.394531 35.125 -8.40625 C 36.113281 -7.425781 37.53125 -6.9375 39.375 -6.9375 L 41.65625 -6.9375 C 43.46875 -6.9375 45.113281 -7.132812 46.59375 -7.53125 C 48.082031 -7.9375 49.484375 -8.65625 50.796875 -9.6875 C 52.109375 -10.726562 53.410156 -12.191406 54.703125 -14.078125 C 55.992188 -15.972656 57.332031 -18.410156 58.71875 -21.390625 C 59.207031 -22.421875 59.863281 -23.117188 60.6875 -23.484375 C 61.507812 -23.859375 62.4375 -23.953125 63.46875 -23.765625 C 64.601562 -23.535156 65.425781 -23.007812 65.9375 -22.1875 C 66.457031 -21.363281 66.539062 -20.335938 66.1875 -19.109375 L 61.6875 -3.484375 C 61.164062 -1.710938 60.523438 -0.398438 59.765625 0.453125 C 59.003906 1.316406 57.832031 1.75 56.25 1.75 C 55.25 1.75 54.335938 1.601562 53.515625 1.3125 C 52.691406 1.019531 51.785156 0.726562 50.796875 0.4375 C 49.804688 0.144531 48.566406 0 47.078125 0 L 8.484375 0 C 7.066406 0 6.015625 -0.296875 5.328125 -0.890625 C 4.648438 -1.492188 4.3125 -2.296875 4.3125 -3.296875 C 4.3125 -4.140625 4.503906 -4.867188 4.890625 -5.484375 C 5.285156 -6.097656 5.9375 -6.566406 6.84375 -6.890625 L 8.6875 -7.5625 C 10.332031 -8.207031 11.15625 -9.273438 11.15625 -10.765625 L 11.15625 -57.125 C 11.15625 -58.644531 10.332031 -59.710938 8.6875 -60.328125 L 6.84375 -61 C 5.9375 -61.351562 5.285156 -61.828125 4.890625 -62.421875 C 4.503906 -63.023438 4.3125 -63.75 4.3125 -64.59375 Z M 4.3125 -64.59375 "/></g></g></g><g fill="#000000" fill-opacity="1"><g transform="translate(791.746948, 484.874995)"><g><path d="M 73.515625 -44.078125 C 73.515625 -40.585938 72.539062 -37.425781 70.59375 -34.59375 C 68.65625 -31.769531 65.910156 -29.582031 62.359375 -28.03125 L 72.6875 -10.328125 C 73.269531 -9.328125 73.796875 -8.578125 74.265625 -8.078125 C 74.734375 -7.578125 75.335938 -7.144531 76.078125 -6.78125 C 76.890625 -6.394531 77.476562 -5.925781 77.84375 -5.375 C 78.21875 -4.832031 78.40625 -4.140625 78.40625 -3.296875 C 78.40625 -2.296875 78.066406 -1.492188 77.390625 -0.890625 C 76.710938 -0.296875 75.660156 0 74.234375 0 L 50.1875 0 C 47.539062 0 46.21875 -1.097656 46.21875 -3.296875 C 46.21875 -4.296875 46.6875 -5.132812 47.625 -5.8125 L 48.203125 -6.25 C 48.785156 -6.707031 49.113281 -7.144531 49.1875 -7.5625 C 49.269531 -7.976562 49.101562 -8.59375 48.6875 -9.40625 L 41.515625 -23.671875 C 38.503906 -23.765625 35.882812 -24.148438 33.65625 -24.828125 L 33.65625 -10.765625 C 33.65625 -9.953125 33.804688 -9.300781 34.109375 -8.8125 C 34.421875 -8.332031 34.929688 -7.914062 35.640625 -7.5625 L 37 -6.890625 C 38 -6.398438 38.664062 -5.890625 39 -5.359375 C 39.34375 -4.828125 39.515625 -4.140625 39.515625 -3.296875 C 39.515625 -2.296875 39.175781 -1.492188 38.5 -0.890625 C 37.820312 -0.296875 36.769531 0 35.34375 0 L 8.484375 0 C 7.066406 0 6.015625 -0.296875 5.328125 -0.890625 C 4.648438 -1.492188 4.3125 -2.296875 4.3125 -3.296875 C 4.3125 -4.140625 4.503906 -4.867188 4.890625 -5.484375 C 5.285156 -6.097656 5.9375 -6.566406 6.84375 -6.890625 L 8.6875 -7.5625 C 10.332031 -8.207031 11.15625 -9.273438 11.15625 -10.765625 L 11.15625 -57.125 C 11.15625 -58.644531 10.332031 -59.710938 8.6875 -60.328125 L 6.84375 -61 C 5.9375 -61.351562 5.285156 -61.828125 4.890625 -62.421875 C 4.503906 -63.023438 4.3125 -63.75 4.3125 -64.59375 C 4.3125 -65.625 4.648438 -66.429688 5.328125 -67.015625 C 6.015625 -67.597656 7.066406 -67.890625 8.484375 -67.890625 L 36.46875 -67.890625 C 44.445312 -67.890625 51.191406 -66.882812 56.703125 -64.875 C 62.222656 -62.875 66.40625 -60.085938 69.25 -56.515625 C 72.09375 -52.941406 73.515625 -48.796875 73.515625 -44.078125 Z M 33.65625 -61.578125 L 33.65625 -30.890625 C 35.007812 -30.597656 36.578125 -30.453125 38.359375 -30.453125 C 42.203125 -30.453125 45.191406 -31.519531 47.328125 -33.65625 C 49.460938 -35.789062 50.53125 -39.101562 50.53125 -43.59375 C 50.53125 -46.207031 50.15625 -48.601562 49.40625 -50.78125 C 48.664062 -52.96875 47.625 -54.867188 46.28125 -56.484375 C 44.9375 -58.109375 43.351562 -59.363281 41.53125 -60.25 C 39.707031 -61.132812 37.710938 -61.578125 35.546875 -61.578125 Z M 33.65625 -61.578125 "/></g></g></g><g fill="#000000" fill-opacity="1"><g transform="translate(128.370819, 549.626823)"><g><path d="M 13.5625 0 L 3.4375 0 L 3.4375 -31.265625 L 13.875 -31.265625 C 16.945312 -31.265625 19.582031 -30.640625 21.78125 -29.390625 C 23.976562 -28.148438 25.660156 -26.363281 26.828125 -24.03125 C 28.003906 -21.707031 28.59375 -18.925781 28.59375 -15.6875 C 28.59375 -12.425781 28 -9.625 26.8125 -7.28125 C 25.632812 -4.9375 23.925781 -3.132812 21.6875 -1.875 C 19.445312 -0.625 16.738281 0 13.5625 0 Z M 8.15625 -4.125 L 13.296875 -4.125 C 15.679688 -4.125 17.660156 -4.570312 19.234375 -5.46875 C 20.816406 -6.375 22 -7.679688 22.78125 -9.390625 C 23.5625 -11.109375 23.953125 -13.207031 23.953125 -15.6875 C 23.953125 -18.132812 23.5625 -20.210938 22.78125 -21.921875 C 22.007812 -23.640625 20.851562 -24.941406 19.3125 -25.828125 C 17.78125 -26.710938 15.875 -27.15625 13.59375 -27.15625 L 8.15625 -27.15625 Z M 8.15625 -4.125 "/></g></g></g><g fill="#000000" fill-opacity="1"><g transform="translate(158.708578, 549.626823)"><g><path d="M 8.15625 -31.265625 L 8.15625 0 L 3.4375 0 L 3.4375 -31.265625 Z M 8.15625 -31.265625 "/></g></g></g><g fill="#000000" fill-opacity="1"><g transform="translate(169.609453, 549.626823)"><g><path d="M 20.5 -23.0625 C 20.332031 -24.5 19.65625 -25.617188 18.46875 -26.421875 C 17.289062 -27.222656 15.804688 -27.625 14.015625 -27.625 C 12.734375 -27.625 11.625 -27.421875 10.6875 -27.015625 C 9.75 -26.617188 9.019531 -26.070312 8.5 -25.375 C 7.988281 -24.675781 7.734375 -23.882812 7.734375 -23 C 7.734375 -22.25 7.910156 -21.601562 8.265625 -21.0625 C 8.617188 -20.53125 9.082031 -20.082031 9.65625 -19.71875 C 10.226562 -19.351562 10.84375 -19.050781 11.5 -18.8125 C 12.164062 -18.582031 12.804688 -18.390625 13.421875 -18.234375 L 16.46875 -17.4375 C 17.46875 -17.195312 18.492188 -16.863281 19.546875 -16.4375 C 20.597656 -16.019531 21.570312 -15.472656 22.46875 -14.796875 C 23.363281 -14.117188 24.085938 -13.273438 24.640625 -12.265625 C 25.191406 -11.253906 25.46875 -10.046875 25.46875 -8.640625 C 25.46875 -6.867188 25.007812 -5.296875 24.09375 -3.921875 C 23.1875 -2.546875 21.867188 -1.460938 20.140625 -0.671875 C 18.421875 0.117188 16.335938 0.515625 13.890625 0.515625 C 11.554688 0.515625 9.53125 0.144531 7.8125 -0.59375 C 6.101562 -1.332031 4.765625 -2.382812 3.796875 -3.75 C 2.835938 -5.125 2.304688 -6.753906 2.203125 -8.640625 L 6.9375 -8.640625 C 7.019531 -7.515625 7.382812 -6.578125 8.03125 -5.828125 C 8.6875 -5.078125 9.519531 -4.519531 10.53125 -4.15625 C 11.539062 -3.800781 12.648438 -3.625 13.859375 -3.625 C 15.191406 -3.625 16.378906 -3.832031 17.421875 -4.25 C 18.472656 -4.675781 19.296875 -5.265625 19.890625 -6.015625 C 20.492188 -6.773438 20.796875 -7.664062 20.796875 -8.6875 C 20.796875 -9.613281 20.53125 -10.367188 20 -10.953125 C 19.476562 -11.546875 18.769531 -12.035156 17.875 -12.421875 C 16.988281 -12.816406 15.988281 -13.160156 14.875 -13.453125 L 11.171875 -14.453125 C 8.671875 -15.140625 6.6875 -16.144531 5.21875 -17.46875 C 3.757812 -18.789062 3.03125 -20.539062 3.03125 -22.71875 C 3.03125 -24.519531 3.519531 -26.09375 4.5 -27.4375 C 5.476562 -28.78125 6.800781 -29.828125 8.46875 -30.578125 C 10.144531 -31.328125 12.03125 -31.703125 14.125 -31.703125 C 16.238281 -31.703125 18.109375 -31.328125 19.734375 -30.578125 C 21.359375 -29.835938 22.640625 -28.816406 23.578125 -27.515625 C 24.515625 -26.222656 25.003906 -24.738281 25.046875 -23.0625 Z M 20.5 -23.0625 "/></g></g></g><g fill="#000000" fill-opacity="1"><g transform="translate(196.588131, 549.626823)"><g><path d="M 29.40625 -21.109375 L 24.640625 -21.109375 C 24.460938 -22.117188 24.125 -23.007812 23.625 -23.78125 C 23.125 -24.5625 22.507812 -25.21875 21.78125 -25.75 C 21.0625 -26.289062 20.253906 -26.695312 19.359375 -26.96875 C 18.472656 -27.25 17.53125 -27.390625 16.53125 -27.390625 C 14.726562 -27.390625 13.117188 -26.9375 11.703125 -26.03125 C 10.285156 -25.125 9.164062 -23.796875 8.34375 -22.046875 C 7.519531 -20.296875 7.109375 -18.160156 7.109375 -15.640625 C 7.109375 -13.085938 7.519531 -10.9375 8.34375 -9.1875 C 9.164062 -7.4375 10.285156 -6.113281 11.703125 -5.21875 C 13.128906 -4.320312 14.734375 -3.875 16.515625 -3.875 C 17.503906 -3.875 18.441406 -4.007812 19.328125 -4.28125 C 20.222656 -4.550781 21.03125 -4.953125 21.75 -5.484375 C 22.476562 -6.015625 23.09375 -6.660156 23.59375 -7.421875 C 24.101562 -8.191406 24.453125 -9.078125 24.640625 -10.078125 L 29.40625 -10.0625 C 29.15625 -8.519531 28.664062 -7.101562 27.9375 -5.8125 C 27.207031 -4.53125 26.273438 -3.421875 25.140625 -2.484375 C 24.003906 -1.554688 22.707031 -0.835938 21.25 -0.328125 C 19.800781 0.171875 18.210938 0.421875 16.484375 0.421875 C 13.785156 0.421875 11.375 -0.21875 9.25 -1.5 C 7.132812 -2.789062 5.46875 -4.632812 4.25 -7.03125 C 3.03125 -9.4375 2.421875 -12.304688 2.421875 -15.640625 C 2.421875 -18.972656 3.03125 -21.835938 4.25 -24.234375 C 5.476562 -26.640625 7.148438 -28.484375 9.265625 -29.765625 C 11.378906 -31.054688 13.785156 -31.703125 16.484375 -31.703125 C 18.148438 -31.703125 19.703125 -31.460938 21.140625 -30.984375 C 22.578125 -30.515625 23.867188 -29.820312 25.015625 -28.90625 C 26.171875 -28 27.125 -26.890625 27.875 -25.578125 C 28.632812 -24.273438 29.144531 -22.785156 29.40625 -21.109375 Z M 29.40625 -21.109375 "/></g></g></g><g fill="#000000" fill-opacity="1"><g transform="translate(227.521361, 549.626823)"><g><path d="M 30.59375 -15.640625 C 30.59375 -12.296875 29.984375 -9.425781 28.765625 -7.03125 C 27.546875 -4.632812 25.875 -2.789062 23.75 -1.5 C 21.625 -0.21875 19.210938 0.421875 16.515625 0.421875 C 13.804688 0.421875 11.390625 -0.21875 9.265625 -1.5 C 7.148438 -2.789062 5.476562 -4.632812 4.25 -7.03125 C 3.03125 -9.4375 2.421875 -12.304688 2.421875 -15.640625 C 2.421875 -18.972656 3.03125 -21.835938 4.25 -24.234375 C 5.476562 -26.640625 7.148438 -28.484375 9.265625 -29.765625 C 11.390625 -31.054688 13.804688 -31.703125 16.515625 -31.703125 C 19.210938 -31.703125 21.625 -31.054688 23.75 -29.765625 C 25.875 -28.484375 27.546875 -26.640625 28.765625 -24.234375 C 29.984375 -21.835938 30.59375 -18.972656 30.59375 -15.640625 Z M 25.921875 -15.640625 C 25.921875 -18.179688 25.507812 -20.320312 24.6875 -22.0625 C 23.875 -23.8125 22.753906 -25.132812 21.328125 -26.03125 C 19.910156 -26.9375 18.304688 -27.390625 16.515625 -27.390625 C 14.710938 -27.390625 13.101562 -26.9375 11.6875 -26.03125 C 10.28125 -25.132812 9.164062 -23.8125 8.34375 -22.0625 C 7.519531 -20.320312 7.109375 -18.179688 7.109375 -15.640625 C 7.109375 -13.085938 7.519531 -10.9375 8.34375 -9.1875 C 9.164062 -7.445312 10.28125 -6.125 11.6875 -5.21875 C 13.101562 -4.320312 14.710938 -3.875 16.515625 -3.875 C 18.304688 -3.875 19.910156 -4.320312 21.328125 -5.21875 C 22.753906 -6.125 23.875 -7.445312 24.6875 -9.1875 C 25.507812 -10.9375 25.921875 -13.085938 25.921875 -15.640625 Z M 25.921875 -15.640625 "/></g></g></g><g fill="#000000" fill-opacity="1"><g transform="translate(258.301869, 549.626823)"><g><path d="M 6.171875 -31.265625 L 14.875 -5.796875 L 15.21875 -5.796875 L 23.921875 -31.265625 L 29.03125 -31.265625 L 17.78125 0 L 12.328125 0 L 1.0625 -31.265625 Z M 6.171875 -31.265625 "/></g></g></g><g fill="#000000" fill-opacity="1"><g transform="translate(287.708251, 549.626823)"><g><path d="M 3.4375 0 L 3.4375 -31.265625 L 23.046875 -31.265625 L 23.046875 -27.21875 L 8.15625 -27.21875 L 8.15625 -17.6875 L 22.015625 -17.6875 L 22.015625 -13.640625 L 8.15625 -13.640625 L 8.15625 -4.0625 L 23.21875 -4.0625 L 23.21875 0 Z M 3.4375 0 "/></g></g></g><g fill="#000000" fill-opacity="1"><g transform="translate(312.946306, 549.626823)"><g><path d="M 3.4375 0 L 3.4375 -31.265625 L 14.578125 -31.265625 C 17.003906 -31.265625 19.019531 -30.847656 20.625 -30.015625 C 22.226562 -29.179688 23.425781 -28.03125 24.21875 -26.5625 C 25.007812 -25.09375 25.40625 -23.394531 25.40625 -21.46875 C 25.40625 -19.550781 25.003906 -17.867188 24.203125 -16.421875 C 23.410156 -14.972656 22.210938 -13.84375 20.609375 -13.03125 C 19.003906 -12.226562 16.988281 -11.828125 14.5625 -11.828125 L 6.125 -11.828125 L 6.125 -15.890625 L 14.140625 -15.890625 C 15.671875 -15.890625 16.914062 -16.109375 17.875 -16.546875 C 18.832031 -16.984375 19.535156 -17.617188 19.984375 -18.453125 C 20.429688 -19.296875 20.65625 -20.300781 20.65625 -21.46875 C 20.65625 -22.644531 20.425781 -23.664062 19.96875 -24.53125 C 19.519531 -25.40625 18.816406 -26.070312 17.859375 -26.53125 C 16.898438 -26.988281 15.640625 -27.21875 14.078125 -27.21875 L 8.15625 -27.21875 L 8.15625 0 Z M 18.875 -14.109375 L 26.59375 0 L 21.21875 0 L 13.65625 -14.109375 Z M 18.875 -14.109375 "/></g></g></g><g fill="#000000" fill-opacity="1"><g transform="translate(339.986072, 549.626823)"><g/></g></g><g fill="#000000" fill-opacity="1"><g transform="translate(350.688449, 549.626823)"><g><path d="M 1.015625 -31.265625 L 6.390625 -31.265625 L 14.546875 -17.0625 L 14.890625 -17.0625 L 23.0625 -31.265625 L 28.421875 -31.265625 L 17.078125 -12.28125 L 17.078125 0 L 12.375 0 L 12.375 -12.28125 Z M 1.015625 -31.265625 "/></g></g></g><g fill="#000000" fill-opacity="1"><g transform="translate(377.81978, 549.626823)"><g><path d="M 30.59375 -15.640625 C 30.59375 -12.296875 29.984375 -9.425781 28.765625 -7.03125 C 27.546875 -4.632812 25.875 -2.789062 23.75 -1.5 C 21.625 -0.21875 19.210938 0.421875 16.515625 0.421875 C 13.804688 0.421875 11.390625 -0.21875 9.265625 -1.5 C 7.148438 -2.789062 5.476562 -4.632812 4.25 -7.03125 C 3.03125 -9.4375 2.421875 -12.304688 2.421875 -15.640625 C 2.421875 -18.972656 3.03125 -21.835938 4.25 -24.234375 C 5.476562 -26.640625 7.148438 -28.484375 9.265625 -29.765625 C 11.390625 -31.054688 13.804688 -31.703125 16.515625 -31.703125 C 19.210938 -31.703125 21.625 -31.054688 23.75 -29.765625 C 25.875 -28.484375 27.546875 -26.640625 28.765625 -24.234375 C 29.984375 -21.835938 30.59375 -18.972656 30.59375 -15.640625 Z M 25.921875 -15.640625 C 25.921875 -18.179688 25.507812 -20.320312 24.6875 -22.0625 C 23.875 -23.8125 22.753906 -25.132812 21.328125 -26.03125 C 19.910156 -26.9375 18.304688 -27.390625 16.515625 -27.390625 C 14.710938 -27.390625 13.101562 -26.9375 11.6875 -26.03125 C 10.28125 -25.132812 9.164062 -23.8125 8.34375 -22.0625 C 7.519531 -20.320312 7.109375 -18.179688 7.109375 -15.640625 C 7.109375 -13.085938 7.519531 -10.9375 8.34375 -9.1875 C 9.164062 -7.445312 10.28125 -6.125 11.6875 -5.21875 C 13.101562 -4.320312 14.710938 -3.875 16.515625 -3.875 C 18.304688 -3.875 19.910156 -4.320312 21.328125 -5.21875 C 22.753906 -6.125 23.875 -7.445312 24.6875 -9.1875 C 25.507812 -10.9375 25.921875 -13.085938 25.921875 -15.640625 Z M 25.921875 -15.640625 "/></g></g></g><g fill="#000000" fill-opacity="1"><g transform="translate(410.157715, 549.626823)"><g><path d="M 23.546875 -31.265625 L 28.28125 -31.265625 L 28.28125 -10.703125 C 28.28125 -8.515625 27.765625 -6.578125 26.734375 -4.890625 C 25.710938 -3.203125 24.269531 -1.878906 22.40625 -0.921875 C 20.539062 0.0351562 18.351562 0.515625 15.84375 0.515625 C 13.351562 0.515625 11.175781 0.0351562 9.3125 -0.921875 C 7.445312 -1.878906 6 -3.203125 4.96875 -4.890625 C 3.945312 -6.578125 3.4375 -8.515625 3.4375 -10.703125 L 3.4375 -31.265625 L 8.15625 -31.265625 L 8.15625 -11.09375 C 8.15625 -9.675781 8.46875 -8.414062 9.09375 -7.3125 C 9.71875 -6.21875 10.601562 -5.351562 11.75 -4.71875 C 12.90625 -4.09375 14.269531 -3.78125 15.84375 -3.78125 C 17.4375 -3.78125 18.8125 -4.09375 19.96875 -4.71875 C 21.125 -5.351562 22.007812 -6.21875 22.625 -7.3125 C 23.238281 -8.414062 23.546875 -9.675781 23.546875 -11.09375 Z M 23.546875 -31.265625 "/></g></g></g><g fill="#000000" fill-opacity="1"><g transform="translate(441.182555, 549.626823)"><g><path d="M 3.4375 0 L 3.4375 -31.265625 L 14.578125 -31.265625 C 17.003906 -31.265625 19.019531 -30.847656 20.625 -30.015625 C 22.226562 -29.179688 23.425781 -28.03125 24.21875 -26.5625 C 25.007812 -25.09375 25.40625 -23.394531 25.40625 -21.46875 C 25.40625 -19.550781 25.003906 -17.867188 24.203125 -16.421875 C 23.410156 -14.972656 22.210938 -13.84375 20.609375 -13.03125 C 19.003906 -12.226562 16.988281 -11.828125 14.5625 -11.828125 L 6.125 -11.828125 L 6.125 -15.890625 L 14.140625 -15.890625 C 15.671875 -15.890625 16.914062 -16.109375 17.875 -16.546875 C 18.832031 -16.984375 19.535156 -17.617188 19.984375 -18.453125 C 20.429688 -19.296875 20.65625 -20.300781 20.65625 -21.46875 C 20.65625 -22.644531 20.425781 -23.664062 19.96875 -24.53125 C 19.519531 -25.40625 18.816406 -26.070312 17.859375 -26.53125 C 16.898438 -26.988281 15.640625 -27.21875 14.078125 -27.21875 L 8.15625 -27.21875 L 8.15625 0 Z M 18.875 -14.109375 L 26.59375 0 L 21.21875 0 L 13.65625 -14.109375 Z M 18.875 -14.109375 "/></g></g></g><g fill="#000000" fill-opacity="1"><g transform="translate(468.22231, 549.626823)"><g/></g></g><g fill="#000000" fill-opacity="1"><g transform="translate(478.92471, 549.626823)"><g><path d="M 3.4375 0 L 3.4375 -31.265625 L 14.890625 -31.265625 C 17.109375 -31.265625 18.941406 -30.898438 20.390625 -30.171875 C 21.847656 -29.453125 22.9375 -28.472656 23.65625 -27.234375 C 24.382812 -25.992188 24.75 -24.601562 24.75 -23.0625 C 24.75 -21.757812 24.507812 -20.660156 24.03125 -19.765625 C 23.550781 -18.878906 22.910156 -18.164062 22.109375 -17.625 C 21.316406 -17.09375 20.441406 -16.707031 19.484375 -16.46875 L 19.484375 -16.15625 C 20.523438 -16.101562 21.539062 -15.769531 22.53125 -15.15625 C 23.519531 -14.539062 24.335938 -13.664062 24.984375 -12.53125 C 25.640625 -11.40625 25.96875 -10.03125 25.96875 -8.40625 C 25.96875 -6.8125 25.59375 -5.378906 24.84375 -4.109375 C 24.101562 -2.847656 22.953125 -1.847656 21.390625 -1.109375 C 19.835938 -0.367188 17.847656 0 15.421875 0 Z M 8.15625 -4.046875 L 14.96875 -4.046875 C 17.226562 -4.046875 18.84375 -4.484375 19.8125 -5.359375 C 20.789062 -6.234375 21.28125 -7.328125 21.28125 -8.640625 C 21.28125 -9.628906 21.03125 -10.535156 20.53125 -11.359375 C 20.039062 -12.179688 19.332031 -12.835938 18.40625 -13.328125 C 17.488281 -13.816406 16.394531 -14.0625 15.125 -14.0625 L 8.15625 -14.0625 Z M 8.15625 -17.75 L 14.46875 -17.75 C 15.53125 -17.75 16.484375 -17.953125 17.328125 -18.359375 C 18.179688 -18.765625 18.859375 -19.332031 19.359375 -20.0625 C 19.867188 -20.800781 20.125 -21.675781 20.125 -22.6875 C 20.125 -23.976562 19.671875 -25.0625 18.765625 -25.9375 C 17.859375 -26.8125 16.46875 -27.25 14.59375 -27.25 L 8.15625 -27.25 Z M 8.15625 -17.75 "/></g></g></g><g fill="#000000" fill-opacity="1"><g transform="translate(506.361415, 549.626823)"><g><path d="M 3.4375 0 L 3.4375 -31.265625 L 23.046875 -31.265625 L 23.046875 -27.21875 L 8.15625 -27.21875 L 8.15625 -17.6875 L 22.015625 -17.6875 L 22.015625 -13.640625 L 8.15625 -13.640625 L 8.15625 -4.0625 L 23.21875 -4.0625 L 23.21875 0 Z M 3.4375 0 "/></g></g></g><g fill="#000000" fill-opacity="1"><g transform="translate(531.599481, 549.626823)"><g><path d="M 20.5 -23.0625 C 20.332031 -24.5 19.65625 -25.617188 18.46875 -26.421875 C 17.289062 -27.222656 15.804688 -27.625 14.015625 -27.625 C 12.734375 -27.625 11.625 -27.421875 10.6875 -27.015625 C 9.75 -26.617188 9.019531 -26.070312 8.5 -25.375 C 7.988281 -24.675781 7.734375 -23.882812 7.734375 -23 C 7.734375 -22.25 7.910156 -21.601562 8.265625 -21.0625 C 8.617188 -20.53125 9.082031 -20.082031 9.65625 -19.71875 C 10.226562 -19.351562 10.84375 -19.050781 11.5 -18.8125 C 12.164062 -18.582031 12.804688 -18.390625 13.421875 -18.234375 L 16.46875 -17.4375 C 17.46875 -17.195312 18.492188 -16.863281 19.546875 -16.4375 C 20.597656 -16.019531 21.570312 -15.472656 22.46875 -14.796875 C 23.363281 -14.117188 24.085938 -13.273438 24.640625 -12.265625 C 25.191406 -11.253906 25.46875 -10.046875 25.46875 -8.640625 C 25.46875 -6.867188 25.007812 -5.296875 24.09375 -3.921875 C 23.1875 -2.546875 21.867188 -1.460938 20.140625 -0.671875 C 18.421875 0.117188 16.335938 0.515625 13.890625 0.515625 C 11.554688 0.515625 9.53125 0.144531 7.8125 -0.59375 C 6.101562 -1.332031 4.765625 -2.382812 3.796875 -3.75 C 2.835938 -5.125 2.304688 -6.753906 2.203125 -8.640625 L 6.9375 -8.640625 C 7.019531 -7.515625 7.382812 -6.578125 8.03125 -5.828125 C 8.6875 -5.078125 9.519531 -4.519531 10.53125 -4.15625 C 11.539062 -3.800781 12.648438 -3.625 13.859375 -3.625 C 15.191406 -3.625 16.378906 -3.832031 17.421875 -4.25 C 18.472656 -4.675781 19.296875 -5.265625 19.890625 -6.015625 C 20.492188 -6.773438 20.796875 -7.664062 20.796875 -8.6875 C 20.796875 -9.613281 20.53125 -10.367188 20 -10.953125 C 19.476562 -11.546875 18.769531 -12.035156 17.875 -12.421875 C 16.988281 -12.816406 15.988281 -13.160156 14.875 -13.453125 L 11.171875 -14.453125 C 8.671875 -15.140625 6.6875 -16.144531 5.21875 -17.46875 C 3.757812 -18.789062 3.03125 -20.539062 3.03125 -22.71875 C 3.03125 -24.519531 3.519531 -26.09375 4.5 -27.4375 C 5.476562 -28.78125 6.800781 -29.828125 8.46875 -30.578125 C 10.144531 -31.328125 12.03125 -31.703125 14.125 -31.703125 C 16.238281 -31.703125 18.109375 -31.328125 19.734375 -30.578125 C 21.359375 -29.835938 22.640625 -28.816406 23.578125 -27.515625 C 24.515625 -26.222656 25.003906 -24.738281 25.046875 -23.0625 Z M 20.5 -23.0625 "/></g></g></g><g fill="#000000" fill-opacity="1"><g transform="translate(558.578148, 549.626823)"><g><path d="M 1.890625 -27.21875 L 1.890625 -31.265625 L 26.09375 -31.265625 L 26.09375 -27.21875 L 16.34375 -27.21875 L 16.34375 0 L 11.640625 0 L 11.640625 -27.21875 Z M 1.890625 -27.21875 "/></g></g></g><g fill="#000000" fill-opacity="1"><g transform="translate(585.877478, 549.626823)"><g/></g></g><g fill="#000000" fill-opacity="1"><g transform="translate(596.579855, 549.626823)"><g><path d="M 3.4375 0 L 3.4375 -31.265625 L 14.578125 -31.265625 C 17.015625 -31.265625 19.03125 -30.820312 20.625 -29.9375 C 22.226562 -29.050781 23.425781 -27.84375 24.21875 -26.3125 C 25.007812 -24.78125 25.40625 -23.0625 25.40625 -21.15625 C 25.40625 -19.226562 25.003906 -17.5 24.203125 -15.96875 C 23.410156 -14.4375 22.210938 -13.222656 20.609375 -12.328125 C 19.003906 -11.441406 16.988281 -11 14.5625 -11 L 6.90625 -11 L 6.90625 -15 L 14.140625 -15 C 15.679688 -15 16.925781 -15.265625 17.875 -15.796875 C 18.832031 -16.328125 19.535156 -17.054688 19.984375 -17.984375 C 20.429688 -18.910156 20.65625 -19.96875 20.65625 -21.15625 C 20.65625 -22.332031 20.429688 -23.378906 19.984375 -24.296875 C 19.535156 -25.210938 18.832031 -25.925781 17.875 -26.4375 C 16.914062 -26.957031 15.648438 -27.21875 14.078125 -27.21875 L 8.15625 -27.21875 L 8.15625 0 Z M 3.4375 0 "/></g></g></g><g fill="#000000" fill-opacity="1"><g transform="translate(623.375325, 549.626823)"><g><path d="M 3.4375 0 L 3.4375 -31.265625 L 8.15625 -31.265625 L 8.15625 -17.6875 L 23.75 -17.6875 L 23.75 -31.265625 L 28.484375 -31.265625 L 28.484375 0 L 23.75 0 L 23.75 -13.640625 L 8.15625 -13.640625 L 8.15625 0 Z M 3.4375 0 "/></g></g></g><g fill="#000000" fill-opacity="1"><g transform="translate(654.598651, 549.626823)"><g><path d="M 30.59375 -15.640625 C 30.59375 -12.296875 29.984375 -9.425781 28.765625 -7.03125 C 27.546875 -4.632812 25.875 -2.789062 23.75 -1.5 C 21.625 -0.21875 19.210938 0.421875 16.515625 0.421875 C 13.804688 0.421875 11.390625 -0.21875 9.265625 -1.5 C 7.148438 -2.789062 5.476562 -4.632812 4.25 -7.03125 C 3.03125 -9.4375 2.421875 -12.304688 2.421875 -15.640625 C 2.421875 -18.972656 3.03125 -21.835938 4.25 -24.234375 C 5.476562 -26.640625 7.148438 -28.484375 9.265625 -29.765625 C 11.390625 -31.054688 13.804688 -31.703125 16.515625 -31.703125 C 19.210938 -31.703125 21.625 -31.054688 23.75 -29.765625 C 25.875 -28.484375 27.546875 -26.640625 28.765625 -24.234375 C 29.984375 -21.835938 30.59375 -18.972656 30.59375 -15.640625 Z M 25.921875 -15.640625 C 25.921875 -18.179688 25.507812 -20.320312 24.6875 -22.0625 C 23.875 -23.8125 22.753906 -25.132812 21.328125 -26.03125 C 19.910156 -26.9375 18.304688 -27.390625 16.515625 -27.390625 C 14.710938 -27.390625 13.101562 -26.9375 11.6875 -26.03125 C 10.28125 -25.132812 9.164062 -23.8125 8.34375 -22.0625 C 7.519531 -20.320312 7.109375 -18.179688 7.109375 -15.640625 C 7.109375 -13.085938 7.519531 -10.9375 8.34375 -9.1875 C 9.164062 -7.445312 10.28125 -6.125 11.6875 -5.21875 C 13.101562 -4.320312 14.710938 -3.875 16.515625 -3.875 C 18.304688 -3.875 19.910156 -4.320312 21.328125 -5.21875 C 22.753906 -6.125 23.875 -7.445312 24.6875 -9.1875 C 25.507812 -10.9375 25.921875 -13.085938 25.921875 -15.640625 Z M 25.921875 -15.640625 "/></g></g></g><g fill="#000000" fill-opacity="1"><g transform="translate(685.623491, 549.626823)"><g><path d="M 1.890625 -27.21875 L 1.890625 -31.265625 L 26.09375 -31.265625 L 26.09375 -27.21875 L 16.34375 -27.21875 L 16.34375 0 L 11.640625 0 L 11.640625 -27.21875 Z M 1.890625 -27.21875 "/></g></g></g><g fill="#000000" fill-opacity="1"><g transform="translate(711.60968, 549.626823)"><g><path d="M 30.59375 -15.640625 C 30.59375 -12.296875 29.984375 -9.425781 28.765625 -7.03125 C 27.546875 -4.632812 25.875 -2.789062 23.75 -1.5 C 21.625 -0.21875 19.210938 0.421875 16.515625 0.421875 C 13.804688 0.421875 11.390625 -0.21875 9.265625 -1.5 C 7.148438 -2.789062 5.476562 -4.632812 4.25 -7.03125 C 3.03125 -9.4375 2.421875 -12.304688 2.421875 -15.640625 C 2.421875 -18.972656 3.03125 -21.835938 4.25 -24.234375 C 5.476562 -26.640625 7.148438 -28.484375 9.265625 -29.765625 C 11.390625 -31.054688 13.804688 -31.703125 16.515625 -31.703125 C 19.210938 -31.703125 21.625 -31.054688 23.75 -29.765625 C 25.875 -28.484375 27.546875 -26.640625 28.765625 -24.234375 C 29.984375 -21.835938 30.59375 -18.972656 30.59375 -15.640625 Z M 25.921875 -15.640625 C 25.921875 -18.179688 25.507812 -20.320312 24.6875 -22.0625 C 23.875 -23.8125 22.753906 -25.132812 21.328125 -26.03125 C 19.910156 -26.9375 18.304688 -27.390625 16.515625 -27.390625 C 14.710938 -27.390625 13.101562 -26.9375 11.6875 -26.03125 C 10.28125 -25.132812 9.164062 -23.8125 8.34375 -22.0625 C 7.519531 -20.320312 7.109375 -18.179688 7.109375 -15.640625 C 7.109375 -13.085938 7.519531 -10.9375 8.34375 -9.1875 C 9.164062 -7.445312 10.28125 -6.125 11.6875 -5.21875 C 13.101562 -4.320312 14.710938 -3.875 16.515625 -3.875 C 18.304688 -3.875 19.910156 -4.320312 21.328125 -5.21875 C 22.753906 -6.125 23.875 -7.445312 24.6875 -9.1875 C 25.507812 -10.9375 25.921875 -13.085938 25.921875 -15.640625 Z M 25.921875 -15.640625 "/></g></g></g><g fill="#000000" fill-opacity="1"><g transform="translate(743.947615, 549.626823)"><g><path d="M 20.5 -23.0625 C 20.332031 -24.5 19.65625 -25.617188 18.46875 -26.421875 C 17.289062 -27.222656 15.804688 -27.625 14.015625 -27.625 C 12.734375 -27.625 11.625 -27.421875 10.6875 -27.015625 C 9.75 -26.617188 9.019531 -26.070312 8.5 -25.375 C 7.988281 -24.675781 7.734375 -23.882812 7.734375 -23 C 7.734375 -22.25 7.910156 -21.601562 8.265625 -21.0625 C 8.617188 -20.53125 9.082031 -20.082031 9.65625 -19.71875 C 10.226562 -19.351562 10.84375 -19.050781 11.5 -18.8125 C 12.164062 -18.582031 12.804688 -18.390625 13.421875 -18.234375 L 16.46875 -17.4375 C 17.46875 -17.195312 18.492188 -16.863281 19.546875 -16.4375 C 20.597656 -16.019531 21.570312 -15.472656 22.46875 -14.796875 C 23.363281 -14.117188 24.085938 -13.273438 24.640625 -12.265625 C 25.191406 -11.253906 25.46875 -10.046875 25.46875 -8.640625 C 25.46875 -6.867188 25.007812 -5.296875 24.09375 -3.921875 C 23.1875 -2.546875 21.867188 -1.460938 20.140625 -0.671875 C 18.421875 0.117188 16.335938 0.515625 13.890625 0.515625 C 11.554688 0.515625 9.53125 0.144531 7.8125 -0.59375 C 6.101562 -1.332031 4.765625 -2.382812 3.796875 -3.75 C 2.835938 -5.125 2.304688 -6.753906 2.203125 -8.640625 L 6.9375 -8.640625 C 7.019531 -7.515625 7.382812 -6.578125 8.03125 -5.828125 C 8.6875 -5.078125 9.519531 -4.519531 10.53125 -4.15625 C 11.539062 -3.800781 12.648438 -3.625 13.859375 -3.625 C 15.191406 -3.625 16.378906 -3.832031 17.421875 -4.25 C 18.472656 -4.675781 19.296875 -5.265625 19.890625 -6.015625 C 20.492188 -6.773438 20.796875 -7.664062 20.796875 -8.6875 C 20.796875 -9.613281 20.53125 -10.367188 20 -10.953125 C 19.476562 -11.546875 18.769531 -12.035156 17.875 -12.421875 C 16.988281 -12.816406 15.988281 -13.160156 14.875 -13.453125 L 11.171875 -14.453125 C 8.671875 -15.140625 6.6875 -16.144531 5.21875 -17.46875 C 3.757812 -18.789062 3.03125 -20.539062 3.03125 -22.71875 C 3.03125 -24.519531 3.519531 -26.09375 4.5 -27.4375 C 5.476562 -28.78125 6.800781 -29.828125 8.46875 -30.578125 C 10.144531 -31.328125 12.03125 -31.703125 14.125 -31.703125 C 16.238281 -31.703125 18.109375 -31.328125 19.734375 -30.578125 C 21.359375 -29.835938 22.640625 -28.816406 23.578125 -27.515625 C 24.515625 -26.222656 25.003906 -24.738281 25.046875 -23.0625 Z M 20.5 -23.0625 "/></g></g></g></svg>