<svg xmlns="http://www.w3.org/2000/svg" xmlns:xlink="http://www.w3.org/1999/xlink" width="1016" zoomAndPan="magnify" viewBox="0 0 762 398.999991" height="532" preserveAspectRatio="xMidYMid meet" version="1.0"><defs><g/><radialGradient gradientTransform="matrix(1, 0, 0, 1, 0.00000859398, 0)" gradientUnits="userSpaceOnUse" r="860.142776" cx="0" id="34c53cf27e" cy="0" fx="0" fy="0"><stop stop-opacity="1" stop-color="rgb(94.386292%, 43.945312%, 2.606201%)" offset="0"/><stop stop-opacity="1" stop-color="rgb(94.140625%, 43.217468%, 3.118896%)" offset="0.00390625"/><stop stop-opacity="1" stop-color="rgb(93.896484%, 42.489624%, 3.631592%)" offset="0.0078125"/><stop stop-opacity="1" stop-color="rgb(93.650818%, 41.76178%, 4.145813%)" offset="0.0117188"/><stop stop-opacity="1" stop-color="rgb(93.405151%, 41.035461%, 4.658508%)" offset="0.015625"/><stop stop-opacity="1" stop-color="rgb(93.161011%, 40.307617%, 5.172729%)" offset="0.0195312"/><stop stop-opacity="1" stop-color="rgb(92.915344%, 39.579773%, 5.685425%)" offset="0.0234375"/><stop stop-opacity="1" stop-color="rgb(92.669678%, 38.851929%, 6.19812%)" offset="0.0273438"/><stop stop-opacity="1" stop-color="rgb(92.425537%, 38.124084%, 6.712341%)" offset="0.03125"/><stop stop-opacity="1" stop-color="rgb(92.179871%, 37.397766%, 7.225037%)" offset="0.0351562"/><stop stop-opacity="1" stop-color="rgb(91.93573%, 36.669922%, 7.737732%)" offset="0.0390625"/><stop stop-opacity="1" stop-color="rgb(91.690063%, 35.942078%, 8.251953%)" offset="0.0429688"/><stop stop-opacity="1" stop-color="rgb(91.444397%, 35.214233%, 8.764648%)" offset="0.046875"/><stop stop-opacity="1" stop-color="rgb(91.200256%, 34.486389%, 9.27887%)" offset="0.0507812"/><stop stop-opacity="1" stop-color="rgb(90.95459%, 33.760071%, 9.791565%)" offset="0.0546875"/><stop stop-opacity="1" stop-color="rgb(90.708923%, 33.032227%, 10.30426%)" offset="0.0585938"/><stop stop-opacity="1" stop-color="rgb(90.464783%, 32.304382%, 10.818481%)" offset="0.0625"/><stop stop-opacity="1" stop-color="rgb(90.219116%, 31.576538%, 11.331177%)" offset="0.0664062"/><stop stop-opacity="1" stop-color="rgb(89.97345%, 30.848694%, 11.845398%)" offset="0.0703125"/><stop stop-opacity="1" stop-color="rgb(89.729309%, 30.122375%, 12.358093%)" offset="0.0742188"/><stop stop-opacity="1" stop-color="rgb(89.483643%, 29.394531%, 12.870789%)" offset="0.078125"/><stop stop-opacity="1" stop-color="rgb(89.237976%, 28.666687%, 13.38501%)" offset="0.0820312"/><stop stop-opacity="1" stop-color="rgb(88.993835%, 27.938843%, 13.897705%)" offset="0.0859375"/><stop stop-opacity="1" stop-color="rgb(88.748169%, 27.210999%, 14.4104%)" offset="0.0898438"/><stop stop-opacity="1" stop-color="rgb(88.504028%, 26.48468%, 14.924622%)" offset="0.09375"/><stop stop-opacity="1" stop-color="rgb(88.258362%, 25.756836%, 15.437317%)" offset="0.0976562"/><stop stop-opacity="1" stop-color="rgb(88.012695%, 25.028992%, 15.951538%)" offset="0.101562"/><stop stop-opacity="1" stop-color="rgb(87.768555%, 24.301147%, 16.464233%)" offset="0.105469"/><stop stop-opacity="1" stop-color="rgb(87.522888%, 23.573303%, 16.976929%)" offset="0.109375"/><stop stop-opacity="1" stop-color="rgb(87.277222%, 22.846985%, 17.49115%)" offset="0.113281"/><stop stop-opacity="1" stop-color="rgb(87.033081%, 22.119141%, 18.003845%)" offset="0.117188"/><stop stop-opacity="1" stop-color="rgb(86.787415%, 21.391296%, 18.518066%)" offset="0.121094"/><stop stop-opacity="1" stop-color="rgb(86.541748%, 20.663452%, 19.030762%)" offset="0.125"/><stop stop-opacity="1" stop-color="rgb(86.297607%, 19.935608%, 19.543457%)" offset="0.128906"/><stop stop-opacity="1" stop-color="rgb(86.051941%, 19.20929%, 20.057678%)" offset="0.132812"/><stop stop-opacity="1" stop-color="rgb(85.8078%, 18.481445%, 20.570374%)" offset="0.136719"/><stop stop-opacity="1" stop-color="rgb(85.562134%, 17.753601%, 21.083069%)" offset="0.140625"/><stop stop-opacity="1" stop-color="rgb(85.316467%, 17.025757%, 21.59729%)" offset="0.144531"/><stop stop-opacity="1" stop-color="rgb(85.072327%, 16.297913%, 22.109985%)" offset="0.148438"/><stop stop-opacity="1" stop-color="rgb(84.82666%, 15.571594%, 22.624207%)" offset="0.152344"/><stop stop-opacity="1" stop-color="rgb(84.580994%, 14.84375%, 23.136902%)" offset="0.15625"/><stop stop-opacity="1" stop-color="rgb(84.336853%, 14.115906%, 23.649597%)" offset="0.160156"/><stop stop-opacity="1" stop-color="rgb(84.091187%, 13.388062%, 24.163818%)" offset="0.164062"/><stop stop-opacity="1" stop-color="rgb(83.84552%, 12.660217%, 24.676514%)" offset="0.167969"/><stop stop-opacity="1" stop-color="rgb(83.601379%, 11.933899%, 25.189209%)" offset="0.171875"/><stop stop-opacity="1" stop-color="rgb(83.355713%, 11.206055%, 25.70343%)" offset="0.175781"/><stop stop-opacity="1" stop-color="rgb(83.110046%, 10.47821%, 26.216125%)" offset="0.179688"/><stop stop-opacity="1" stop-color="rgb(82.865906%, 9.750366%, 26.730347%)" offset="0.183594"/><stop stop-opacity="1" stop-color="rgb(82.620239%, 9.022522%, 27.243042%)" offset="0.1875"/><stop stop-opacity="1" stop-color="rgb(82.376099%, 8.296204%, 27.755737%)" offset="0.191406"/><stop stop-opacity="1" stop-color="rgb(82.130432%, 7.568359%, 28.269958%)" offset="0.195312"/><stop stop-opacity="1" stop-color="rgb(82.124329%, 7.646179%, 28.387451%)" offset="0.199219"/><stop stop-opacity="1" stop-color="rgb(82.417297%, 8.731079%, 28.010559%)" offset="0.203125"/><stop stop-opacity="1" stop-color="rgb(82.76825%, 10.017395%, 27.536011%)" offset="0.207031"/><stop stop-opacity="1" stop-color="rgb(83.120728%, 11.305237%, 27.061462%)" offset="0.210938"/><stop stop-opacity="1" stop-color="rgb(83.473206%, 12.591553%, 26.586914%)" offset="0.214844"/><stop stop-opacity="1" stop-color="rgb(83.825684%, 13.877869%, 26.11084%)" offset="0.21875"/><stop stop-opacity="1" stop-color="rgb(84.178162%, 15.16571%, 25.636292%)" offset="0.222656"/><stop stop-opacity="1" stop-color="rgb(84.53064%, 16.452026%, 25.161743%)" offset="0.226562"/><stop stop-opacity="1" stop-color="rgb(84.883118%, 17.738342%, 24.685669%)" offset="0.230469"/><stop stop-opacity="1" stop-color="rgb(85.235596%, 19.024658%, 24.211121%)" offset="0.234375"/><stop stop-opacity="1" stop-color="rgb(85.588074%, 20.3125%, 23.736572%)" offset="0.238281"/><stop stop-opacity="1" stop-color="rgb(85.940552%, 21.598816%, 23.260498%)" offset="0.242188"/><stop stop-opacity="1" stop-color="rgb(86.29303%, 22.885132%, 22.78595%)" offset="0.246094"/><stop stop-opacity="1" stop-color="rgb(86.643982%, 24.171448%, 22.311401%)" offset="0.25"/><stop stop-opacity="1" stop-color="rgb(86.99646%, 25.45929%, 21.836853%)" offset="0.253906"/><stop stop-opacity="1" stop-color="rgb(87.348938%, 26.745605%, 21.360779%)" offset="0.257812"/><stop stop-opacity="1" stop-color="rgb(87.701416%, 28.031921%, 20.88623%)" offset="0.261719"/><stop stop-opacity="1" stop-color="rgb(88.053894%, 29.318237%, 20.411682%)" offset="0.265625"/><stop stop-opacity="1" stop-color="rgb(88.406372%, 30.606079%, 19.935608%)" offset="0.269531"/><stop stop-opacity="1" stop-color="rgb(88.75885%, 31.892395%, 19.46106%)" offset="0.273438"/><stop stop-opacity="1" stop-color="rgb(89.111328%, 33.178711%, 18.986511%)" offset="0.277344"/><stop stop-opacity="1" stop-color="rgb(89.463806%, 34.465027%, 18.511963%)" offset="0.28125"/><stop stop-opacity="1" stop-color="rgb(89.816284%, 35.752869%, 18.035889%)" offset="0.285156"/><stop stop-opacity="1" stop-color="rgb(90.168762%, 37.039185%, 17.56134%)" offset="0.289062"/><stop stop-opacity="1" stop-color="rgb(90.52124%, 38.3255%, 17.086792%)" offset="0.292969"/><stop stop-opacity="1" stop-color="rgb(90.872192%, 39.613342%, 16.610718%)" offset="0.296875"/><stop stop-opacity="1" stop-color="rgb(91.22467%, 40.899658%, 16.136169%)" offset="0.300781"/><stop stop-opacity="1" stop-color="rgb(91.577148%, 42.185974%, 15.661621%)" offset="0.304688"/><stop stop-opacity="1" stop-color="rgb(91.929626%, 43.47229%, 15.185547%)" offset="0.308594"/><stop stop-opacity="1" stop-color="rgb(92.282104%, 44.760132%, 14.710999%)" offset="0.3125"/><stop stop-opacity="1" stop-color="rgb(92.634583%, 46.046448%, 14.23645%)" offset="0.316406"/><stop stop-opacity="1" stop-color="rgb(92.987061%, 47.332764%, 13.761902%)" offset="0.320312"/><stop stop-opacity="1" stop-color="rgb(93.339539%, 48.61908%, 13.285828%)" offset="0.324219"/><stop stop-opacity="1" stop-color="rgb(93.692017%, 49.906921%, 12.811279%)" offset="0.328125"/><stop stop-opacity="1" stop-color="rgb(94.044495%, 51.193237%, 12.336731%)" offset="0.332031"/><stop stop-opacity="1" stop-color="rgb(94.396973%, 52.479553%, 11.860657%)" offset="0.335938"/><stop stop-opacity="1" stop-color="rgb(94.747925%, 53.765869%, 11.386108%)" offset="0.339844"/><stop stop-opacity="1" stop-color="rgb(95.100403%, 55.053711%, 10.91156%)" offset="0.34375"/><stop stop-opacity="1" stop-color="rgb(95.452881%, 56.340027%, 10.435486%)" offset="0.347656"/><stop stop-opacity="1" stop-color="rgb(95.805359%, 57.626343%, 9.960938%)" offset="0.351562"/><stop stop-opacity="1" stop-color="rgb(96.157837%, 58.914185%, 9.486389%)" offset="0.355469"/><stop stop-opacity="1" stop-color="rgb(96.510315%, 60.2005%, 9.011841%)" offset="0.359375"/><stop stop-opacity="1" stop-color="rgb(96.862793%, 61.486816%, 8.535767%)" offset="0.363281"/><stop stop-opacity="1" stop-color="rgb(97.215271%, 62.773132%, 8.061218%)" offset="0.367188"/><stop stop-opacity="1" stop-color="rgb(97.567749%, 64.060974%, 7.58667%)" offset="0.371094"/><stop stop-opacity="1" stop-color="rgb(97.920227%, 65.34729%, 7.110596%)" offset="0.375"/><stop stop-opacity="1" stop-color="rgb(98.272705%, 66.633606%, 6.636047%)" offset="0.378906"/><stop stop-opacity="1" stop-color="rgb(98.623657%, 67.919922%, 6.161499%)" offset="0.382812"/><stop stop-opacity="1" stop-color="rgb(98.976135%, 69.207764%, 5.686951%)" offset="0.386719"/><stop stop-opacity="1" stop-color="rgb(99.328613%, 70.49408%, 5.210876%)" offset="0.390625"/><stop stop-opacity="1" stop-color="rgb(99.681091%, 71.780396%, 4.736328%)" offset="0.394531"/><stop stop-opacity="1" stop-color="rgb(99.749756%, 72.729492%, 4.597473%)" offset="0.398438"/><stop stop-opacity="1" stop-color="rgb(99.342346%, 73.11554%, 5.01709%)" offset="0.402344"/><stop stop-opacity="1" stop-color="rgb(98.744202%, 73.277283%, 5.659485%)" offset="0.40625"/><stop stop-opacity="1" stop-color="rgb(98.146057%, 73.4375%, 6.303406%)" offset="0.410156"/><stop stop-opacity="1" stop-color="rgb(97.549438%, 73.599243%, 6.947327%)" offset="0.414062"/><stop stop-opacity="1" stop-color="rgb(96.951294%, 73.75946%, 7.589722%)" offset="0.417969"/><stop stop-opacity="1" stop-color="rgb(96.354675%, 73.921204%, 8.233643%)" offset="0.421875"/><stop stop-opacity="1" stop-color="rgb(95.756531%, 74.081421%, 8.877563%)" offset="0.425781"/><stop stop-opacity="1" stop-color="rgb(95.159912%, 74.243164%, 9.519958%)" offset="0.429688"/><stop stop-opacity="1" stop-color="rgb(94.561768%, 74.403381%, 10.163879%)" offset="0.433594"/><stop stop-opacity="1" stop-color="rgb(93.965149%, 74.563599%, 10.806274%)" offset="0.4375"/><stop stop-opacity="1" stop-color="rgb(93.367004%, 74.725342%, 11.450195%)" offset="0.441406"/><stop stop-opacity="1" stop-color="rgb(92.76886%, 74.885559%, 12.094116%)" offset="0.445312"/><stop stop-opacity="1" stop-color="rgb(92.172241%, 75.047302%, 12.736511%)" offset="0.449219"/><stop stop-opacity="1" stop-color="rgb(91.574097%, 75.20752%, 13.380432%)" offset="0.453125"/><stop stop-opacity="1" stop-color="rgb(90.977478%, 75.369263%, 14.024353%)" offset="0.457031"/><stop stop-opacity="1" stop-color="rgb(90.379333%, 75.52948%, 14.666748%)" offset="0.460938"/><stop stop-opacity="1" stop-color="rgb(89.782715%, 75.691223%, 15.310669%)" offset="0.464844"/><stop stop-opacity="1" stop-color="rgb(89.18457%, 75.85144%, 15.953064%)" offset="0.46875"/><stop stop-opacity="1" stop-color="rgb(88.587952%, 76.013184%, 16.596985%)" offset="0.472656"/><stop stop-opacity="1" stop-color="rgb(87.989807%, 76.173401%, 17.240906%)" offset="0.476562"/><stop stop-opacity="1" stop-color="rgb(87.393188%, 76.335144%, 17.883301%)" offset="0.480469"/><stop stop-opacity="1" stop-color="rgb(86.795044%, 76.495361%, 18.527222%)" offset="0.484375"/><stop stop-opacity="1" stop-color="rgb(86.196899%, 76.657104%, 19.171143%)" offset="0.488281"/><stop stop-opacity="1" stop-color="rgb(85.600281%, 76.817322%, 19.813538%)" offset="0.492188"/><stop stop-opacity="1" stop-color="rgb(85.002136%, 76.979065%, 20.457458%)" offset="0.496094"/><stop stop-opacity="1" stop-color="rgb(84.405518%, 77.139282%, 21.101379%)" offset="0.5"/><stop stop-opacity="1" stop-color="rgb(83.807373%, 77.2995%, 21.743774%)" offset="0.503906"/><stop stop-opacity="1" stop-color="rgb(83.210754%, 77.461243%, 22.387695%)" offset="0.507812"/><stop stop-opacity="1" stop-color="rgb(82.61261%, 77.62146%, 23.03009%)" offset="0.511719"/><stop stop-opacity="1" stop-color="rgb(82.015991%, 77.783203%, 23.674011%)" offset="0.515625"/><stop stop-opacity="1" stop-color="rgb(81.417847%, 77.94342%, 24.317932%)" offset="0.519531"/><stop stop-opacity="1" stop-color="rgb(80.819702%, 78.105164%, 24.960327%)" offset="0.523438"/><stop stop-opacity="1" stop-color="rgb(80.223083%, 78.265381%, 25.604248%)" offset="0.527344"/><stop stop-opacity="1" stop-color="rgb(79.624939%, 78.427124%, 26.248169%)" offset="0.53125"/><stop stop-opacity="1" stop-color="rgb(79.02832%, 78.587341%, 26.890564%)" offset="0.535156"/><stop stop-opacity="1" stop-color="rgb(78.430176%, 78.749084%, 27.534485%)" offset="0.539062"/><stop stop-opacity="1" stop-color="rgb(77.833557%, 78.909302%, 28.17688%)" offset="0.542969"/><stop stop-opacity="1" stop-color="rgb(77.235413%, 79.071045%, 28.820801%)" offset="0.546875"/><stop stop-opacity="1" stop-color="rgb(76.638794%, 79.231262%, 29.464722%)" offset="0.550781"/><stop stop-opacity="1" stop-color="rgb(76.040649%, 79.393005%, 30.107117%)" offset="0.554688"/><stop stop-opacity="1" stop-color="rgb(75.442505%, 79.553223%, 30.751038%)" offset="0.558594"/><stop stop-opacity="1" stop-color="rgb(74.845886%, 79.714966%, 31.394958%)" offset="0.5625"/><stop stop-opacity="1" stop-color="rgb(74.247742%, 79.875183%, 32.037354%)" offset="0.566406"/><stop stop-opacity="1" stop-color="rgb(73.651123%, 80.036926%, 32.681274%)" offset="0.570312"/><stop stop-opacity="1" stop-color="rgb(73.052979%, 80.197144%, 33.325195%)" offset="0.574219"/><stop stop-opacity="1" stop-color="rgb(72.45636%, 80.357361%, 33.96759%)" offset="0.578125"/><stop stop-opacity="1" stop-color="rgb(71.858215%, 80.519104%, 34.611511%)" offset="0.582031"/><stop stop-opacity="1" stop-color="rgb(71.261597%, 80.679321%, 35.253906%)" offset="0.585938"/><stop stop-opacity="1" stop-color="rgb(70.663452%, 80.841064%, 35.897827%)" offset="0.589844"/><stop stop-opacity="1" stop-color="rgb(70.066833%, 81.001282%, 36.541748%)" offset="0.59375"/><stop stop-opacity="1" stop-color="rgb(69.50531%, 81.022644%, 37.277222%)" offset="0.597656"/><stop stop-opacity="1" stop-color="rgb(69.036865%, 80.696106%, 38.241577%)" offset="0.601562"/><stop stop-opacity="1" stop-color="rgb(68.623352%, 80.160522%, 39.344788%)" offset="0.605469"/><stop stop-opacity="1" stop-color="rgb(68.209839%, 79.623413%, 40.447998%)" offset="0.609375"/><stop stop-opacity="1" stop-color="rgb(67.796326%, 79.08783%, 41.551208%)" offset="0.613281"/><stop stop-opacity="1" stop-color="rgb(67.382812%, 78.552246%, 42.654419%)" offset="0.617188"/><stop stop-opacity="1" stop-color="rgb(66.969299%, 78.015137%, 43.757629%)" offset="0.621094"/><stop stop-opacity="1" stop-color="rgb(66.555786%, 77.479553%, 44.859314%)" offset="0.625"/><stop stop-opacity="1" stop-color="rgb(66.142273%, 76.94397%, 45.962524%)" offset="0.628906"/><stop stop-opacity="1" stop-color="rgb(65.72876%, 76.40686%, 47.065735%)" offset="0.632812"/><stop stop-opacity="1" stop-color="rgb(65.315247%, 75.871277%, 48.168945%)" offset="0.636719"/><stop stop-opacity="1" stop-color="rgb(64.901733%, 75.334167%, 49.272156%)" offset="0.640625"/><stop stop-opacity="1" stop-color="rgb(64.48822%, 74.798584%, 50.375366%)" offset="0.644531"/><stop stop-opacity="1" stop-color="rgb(64.074707%, 74.263%, 51.478577%)" offset="0.648438"/><stop stop-opacity="1" stop-color="rgb(63.661194%, 73.725891%, 52.581787%)" offset="0.652344"/><stop stop-opacity="1" stop-color="rgb(63.247681%, 73.190308%, 53.684998%)" offset="0.65625"/><stop stop-opacity="1" stop-color="rgb(62.834167%, 72.654724%, 54.788208%)" offset="0.660156"/><stop stop-opacity="1" stop-color="rgb(62.420654%, 72.117615%, 55.891418%)" offset="0.664062"/><stop stop-opacity="1" stop-color="rgb(62.007141%, 71.582031%, 56.994629%)" offset="0.667969"/><stop stop-opacity="1" stop-color="rgb(61.593628%, 71.046448%, 58.097839%)" offset="0.671875"/><stop stop-opacity="1" stop-color="rgb(61.180115%, 70.509338%, 59.20105%)" offset="0.675781"/><stop stop-opacity="1" stop-color="rgb(60.766602%, 69.973755%, 60.30426%)" offset="0.679688"/><stop stop-opacity="1" stop-color="rgb(60.353088%, 69.438171%, 61.407471%)" offset="0.683594"/><stop stop-opacity="1" stop-color="rgb(59.939575%, 68.901062%, 62.510681%)" offset="0.6875"/><stop stop-opacity="1" stop-color="rgb(59.526062%, 68.365479%, 63.613892%)" offset="0.691406"/><stop stop-opacity="1" stop-color="rgb(59.112549%, 67.828369%, 64.715576%)" offset="0.695312"/><stop stop-opacity="1" stop-color="rgb(58.699036%, 67.292786%, 65.818787%)" offset="0.699219"/><stop stop-opacity="1" stop-color="rgb(58.285522%, 66.757202%, 66.921997%)" offset="0.703125"/><stop stop-opacity="1" stop-color="rgb(57.872009%, 66.220093%, 68.025208%)" offset="0.707031"/><stop stop-opacity="1" stop-color="rgb(57.458496%, 65.684509%, 69.128418%)" offset="0.710938"/><stop stop-opacity="1" stop-color="rgb(57.044983%, 65.148926%, 70.231628%)" offset="0.714844"/><stop stop-opacity="1" stop-color="rgb(56.63147%, 64.611816%, 71.334839%)" offset="0.71875"/><stop stop-opacity="1" stop-color="rgb(56.217957%, 64.076233%, 72.438049%)" offset="0.722656"/><stop stop-opacity="1" stop-color="rgb(55.804443%, 63.540649%, 73.54126%)" offset="0.726562"/><stop stop-opacity="1" stop-color="rgb(55.39093%, 63.00354%, 74.64447%)" offset="0.730469"/><stop stop-opacity="1" stop-color="rgb(54.977417%, 62.467957%, 75.747681%)" offset="0.734375"/><stop stop-opacity="1" stop-color="rgb(54.56543%, 61.930847%, 76.850891%)" offset="0.738281"/><stop stop-opacity="1" stop-color="rgb(54.151917%, 61.395264%, 77.954102%)" offset="0.742188"/><stop stop-opacity="1" stop-color="rgb(53.738403%, 60.85968%, 79.057312%)" offset="0.746094"/><stop stop-opacity="1" stop-color="rgb(53.32489%, 60.322571%, 80.160522%)" offset="0.75"/><stop stop-opacity="1" stop-color="rgb(52.911377%, 59.786987%, 81.263733%)" offset="0.753906"/><stop stop-opacity="1" stop-color="rgb(52.497864%, 59.251404%, 82.366943%)" offset="0.757812"/><stop stop-opacity="1" stop-color="rgb(52.084351%, 58.714294%, 83.470154%)" offset="0.761719"/><stop stop-opacity="1" stop-color="rgb(51.670837%, 58.178711%, 84.571838%)" offset="0.765625"/><stop stop-opacity="1" stop-color="rgb(51.257324%, 57.643127%, 85.675049%)" offset="0.769531"/><stop stop-opacity="1" stop-color="rgb(50.843811%, 57.106018%, 86.778259%)" offset="0.773438"/><stop stop-opacity="1" stop-color="rgb(50.430298%, 56.570435%, 87.88147%)" offset="0.777344"/><stop stop-opacity="1" stop-color="rgb(50.016785%, 56.034851%, 88.98468%)" offset="0.78125"/><stop stop-opacity="1" stop-color="rgb(49.603271%, 55.497742%, 90.087891%)" offset="0.785156"/><stop stop-opacity="1" stop-color="rgb(49.189758%, 54.962158%, 91.191101%)" offset="0.789062"/><stop stop-opacity="1" stop-color="rgb(48.776245%, 54.425049%, 92.294312%)" offset="0.792969"/><stop stop-opacity="1" stop-color="rgb(48.420715%, 54.01001%, 93.29071%)" offset="0.796875"/><stop stop-opacity="1" stop-color="rgb(48.350525%, 54.194641%, 93.75%)" offset="0.800781"/><stop stop-opacity="1" stop-color="rgb(48.512268%, 54.86145%, 93.780518%)" offset="0.804688"/><stop stop-opacity="1" stop-color="rgb(48.672485%, 55.528259%, 93.811035%)" offset="0.808594"/><stop stop-opacity="1" stop-color="rgb(48.834229%, 56.193542%, 93.841553%)" offset="0.8125"/><stop stop-opacity="1" stop-color="rgb(48.994446%, 56.860352%, 93.87207%)" offset="0.816406"/><stop stop-opacity="1" stop-color="rgb(49.154663%, 57.525635%, 93.902588%)" offset="0.820312"/><stop stop-opacity="1" stop-color="rgb(49.316406%, 58.192444%, 93.933105%)" offset="0.824219"/><stop stop-opacity="1" stop-color="rgb(49.476624%, 58.859253%, 93.963623%)" offset="0.828125"/><stop stop-opacity="1" stop-color="rgb(49.636841%, 59.524536%, 93.994141%)" offset="0.832031"/><stop stop-opacity="1" stop-color="rgb(49.798584%, 60.191345%, 94.024658%)" offset="0.835938"/><stop stop-opacity="1" stop-color="rgb(49.958801%, 60.856628%, 94.055176%)" offset="0.839844"/><stop stop-opacity="1" stop-color="rgb(50.119019%, 61.523438%, 94.085693%)" offset="0.84375"/><stop stop-opacity="1" stop-color="rgb(50.280762%, 62.190247%, 94.116211%)" offset="0.847656"/><stop stop-opacity="1" stop-color="rgb(50.440979%, 62.85553%, 94.146729%)" offset="0.851562"/><stop stop-opacity="1" stop-color="rgb(50.601196%, 63.522339%, 94.177246%)" offset="0.855469"/><stop stop-opacity="1" stop-color="rgb(50.762939%, 64.187622%, 94.207764%)" offset="0.859375"/><stop stop-opacity="1" stop-color="rgb(50.923157%, 64.854431%, 94.238281%)" offset="0.863281"/><stop stop-opacity="1" stop-color="rgb(51.083374%, 65.52124%, 94.268799%)" offset="0.867188"/><stop stop-opacity="1" stop-color="rgb(51.245117%, 66.186523%, 94.299316%)" offset="0.871094"/><stop stop-opacity="1" stop-color="rgb(51.405334%, 66.853333%, 94.329834%)" offset="0.875"/><stop stop-opacity="1" stop-color="rgb(51.565552%, 67.518616%, 94.360352%)" offset="0.878906"/><stop stop-opacity="1" stop-color="rgb(51.727295%, 68.185425%, 94.390869%)" offset="0.882812"/><stop stop-opacity="1" stop-color="rgb(51.887512%, 68.852234%, 94.421387%)" offset="0.886719"/><stop stop-opacity="1" stop-color="rgb(52.047729%, 69.517517%, 94.451904%)" offset="0.890625"/><stop stop-opacity="1" stop-color="rgb(52.209473%, 70.184326%, 94.482422%)" offset="0.894531"/><stop stop-opacity="1" stop-color="rgb(52.36969%, 70.851135%, 94.512939%)" offset="0.898438"/><stop stop-opacity="1" stop-color="rgb(52.529907%, 71.516418%, 94.543457%)" offset="0.902344"/><stop stop-opacity="1" stop-color="rgb(52.69165%, 72.183228%, 94.572449%)" offset="0.90625"/><stop stop-opacity="1" stop-color="rgb(52.851868%, 72.848511%, 94.602966%)" offset="0.910156"/><stop stop-opacity="1" stop-color="rgb(53.012085%, 73.51532%, 94.633484%)" offset="0.914062"/><stop stop-opacity="1" stop-color="rgb(53.173828%, 74.182129%, 94.664001%)" offset="0.917969"/><stop stop-opacity="1" stop-color="rgb(53.334045%, 74.847412%, 94.694519%)" offset="0.921875"/><stop stop-opacity="1" stop-color="rgb(53.494263%, 75.514221%, 94.725037%)" offset="0.925781"/><stop stop-opacity="1" stop-color="rgb(53.656006%, 76.179504%, 94.755554%)" offset="0.929688"/><stop stop-opacity="1" stop-color="rgb(53.816223%, 76.846313%, 94.786072%)" offset="0.933594"/><stop stop-opacity="1" stop-color="rgb(53.977966%, 77.513123%, 94.816589%)" offset="0.9375"/><stop stop-opacity="1" stop-color="rgb(54.138184%, 78.178406%, 94.847107%)" offset="0.941406"/><stop stop-opacity="1" stop-color="rgb(54.298401%, 78.845215%, 94.877625%)" offset="0.945312"/><stop stop-opacity="1" stop-color="rgb(54.460144%, 79.510498%, 94.908142%)" offset="0.949219"/><stop stop-opacity="1" stop-color="rgb(54.620361%, 80.177307%, 94.93866%)" offset="0.953125"/><stop stop-opacity="1" stop-color="rgb(54.780579%, 80.844116%, 94.969177%)" offset="0.957031"/><stop stop-opacity="1" stop-color="rgb(54.942322%, 81.509399%, 94.999695%)" offset="0.960938"/><stop stop-opacity="1" stop-color="rgb(55.102539%, 82.176208%, 95.030212%)" offset="0.964844"/><stop stop-opacity="1" stop-color="rgb(55.262756%, 82.841492%, 95.06073%)" offset="0.96875"/><stop stop-opacity="1" stop-color="rgb(55.4245%, 83.508301%, 95.091248%)" offset="0.972656"/><stop stop-opacity="1" stop-color="rgb(55.584717%, 84.17511%, 95.121765%)" offset="0.976562"/><stop stop-opacity="1" stop-color="rgb(55.744934%, 84.840393%, 95.152283%)" offset="0.980469"/><stop stop-opacity="1" stop-color="rgb(55.906677%, 85.507202%, 95.1828%)" offset="0.984375"/><stop stop-opacity="1" stop-color="rgb(56.066895%, 86.172485%, 95.213318%)" offset="0.988281"/><stop stop-opacity="1" stop-color="rgb(56.227112%, 86.839294%, 95.243835%)" offset="0.992188"/><stop stop-opacity="1" stop-color="rgb(56.388855%, 87.506104%, 95.274353%)" offset="0.996094"/><stop stop-opacity="1" stop-color="rgb(56.469727%, 87.838745%, 95.289612%)" offset="1"/></radialGradient><clipPath id="d1cd9b4eab"><path d="M 112.40625 203.359375 L 185.90625 203.359375 L 185.90625 257.359375 L 112.40625 257.359375 Z M 112.40625 203.359375 " clip-rule="nonzero"/></clipPath><clipPath id="144b6c8e89"><rect x="0" width="719" y="0" height="101"/></clipPath><clipPath id="6077d1efc1"><rect x="0" width="545" y="0" height="46"/></clipPath></defs><rect x="-76.2" width="914.4" fill="#ffffff" y="-39.899999" height="478.799989" fill-opacity="1"/><rect x="-76.2" fill="url(#34c53cf27e)" width="914.4" y="-39.899999" height="478.799989"/><g clip-path="url(#d1cd9b4eab)"><path fill="#000000" d="M 142.695312 203.542969 C 147.539062 203.054688 153.089844 203.855469 158.007812 203.511719 C 160.554688 203.738281 162.269531 205.007812 163.507812 207.152344 C 164.886719 209.546875 165.261719 212.742188 168.613281 212.984375 C 171.78125 213.214844 175.246094 212.761719 178.421875 212.976562 C 182.277344 213.242188 185.640625 216.472656 185.90625 220.324219 L 185.90625 251.164062 C 185.621094 254.457031 183.007812 257.058594 179.691406 257.339844 L 118.441406 257.339844 C 115.058594 257.066406 112.628906 254.402344 112.40625 251.074219 L 112.40625 220.324219 C 112.609375 217.542969 114.296875 214.90625 116.886719 213.777344 C 117.394531 213.554688 118.722656 213.289062 118.984375 212.976562 C 119.328125 212.558594 119.160156 211.964844 119.214844 211.496094 C 119.464844 209.476562 120.886719 208.339844 122.886719 208.199219 C 124.3125 208.101562 126.644531 208.089844 128.066406 208.199219 C 129.679688 208.328125 131.023438 209.324219 131.417969 210.90625 C 131.644531 211.808594 131.34375 213.011719 132.6875 212.988281 C 135.914062 212.925781 136.773438 207.75 138.539062 205.722656 C 139.5625 204.546875 141.125 203.699219 142.695312 203.542969 Z M 143.964844 206.246094 C 139.683594 206.519531 139.757812 209.679688 137.921875 212.683594 C 136.890625 214.378906 135.058594 215.546875 133.054688 215.6875 C 128.949219 215.980469 124.453125 215.386719 120.347656 215.6875 C 117.445312 215.898438 115.320312 217.730469 115.125 220.683594 C 115.097656 221.140625 114.980469 222.558594 115.46875 222.699219 L 133.210938 222.699219 C 133.613281 222.609375 135.039062 220.679688 135.453125 220.234375 C 144.621094 210.386719 159.058594 210.257812 168.390625 219.964844 C 169.242188 220.851562 169.929688 221.976562 170.902344 222.699219 L 182.320312 222.722656 C 183.464844 222.773438 183.238281 221.28125 183.167969 220.519531 C 182.914062 217.816406 180.742188 215.878906 178.054688 215.683594 C 174.59375 215.429688 167.972656 216.464844 165.164062 214.789062 C 162.835938 213.394531 162.328125 210.707031 161.074219 208.484375 C 159.910156 206.421875 158.699219 206.367188 156.53125 206.277344 C 152.617188 206.117188 147.855469 206 143.964844 206.25 Z M 122.636719 210.925781 C 121.644531 211.25 121.703125 212.773438 122.730469 212.960938 C 123.527344 213.105469 127.027344 213.085938 127.871094 212.972656 C 129.078125 212.8125 129.171875 211.246094 128.054688 210.914062 Z M 150.679688 215.441406 C 137.125 216.285156 128.480469 231.011719 134.105469 243.304688 C 141.160156 258.710938 163.023438 258.578125 169.949219 243.0625 C 175.945312 229.628906 165.371094 214.53125 150.679688 215.441406 Z M 140.898438 254.71875 C 140.933594 254.570312 140.851562 254.539062 140.761719 254.453125 C 140.503906 254.199219 139.890625 253.921875 139.546875 253.671875 C 131.367188 247.8125 127.886719 238.335938 130.765625 228.558594 C 130.90625 228.070312 131.710938 226.125 131.632812 225.847656 C 131.511719 225.601562 131.238281 225.5 130.96875 225.507812 L 116.085938 225.511719 C 115.613281 225.53125 115.335938 225.8125 115.175781 226.230469 L 115.128906 248.277344 L 115.246094 248.75 C 115.359375 248.832031 115.492188 248.847656 115.628906 248.859375 C 116.921875 248.996094 120.609375 248.988281 121.726562 248.515625 C 122.917969 248.015625 123.480469 247.109375 123.574219 245.84375 C 123.929688 241.117188 123.164062 235.839844 123.566406 231.144531 C 123.738281 229.140625 125.199219 227.464844 127.046875 226.757812 C 127.925781 226.421875 129.023438 226.355469 129.1875 227.546875 C 129.410156 229.152344 127.472656 229.214844 126.707031 230.296875 C 126.417969 230.703125 126.300781 231.214844 126.210938 231.699219 C 125.925781 236.484375 126.554688 241.644531 126.207031 246.386719 C 126.003906 249.097656 123.710938 251.371094 120.988281 251.570312 C 120.257812 251.621094 115.566406 251.433594 115.414062 251.667969 C 115.386719 252.882812 116.753906 254.054688 117.828125 254.429688 C 118.089844 254.519531 118.839844 254.71875 119.078125 254.71875 L 140.902344 254.71875 Z M 163.039062 254.71875 L 179.144531 254.71875 C 181.097656 254.71875 183.207031 252.542969 183.257812 250.605469 L 183.25 226.480469 C 183.152344 225.949219 182.773438 225.582031 182.230469 225.511719 C 179.261719 225.730469 175.886719 225.226562 172.96875 225.507812 C 171.941406 225.605469 172.546875 226.332031 172.722656 226.839844 C 176.195312 236.660156 173.34375 247.082031 164.933594 253.316406 C 164.308594 253.78125 163.535156 254.144531 163.039062 254.722656 Z M 163.039062 254.71875 " fill-opacity="1" fill-rule="nonzero"/></g><path fill="#000000" d="M 151.316406 217.875 L 152.195312 217.851562 C 166.808594 218.066406 174.519531 235.117188 165.261719 246.246094 C 156.59375 256.667969 138.878906 253.023438 135.320312 239.9375 C 132.40625 229.21875 140.121094 218.3125 151.316406 217.875 Z M 150.863281 220.582031 C 140.757812 221.273438 134.382812 232.148438 138.554688 241.320312 C 143.839844 252.945312 161.105469 252.367188 165.671875 240.523438 C 169.589844 230.363281 161.75 219.832031 150.863281 220.582031 Z M 150.863281 220.582031 " fill-opacity="1" fill-rule="nonzero"/><path fill="#000000" d="M 150.496094 223.644531 C 152.769531 223.429688 155.402344 223.746094 157.433594 224.816406 C 158.28125 225.265625 159.082031 225.925781 158.359375 226.949219 C 157.496094 228.164062 156.417969 227.0625 155.464844 226.683594 C 146.582031 223.136719 138.367188 234.09375 144.84375 241.558594 C 150.363281 247.925781 160.789062 244.117188 161.316406 235.929688 C 161.386719 234.878906 160.796875 232.328125 162.289062 232.023438 C 163.34375 231.808594 163.640625 232.539062 163.761719 233.402344 C 165.28125 244.070312 152.457031 251.332031 144.125 244.171875 C 136.535156 237.652344 140.710938 224.582031 150.5 223.644531 Z M 150.496094 223.644531 " fill-opacity="1" fill-rule="nonzero"/><path fill="#000000" d="M 160.746094 225.714844 C 161.742188 225.542969 162.367188 226.226562 162.894531 226.960938 C 163.421875 227.695312 163.789062 228.347656 163.386719 229.238281 L 152.96875 243.132812 C 151.484375 244.300781 150.253906 244.003906 149.121094 242.628906 C 147.191406 240.289062 145.5 237.59375 143.640625 235.183594 C 142.71875 233.546875 144.503906 230.652344 146.429688 231.960938 C 146.617188 232.089844 146.90625 232.410156 147.066406 232.589844 C 148.476562 234.179688 149.617188 236.234375 151.015625 237.859375 L 159.863281 226.1875 C 160.109375 225.984375 160.425781 225.765625 160.746094 225.710938 Z M 160.746094 225.714844 " fill-opacity="1" fill-rule="nonzero"/><g transform="matrix(1, 0, 0, 1, 23, 119)"><g clip-path="url(#144b6c8e89)"><g fill="#000000" fill-opacity="1"><g transform="translate(0.330865, 76.09182)"><g><path d="M 41.75 -54.6875 C 41.75 -55.5625 42.03125 -56.242188 42.59375 -56.734375 C 43.15625 -57.234375 44.039062 -57.484375 45.25 -57.484375 L 58.21875 -57.484375 C 59.414062 -57.484375 60.300781 -57.234375 60.875 -56.734375 C 61.457031 -56.242188 61.75 -55.5625 61.75 -54.6875 C 61.75 -54.050781 61.578125 -53.53125 61.234375 -53.125 C 60.890625 -52.71875 60.363281 -52.332031 59.65625 -51.96875 L 58.46875 -51.40625 C 57.445312 -50.90625 56.601562 -50.195312 55.9375 -49.28125 C 55.269531 -48.363281 54.617188 -46.90625 53.984375 -44.90625 L 42.8125 -10.390625 C 42.375 -9.015625 42.066406 -7.941406 41.890625 -7.171875 C 41.710938 -6.410156 41.625 -5.632812 41.625 -4.84375 L 41.625 -2.59375 C 41.625 -1.769531 41.359375 -1.128906 40.828125 -0.671875 C 40.296875 -0.222656 39.632812 0 38.84375 0 L 23.8125 0 C 23.039062 0 22.398438 -0.222656 21.890625 -0.671875 C 21.390625 -1.128906 21.140625 -1.804688 21.140625 -2.703125 L 21.140625 -4.921875 C 21.140625 -5.390625 21.050781 -5.953125 20.875 -6.609375 C 20.695312 -7.265625 20.484375 -7.976562 20.234375 -8.75 L 7.0625 -47.703125 C 6.707031 -48.742188 6.335938 -49.503906 5.953125 -49.984375 C 5.566406 -50.460938 5.019531 -50.878906 4.3125 -51.234375 L 3.125 -51.8125 C 1.945312 -52.414062 1.359375 -53.375 1.359375 -54.6875 C 1.359375 -55.5625 1.644531 -56.242188 2.21875 -56.734375 C 2.789062 -57.234375 3.679688 -57.484375 4.890625 -57.484375 L 28.484375 -57.484375 C 29.722656 -57.484375 30.617188 -57.234375 31.171875 -56.734375 C 31.734375 -56.242188 32.015625 -55.5625 32.015625 -54.6875 C 32.015625 -54 31.84375 -53.445312 31.5 -53.03125 C 31.164062 -52.625 30.628906 -52.257812 29.890625 -51.9375 L 28.53125 -51.3125 C 27.820312 -50.988281 27.367188 -50.484375 27.171875 -49.796875 C 26.984375 -49.109375 27.109375 -48.109375 27.546875 -46.796875 L 37.640625 -16.171875 L 47.296875 -45.578125 C 47.765625 -46.972656 47.835938 -48.117188 47.515625 -49.015625 C 47.203125 -49.921875 46.363281 -50.71875 45 -51.40625 L 43.84375 -51.96875 C 43.15625 -52.300781 42.632812 -52.660156 42.28125 -53.046875 C 41.925781 -53.429688 41.75 -53.976562 41.75 -54.6875 Z M 41.75 -54.6875 "/></g></g></g><g fill="#000000" fill-opacity="1"><g transform="translate(62.65537, 76.09182)"><g><path d="M 32.796875 -59.125 C 37.566406 -59.125 41.84375 -58.390625 45.625 -56.921875 C 49.414062 -55.453125 52.644531 -53.363281 55.3125 -50.65625 C 57.988281 -47.945312 60.03125 -44.710938 61.4375 -40.953125 C 62.84375 -37.191406 63.546875 -33 63.546875 -28.375 C 63.546875 -24.1875 62.847656 -20.269531 61.453125 -16.625 C 60.054688 -12.988281 58.046875 -9.800781 55.421875 -7.0625 C 52.796875 -4.320312 49.613281 -2.1875 45.875 -0.65625 C 42.144531 0.875 37.9375 1.640625 33.25 1.640625 C 28.488281 1.640625 24.210938 0.910156 20.421875 -0.546875 C 16.628906 -2.015625 13.398438 -4.101562 10.734375 -6.8125 C 8.066406 -9.519531 6.023438 -12.753906 4.609375 -16.515625 C 3.203125 -20.285156 2.5 -24.484375 2.5 -29.109375 C 2.5 -33.296875 3.195312 -37.207031 4.59375 -40.84375 C 5.988281 -44.488281 8 -47.675781 10.625 -50.40625 C 13.257812 -53.144531 16.441406 -55.28125 20.171875 -56.8125 C 23.910156 -58.351562 28.117188 -59.125 32.796875 -59.125 Z M 43.96875 -17.125 C 43.96875 -20.789062 43.671875 -24.378906 43.078125 -27.890625 C 42.492188 -31.410156 41.695312 -34.703125 40.6875 -37.765625 C 39.675781 -40.835938 38.523438 -43.535156 37.234375 -45.859375 C 35.953125 -48.179688 34.601562 -50.003906 33.1875 -51.328125 C 31.78125 -52.660156 30.378906 -53.328125 28.984375 -53.328125 C 26.765625 -53.328125 25.085938 -52.222656 23.953125 -50.015625 C 22.816406 -47.816406 22.25 -44.597656 22.25 -40.359375 C 22.25 -36.710938 22.539062 -33.128906 23.125 -29.609375 C 23.71875 -26.097656 24.519531 -22.800781 25.53125 -19.71875 C 26.550781 -16.644531 27.703125 -13.941406 28.984375 -11.609375 C 30.273438 -9.285156 31.625 -7.457031 33.03125 -6.125 C 34.4375 -4.800781 35.835938 -4.140625 37.234375 -4.140625 C 39.484375 -4.140625 41.164062 -5.238281 42.28125 -7.4375 C 43.40625 -9.644531 43.96875 -12.875 43.96875 -17.125 Z M 43.96875 -17.125 "/></g></g></g><g fill="#000000" fill-opacity="1"><g transform="translate(128.716074, 76.09182)"><g><path d="M 16.875 -57.484375 L 44.375 -57.484375 C 45.632812 -57.484375 46.707031 -57.59375 47.59375 -57.8125 C 48.488281 -58.03125 49.289062 -58.238281 50 -58.4375 C 50.71875 -58.644531 51.429688 -58.75 52.140625 -58.75 C 53.484375 -58.75 54.484375 -58.425781 55.140625 -57.78125 C 55.796875 -57.132812 56.328125 -56.046875 56.734375 -54.515625 L 59.359375 -40.84375 C 59.578125 -39.75 59.488281 -38.859375 59.09375 -38.171875 C 58.695312 -37.492188 58.019531 -37.070312 57.0625 -36.90625 C 56.1875 -36.71875 55.410156 -36.773438 54.734375 -37.078125 C 54.066406 -37.378906 53.503906 -37.992188 53.046875 -38.921875 C 51.835938 -41.328125 50.765625 -43.332031 49.828125 -44.9375 C 48.898438 -46.539062 48.03125 -47.800781 47.21875 -48.71875 C 46.414062 -49.632812 45.617188 -50.289062 44.828125 -50.6875 C 44.035156 -51.082031 43.175781 -51.28125 42.25 -51.28125 L 40.15625 -51.28125 L 40.15625 -9.109375 C 40.15625 -7.847656 40.851562 -6.945312 42.25 -6.40625 L 43.8125 -5.828125 C 44.570312 -5.554688 45.113281 -5.160156 45.4375 -4.640625 C 45.769531 -4.117188 45.9375 -3.503906 45.9375 -2.796875 C 45.9375 -1.941406 45.648438 -1.257812 45.078125 -0.75 C 44.503906 -0.25 43.613281 0 42.40625 0 L 18.84375 0 C 17.632812 0 16.742188 -0.25 16.171875 -0.75 C 15.597656 -1.257812 15.3125 -1.941406 15.3125 -2.796875 C 15.3125 -3.503906 15.472656 -4.117188 15.796875 -4.640625 C 16.128906 -5.160156 16.679688 -5.554688 17.453125 -5.828125 L 19.015625 -6.40625 C 20.410156 -6.945312 21.109375 -7.847656 21.109375 -9.109375 L 21.109375 -51.28125 L 19.015625 -51.28125 C 18.078125 -51.28125 17.210938 -51.082031 16.421875 -50.6875 C 15.628906 -50.289062 14.828125 -49.632812 14.015625 -48.71875 C 13.210938 -47.800781 12.34375 -46.539062 11.40625 -44.9375 C 10.476562 -43.332031 9.414062 -41.328125 8.21875 -38.921875 C 7.75 -37.992188 7.175781 -37.378906 6.5 -37.078125 C 5.832031 -36.773438 5.0625 -36.71875 4.1875 -36.90625 C 3.257812 -37.070312 2.59375 -37.492188 2.1875 -38.171875 C 1.789062 -38.859375 1.691406 -39.75 1.890625 -40.84375 L 4.515625 -54.515625 C 4.921875 -56.046875 5.453125 -57.132812 6.109375 -57.78125 C 6.773438 -58.425781 7.773438 -58.75 9.109375 -58.75 C 9.828125 -58.75 10.539062 -58.644531 11.25 -58.4375 C 11.957031 -58.238281 12.753906 -58.03125 13.640625 -57.8125 C 14.535156 -57.59375 15.613281 -57.484375 16.875 -57.484375 Z M 16.875 -57.484375 "/></g></g></g><g fill="#000000" fill-opacity="1"><g transform="translate(189.973119, 76.09182)"><g><path d="M 32.796875 -59.125 C 37.566406 -59.125 41.84375 -58.390625 45.625 -56.921875 C 49.414062 -55.453125 52.644531 -53.363281 55.3125 -50.65625 C 57.988281 -47.945312 60.03125 -44.710938 61.4375 -40.953125 C 62.84375 -37.191406 63.546875 -33 63.546875 -28.375 C 63.546875 -24.1875 62.847656 -20.269531 61.453125 -16.625 C 60.054688 -12.988281 58.046875 -9.800781 55.421875 -7.0625 C 52.796875 -4.320312 49.613281 -2.1875 45.875 -0.65625 C 42.144531 0.875 37.9375 1.640625 33.25 1.640625 C 28.488281 1.640625 24.210938 0.910156 20.421875 -0.546875 C 16.628906 -2.015625 13.398438 -4.101562 10.734375 -6.8125 C 8.066406 -9.519531 6.023438 -12.753906 4.609375 -16.515625 C 3.203125 -20.285156 2.5 -24.484375 2.5 -29.109375 C 2.5 -33.296875 3.195312 -37.207031 4.59375 -40.84375 C 5.988281 -44.488281 8 -47.675781 10.625 -50.40625 C 13.257812 -53.144531 16.441406 -55.28125 20.171875 -56.8125 C 23.910156 -58.351562 28.117188 -59.125 32.796875 -59.125 Z M 43.96875 -17.125 C 43.96875 -20.789062 43.671875 -24.378906 43.078125 -27.890625 C 42.492188 -31.410156 41.695312 -34.703125 40.6875 -37.765625 C 39.675781 -40.835938 38.523438 -43.535156 37.234375 -45.859375 C 35.953125 -48.179688 34.601562 -50.003906 33.1875 -51.328125 C 31.78125 -52.660156 30.378906 -53.328125 28.984375 -53.328125 C 26.765625 -53.328125 25.085938 -52.222656 23.953125 -50.015625 C 22.816406 -47.816406 22.25 -44.597656 22.25 -40.359375 C 22.25 -36.710938 22.539062 -33.128906 23.125 -29.609375 C 23.71875 -26.097656 24.519531 -22.800781 25.53125 -19.71875 C 26.550781 -16.644531 27.703125 -13.941406 28.984375 -11.609375 C 30.273438 -9.285156 31.625 -7.457031 33.03125 -6.125 C 34.4375 -4.800781 35.835938 -4.140625 37.234375 -4.140625 C 39.484375 -4.140625 41.164062 -5.238281 42.28125 -7.4375 C 43.40625 -9.644531 43.96875 -12.875 43.96875 -17.125 Z M 43.96875 -17.125 "/></g></g></g><g fill="#000000" fill-opacity="1"><g transform="translate(256.033822, 76.09182)"><g><path d="M 57.640625 -1.59375 C 57.640625 0.5625 56.554688 1.640625 54.390625 1.640625 C 53.492188 1.640625 52.664062 1.398438 51.90625 0.921875 C 51.15625 0.441406 50.4375 -0.109375 49.75 -0.734375 C 49.070312 -1.367188 48.425781 -1.925781 47.8125 -2.40625 C 47.195312 -2.882812 46.585938 -3.125 45.984375 -3.125 C 45.328125 -3.125 44.597656 -2.882812 43.796875 -2.40625 C 43.003906 -1.925781 42.054688 -1.375 40.953125 -0.75 C 39.847656 -0.132812 38.5 0.40625 36.90625 0.875 C 35.320312 1.351562 33.394531 1.59375 31.125 1.59375 C 26.601562 1.59375 22.570312 0.882812 19.03125 -0.53125 C 15.488281 -1.957031 12.484375 -4 10.015625 -6.65625 C 7.554688 -9.3125 5.679688 -12.5 4.390625 -16.21875 C 3.109375 -19.9375 2.46875 -24.109375 2.46875 -28.734375 C 2.46875 -32.242188 2.957031 -35.53125 3.9375 -38.59375 C 4.925781 -41.65625 6.320312 -44.445312 8.125 -46.96875 C 9.9375 -49.488281 12.085938 -51.648438 14.578125 -53.453125 C 17.066406 -55.253906 19.820312 -56.648438 22.84375 -57.640625 C 25.875 -58.628906 29.082031 -59.125 32.46875 -59.125 C 34.519531 -59.125 36.28125 -58.984375 37.75 -58.703125 C 39.21875 -58.429688 40.460938 -58.125 41.484375 -57.78125 C 42.515625 -57.4375 43.382812 -57.128906 44.09375 -56.859375 C 44.800781 -56.585938 45.441406 -56.453125 46.015625 -56.453125 C 46.597656 -56.453125 47.097656 -56.570312 47.515625 -56.8125 C 47.941406 -57.0625 48.347656 -57.359375 48.734375 -57.703125 C 49.117188 -58.046875 49.535156 -58.335938 49.984375 -58.578125 C 50.429688 -58.828125 50.957031 -58.953125 51.5625 -58.953125 C 52.25 -58.953125 52.816406 -58.734375 53.265625 -58.296875 C 53.722656 -57.859375 54.097656 -57.117188 54.390625 -56.078125 L 58.625 -41.546875 C 58.875 -40.703125 58.769531 -39.941406 58.3125 -39.265625 C 57.863281 -38.597656 57.21875 -38.15625 56.375 -37.9375 C 55.4375 -37.71875 54.582031 -37.773438 53.8125 -38.109375 C 53.050781 -38.453125 52.46875 -39.101562 52.0625 -40.0625 C 50.664062 -43.375 49.066406 -45.941406 47.265625 -47.765625 C 45.472656 -49.585938 43.578125 -50.851562 41.578125 -51.5625 C 39.585938 -52.269531 37.578125 -52.625 35.546875 -52.625 C 32.617188 -52.625 30.109375 -51.78125 28.015625 -50.09375 C 25.921875 -48.414062 24.316406 -46.023438 23.203125 -42.921875 C 22.097656 -39.816406 21.546875 -36.128906 21.546875 -31.859375 C 21.546875 -26.359375 22.203125 -21.765625 23.515625 -18.078125 C 24.835938 -14.398438 26.65625 -11.644531 28.96875 -9.8125 C 31.28125 -7.976562 33.925781 -7.0625 36.90625 -7.0625 C 38.269531 -7.0625 39.257812 -7.441406 39.875 -8.203125 C 40.5 -8.972656 40.8125 -9.960938 40.8125 -11.171875 L 40.8125 -20.328125 C 40.8125 -20.898438 40.671875 -21.335938 40.390625 -21.640625 C 40.117188 -21.941406 39.5625 -22.210938 38.71875 -22.453125 L 36.90625 -22.984375 C 36.0625 -23.234375 35.398438 -23.585938 34.921875 -24.046875 C 34.441406 -24.515625 34.203125 -25.109375 34.203125 -25.828125 C 34.203125 -26.648438 34.488281 -27.296875 35.0625 -27.765625 C 35.632812 -28.242188 36.523438 -28.484375 37.734375 -28.484375 L 58.953125 -28.484375 C 60.179688 -28.484375 61.082031 -28.242188 61.65625 -27.765625 C 62.238281 -27.296875 62.53125 -26.660156 62.53125 -25.859375 C 62.53125 -25.179688 62.347656 -24.628906 61.984375 -24.203125 C 61.628906 -23.773438 61.097656 -23.410156 60.390625 -23.109375 L 59.453125 -22.75 C 58.898438 -22.53125 58.457031 -22.238281 58.125 -21.875 C 57.800781 -21.519531 57.640625 -21.003906 57.640625 -20.328125 Z M 57.640625 -1.59375 "/></g></g></g><g fill="#000000" fill-opacity="1"><g transform="translate(320.493307, 76.09182)"><g><path d="M 62.234375 -37.3125 C 62.234375 -34.363281 61.410156 -31.691406 59.765625 -29.296875 C 58.128906 -26.898438 55.804688 -25.046875 52.796875 -23.734375 L 61.546875 -8.75 C 62.035156 -7.894531 62.476562 -7.253906 62.875 -6.828125 C 63.269531 -6.410156 63.785156 -6.050781 64.421875 -5.75 C 65.097656 -5.414062 65.59375 -5.015625 65.90625 -4.546875 C 66.226562 -4.085938 66.390625 -3.503906 66.390625 -2.796875 C 66.390625 -1.941406 66.097656 -1.257812 65.515625 -0.75 C 64.941406 -0.25 64.054688 0 62.859375 0 L 42.484375 0 C 40.242188 0 39.125 -0.929688 39.125 -2.796875 C 39.125 -3.640625 39.519531 -4.347656 40.3125 -4.921875 L 40.8125 -5.296875 C 41.300781 -5.679688 41.578125 -6.050781 41.640625 -6.40625 C 41.710938 -6.757812 41.570312 -7.28125 41.21875 -7.96875 L 35.140625 -20.03125 C 32.597656 -20.113281 30.378906 -20.441406 28.484375 -21.015625 L 28.484375 -9.109375 C 28.484375 -8.429688 28.613281 -7.882812 28.875 -7.46875 C 29.132812 -7.0625 29.566406 -6.707031 30.171875 -6.40625 L 31.328125 -5.828125 C 32.171875 -5.421875 32.734375 -4.988281 33.015625 -4.53125 C 33.304688 -4.082031 33.453125 -3.503906 33.453125 -2.796875 C 33.453125 -1.941406 33.164062 -1.257812 32.59375 -0.75 C 32.019531 -0.25 31.128906 0 29.921875 0 L 7.1875 0 C 5.976562 0 5.085938 -0.25 4.515625 -0.75 C 3.941406 -1.257812 3.65625 -1.941406 3.65625 -2.796875 C 3.65625 -3.503906 3.816406 -4.117188 4.140625 -4.640625 C 4.472656 -5.160156 5.019531 -5.554688 5.78125 -5.828125 L 7.34375 -6.40625 C 8.738281 -6.945312 9.4375 -7.847656 9.4375 -9.109375 L 9.4375 -48.359375 C 9.4375 -49.648438 8.738281 -50.554688 7.34375 -51.078125 L 5.78125 -51.640625 C 5.019531 -51.941406 4.472656 -52.347656 4.140625 -52.859375 C 3.816406 -53.367188 3.65625 -53.976562 3.65625 -54.6875 C 3.65625 -55.5625 3.941406 -56.242188 4.515625 -56.734375 C 5.085938 -57.234375 5.976562 -57.484375 7.1875 -57.484375 L 30.875 -57.484375 C 37.632812 -57.484375 43.347656 -56.632812 48.015625 -54.9375 C 52.679688 -53.238281 56.21875 -50.875 58.625 -47.84375 C 61.03125 -44.820312 62.234375 -41.3125 62.234375 -37.3125 Z M 28.484375 -52.140625 L 28.484375 -26.15625 C 29.640625 -25.90625 30.96875 -25.78125 32.46875 -25.78125 C 35.726562 -25.78125 38.257812 -26.679688 40.0625 -28.484375 C 41.875 -30.296875 42.78125 -33.101562 42.78125 -36.90625 C 42.78125 -39.125 42.460938 -41.15625 41.828125 -43 C 41.203125 -44.851562 40.320312 -46.460938 39.1875 -47.828125 C 38.050781 -49.191406 36.707031 -50.25 35.15625 -51 C 33.613281 -51.757812 31.925781 -52.140625 30.09375 -52.140625 Z M 28.484375 -52.140625 "/></g></g></g><g fill="#000000" fill-opacity="1"><g transform="translate(388.771107, 76.09182)"><g><path d="M 21.265625 -2.796875 C 21.265625 -1.941406 20.984375 -1.257812 20.421875 -0.75 C 19.859375 -0.25 18.976562 0 17.78125 0 L 4.640625 0 C 3.460938 0 2.585938 -0.25 2.015625 -0.75 C 1.441406 -1.257812 1.15625 -1.941406 1.15625 -2.796875 C 1.15625 -3.890625 1.769531 -4.816406 3 -5.578125 L 3.859375 -6.109375 C 4.460938 -6.492188 4.96875 -6.90625 5.375 -7.34375 C 5.789062 -7.78125 6.164062 -8.390625 6.5 -9.171875 C 6.84375 -9.953125 7.222656 -11.015625 7.640625 -12.359375 L 18.140625 -46.3125 C 18.640625 -47.925781 18.816406 -49.09375 18.671875 -49.8125 C 18.535156 -50.539062 17.976562 -51.140625 17 -51.609375 C 16.226562 -51.992188 15.6875 -52.429688 15.375 -52.921875 C 15.0625 -53.410156 14.90625 -54 14.90625 -54.6875 C 14.90625 -55.5625 15.191406 -56.242188 15.765625 -56.734375 C 16.335938 -57.234375 17.226562 -57.484375 18.4375 -57.484375 L 44.828125 -57.484375 C 46.035156 -57.484375 46.925781 -57.234375 47.5 -56.734375 C 48.070312 -56.242188 48.359375 -55.5625 48.359375 -54.6875 C 48.359375 -53.945312 48.1875 -53.335938 47.84375 -52.859375 C 47.507812 -52.378906 47.023438 -51.988281 46.390625 -51.6875 C 45.703125 -51.351562 45.296875 -50.90625 45.171875 -50.34375 C 45.054688 -49.789062 45.191406 -48.910156 45.578125 -47.703125 L 56.859375 -11.953125 C 57.429688 -10.117188 57.953125 -8.769531 58.421875 -7.90625 C 58.890625 -7.039062 59.503906 -6.414062 60.265625 -6.03125 C 61.222656 -5.539062 61.863281 -5.0625 62.1875 -4.59375 C 62.519531 -4.132812 62.6875 -3.535156 62.6875 -2.796875 C 62.6875 -1.941406 62.398438 -1.257812 61.828125 -0.75 C 61.253906 -0.25 60.363281 0 59.15625 0 L 37.484375 0 C 36.253906 0 35.359375 -0.25 34.796875 -0.75 C 34.234375 -1.257812 33.953125 -1.941406 33.953125 -2.796875 C 33.953125 -3.472656 34.128906 -4.023438 34.484375 -4.453125 C 34.835938 -4.878906 35.375 -5.253906 36.09375 -5.578125 L 37.40625 -6.203125 C 38.113281 -6.523438 38.410156 -6.96875 38.296875 -7.53125 C 38.191406 -8.09375 37.945312 -9.003906 37.5625 -10.265625 L 35.140625 -18.34375 L 16.953125 -18.34375 L 15.4375 -13.421875 C 15 -12.023438 14.769531 -10.894531 14.75 -10.03125 C 14.738281 -9.175781 14.992188 -8.453125 15.515625 -7.859375 C 16.035156 -7.273438 16.867188 -6.679688 18.015625 -6.078125 L 19.171875 -5.5 C 19.796875 -5.175781 20.300781 -4.8125 20.6875 -4.40625 C 21.070312 -4.007812 21.265625 -3.472656 21.265625 -2.796875 Z M 18.84375 -24.46875 L 33.296875 -24.46875 L 26.15625 -48.078125 Z M 18.84375 -24.46875 "/></g></g></g><g fill="#000000" fill-opacity="1"><g transform="translate(453.476952, 76.09182)"><g><path d="M 60.765625 -35.921875 C 60.765625 -32.335938 59.804688 -29.21875 57.890625 -26.5625 C 55.972656 -23.90625 53.210938 -21.851562 49.609375 -20.40625 C 46.015625 -18.957031 41.710938 -18.234375 36.703125 -18.234375 C 33.691406 -18.234375 30.953125 -18.546875 28.484375 -19.171875 L 28.484375 -9.109375 C 28.484375 -8.429688 28.640625 -7.851562 28.953125 -7.375 C 29.273438 -6.894531 29.816406 -6.570312 30.578125 -6.40625 L 33.046875 -5.875 C 33.921875 -5.675781 34.550781 -5.335938 34.9375 -4.859375 C 35.320312 -4.378906 35.515625 -3.691406 35.515625 -2.796875 C 35.515625 -1.941406 35.222656 -1.257812 34.640625 -0.75 C 34.066406 -0.25 33.179688 0 31.984375 0 L 7.1875 0 C 5.976562 0 5.085938 -0.25 4.515625 -0.75 C 3.941406 -1.257812 3.65625 -1.941406 3.65625 -2.796875 C 3.65625 -3.503906 3.816406 -4.117188 4.140625 -4.640625 C 4.472656 -5.160156 5.019531 -5.554688 5.78125 -5.828125 L 7.34375 -6.40625 C 8.738281 -6.945312 9.4375 -7.847656 9.4375 -9.109375 L 9.4375 -48.359375 C 9.4375 -49.648438 8.738281 -50.554688 7.34375 -51.078125 L 5.78125 -51.640625 C 5.019531 -51.941406 4.472656 -52.347656 4.140625 -52.859375 C 3.816406 -53.367188 3.65625 -53.976562 3.65625 -54.6875 C 3.65625 -55.5625 3.941406 -56.242188 4.515625 -56.734375 C 5.085938 -57.234375 5.976562 -57.484375 7.1875 -57.484375 L 30.046875 -57.484375 C 34.972656 -57.484375 39.335938 -56.953125 43.140625 -55.890625 C 46.953125 -54.835938 50.171875 -53.347656 52.796875 -51.421875 C 55.421875 -49.492188 57.40625 -47.210938 58.75 -44.578125 C 60.09375 -41.953125 60.765625 -39.066406 60.765625 -35.921875 Z M 28.484375 -51.640625 L 28.484375 -24.390625 C 28.929688 -24.328125 29.382812 -24.273438 29.84375 -24.234375 C 30.3125 -24.203125 30.804688 -24.1875 31.328125 -24.1875 C 33.347656 -24.1875 35.191406 -24.628906 36.859375 -25.515625 C 38.535156 -26.398438 39.875 -27.753906 40.875 -29.578125 C 41.875 -31.398438 42.375 -33.679688 42.375 -36.421875 C 42.375 -39.566406 41.8125 -42.273438 40.6875 -44.546875 C 39.5625 -46.816406 38.035156 -48.566406 36.109375 -49.796875 C 34.179688 -51.023438 31.972656 -51.640625 29.484375 -51.640625 Z M 28.484375 -51.640625 "/></g></g></g><g fill="#000000" fill-opacity="1"><g transform="translate(516.458372, 76.09182)"><g><path d="M 28.484375 -9.109375 C 28.484375 -7.847656 29.179688 -6.945312 30.578125 -6.40625 L 32.140625 -5.828125 C 32.910156 -5.554688 33.457031 -5.160156 33.78125 -4.640625 C 34.113281 -4.117188 34.28125 -3.503906 34.28125 -2.796875 C 34.28125 -1.941406 33.992188 -1.257812 33.421875 -0.75 C 32.847656 -0.25 31.957031 0 30.75 0 L 7.1875 0 C 5.976562 0 5.085938 -0.25 4.515625 -0.75 C 3.941406 -1.257812 3.65625 -1.941406 3.65625 -2.796875 C 3.65625 -3.503906 3.816406 -4.117188 4.140625 -4.640625 C 4.472656 -5.160156 5.019531 -5.554688 5.78125 -5.828125 L 7.34375 -6.40625 C 8.738281 -6.945312 9.4375 -7.847656 9.4375 -9.109375 L 9.4375 -48.359375 C 9.4375 -49.648438 8.738281 -50.554688 7.34375 -51.078125 L 5.78125 -51.640625 C 5.019531 -51.941406 4.472656 -52.347656 4.140625 -52.859375 C 3.816406 -53.367188 3.65625 -53.976562 3.65625 -54.6875 C 3.65625 -55.5625 3.941406 -56.242188 4.515625 -56.734375 C 5.085938 -57.234375 5.976562 -57.484375 7.1875 -57.484375 L 30.75 -57.484375 C 31.957031 -57.484375 32.847656 -57.234375 33.421875 -56.734375 C 33.992188 -56.242188 34.28125 -55.5625 34.28125 -54.6875 C 34.28125 -53.976562 34.113281 -53.367188 33.78125 -52.859375 C 33.457031 -52.347656 32.910156 -51.941406 32.140625 -51.640625 L 30.578125 -51.078125 C 29.179688 -50.554688 28.484375 -49.648438 28.484375 -48.359375 L 28.484375 -30.25 L 45.609375 -30.25 L 45.609375 -48.359375 C 45.609375 -49.648438 44.910156 -50.554688 43.515625 -51.078125 L 41.953125 -51.640625 C 41.191406 -51.941406 40.644531 -52.347656 40.3125 -52.859375 C 39.988281 -53.367188 39.828125 -53.976562 39.828125 -54.6875 C 39.828125 -55.5625 40.113281 -56.242188 40.6875 -56.734375 C 41.257812 -57.234375 42.148438 -57.484375 43.359375 -57.484375 L 66.921875 -57.484375 C 68.117188 -57.484375 69.003906 -57.234375 69.578125 -56.734375 C 70.160156 -56.242188 70.453125 -55.5625 70.453125 -54.6875 C 70.453125 -53.976562 70.285156 -53.367188 69.953125 -52.859375 C 69.628906 -52.347656 69.082031 -51.941406 68.3125 -51.640625 L 66.75 -51.078125 C 65.351562 -50.554688 64.65625 -49.648438 64.65625 -48.359375 L 64.65625 -9.109375 C 64.65625 -7.847656 65.351562 -6.945312 66.75 -6.40625 L 68.3125 -5.828125 C 69.082031 -5.554688 69.628906 -5.160156 69.953125 -4.640625 C 70.285156 -4.117188 70.453125 -3.503906 70.453125 -2.796875 C 70.453125 -1.941406 70.160156 -1.257812 69.578125 -0.75 C 69.003906 -0.25 68.117188 0 66.921875 0 L 43.359375 0 C 42.148438 0 41.257812 -0.25 40.6875 -0.75 C 40.113281 -1.257812 39.828125 -1.941406 39.828125 -2.796875 C 39.828125 -3.503906 39.988281 -4.117188 40.3125 -4.640625 C 40.644531 -5.160156 41.191406 -5.554688 41.953125 -5.828125 L 43.515625 -6.40625 C 44.910156 -6.945312 45.609375 -7.847656 45.609375 -9.109375 L 45.609375 -24.140625 L 28.484375 -24.140625 Z M 28.484375 -9.109375 "/></g></g></g><g fill="#000000" fill-opacity="1"><g transform="translate(590.566258, 76.09182)"><g><path d="M 3.65625 -54.6875 C 3.65625 -55.5625 3.941406 -56.242188 4.515625 -56.734375 C 5.085938 -57.234375 5.976562 -57.484375 7.1875 -57.484375 L 38.140625 -57.484375 C 39.398438 -57.484375 40.4375 -57.601562 41.25 -57.84375 C 42.070312 -58.09375 42.847656 -58.335938 43.578125 -58.578125 C 44.304688 -58.828125 45.148438 -58.953125 46.109375 -58.953125 C 47.335938 -58.953125 48.265625 -58.601562 48.890625 -57.90625 C 49.523438 -57.207031 50.070312 -56.078125 50.53125 -54.515625 L 54.03125 -42.984375 C 54.601562 -41.015625 54.023438 -39.710938 52.296875 -39.078125 C 51.316406 -38.722656 50.4375 -38.722656 49.65625 -39.078125 C 48.875 -39.441406 48.238281 -40.085938 47.75 -41.015625 C 46.570312 -43.171875 45.460938 -44.941406 44.421875 -46.328125 C 43.378906 -47.710938 42.332031 -48.785156 41.28125 -49.546875 C 40.226562 -50.316406 39.117188 -50.851562 37.953125 -51.15625 C 36.785156 -51.457031 35.476562 -51.609375 34.03125 -51.609375 L 28.484375 -51.609375 L 28.484375 -32.0625 L 32.0625 -32.0625 C 33.207031 -32.0625 34.113281 -32.195312 34.78125 -32.46875 C 35.457031 -32.75 36.007812 -33.242188 36.4375 -33.953125 C 36.863281 -34.660156 37.265625 -35.660156 37.640625 -36.953125 C 37.921875 -37.878906 38.320312 -38.546875 38.84375 -38.953125 C 39.363281 -39.367188 39.960938 -39.578125 40.640625 -39.578125 C 41.359375 -39.578125 41.945312 -39.363281 42.40625 -38.9375 C 42.875 -38.507812 43.203125 -37.914062 43.390625 -37.15625 L 46.59375 -24.21875 C 47.0625 -22.28125 46.53125 -21.050781 45 -20.53125 C 44.226562 -20.25 43.503906 -20.203125 42.828125 -20.390625 C 42.160156 -20.585938 41.597656 -21.03125 41.140625 -21.71875 C 40.265625 -22.976562 39.460938 -23.9375 38.734375 -24.59375 C 38.003906 -25.25 37.195312 -25.695312 36.3125 -25.9375 C 35.425781 -26.1875 34.269531 -26.3125 32.84375 -26.3125 L 28.484375 -26.3125 L 28.484375 -10.875 C 28.484375 -9.207031 28.898438 -7.957031 29.734375 -7.125 C 30.578125 -6.289062 31.78125 -5.875 33.34375 -5.875 L 35.265625 -5.875 C 36.796875 -5.875 38.191406 -6.039062 39.453125 -6.375 C 40.710938 -6.71875 41.894531 -7.328125 43 -8.203125 C 44.113281 -9.085938 45.21875 -10.328125 46.3125 -11.921875 C 47.40625 -13.523438 48.539062 -15.585938 49.71875 -18.109375 C 50.125 -18.984375 50.675781 -19.578125 51.375 -19.890625 C 52.070312 -20.203125 52.859375 -20.273438 53.734375 -20.109375 C 54.691406 -19.921875 55.390625 -19.476562 55.828125 -18.78125 C 56.265625 -18.082031 56.335938 -17.210938 56.046875 -16.171875 L 52.21875 -2.953125 C 51.78125 -1.453125 51.238281 -0.335938 50.59375 0.390625 C 49.957031 1.117188 48.96875 1.484375 47.625 1.484375 C 46.769531 1.484375 45.992188 1.359375 45.296875 1.109375 C 44.597656 0.859375 43.832031 0.609375 43 0.359375 C 42.164062 0.117188 41.117188 0 39.859375 0 L 7.1875 0 C 5.976562 0 5.085938 -0.25 4.515625 -0.75 C 3.941406 -1.257812 3.65625 -1.941406 3.65625 -2.796875 C 3.65625 -3.503906 3.816406 -4.117188 4.140625 -4.640625 C 4.472656 -5.160156 5.019531 -5.554688 5.78125 -5.828125 L 7.34375 -6.40625 C 8.738281 -6.945312 9.4375 -7.847656 9.4375 -9.109375 L 9.4375 -48.359375 C 9.4375 -49.648438 8.738281 -50.554688 7.34375 -51.078125 L 5.78125 -51.640625 C 5.019531 -51.941406 4.472656 -52.347656 4.140625 -52.859375 C 3.816406 -53.367188 3.65625 -53.976562 3.65625 -54.6875 Z M 3.65625 -54.6875 "/></g></g></g><g fill="#000000" fill-opacity="1"><g transform="translate(647.389161, 76.09182)"><g><path d="M 62.234375 -37.3125 C 62.234375 -34.363281 61.410156 -31.691406 59.765625 -29.296875 C 58.128906 -26.898438 55.804688 -25.046875 52.796875 -23.734375 L 61.546875 -8.75 C 62.035156 -7.894531 62.476562 -7.253906 62.875 -6.828125 C 63.269531 -6.410156 63.785156 -6.050781 64.421875 -5.75 C 65.097656 -5.414062 65.59375 -5.015625 65.90625 -4.546875 C 66.226562 -4.085938 66.390625 -3.503906 66.390625 -2.796875 C 66.390625 -1.941406 66.097656 -1.257812 65.515625 -0.75 C 64.941406 -0.25 64.054688 0 62.859375 0 L 42.484375 0 C 40.242188 0 39.125 -0.929688 39.125 -2.796875 C 39.125 -3.640625 39.519531 -4.347656 40.3125 -4.921875 L 40.8125 -5.296875 C 41.300781 -5.679688 41.578125 -6.050781 41.640625 -6.40625 C 41.710938 -6.757812 41.570312 -7.28125 41.21875 -7.96875 L 35.140625 -20.03125 C 32.597656 -20.113281 30.378906 -20.441406 28.484375 -21.015625 L 28.484375 -9.109375 C 28.484375 -8.429688 28.613281 -7.882812 28.875 -7.46875 C 29.132812 -7.0625 29.566406 -6.707031 30.171875 -6.40625 L 31.328125 -5.828125 C 32.171875 -5.421875 32.734375 -4.988281 33.015625 -4.53125 C 33.304688 -4.082031 33.453125 -3.503906 33.453125 -2.796875 C 33.453125 -1.941406 33.164062 -1.257812 32.59375 -0.75 C 32.019531 -0.25 31.128906 0 29.921875 0 L 7.1875 0 C 5.976562 0 5.085938 -0.25 4.515625 -0.75 C 3.941406 -1.257812 3.65625 -1.941406 3.65625 -2.796875 C 3.65625 -3.503906 3.816406 -4.117188 4.140625 -4.640625 C 4.472656 -5.160156 5.019531 -5.554688 5.78125 -5.828125 L 7.34375 -6.40625 C 8.738281 -6.945312 9.4375 -7.847656 9.4375 -9.109375 L 9.4375 -48.359375 C 9.4375 -49.648438 8.738281 -50.554688 7.34375 -51.078125 L 5.78125 -51.640625 C 5.019531 -51.941406 4.472656 -52.347656 4.140625 -52.859375 C 3.816406 -53.367188 3.65625 -53.976562 3.65625 -54.6875 C 3.65625 -55.5625 3.941406 -56.242188 4.515625 -56.734375 C 5.085938 -57.234375 5.976562 -57.484375 7.1875 -57.484375 L 30.875 -57.484375 C 37.632812 -57.484375 43.347656 -56.632812 48.015625 -54.9375 C 52.679688 -53.238281 56.21875 -50.875 58.625 -47.84375 C 61.03125 -44.820312 62.234375 -41.3125 62.234375 -37.3125 Z M 28.484375 -52.140625 L 28.484375 -26.15625 C 29.640625 -25.90625 30.96875 -25.78125 32.46875 -25.78125 C 35.726562 -25.78125 38.257812 -26.679688 40.0625 -28.484375 C 41.875 -30.296875 42.78125 -33.101562 42.78125 -36.90625 C 42.78125 -39.125 42.460938 -41.15625 41.828125 -43 C 41.203125 -44.851562 40.320312 -46.460938 39.1875 -47.828125 C 38.050781 -49.191406 36.707031 -50.25 35.15625 -51 C 33.613281 -51.757812 31.925781 -52.140625 30.09375 -52.140625 Z M 28.484375 -52.140625 "/></g></g></g></g></g><g transform="matrix(1, 0, 0, 1, 193, 215)"><g clip-path="url(#6077d1efc1)"><g fill="#000000" fill-opacity="1"><g transform="translate(0.541212, 36.494005)"><g><path d="M 11.484375 0 L 2.90625 0 L 2.90625 -26.484375 L 11.75 -26.484375 C 14.34375 -26.484375 16.570312 -25.953125 18.4375 -24.890625 C 20.300781 -23.835938 21.726562 -22.328125 22.71875 -20.359375 C 23.71875 -18.390625 24.21875 -16.03125 24.21875 -13.28125 C 24.21875 -10.519531 23.710938 -8.144531 22.703125 -6.15625 C 21.703125 -4.175781 20.253906 -2.65625 18.359375 -1.59375 C 16.460938 -0.53125 14.171875 0 11.484375 0 Z M 6.90625 -3.484375 L 11.265625 -3.484375 C 13.273438 -3.484375 14.945312 -3.863281 16.28125 -4.625 C 17.625 -5.394531 18.625 -6.503906 19.28125 -7.953125 C 19.945312 -9.410156 20.28125 -11.1875 20.28125 -13.28125 C 20.28125 -15.351562 19.953125 -17.113281 19.296875 -18.5625 C 18.640625 -20.007812 17.660156 -21.109375 16.359375 -21.859375 C 15.054688 -22.609375 13.4375 -22.984375 11.5 -22.984375 L 6.90625 -22.984375 Z M 6.90625 -3.484375 "/></g></g></g><g fill="#000000" fill-opacity="1"><g transform="translate(26.227183, 36.494005)"><g><path d="M 6.90625 -26.484375 L 6.90625 0 L 2.90625 0 L 2.90625 -26.484375 Z M 6.90625 -26.484375 "/></g></g></g><g fill="#000000" fill-opacity="1"><g transform="translate(35.456591, 36.494005)"><g><path d="M 17.34375 -19.515625 C 17.207031 -20.742188 16.640625 -21.695312 15.640625 -22.375 C 14.640625 -23.050781 13.382812 -23.390625 11.875 -23.390625 C 10.78125 -23.390625 9.835938 -23.21875 9.046875 -22.875 C 8.253906 -22.53125 7.640625 -22.0625 7.203125 -21.46875 C 6.765625 -20.882812 6.546875 -20.21875 6.546875 -19.46875 C 6.546875 -18.84375 6.695312 -18.300781 7 -17.84375 C 7.300781 -17.382812 7.691406 -17 8.171875 -16.6875 C 8.660156 -16.382812 9.1875 -16.128906 9.75 -15.921875 C 10.3125 -15.722656 10.847656 -15.5625 11.359375 -15.4375 L 13.953125 -14.765625 C 14.796875 -14.554688 15.660156 -14.273438 16.546875 -13.921875 C 17.429688 -13.566406 18.253906 -13.097656 19.015625 -12.515625 C 19.773438 -11.941406 20.390625 -11.226562 20.859375 -10.375 C 21.328125 -9.519531 21.5625 -8.5 21.5625 -7.3125 C 21.5625 -5.8125 21.175781 -4.476562 20.40625 -3.3125 C 19.632812 -2.15625 18.519531 -1.238281 17.0625 -0.5625 C 15.601562 0.101562 13.835938 0.4375 11.765625 0.4375 C 9.785156 0.4375 8.070312 0.125 6.625 -0.5 C 5.175781 -1.132812 4.039062 -2.03125 3.21875 -3.1875 C 2.394531 -4.34375 1.941406 -5.71875 1.859375 -7.3125 L 5.875 -7.3125 C 5.945312 -6.351562 6.253906 -5.554688 6.796875 -4.921875 C 7.347656 -4.296875 8.050781 -3.828125 8.90625 -3.515625 C 9.769531 -3.210938 10.710938 -3.0625 11.734375 -3.0625 C 12.867188 -3.0625 13.875 -3.238281 14.75 -3.59375 C 15.632812 -3.957031 16.332031 -4.457031 16.84375 -5.09375 C 17.351562 -5.738281 17.609375 -6.492188 17.609375 -7.359375 C 17.609375 -8.140625 17.382812 -8.78125 16.9375 -9.28125 C 16.5 -9.78125 15.898438 -10.191406 15.140625 -10.515625 C 14.390625 -10.847656 13.539062 -11.140625 12.59375 -11.390625 L 9.46875 -12.25 C 7.34375 -12.820312 5.660156 -13.664062 4.421875 -14.78125 C 3.191406 -15.90625 2.578125 -17.390625 2.578125 -19.234375 C 2.578125 -20.765625 2.988281 -22.097656 3.8125 -23.234375 C 4.644531 -24.367188 5.765625 -25.253906 7.171875 -25.890625 C 8.585938 -26.523438 10.179688 -26.84375 11.953125 -26.84375 C 13.742188 -26.84375 15.328125 -26.523438 16.703125 -25.890625 C 18.078125 -25.265625 19.160156 -24.398438 19.953125 -23.296875 C 20.753906 -22.203125 21.171875 -20.941406 21.203125 -19.515625 Z M 17.34375 -19.515625 "/></g></g></g><g fill="#000000" fill-opacity="1"><g transform="translate(58.298539, 36.494005)"><g><path d="M 24.90625 -17.859375 L 20.859375 -17.859375 C 20.710938 -18.722656 20.425781 -19.484375 20 -20.140625 C 19.570312 -20.796875 19.050781 -21.351562 18.4375 -21.8125 C 17.832031 -22.269531 17.148438 -22.613281 16.390625 -22.84375 C 15.640625 -23.070312 14.84375 -23.1875 14 -23.1875 C 12.476562 -23.1875 11.113281 -22.800781 9.90625 -22.03125 C 8.707031 -21.269531 7.757812 -20.144531 7.0625 -18.65625 C 6.375 -17.175781 6.03125 -15.367188 6.03125 -13.234375 C 6.03125 -11.078125 6.375 -9.257812 7.0625 -7.78125 C 7.757812 -6.300781 8.707031 -5.179688 9.90625 -4.421875 C 11.113281 -3.660156 12.472656 -3.28125 13.984375 -3.28125 C 14.828125 -3.28125 15.625 -3.394531 16.375 -3.625 C 17.125 -3.851562 17.804688 -4.191406 18.421875 -4.640625 C 19.035156 -5.085938 19.554688 -5.632812 19.984375 -6.28125 C 20.410156 -6.9375 20.703125 -7.6875 20.859375 -8.53125 L 24.90625 -8.515625 C 24.6875 -7.210938 24.269531 -6.015625 23.65625 -4.921875 C 23.039062 -3.835938 22.25 -2.898438 21.28125 -2.109375 C 20.320312 -1.328125 19.222656 -0.71875 17.984375 -0.28125 C 16.753906 0.144531 15.414062 0.359375 13.96875 0.359375 C 11.675781 0.359375 9.628906 -0.179688 7.828125 -1.265625 C 6.035156 -2.359375 4.625 -3.921875 3.59375 -5.953125 C 2.570312 -7.992188 2.0625 -10.421875 2.0625 -13.234375 C 2.0625 -16.066406 2.578125 -18.492188 3.609375 -20.515625 C 4.640625 -22.546875 6.050781 -24.109375 7.84375 -25.203125 C 9.632812 -26.296875 11.675781 -26.84375 13.96875 -26.84375 C 15.363281 -26.84375 16.671875 -26.640625 17.890625 -26.234375 C 19.117188 -25.835938 20.21875 -25.253906 21.1875 -24.484375 C 22.164062 -23.710938 22.972656 -22.769531 23.609375 -21.65625 C 24.242188 -20.550781 24.675781 -19.285156 24.90625 -17.859375 Z M 24.90625 -17.859375 "/></g></g></g><g fill="#000000" fill-opacity="1"><g transform="translate(84.488675, 36.494005)"><g><path d="M 25.90625 -13.234375 C 25.90625 -10.410156 25.390625 -7.984375 24.359375 -5.953125 C 23.328125 -3.921875 21.910156 -2.359375 20.109375 -1.265625 C 18.316406 -0.179688 16.273438 0.359375 13.984375 0.359375 C 11.691406 0.359375 9.644531 -0.179688 7.84375 -1.265625 C 6.050781 -2.359375 4.640625 -3.921875 3.609375 -5.953125 C 2.578125 -7.992188 2.0625 -10.421875 2.0625 -13.234375 C 2.0625 -16.066406 2.578125 -18.492188 3.609375 -20.515625 C 4.640625 -22.546875 6.050781 -24.109375 7.84375 -25.203125 C 9.644531 -26.296875 11.691406 -26.84375 13.984375 -26.84375 C 16.273438 -26.84375 18.316406 -26.296875 20.109375 -25.203125 C 21.910156 -24.109375 23.328125 -22.546875 24.359375 -20.515625 C 25.390625 -18.492188 25.90625 -16.066406 25.90625 -13.234375 Z M 21.953125 -13.234375 C 21.953125 -15.390625 21.601562 -17.207031 20.90625 -18.6875 C 20.21875 -20.164062 19.269531 -21.285156 18.0625 -22.046875 C 16.863281 -22.804688 15.503906 -23.1875 13.984375 -23.1875 C 12.460938 -23.1875 11.101562 -22.804688 9.90625 -22.046875 C 8.707031 -21.285156 7.757812 -20.164062 7.0625 -18.6875 C 6.375 -17.207031 6.03125 -15.390625 6.03125 -13.234375 C 6.03125 -11.078125 6.375 -9.257812 7.0625 -7.78125 C 7.757812 -6.3125 8.707031 -5.191406 9.90625 -4.421875 C 11.101562 -3.660156 12.460938 -3.28125 13.984375 -3.28125 C 15.503906 -3.28125 16.863281 -3.660156 18.0625 -4.421875 C 19.269531 -5.191406 20.21875 -6.3125 20.90625 -7.78125 C 21.601562 -9.257812 21.953125 -11.078125 21.953125 -13.234375 Z M 21.953125 -13.234375 "/></g></g></g><g fill="#000000" fill-opacity="1"><g transform="translate(110.549507, 36.494005)"><g><path d="M 5.21875 -26.484375 L 12.59375 -4.90625 L 12.890625 -4.90625 L 20.265625 -26.484375 L 24.578125 -26.484375 L 15.046875 0 L 10.4375 0 L 0.90625 -26.484375 Z M 5.21875 -26.484375 "/></g></g></g><g fill="#000000" fill-opacity="1"><g transform="translate(135.446911, 36.494005)"><g><path d="M 2.90625 0 L 2.90625 -26.484375 L 19.515625 -26.484375 L 19.515625 -23.03125 L 6.90625 -23.03125 L 6.90625 -14.96875 L 18.640625 -14.96875 L 18.640625 -11.546875 L 6.90625 -11.546875 L 6.90625 -3.4375 L 19.65625 -3.4375 L 19.65625 0 Z M 2.90625 0 "/></g></g></g><g fill="#000000" fill-opacity="1"><g transform="translate(156.815132, 36.494005)"><g><path d="M 2.90625 0 L 2.90625 -26.484375 L 12.34375 -26.484375 C 14.394531 -26.484375 16.097656 -26.128906 17.453125 -25.421875 C 18.816406 -24.710938 19.832031 -23.734375 20.5 -22.484375 C 21.175781 -21.242188 21.515625 -19.804688 21.515625 -18.171875 C 21.515625 -16.554688 21.175781 -15.132812 20.5 -13.90625 C 19.820312 -12.675781 18.800781 -11.71875 17.4375 -11.03125 C 16.082031 -10.351562 14.378906 -10.015625 12.328125 -10.015625 L 5.1875 -10.015625 L 5.1875 -13.453125 L 11.96875 -13.453125 C 13.257812 -13.453125 14.3125 -13.632812 15.125 -14 C 15.945312 -14.375 16.546875 -14.914062 16.921875 -15.625 C 17.296875 -16.332031 17.484375 -17.179688 17.484375 -18.171875 C 17.484375 -19.171875 17.289062 -20.035156 16.90625 -20.765625 C 16.53125 -21.503906 15.929688 -22.066406 15.109375 -22.453125 C 14.296875 -22.847656 13.234375 -23.046875 11.921875 -23.046875 L 6.90625 -23.046875 L 6.90625 0 Z M 15.984375 -11.953125 L 22.515625 0 L 17.96875 0 L 11.5625 -11.953125 Z M 15.984375 -11.953125 "/></g></g></g><g fill="#000000" fill-opacity="1"><g transform="translate(179.708802, 36.494005)"><g/></g></g><g fill="#000000" fill-opacity="1"><g transform="translate(188.770149, 36.494005)"><g><path d="M 0.859375 -26.484375 L 5.40625 -26.484375 L 12.328125 -14.4375 L 12.609375 -14.4375 L 19.515625 -26.484375 L 24.0625 -26.484375 L 14.453125 -10.390625 L 14.453125 0 L 10.46875 0 L 10.46875 -10.390625 Z M 0.859375 -26.484375 "/></g></g></g><g fill="#000000" fill-opacity="1"><g transform="translate(211.741343, 36.494005)"><g><path d="M 25.90625 -13.234375 C 25.90625 -10.410156 25.390625 -7.984375 24.359375 -5.953125 C 23.328125 -3.921875 21.910156 -2.359375 20.109375 -1.265625 C 18.316406 -0.179688 16.273438 0.359375 13.984375 0.359375 C 11.691406 0.359375 9.644531 -0.179688 7.84375 -1.265625 C 6.050781 -2.359375 4.640625 -3.921875 3.609375 -5.953125 C 2.578125 -7.992188 2.0625 -10.421875 2.0625 -13.234375 C 2.0625 -16.066406 2.578125 -18.492188 3.609375 -20.515625 C 4.640625 -22.546875 6.050781 -24.109375 7.84375 -25.203125 C 9.644531 -26.296875 11.691406 -26.84375 13.984375 -26.84375 C 16.273438 -26.84375 18.316406 -26.296875 20.109375 -25.203125 C 21.910156 -24.109375 23.328125 -22.546875 24.359375 -20.515625 C 25.390625 -18.492188 25.90625 -16.066406 25.90625 -13.234375 Z M 21.953125 -13.234375 C 21.953125 -15.390625 21.601562 -17.207031 20.90625 -18.6875 C 20.21875 -20.164062 19.269531 -21.285156 18.0625 -22.046875 C 16.863281 -22.804688 15.503906 -23.1875 13.984375 -23.1875 C 12.460938 -23.1875 11.101562 -22.804688 9.90625 -22.046875 C 8.707031 -21.285156 7.757812 -20.164062 7.0625 -18.6875 C 6.375 -17.207031 6.03125 -15.390625 6.03125 -13.234375 C 6.03125 -11.078125 6.375 -9.257812 7.0625 -7.78125 C 7.757812 -6.3125 8.707031 -5.191406 9.90625 -4.421875 C 11.101562 -3.660156 12.460938 -3.28125 13.984375 -3.28125 C 15.503906 -3.28125 16.863281 -3.660156 18.0625 -4.421875 C 19.269531 -5.191406 20.21875 -6.3125 20.90625 -7.78125 C 21.601562 -9.257812 21.953125 -11.078125 21.953125 -13.234375 Z M 21.953125 -13.234375 "/></g></g></g><g fill="#000000" fill-opacity="1"><g transform="translate(239.120796, 36.494005)"><g><path d="M 19.9375 -26.484375 L 23.9375 -26.484375 L 23.9375 -9.0625 C 23.9375 -7.207031 23.5 -5.566406 22.625 -4.140625 C 21.757812 -2.710938 20.535156 -1.59375 18.953125 -0.78125 C 17.378906 0.03125 15.535156 0.4375 13.421875 0.4375 C 11.304688 0.4375 9.457031 0.03125 7.875 -0.78125 C 6.300781 -1.59375 5.078125 -2.710938 4.203125 -4.140625 C 3.335938 -5.566406 2.90625 -7.207031 2.90625 -9.0625 L 2.90625 -26.484375 L 6.90625 -26.484375 L 6.90625 -9.390625 C 6.90625 -8.191406 7.171875 -7.125 7.703125 -6.1875 C 8.234375 -5.257812 8.984375 -4.53125 9.953125 -4 C 10.929688 -3.46875 12.085938 -3.203125 13.421875 -3.203125 C 14.765625 -3.203125 15.925781 -3.46875 16.90625 -4 C 17.882812 -4.53125 18.632812 -5.257812 19.15625 -6.1875 C 19.675781 -7.125 19.9375 -8.191406 19.9375 -9.390625 Z M 19.9375 -26.484375 "/></g></g></g><g fill="#000000" fill-opacity="1"><g transform="translate(265.388495, 36.494005)"><g><path d="M 2.90625 0 L 2.90625 -26.484375 L 12.34375 -26.484375 C 14.394531 -26.484375 16.097656 -26.128906 17.453125 -25.421875 C 18.816406 -24.710938 19.832031 -23.734375 20.5 -22.484375 C 21.175781 -21.242188 21.515625 -19.804688 21.515625 -18.171875 C 21.515625 -16.554688 21.175781 -15.132812 20.5 -13.90625 C 19.820312 -12.675781 18.800781 -11.71875 17.4375 -11.03125 C 16.082031 -10.351562 14.378906 -10.015625 12.328125 -10.015625 L 5.1875 -10.015625 L 5.1875 -13.453125 L 11.96875 -13.453125 C 13.257812 -13.453125 14.3125 -13.632812 15.125 -14 C 15.945312 -14.375 16.546875 -14.914062 16.921875 -15.625 C 17.296875 -16.332031 17.484375 -17.179688 17.484375 -18.171875 C 17.484375 -19.171875 17.289062 -20.035156 16.90625 -20.765625 C 16.53125 -21.503906 15.929688 -22.066406 15.109375 -22.453125 C 14.296875 -22.847656 13.234375 -23.046875 11.921875 -23.046875 L 6.90625 -23.046875 L 6.90625 0 Z M 15.984375 -11.953125 L 22.515625 0 L 17.96875 0 L 11.5625 -11.953125 Z M 15.984375 -11.953125 "/></g></g></g><g fill="#000000" fill-opacity="1"><g transform="translate(288.282156, 36.494005)"><g/></g></g><g fill="#000000" fill-opacity="1"><g transform="translate(297.343522, 36.494005)"><g><path d="M 2.90625 0 L 2.90625 -26.484375 L 12.609375 -26.484375 C 14.484375 -26.484375 16.035156 -26.171875 17.265625 -25.546875 C 18.503906 -24.929688 19.425781 -24.097656 20.03125 -23.046875 C 20.644531 -22.003906 20.953125 -20.828125 20.953125 -19.515625 C 20.953125 -18.410156 20.75 -17.484375 20.34375 -16.734375 C 19.9375 -15.984375 19.394531 -15.378906 18.71875 -14.921875 C 18.050781 -14.472656 17.3125 -14.144531 16.5 -13.9375 L 16.5 -13.671875 C 17.375 -13.628906 18.234375 -13.347656 19.078125 -12.828125 C 19.921875 -12.304688 20.613281 -11.566406 21.15625 -10.609375 C 21.707031 -9.648438 21.984375 -8.488281 21.984375 -7.125 C 21.984375 -5.769531 21.664062 -4.554688 21.03125 -3.484375 C 20.40625 -2.410156 19.429688 -1.5625 18.109375 -0.9375 C 16.796875 -0.3125 15.113281 0 13.0625 0 Z M 6.90625 -3.421875 L 12.671875 -3.421875 C 14.585938 -3.421875 15.957031 -3.789062 16.78125 -4.53125 C 17.601562 -5.28125 18.015625 -6.207031 18.015625 -7.3125 C 18.015625 -8.15625 17.800781 -8.925781 17.375 -9.625 C 16.957031 -10.320312 16.359375 -10.875 15.578125 -11.28125 C 14.804688 -11.695312 13.882812 -11.90625 12.8125 -11.90625 L 6.90625 -11.90625 Z M 6.90625 -15.015625 L 12.25 -15.015625 C 13.144531 -15.015625 13.953125 -15.1875 14.671875 -15.53125 C 15.398438 -15.882812 15.976562 -16.375 16.40625 -17 C 16.832031 -17.625 17.046875 -18.363281 17.046875 -19.21875 C 17.046875 -20.3125 16.660156 -21.226562 15.890625 -21.96875 C 15.117188 -22.707031 13.941406 -23.078125 12.359375 -23.078125 L 6.90625 -23.078125 Z M 6.90625 -15.015625 "/></g></g></g><g fill="#000000" fill-opacity="1"><g transform="translate(320.573266, 36.494005)"><g><path d="M 2.90625 0 L 2.90625 -26.484375 L 19.515625 -26.484375 L 19.515625 -23.03125 L 6.90625 -23.03125 L 6.90625 -14.96875 L 18.640625 -14.96875 L 18.640625 -11.546875 L 6.90625 -11.546875 L 6.90625 -3.4375 L 19.65625 -3.4375 L 19.65625 0 Z M 2.90625 0 "/></g></g></g><g fill="#000000" fill-opacity="1"><g transform="translate(341.941497, 36.494005)"><g><path d="M 17.34375 -19.515625 C 17.207031 -20.742188 16.640625 -21.695312 15.640625 -22.375 C 14.640625 -23.050781 13.382812 -23.390625 11.875 -23.390625 C 10.78125 -23.390625 9.835938 -23.21875 9.046875 -22.875 C 8.253906 -22.53125 7.640625 -22.0625 7.203125 -21.46875 C 6.765625 -20.882812 6.546875 -20.21875 6.546875 -19.46875 C 6.546875 -18.84375 6.695312 -18.300781 7 -17.84375 C 7.300781 -17.382812 7.691406 -17 8.171875 -16.6875 C 8.660156 -16.382812 9.1875 -16.128906 9.75 -15.921875 C 10.3125 -15.722656 10.847656 -15.5625 11.359375 -15.4375 L 13.953125 -14.765625 C 14.796875 -14.554688 15.660156 -14.273438 16.546875 -13.921875 C 17.429688 -13.566406 18.253906 -13.097656 19.015625 -12.515625 C 19.773438 -11.941406 20.390625 -11.226562 20.859375 -10.375 C 21.328125 -9.519531 21.5625 -8.5 21.5625 -7.3125 C 21.5625 -5.8125 21.175781 -4.476562 20.40625 -3.3125 C 19.632812 -2.15625 18.519531 -1.238281 17.0625 -0.5625 C 15.601562 0.101562 13.835938 0.4375 11.765625 0.4375 C 9.785156 0.4375 8.070312 0.125 6.625 -0.5 C 5.175781 -1.132812 4.039062 -2.03125 3.21875 -3.1875 C 2.394531 -4.34375 1.941406 -5.71875 1.859375 -7.3125 L 5.875 -7.3125 C 5.945312 -6.351562 6.253906 -5.554688 6.796875 -4.921875 C 7.347656 -4.296875 8.050781 -3.828125 8.90625 -3.515625 C 9.769531 -3.210938 10.710938 -3.0625 11.734375 -3.0625 C 12.867188 -3.0625 13.875 -3.238281 14.75 -3.59375 C 15.632812 -3.957031 16.332031 -4.457031 16.84375 -5.09375 C 17.351562 -5.738281 17.609375 -6.492188 17.609375 -7.359375 C 17.609375 -8.140625 17.382812 -8.78125 16.9375 -9.28125 C 16.5 -9.78125 15.898438 -10.191406 15.140625 -10.515625 C 14.390625 -10.847656 13.539062 -11.140625 12.59375 -11.390625 L 9.46875 -12.25 C 7.34375 -12.820312 5.660156 -13.664062 4.421875 -14.78125 C 3.191406 -15.90625 2.578125 -17.390625 2.578125 -19.234375 C 2.578125 -20.765625 2.988281 -22.097656 3.8125 -23.234375 C 4.644531 -24.367188 5.765625 -25.253906 7.171875 -25.890625 C 8.585938 -26.523438 10.179688 -26.84375 11.953125 -26.84375 C 13.742188 -26.84375 15.328125 -26.523438 16.703125 -25.890625 C 18.078125 -25.265625 19.160156 -24.398438 19.953125 -23.296875 C 20.753906 -22.203125 21.171875 -20.941406 21.203125 -19.515625 Z M 17.34375 -19.515625 "/></g></g></g><g fill="#000000" fill-opacity="1"><g transform="translate(364.783436, 36.494005)"><g><path d="M 1.609375 -23.03125 L 1.609375 -26.484375 L 22.09375 -26.484375 L 22.09375 -23.03125 L 13.828125 -23.03125 L 13.828125 0 L 9.84375 0 L 9.84375 -23.03125 Z M 1.609375 -23.03125 "/></g></g></g><g fill="#000000" fill-opacity="1"><g transform="translate(387.89687, 36.494005)"><g/></g></g><g fill="#000000" fill-opacity="1"><g transform="translate(396.958216, 36.494005)"><g><path d="M 2.90625 0 L 2.90625 -26.484375 L 12.34375 -26.484375 C 14.40625 -26.484375 16.113281 -26.109375 17.46875 -25.359375 C 18.820312 -24.609375 19.832031 -23.582031 20.5 -22.28125 C 21.175781 -20.988281 21.515625 -19.53125 21.515625 -17.90625 C 21.515625 -16.28125 21.175781 -14.816406 20.5 -13.515625 C 19.820312 -12.222656 18.800781 -11.195312 17.4375 -10.4375 C 16.082031 -9.6875 14.378906 -9.3125 12.328125 -9.3125 L 5.84375 -9.3125 L 5.84375 -12.703125 L 11.96875 -12.703125 C 13.269531 -12.703125 14.328125 -12.925781 15.140625 -13.375 C 15.953125 -13.820312 16.546875 -14.4375 16.921875 -15.21875 C 17.296875 -16.007812 17.484375 -16.90625 17.484375 -17.90625 C 17.484375 -18.90625 17.296875 -19.789062 16.921875 -20.5625 C 16.546875 -21.34375 15.945312 -21.953125 15.125 -22.390625 C 14.3125 -22.828125 13.242188 -23.046875 11.921875 -23.046875 L 6.90625 -23.046875 L 6.90625 0 Z M 2.90625 0 "/></g></g></g><g fill="#000000" fill-opacity="1"><g transform="translate(419.645049, 36.494005)"><g><path d="M 2.90625 0 L 2.90625 -26.484375 L 6.90625 -26.484375 L 6.90625 -14.96875 L 20.109375 -14.96875 L 20.109375 -26.484375 L 24.109375 -26.484375 L 24.109375 0 L 20.109375 0 L 20.109375 -11.546875 L 6.90625 -11.546875 L 6.90625 0 Z M 2.90625 0 "/></g></g></g><g fill="#000000" fill-opacity="1"><g transform="translate(446.0808, 36.494005)"><g><path d="M 25.90625 -13.234375 C 25.90625 -10.410156 25.390625 -7.984375 24.359375 -5.953125 C 23.328125 -3.921875 21.910156 -2.359375 20.109375 -1.265625 C 18.316406 -0.179688 16.273438 0.359375 13.984375 0.359375 C 11.691406 0.359375 9.644531 -0.179688 7.84375 -1.265625 C 6.050781 -2.359375 4.640625 -3.921875 3.609375 -5.953125 C 2.578125 -7.992188 2.0625 -10.421875 2.0625 -13.234375 C 2.0625 -16.066406 2.578125 -18.492188 3.609375 -20.515625 C 4.640625 -22.546875 6.050781 -24.109375 7.84375 -25.203125 C 9.644531 -26.296875 11.691406 -26.84375 13.984375 -26.84375 C 16.273438 -26.84375 18.316406 -26.296875 20.109375 -25.203125 C 21.910156 -24.109375 23.328125 -22.546875 24.359375 -20.515625 C 25.390625 -18.492188 25.90625 -16.066406 25.90625 -13.234375 Z M 21.953125 -13.234375 C 21.953125 -15.390625 21.601562 -17.207031 20.90625 -18.6875 C 20.21875 -20.164062 19.269531 -21.285156 18.0625 -22.046875 C 16.863281 -22.804688 15.503906 -23.1875 13.984375 -23.1875 C 12.460938 -23.1875 11.101562 -22.804688 9.90625 -22.046875 C 8.707031 -21.285156 7.757812 -20.164062 7.0625 -18.6875 C 6.375 -17.207031 6.03125 -15.390625 6.03125 -13.234375 C 6.03125 -11.078125 6.375 -9.257812 7.0625 -7.78125 C 7.757812 -6.3125 8.707031 -5.191406 9.90625 -4.421875 C 11.101562 -3.660156 12.460938 -3.28125 13.984375 -3.28125 C 15.503906 -3.28125 16.863281 -3.660156 18.0625 -4.421875 C 19.269531 -5.191406 20.21875 -6.3125 20.90625 -7.78125 C 21.601562 -9.257812 21.953125 -11.078125 21.953125 -13.234375 Z M 21.953125 -13.234375 "/></g></g></g><g fill="#000000" fill-opacity="1"><g transform="translate(472.348499, 36.494005)"><g><path d="M 1.609375 -23.03125 L 1.609375 -26.484375 L 22.09375 -26.484375 L 22.09375 -23.03125 L 13.828125 -23.03125 L 13.828125 0 L 9.84375 0 L 9.84375 -23.03125 Z M 1.609375 -23.03125 "/></g></g></g><g fill="#000000" fill-opacity="1"><g transform="translate(494.35014, 36.494005)"><g><path d="M 25.90625 -13.234375 C 25.90625 -10.410156 25.390625 -7.984375 24.359375 -5.953125 C 23.328125 -3.921875 21.910156 -2.359375 20.109375 -1.265625 C 18.316406 -0.179688 16.273438 0.359375 13.984375 0.359375 C 11.691406 0.359375 9.644531 -0.179688 7.84375 -1.265625 C 6.050781 -2.359375 4.640625 -3.921875 3.609375 -5.953125 C 2.578125 -7.992188 2.0625 -10.421875 2.0625 -13.234375 C 2.0625 -16.066406 2.578125 -18.492188 3.609375 -20.515625 C 4.640625 -22.546875 6.050781 -24.109375 7.84375 -25.203125 C 9.644531 -26.296875 11.691406 -26.84375 13.984375 -26.84375 C 16.273438 -26.84375 18.316406 -26.296875 20.109375 -25.203125 C 21.910156 -24.109375 23.328125 -22.546875 24.359375 -20.515625 C 25.390625 -18.492188 25.90625 -16.066406 25.90625 -13.234375 Z M 21.953125 -13.234375 C 21.953125 -15.390625 21.601562 -17.207031 20.90625 -18.6875 C 20.21875 -20.164062 19.269531 -21.285156 18.0625 -22.046875 C 16.863281 -22.804688 15.503906 -23.1875 13.984375 -23.1875 C 12.460938 -23.1875 11.101562 -22.804688 9.90625 -22.046875 C 8.707031 -21.285156 7.757812 -20.164062 7.0625 -18.6875 C 6.375 -17.207031 6.03125 -15.390625 6.03125 -13.234375 C 6.03125 -11.078125 6.375 -9.257812 7.0625 -7.78125 C 7.757812 -6.3125 8.707031 -5.191406 9.90625 -4.421875 C 11.101562 -3.660156 12.460938 -3.28125 13.984375 -3.28125 C 15.503906 -3.28125 16.863281 -3.660156 18.0625 -4.421875 C 19.269531 -5.191406 20.21875 -6.3125 20.90625 -7.78125 C 21.601562 -9.257812 21.953125 -11.078125 21.953125 -13.234375 Z M 21.953125 -13.234375 "/></g></g></g><g fill="#000000" fill-opacity="1"><g transform="translate(521.729593, 36.494005)"><g><path d="M 17.34375 -19.515625 C 17.207031 -20.742188 16.640625 -21.695312 15.640625 -22.375 C 14.640625 -23.050781 13.382812 -23.390625 11.875 -23.390625 C 10.78125 -23.390625 9.835938 -23.21875 9.046875 -22.875 C 8.253906 -22.53125 7.640625 -22.0625 7.203125 -21.46875 C 6.765625 -20.882812 6.546875 -20.21875 6.546875 -19.46875 C 6.546875 -18.84375 6.695312 -18.300781 7 -17.84375 C 7.300781 -17.382812 7.691406 -17 8.171875 -16.6875 C 8.660156 -16.382812 9.1875 -16.128906 9.75 -15.921875 C 10.3125 -15.722656 10.847656 -15.5625 11.359375 -15.4375 L 13.953125 -14.765625 C 14.796875 -14.554688 15.660156 -14.273438 16.546875 -13.921875 C 17.429688 -13.566406 18.253906 -13.097656 19.015625 -12.515625 C 19.773438 -11.941406 20.390625 -11.226562 20.859375 -10.375 C 21.328125 -9.519531 21.5625 -8.5 21.5625 -7.3125 C 21.5625 -5.8125 21.175781 -4.476562 20.40625 -3.3125 C 19.632812 -2.15625 18.519531 -1.238281 17.0625 -0.5625 C 15.601562 0.101562 13.835938 0.4375 11.765625 0.4375 C 9.785156 0.4375 8.070312 0.125 6.625 -0.5 C 5.175781 -1.132812 4.039062 -2.03125 3.21875 -3.1875 C 2.394531 -4.34375 1.941406 -5.71875 1.859375 -7.3125 L 5.875 -7.3125 C 5.945312 -6.351562 6.253906 -5.554688 6.796875 -4.921875 C 7.347656 -4.296875 8.050781 -3.828125 8.90625 -3.515625 C 9.769531 -3.210938 10.710938 -3.0625 11.734375 -3.0625 C 12.867188 -3.0625 13.875 -3.238281 14.75 -3.59375 C 15.632812 -3.957031 16.332031 -4.457031 16.84375 -5.09375 C 17.351562 -5.738281 17.609375 -6.492188 17.609375 -7.359375 C 17.609375 -8.140625 17.382812 -8.78125 16.9375 -9.28125 C 16.5 -9.78125 15.898438 -10.191406 15.140625 -10.515625 C 14.390625 -10.847656 13.539062 -11.140625 12.59375 -11.390625 L 9.46875 -12.25 C 7.34375 -12.820312 5.660156 -13.664062 4.421875 -14.78125 C 3.191406 -15.90625 2.578125 -17.390625 2.578125 -19.234375 C 2.578125 -20.765625 2.988281 -22.097656 3.8125 -23.234375 C 4.644531 -24.367188 5.765625 -25.253906 7.171875 -25.890625 C 8.585938 -26.523438 10.179688 -26.84375 11.953125 -26.84375 C 13.742188 -26.84375 15.328125 -26.523438 16.703125 -25.890625 C 18.078125 -25.265625 19.160156 -24.398438 19.953125 -23.296875 C 20.753906 -22.203125 21.171875 -20.941406 21.203125 -19.515625 Z M 17.34375 -19.515625 "/></g></g></g></g></g></svg>