<svg xmlns="http://www.w3.org/2000/svg" xmlns:xlink="http://www.w3.org/1999/xlink" width="1016" zoomAndPan="magnify" viewBox="0 0 762 398.999991" height="532" preserveAspectRatio="xMidYMid meet" version="1.0"><defs><g/><radialGradient gradientTransform="matrix(1, 0, 0, 1, 0.00000859398, 0)" gradientUnits="userSpaceOnUse" r="860.142776" cx="0" id="c246b09b0c" cy="0" fx="0" fy="0"><stop stop-opacity="1" stop-color="rgb(94.386292%, 43.945312%, 2.606201%)" offset="0"/><stop stop-opacity="1" stop-color="rgb(94.140625%, 43.217468%, 3.118896%)" offset="0.00390625"/><stop stop-opacity="1" stop-color="rgb(93.896484%, 42.489624%, 3.631592%)" offset="0.0078125"/><stop stop-opacity="1" stop-color="rgb(93.650818%, 41.76178%, 4.145813%)" offset="0.0117188"/><stop stop-opacity="1" stop-color="rgb(93.405151%, 41.035461%, 4.658508%)" offset="0.015625"/><stop stop-opacity="1" stop-color="rgb(93.161011%, 40.307617%, 5.172729%)" offset="0.0195312"/><stop stop-opacity="1" stop-color="rgb(92.915344%, 39.579773%, 5.685425%)" offset="0.0234375"/><stop stop-opacity="1" stop-color="rgb(92.669678%, 38.851929%, 6.19812%)" offset="0.0273438"/><stop stop-opacity="1" stop-color="rgb(92.425537%, 38.124084%, 6.712341%)" offset="0.03125"/><stop stop-opacity="1" stop-color="rgb(92.179871%, 37.397766%, 7.225037%)" offset="0.0351562"/><stop stop-opacity="1" stop-color="rgb(91.93573%, 36.669922%, 7.737732%)" offset="0.0390625"/><stop stop-opacity="1" stop-color="rgb(91.690063%, 35.942078%, 8.251953%)" offset="0.0429688"/><stop stop-opacity="1" stop-color="rgb(91.444397%, 35.214233%, 8.764648%)" offset="0.046875"/><stop stop-opacity="1" stop-color="rgb(91.200256%, 34.486389%, 9.27887%)" offset="0.0507812"/><stop stop-opacity="1" stop-color="rgb(90.95459%, 33.760071%, 9.791565%)" offset="0.0546875"/><stop stop-opacity="1" stop-color="rgb(90.708923%, 33.032227%, 10.30426%)" offset="0.0585938"/><stop stop-opacity="1" stop-color="rgb(90.464783%, 32.304382%, 10.818481%)" offset="0.0625"/><stop stop-opacity="1" stop-color="rgb(90.219116%, 31.576538%, 11.331177%)" offset="0.0664062"/><stop stop-opacity="1" stop-color="rgb(89.97345%, 30.848694%, 11.845398%)" offset="0.0703125"/><stop stop-opacity="1" stop-color="rgb(89.729309%, 30.122375%, 12.358093%)" offset="0.0742188"/><stop stop-opacity="1" stop-color="rgb(89.483643%, 29.394531%, 12.870789%)" offset="0.078125"/><stop stop-opacity="1" stop-color="rgb(89.237976%, 28.666687%, 13.38501%)" offset="0.0820312"/><stop stop-opacity="1" stop-color="rgb(88.993835%, 27.938843%, 13.897705%)" offset="0.0859375"/><stop stop-opacity="1" stop-color="rgb(88.748169%, 27.210999%, 14.4104%)" offset="0.0898438"/><stop stop-opacity="1" stop-color="rgb(88.504028%, 26.48468%, 14.924622%)" offset="0.09375"/><stop stop-opacity="1" stop-color="rgb(88.258362%, 25.756836%, 15.437317%)" offset="0.0976562"/><stop stop-opacity="1" stop-color="rgb(88.012695%, 25.028992%, 15.951538%)" offset="0.101562"/><stop stop-opacity="1" stop-color="rgb(87.768555%, 24.301147%, 16.464233%)" offset="0.105469"/><stop stop-opacity="1" stop-color="rgb(87.522888%, 23.573303%, 16.976929%)" offset="0.109375"/><stop stop-opacity="1" stop-color="rgb(87.277222%, 22.846985%, 17.49115%)" offset="0.113281"/><stop stop-opacity="1" stop-color="rgb(87.033081%, 22.119141%, 18.003845%)" offset="0.117188"/><stop stop-opacity="1" stop-color="rgb(86.787415%, 21.391296%, 18.518066%)" offset="0.121094"/><stop stop-opacity="1" stop-color="rgb(86.541748%, 20.663452%, 19.030762%)" offset="0.125"/><stop stop-opacity="1" stop-color="rgb(86.297607%, 19.935608%, 19.543457%)" offset="0.128906"/><stop stop-opacity="1" stop-color="rgb(86.051941%, 19.20929%, 20.057678%)" offset="0.132812"/><stop stop-opacity="1" stop-color="rgb(85.8078%, 18.481445%, 20.570374%)" offset="0.136719"/><stop stop-opacity="1" stop-color="rgb(85.562134%, 17.753601%, 21.083069%)" offset="0.140625"/><stop stop-opacity="1" stop-color="rgb(85.316467%, 17.025757%, 21.59729%)" offset="0.144531"/><stop stop-opacity="1" stop-color="rgb(85.072327%, 16.297913%, 22.109985%)" offset="0.148438"/><stop stop-opacity="1" stop-color="rgb(84.82666%, 15.571594%, 22.624207%)" offset="0.152344"/><stop stop-opacity="1" stop-color="rgb(84.580994%, 14.84375%, 23.136902%)" offset="0.15625"/><stop stop-opacity="1" stop-color="rgb(84.336853%, 14.115906%, 23.649597%)" offset="0.160156"/><stop stop-opacity="1" stop-color="rgb(84.091187%, 13.388062%, 24.163818%)" offset="0.164062"/><stop stop-opacity="1" stop-color="rgb(83.84552%, 12.660217%, 24.676514%)" offset="0.167969"/><stop stop-opacity="1" stop-color="rgb(83.601379%, 11.933899%, 25.189209%)" offset="0.171875"/><stop stop-opacity="1" stop-color="rgb(83.355713%, 11.206055%, 25.70343%)" offset="0.175781"/><stop stop-opacity="1" stop-color="rgb(83.110046%, 10.47821%, 26.216125%)" offset="0.179688"/><stop stop-opacity="1" stop-color="rgb(82.865906%, 9.750366%, 26.730347%)" offset="0.183594"/><stop stop-opacity="1" stop-color="rgb(82.620239%, 9.022522%, 27.243042%)" offset="0.1875"/><stop stop-opacity="1" stop-color="rgb(82.376099%, 8.296204%, 27.755737%)" offset="0.191406"/><stop stop-opacity="1" stop-color="rgb(82.130432%, 7.568359%, 28.269958%)" offset="0.195312"/><stop stop-opacity="1" stop-color="rgb(82.124329%, 7.646179%, 28.387451%)" offset="0.199219"/><stop stop-opacity="1" stop-color="rgb(82.417297%, 8.731079%, 28.010559%)" offset="0.203125"/><stop stop-opacity="1" stop-color="rgb(82.76825%, 10.017395%, 27.536011%)" offset="0.207031"/><stop stop-opacity="1" stop-color="rgb(83.120728%, 11.305237%, 27.061462%)" offset="0.210938"/><stop stop-opacity="1" stop-color="rgb(83.473206%, 12.591553%, 26.586914%)" offset="0.214844"/><stop stop-opacity="1" stop-color="rgb(83.825684%, 13.877869%, 26.11084%)" offset="0.21875"/><stop stop-opacity="1" stop-color="rgb(84.178162%, 15.16571%, 25.636292%)" offset="0.222656"/><stop stop-opacity="1" stop-color="rgb(84.53064%, 16.452026%, 25.161743%)" offset="0.226562"/><stop stop-opacity="1" stop-color="rgb(84.883118%, 17.738342%, 24.685669%)" offset="0.230469"/><stop stop-opacity="1" stop-color="rgb(85.235596%, 19.024658%, 24.211121%)" offset="0.234375"/><stop stop-opacity="1" stop-color="rgb(85.588074%, 20.3125%, 23.736572%)" offset="0.238281"/><stop stop-opacity="1" stop-color="rgb(85.940552%, 21.598816%, 23.260498%)" offset="0.242188"/><stop stop-opacity="1" stop-color="rgb(86.29303%, 22.885132%, 22.78595%)" offset="0.246094"/><stop stop-opacity="1" stop-color="rgb(86.643982%, 24.171448%, 22.311401%)" offset="0.25"/><stop stop-opacity="1" stop-color="rgb(86.99646%, 25.45929%, 21.836853%)" offset="0.253906"/><stop stop-opacity="1" stop-color="rgb(87.348938%, 26.745605%, 21.360779%)" offset="0.257812"/><stop stop-opacity="1" stop-color="rgb(87.701416%, 28.031921%, 20.88623%)" offset="0.261719"/><stop stop-opacity="1" stop-color="rgb(88.053894%, 29.318237%, 20.411682%)" offset="0.265625"/><stop stop-opacity="1" stop-color="rgb(88.406372%, 30.606079%, 19.935608%)" offset="0.269531"/><stop stop-opacity="1" stop-color="rgb(88.75885%, 31.892395%, 19.46106%)" offset="0.273438"/><stop stop-opacity="1" stop-color="rgb(89.111328%, 33.178711%, 18.986511%)" offset="0.277344"/><stop stop-opacity="1" stop-color="rgb(89.463806%, 34.465027%, 18.511963%)" offset="0.28125"/><stop stop-opacity="1" stop-color="rgb(89.816284%, 35.752869%, 18.035889%)" offset="0.285156"/><stop stop-opacity="1" stop-color="rgb(90.168762%, 37.039185%, 17.56134%)" offset="0.289062"/><stop stop-opacity="1" stop-color="rgb(90.52124%, 38.3255%, 17.086792%)" offset="0.292969"/><stop stop-opacity="1" stop-color="rgb(90.872192%, 39.613342%, 16.610718%)" offset="0.296875"/><stop stop-opacity="1" stop-color="rgb(91.22467%, 40.899658%, 16.136169%)" offset="0.300781"/><stop stop-opacity="1" stop-color="rgb(91.577148%, 42.185974%, 15.661621%)" offset="0.304688"/><stop stop-opacity="1" stop-color="rgb(91.929626%, 43.47229%, 15.185547%)" offset="0.308594"/><stop stop-opacity="1" stop-color="rgb(92.282104%, 44.760132%, 14.710999%)" offset="0.3125"/><stop stop-opacity="1" stop-color="rgb(92.634583%, 46.046448%, 14.23645%)" offset="0.316406"/><stop stop-opacity="1" stop-color="rgb(92.987061%, 47.332764%, 13.761902%)" offset="0.320312"/><stop stop-opacity="1" stop-color="rgb(93.339539%, 48.61908%, 13.285828%)" offset="0.324219"/><stop stop-opacity="1" stop-color="rgb(93.692017%, 49.906921%, 12.811279%)" offset="0.328125"/><stop stop-opacity="1" stop-color="rgb(94.044495%, 51.193237%, 12.336731%)" offset="0.332031"/><stop stop-opacity="1" stop-color="rgb(94.396973%, 52.479553%, 11.860657%)" offset="0.335938"/><stop stop-opacity="1" stop-color="rgb(94.747925%, 53.765869%, 11.386108%)" offset="0.339844"/><stop stop-opacity="1" stop-color="rgb(95.100403%, 55.053711%, 10.91156%)" offset="0.34375"/><stop stop-opacity="1" stop-color="rgb(95.452881%, 56.340027%, 10.435486%)" offset="0.347656"/><stop stop-opacity="1" stop-color="rgb(95.805359%, 57.626343%, 9.960938%)" offset="0.351562"/><stop stop-opacity="1" stop-color="rgb(96.157837%, 58.914185%, 9.486389%)" offset="0.355469"/><stop stop-opacity="1" stop-color="rgb(96.510315%, 60.2005%, 9.011841%)" offset="0.359375"/><stop stop-opacity="1" stop-color="rgb(96.862793%, 61.486816%, 8.535767%)" offset="0.363281"/><stop stop-opacity="1" stop-color="rgb(97.215271%, 62.773132%, 8.061218%)" offset="0.367188"/><stop stop-opacity="1" stop-color="rgb(97.567749%, 64.060974%, 7.58667%)" offset="0.371094"/><stop stop-opacity="1" stop-color="rgb(97.920227%, 65.34729%, 7.110596%)" offset="0.375"/><stop stop-opacity="1" stop-color="rgb(98.272705%, 66.633606%, 6.636047%)" offset="0.378906"/><stop stop-opacity="1" stop-color="rgb(98.623657%, 67.919922%, 6.161499%)" offset="0.382812"/><stop stop-opacity="1" stop-color="rgb(98.976135%, 69.207764%, 5.686951%)" offset="0.386719"/><stop stop-opacity="1" stop-color="rgb(99.328613%, 70.49408%, 5.210876%)" offset="0.390625"/><stop stop-opacity="1" stop-color="rgb(99.681091%, 71.780396%, 4.736328%)" offset="0.394531"/><stop stop-opacity="1" stop-color="rgb(99.749756%, 72.729492%, 4.597473%)" offset="0.398438"/><stop stop-opacity="1" stop-color="rgb(99.342346%, 73.11554%, 5.01709%)" offset="0.402344"/><stop stop-opacity="1" stop-color="rgb(98.744202%, 73.277283%, 5.659485%)" offset="0.40625"/><stop stop-opacity="1" stop-color="rgb(98.146057%, 73.4375%, 6.303406%)" offset="0.410156"/><stop stop-opacity="1" stop-color="rgb(97.549438%, 73.599243%, 6.947327%)" offset="0.414062"/><stop stop-opacity="1" stop-color="rgb(96.951294%, 73.75946%, 7.589722%)" offset="0.417969"/><stop stop-opacity="1" stop-color="rgb(96.354675%, 73.921204%, 8.233643%)" offset="0.421875"/><stop stop-opacity="1" stop-color="rgb(95.756531%, 74.081421%, 8.877563%)" offset="0.425781"/><stop stop-opacity="1" stop-color="rgb(95.159912%, 74.243164%, 9.519958%)" offset="0.429688"/><stop stop-opacity="1" stop-color="rgb(94.561768%, 74.403381%, 10.163879%)" offset="0.433594"/><stop stop-opacity="1" stop-color="rgb(93.965149%, 74.563599%, 10.806274%)" offset="0.4375"/><stop stop-opacity="1" stop-color="rgb(93.367004%, 74.725342%, 11.450195%)" offset="0.441406"/><stop stop-opacity="1" stop-color="rgb(92.76886%, 74.885559%, 12.094116%)" offset="0.445312"/><stop stop-opacity="1" stop-color="rgb(92.172241%, 75.047302%, 12.736511%)" offset="0.449219"/><stop stop-opacity="1" stop-color="rgb(91.574097%, 75.20752%, 13.380432%)" offset="0.453125"/><stop stop-opacity="1" stop-color="rgb(90.977478%, 75.369263%, 14.024353%)" offset="0.457031"/><stop stop-opacity="1" stop-color="rgb(90.379333%, 75.52948%, 14.666748%)" offset="0.460938"/><stop stop-opacity="1" stop-color="rgb(89.782715%, 75.691223%, 15.310669%)" offset="0.464844"/><stop stop-opacity="1" stop-color="rgb(89.18457%, 75.85144%, 15.953064%)" offset="0.46875"/><stop stop-opacity="1" stop-color="rgb(88.587952%, 76.013184%, 16.596985%)" offset="0.472656"/><stop stop-opacity="1" stop-color="rgb(87.989807%, 76.173401%, 17.240906%)" offset="0.476562"/><stop stop-opacity="1" stop-color="rgb(87.393188%, 76.335144%, 17.883301%)" offset="0.480469"/><stop stop-opacity="1" stop-color="rgb(86.795044%, 76.495361%, 18.527222%)" offset="0.484375"/><stop stop-opacity="1" stop-color="rgb(86.196899%, 76.657104%, 19.171143%)" offset="0.488281"/><stop stop-opacity="1" stop-color="rgb(85.600281%, 76.817322%, 19.813538%)" offset="0.492188"/><stop stop-opacity="1" stop-color="rgb(85.002136%, 76.979065%, 20.457458%)" offset="0.496094"/><stop stop-opacity="1" stop-color="rgb(84.405518%, 77.139282%, 21.101379%)" offset="0.5"/><stop stop-opacity="1" stop-color="rgb(83.807373%, 77.2995%, 21.743774%)" offset="0.503906"/><stop stop-opacity="1" stop-color="rgb(83.210754%, 77.461243%, 22.387695%)" offset="0.507812"/><stop stop-opacity="1" stop-color="rgb(82.61261%, 77.62146%, 23.03009%)" offset="0.511719"/><stop stop-opacity="1" stop-color="rgb(82.015991%, 77.783203%, 23.674011%)" offset="0.515625"/><stop stop-opacity="1" stop-color="rgb(81.417847%, 77.94342%, 24.317932%)" offset="0.519531"/><stop stop-opacity="1" stop-color="rgb(80.819702%, 78.105164%, 24.960327%)" offset="0.523438"/><stop stop-opacity="1" stop-color="rgb(80.223083%, 78.265381%, 25.604248%)" offset="0.527344"/><stop stop-opacity="1" stop-color="rgb(79.624939%, 78.427124%, 26.248169%)" offset="0.53125"/><stop stop-opacity="1" stop-color="rgb(79.02832%, 78.587341%, 26.890564%)" offset="0.535156"/><stop stop-opacity="1" stop-color="rgb(78.430176%, 78.749084%, 27.534485%)" offset="0.539062"/><stop stop-opacity="1" stop-color="rgb(77.833557%, 78.909302%, 28.17688%)" offset="0.542969"/><stop stop-opacity="1" stop-color="rgb(77.235413%, 79.071045%, 28.820801%)" offset="0.546875"/><stop stop-opacity="1" stop-color="rgb(76.638794%, 79.231262%, 29.464722%)" offset="0.550781"/><stop stop-opacity="1" stop-color="rgb(76.040649%, 79.393005%, 30.107117%)" offset="0.554688"/><stop stop-opacity="1" stop-color="rgb(75.442505%, 79.553223%, 30.751038%)" offset="0.558594"/><stop stop-opacity="1" stop-color="rgb(74.845886%, 79.714966%, 31.394958%)" offset="0.5625"/><stop stop-opacity="1" stop-color="rgb(74.247742%, 79.875183%, 32.037354%)" offset="0.566406"/><stop stop-opacity="1" stop-color="rgb(73.651123%, 80.036926%, 32.681274%)" offset="0.570312"/><stop stop-opacity="1" stop-color="rgb(73.052979%, 80.197144%, 33.325195%)" offset="0.574219"/><stop stop-opacity="1" stop-color="rgb(72.45636%, 80.357361%, 33.96759%)" offset="0.578125"/><stop stop-opacity="1" stop-color="rgb(71.858215%, 80.519104%, 34.611511%)" offset="0.582031"/><stop stop-opacity="1" stop-color="rgb(71.261597%, 80.679321%, 35.253906%)" offset="0.585938"/><stop stop-opacity="1" stop-color="rgb(70.663452%, 80.841064%, 35.897827%)" offset="0.589844"/><stop stop-opacity="1" stop-color="rgb(70.066833%, 81.001282%, 36.541748%)" offset="0.59375"/><stop stop-opacity="1" stop-color="rgb(69.50531%, 81.022644%, 37.277222%)" offset="0.597656"/><stop stop-opacity="1" stop-color="rgb(69.036865%, 80.696106%, 38.241577%)" offset="0.601562"/><stop stop-opacity="1" stop-color="rgb(68.623352%, 80.160522%, 39.344788%)" offset="0.605469"/><stop stop-opacity="1" stop-color="rgb(68.209839%, 79.623413%, 40.447998%)" offset="0.609375"/><stop stop-opacity="1" stop-color="rgb(67.796326%, 79.08783%, 41.551208%)" offset="0.613281"/><stop stop-opacity="1" stop-color="rgb(67.382812%, 78.552246%, 42.654419%)" offset="0.617188"/><stop stop-opacity="1" stop-color="rgb(66.969299%, 78.015137%, 43.757629%)" offset="0.621094"/><stop stop-opacity="1" stop-color="rgb(66.555786%, 77.479553%, 44.859314%)" offset="0.625"/><stop stop-opacity="1" stop-color="rgb(66.142273%, 76.94397%, 45.962524%)" offset="0.628906"/><stop stop-opacity="1" stop-color="rgb(65.72876%, 76.40686%, 47.065735%)" offset="0.632812"/><stop stop-opacity="1" stop-color="rgb(65.315247%, 75.871277%, 48.168945%)" offset="0.636719"/><stop stop-opacity="1" stop-color="rgb(64.901733%, 75.334167%, 49.272156%)" offset="0.640625"/><stop stop-opacity="1" stop-color="rgb(64.48822%, 74.798584%, 50.375366%)" offset="0.644531"/><stop stop-opacity="1" stop-color="rgb(64.074707%, 74.263%, 51.478577%)" offset="0.648438"/><stop stop-opacity="1" stop-color="rgb(63.661194%, 73.725891%, 52.581787%)" offset="0.652344"/><stop stop-opacity="1" stop-color="rgb(63.247681%, 73.190308%, 53.684998%)" offset="0.65625"/><stop stop-opacity="1" stop-color="rgb(62.834167%, 72.654724%, 54.788208%)" offset="0.660156"/><stop stop-opacity="1" stop-color="rgb(62.420654%, 72.117615%, 55.891418%)" offset="0.664062"/><stop stop-opacity="1" stop-color="rgb(62.007141%, 71.582031%, 56.994629%)" offset="0.667969"/><stop stop-opacity="1" stop-color="rgb(61.593628%, 71.046448%, 58.097839%)" offset="0.671875"/><stop stop-opacity="1" stop-color="rgb(61.180115%, 70.509338%, 59.20105%)" offset="0.675781"/><stop stop-opacity="1" stop-color="rgb(60.766602%, 69.973755%, 60.30426%)" offset="0.679688"/><stop stop-opacity="1" stop-color="rgb(60.353088%, 69.438171%, 61.407471%)" offset="0.683594"/><stop stop-opacity="1" stop-color="rgb(59.939575%, 68.901062%, 62.510681%)" offset="0.6875"/><stop stop-opacity="1" stop-color="rgb(59.526062%, 68.365479%, 63.613892%)" offset="0.691406"/><stop stop-opacity="1" stop-color="rgb(59.112549%, 67.828369%, 64.715576%)" offset="0.695312"/><stop stop-opacity="1" stop-color="rgb(58.699036%, 67.292786%, 65.818787%)" offset="0.699219"/><stop stop-opacity="1" stop-color="rgb(58.285522%, 66.757202%, 66.921997%)" offset="0.703125"/><stop stop-opacity="1" stop-color="rgb(57.872009%, 66.220093%, 68.025208%)" offset="0.707031"/><stop stop-opacity="1" stop-color="rgb(57.458496%, 65.684509%, 69.128418%)" offset="0.710938"/><stop stop-opacity="1" stop-color="rgb(57.044983%, 65.148926%, 70.231628%)" offset="0.714844"/><stop stop-opacity="1" stop-color="rgb(56.63147%, 64.611816%, 71.334839%)" offset="0.71875"/><stop stop-opacity="1" stop-color="rgb(56.217957%, 64.076233%, 72.438049%)" offset="0.722656"/><stop stop-opacity="1" stop-color="rgb(55.804443%, 63.540649%, 73.54126%)" offset="0.726562"/><stop stop-opacity="1" stop-color="rgb(55.39093%, 63.00354%, 74.64447%)" offset="0.730469"/><stop stop-opacity="1" stop-color="rgb(54.977417%, 62.467957%, 75.747681%)" offset="0.734375"/><stop stop-opacity="1" stop-color="rgb(54.56543%, 61.930847%, 76.850891%)" offset="0.738281"/><stop stop-opacity="1" stop-color="rgb(54.151917%, 61.395264%, 77.954102%)" offset="0.742188"/><stop stop-opacity="1" stop-color="rgb(53.738403%, 60.85968%, 79.057312%)" offset="0.746094"/><stop stop-opacity="1" stop-color="rgb(53.32489%, 60.322571%, 80.160522%)" offset="0.75"/><stop stop-opacity="1" stop-color="rgb(52.911377%, 59.786987%, 81.263733%)" offset="0.753906"/><stop stop-opacity="1" stop-color="rgb(52.497864%, 59.251404%, 82.366943%)" offset="0.757812"/><stop stop-opacity="1" stop-color="rgb(52.084351%, 58.714294%, 83.470154%)" offset="0.761719"/><stop stop-opacity="1" stop-color="rgb(51.670837%, 58.178711%, 84.571838%)" offset="0.765625"/><stop stop-opacity="1" stop-color="rgb(51.257324%, 57.643127%, 85.675049%)" offset="0.769531"/><stop stop-opacity="1" stop-color="rgb(50.843811%, 57.106018%, 86.778259%)" offset="0.773438"/><stop stop-opacity="1" stop-color="rgb(50.430298%, 56.570435%, 87.88147%)" offset="0.777344"/><stop stop-opacity="1" stop-color="rgb(50.016785%, 56.034851%, 88.98468%)" offset="0.78125"/><stop stop-opacity="1" stop-color="rgb(49.603271%, 55.497742%, 90.087891%)" offset="0.785156"/><stop stop-opacity="1" stop-color="rgb(49.189758%, 54.962158%, 91.191101%)" offset="0.789062"/><stop stop-opacity="1" stop-color="rgb(48.776245%, 54.425049%, 92.294312%)" offset="0.792969"/><stop stop-opacity="1" stop-color="rgb(48.420715%, 54.01001%, 93.29071%)" offset="0.796875"/><stop stop-opacity="1" stop-color="rgb(48.350525%, 54.194641%, 93.75%)" offset="0.800781"/><stop stop-opacity="1" stop-color="rgb(48.512268%, 54.86145%, 93.780518%)" offset="0.804688"/><stop stop-opacity="1" stop-color="rgb(48.672485%, 55.528259%, 93.811035%)" offset="0.808594"/><stop stop-opacity="1" stop-color="rgb(48.834229%, 56.193542%, 93.841553%)" offset="0.8125"/><stop stop-opacity="1" stop-color="rgb(48.994446%, 56.860352%, 93.87207%)" offset="0.816406"/><stop stop-opacity="1" stop-color="rgb(49.154663%, 57.525635%, 93.902588%)" offset="0.820312"/><stop stop-opacity="1" stop-color="rgb(49.316406%, 58.192444%, 93.933105%)" offset="0.824219"/><stop stop-opacity="1" stop-color="rgb(49.476624%, 58.859253%, 93.963623%)" offset="0.828125"/><stop stop-opacity="1" stop-color="rgb(49.636841%, 59.524536%, 93.994141%)" offset="0.832031"/><stop stop-opacity="1" stop-color="rgb(49.798584%, 60.191345%, 94.024658%)" offset="0.835938"/><stop stop-opacity="1" stop-color="rgb(49.958801%, 60.856628%, 94.055176%)" offset="0.839844"/><stop stop-opacity="1" stop-color="rgb(50.119019%, 61.523438%, 94.085693%)" offset="0.84375"/><stop stop-opacity="1" stop-color="rgb(50.280762%, 62.190247%, 94.116211%)" offset="0.847656"/><stop stop-opacity="1" stop-color="rgb(50.440979%, 62.85553%, 94.146729%)" offset="0.851562"/><stop stop-opacity="1" stop-color="rgb(50.601196%, 63.522339%, 94.177246%)" offset="0.855469"/><stop stop-opacity="1" stop-color="rgb(50.762939%, 64.187622%, 94.207764%)" offset="0.859375"/><stop stop-opacity="1" stop-color="rgb(50.923157%, 64.854431%, 94.238281%)" offset="0.863281"/><stop stop-opacity="1" stop-color="rgb(51.083374%, 65.52124%, 94.268799%)" offset="0.867188"/><stop stop-opacity="1" stop-color="rgb(51.245117%, 66.186523%, 94.299316%)" offset="0.871094"/><stop stop-opacity="1" stop-color="rgb(51.405334%, 66.853333%, 94.329834%)" offset="0.875"/><stop stop-opacity="1" stop-color="rgb(51.565552%, 67.518616%, 94.360352%)" offset="0.878906"/><stop stop-opacity="1" stop-color="rgb(51.727295%, 68.185425%, 94.390869%)" offset="0.882812"/><stop stop-opacity="1" stop-color="rgb(51.887512%, 68.852234%, 94.421387%)" offset="0.886719"/><stop stop-opacity="1" stop-color="rgb(52.047729%, 69.517517%, 94.451904%)" offset="0.890625"/><stop stop-opacity="1" stop-color="rgb(52.209473%, 70.184326%, 94.482422%)" offset="0.894531"/><stop stop-opacity="1" stop-color="rgb(52.36969%, 70.851135%, 94.512939%)" offset="0.898438"/><stop stop-opacity="1" stop-color="rgb(52.529907%, 71.516418%, 94.543457%)" offset="0.902344"/><stop stop-opacity="1" stop-color="rgb(52.69165%, 72.183228%, 94.572449%)" offset="0.90625"/><stop stop-opacity="1" stop-color="rgb(52.851868%, 72.848511%, 94.602966%)" offset="0.910156"/><stop stop-opacity="1" stop-color="rgb(53.012085%, 73.51532%, 94.633484%)" offset="0.914062"/><stop stop-opacity="1" stop-color="rgb(53.173828%, 74.182129%, 94.664001%)" offset="0.917969"/><stop stop-opacity="1" stop-color="rgb(53.334045%, 74.847412%, 94.694519%)" offset="0.921875"/><stop stop-opacity="1" stop-color="rgb(53.494263%, 75.514221%, 94.725037%)" offset="0.925781"/><stop stop-opacity="1" stop-color="rgb(53.656006%, 76.179504%, 94.755554%)" offset="0.929688"/><stop stop-opacity="1" stop-color="rgb(53.816223%, 76.846313%, 94.786072%)" offset="0.933594"/><stop stop-opacity="1" stop-color="rgb(53.977966%, 77.513123%, 94.816589%)" offset="0.9375"/><stop stop-opacity="1" stop-color="rgb(54.138184%, 78.178406%, 94.847107%)" offset="0.941406"/><stop stop-opacity="1" stop-color="rgb(54.298401%, 78.845215%, 94.877625%)" offset="0.945312"/><stop stop-opacity="1" stop-color="rgb(54.460144%, 79.510498%, 94.908142%)" offset="0.949219"/><stop stop-opacity="1" stop-color="rgb(54.620361%, 80.177307%, 94.93866%)" offset="0.953125"/><stop stop-opacity="1" stop-color="rgb(54.780579%, 80.844116%, 94.969177%)" offset="0.957031"/><stop stop-opacity="1" stop-color="rgb(54.942322%, 81.509399%, 94.999695%)" offset="0.960938"/><stop stop-opacity="1" stop-color="rgb(55.102539%, 82.176208%, 95.030212%)" offset="0.964844"/><stop stop-opacity="1" stop-color="rgb(55.262756%, 82.841492%, 95.06073%)" offset="0.96875"/><stop stop-opacity="1" stop-color="rgb(55.4245%, 83.508301%, 95.091248%)" offset="0.972656"/><stop stop-opacity="1" stop-color="rgb(55.584717%, 84.17511%, 95.121765%)" offset="0.976562"/><stop stop-opacity="1" stop-color="rgb(55.744934%, 84.840393%, 95.152283%)" offset="0.980469"/><stop stop-opacity="1" stop-color="rgb(55.906677%, 85.507202%, 95.1828%)" offset="0.984375"/><stop stop-opacity="1" stop-color="rgb(56.066895%, 86.172485%, 95.213318%)" offset="0.988281"/><stop stop-opacity="1" stop-color="rgb(56.227112%, 86.839294%, 95.243835%)" offset="0.992188"/><stop stop-opacity="1" stop-color="rgb(56.388855%, 87.506104%, 95.274353%)" offset="0.996094"/><stop stop-opacity="1" stop-color="rgb(56.469727%, 87.838745%, 95.289612%)" offset="1"/></radialGradient><clipPath id="0965b26b6b"><path d="M 312.082031 50.398438 L 450.082031 50.398438 L 450.082031 152.398438 L 312.082031 152.398438 Z M 312.082031 50.398438 " clip-rule="nonzero"/></clipPath><clipPath id="234bfae573"><rect x="0" width="679" y="0" height="97"/></clipPath><clipPath id="0d428076b7"><rect x="0" width="517" y="0" height="43"/></clipPath></defs><rect x="-76.2" width="914.4" fill="#ffffff" y="-39.899999" height="478.799989" fill-opacity="1"/><rect x="-76.2" fill="url(#c246b09b0c)" width="914.4" y="-39.899999" height="478.799989"/><g clip-path="url(#0965b26b6b)"><path fill="#000000" d="M 368.949219 50.75 C 378.046875 49.828125 388.464844 51.34375 397.695312 50.691406 C 402.480469 51.117188 405.707031 53.515625 408.027344 57.566406 C 410.613281 62.089844 411.320312 68.125 417.613281 68.585938 C 423.558594 69.019531 430.066406 68.164062 436.027344 68.570312 C 443.269531 69.070312 449.585938 75.167969 450.082031 82.449219 L 450.082031 140.695312 C 449.546875 146.914062 444.640625 151.828125 438.410156 152.355469 L 323.410156 152.355469 C 317.058594 151.847656 312.5 146.808594 312.082031 140.523438 L 312.082031 82.449219 C 312.457031 77.195312 315.632812 72.214844 320.492188 70.082031 C 321.445312 69.664062 323.941406 69.164062 324.429688 68.570312 C 325.078125 67.78125 324.757812 66.660156 324.867188 65.773438 C 325.335938 61.960938 328.007812 59.808594 331.757812 59.546875 C 334.433594 59.363281 338.816406 59.335938 341.480469 59.546875 C 344.511719 59.789062 347.035156 61.671875 347.777344 64.660156 C 348.199219 66.359375 347.636719 68.636719 350.160156 68.589844 C 356.21875 68.476562 357.835938 58.699219 361.144531 54.867188 C 363.066406 52.644531 366.003906 51.050781 368.953125 50.75 Z M 371.335938 55.859375 C 363.292969 56.375 363.433594 62.339844 359.988281 68.015625 C 358.046875 71.214844 354.609375 73.421875 350.847656 73.691406 C 343.140625 74.246094 334.699219 73.117188 326.992188 73.6875 C 321.539062 74.089844 317.554688 77.546875 317.1875 83.125 C 317.132812 83.988281 316.914062 86.667969 317.828125 86.929688 L 351.144531 86.929688 C 351.898438 86.757812 354.574219 83.117188 355.351562 82.28125 C 372.5625 63.675781 399.675781 63.433594 417.195312 81.769531 C 418.796875 83.441406 420.082031 85.570312 421.914062 86.929688 L 443.347656 86.972656 C 445.5 87.070312 445.070312 84.25 444.9375 82.816406 C 444.464844 77.710938 440.386719 74.050781 435.339844 73.679688 C 428.84375 73.199219 416.40625 75.152344 411.140625 71.988281 C 406.765625 69.359375 405.808594 64.28125 403.457031 60.085938 C 401.273438 56.1875 399 56.082031 394.929688 55.917969 C 387.578125 55.613281 378.636719 55.390625 371.332031 55.859375 Z M 331.289062 64.699219 C 329.425781 65.308594 329.535156 68.1875 331.464844 68.539062 C 332.964844 68.808594 339.53125 68.777344 341.117188 68.5625 C 343.382812 68.257812 343.5625 65.300781 341.464844 64.671875 Z M 383.941406 73.226562 C 358.488281 74.816406 342.257812 102.628906 352.824219 125.851562 C 366.070312 154.953125 407.117188 154.699219 420.121094 125.394531 C 431.378906 100.023438 411.523438 71.5 383.941406 73.226562 Z M 365.578125 147.414062 C 365.640625 147.125 365.488281 147.070312 365.320312 146.90625 C 364.832031 146.425781 363.6875 145.902344 363.042969 145.4375 C 347.683594 134.367188 341.144531 116.46875 346.546875 97.996094 C 346.816406 97.078125 348.328125 93.398438 348.175781 92.878906 C 347.949219 92.417969 347.4375 92.222656 346.933594 92.238281 L 318.988281 92.246094 C 318.097656 92.28125 317.578125 92.808594 317.277344 93.601562 L 317.191406 135.246094 L 317.410156 136.132812 C 317.621094 136.289062 317.878906 136.316406 318.132812 136.34375 C 320.558594 136.601562 327.480469 136.582031 329.582031 135.695312 C 331.816406 134.746094 332.871094 133.035156 333.050781 130.648438 C 333.71875 121.71875 332.277344 111.75 333.035156 102.878906 C 333.359375 99.101562 336.101562 95.933594 339.570312 94.597656 C 341.222656 93.964844 343.28125 93.839844 343.589844 96.09375 C 344.003906 99.125 340.367188 99.242188 338.929688 101.28125 C 338.386719 102.054688 338.164062 103.015625 338.003906 103.929688 C 337.464844 112.96875 338.648438 122.714844 337.988281 131.671875 C 337.613281 136.789062 333.308594 141.085938 328.195312 141.460938 C 326.824219 141.5625 318.011719 141.203125 317.730469 141.644531 C 317.679688 143.941406 320.242188 146.15625 322.261719 146.863281 C 322.753906 147.035156 324.160156 147.414062 324.609375 147.414062 L 365.582031 147.414062 Z M 407.144531 147.414062 L 437.382812 147.414062 C 441.054688 147.414062 445.015625 143.300781 445.113281 139.644531 L 445.09375 94.074219 C 444.90625 93.074219 444.195312 92.375 443.179688 92.242188 C 437.601562 92.652344 431.273438 91.710938 425.789062 92.234375 C 423.863281 92.421875 424.996094 93.792969 425.332031 94.753906 C 431.851562 113.300781 426.492188 132.988281 410.707031 144.757812 C 409.53125 145.636719 408.082031 146.328125 407.144531 147.414062 Z M 407.144531 147.414062 " fill-opacity="1" fill-rule="nonzero"/></g><path fill="#000000" d="M 385.136719 77.820312 L 386.789062 77.773438 C 414.222656 78.179688 428.703125 110.386719 411.320312 131.410156 C 395.046875 151.089844 361.789062 144.207031 355.101562 119.488281 C 349.628906 99.246094 364.113281 78.644531 385.136719 77.824219 Z M 384.285156 82.929688 C 365.3125 84.242188 353.34375 104.777344 361.175781 122.101562 C 371.101562 144.058594 403.519531 142.96875 412.089844 120.597656 C 419.441406 101.410156 404.726562 81.515625 384.285156 82.929688 Z M 384.285156 82.929688 " fill-opacity="1" fill-rule="nonzero"/><path fill="#000000" d="M 383.601562 88.71875 C 387.867188 88.308594 392.808594 88.914062 396.617188 90.933594 C 398.214844 91.777344 399.71875 93.027344 398.359375 94.957031 C 396.742188 97.253906 394.710938 95.171875 392.921875 94.457031 C 376.246094 87.761719 360.824219 108.453125 372.984375 122.558594 C 383.347656 134.578125 402.925781 127.390625 403.914062 111.921875 C 404.039062 109.933594 402.9375 105.121094 405.734375 104.546875 C 407.714844 104.140625 408.277344 105.519531 408.503906 107.148438 C 411.355469 127.296875 387.28125 141.015625 371.632812 127.488281 C 357.386719 115.175781 365.222656 90.488281 383.601562 88.722656 Z M 383.601562 88.71875 " fill-opacity="1" fill-rule="nonzero"/><path fill="#000000" d="M 402.839844 92.625 C 404.710938 92.304688 405.882812 93.597656 406.875 94.984375 C 407.867188 96.371094 408.550781 97.601562 407.800781 99.285156 L 388.234375 125.53125 C 385.453125 127.730469 383.136719 127.167969 381.015625 124.574219 C 377.390625 120.15625 374.21875 115.0625 370.722656 110.515625 C 368.992188 107.417969 372.347656 101.953125 375.960938 104.425781 C 376.3125 104.667969 376.859375 105.269531 377.160156 105.613281 C 379.804688 108.617188 381.949219 112.492188 384.574219 115.566406 L 401.1875 93.519531 C 401.648438 93.132812 402.238281 92.726562 402.839844 92.625 Z M 402.839844 92.625 " fill-opacity="1" fill-rule="nonzero"/><g transform="matrix(1, 0, 0, 1, 42, 151)"><g clip-path="url(#234bfae573)"><g fill="#000000" fill-opacity="1"><g transform="translate(0.0716574, 76.483434)"><g><path d="M 39.5625 -51.828125 C 39.5625 -52.648438 39.828125 -53.296875 40.359375 -53.765625 C 40.890625 -54.234375 41.726562 -54.46875 42.875 -54.46875 L 55.171875 -54.46875 C 56.304688 -54.46875 57.144531 -54.234375 57.6875 -53.765625 C 58.238281 -53.296875 58.515625 -52.648438 58.515625 -51.828125 C 58.515625 -51.222656 58.351562 -50.726562 58.03125 -50.34375 C 57.707031 -49.957031 57.207031 -49.59375 56.53125 -49.25 L 55.40625 -48.703125 C 54.445312 -48.242188 53.648438 -47.578125 53.015625 -46.703125 C 52.378906 -45.835938 51.757812 -44.457031 51.15625 -42.5625 L 40.578125 -9.84375 C 40.160156 -8.539062 39.867188 -7.523438 39.703125 -6.796875 C 39.535156 -6.078125 39.453125 -5.34375 39.453125 -4.59375 L 39.453125 -2.453125 C 39.453125 -1.671875 39.195312 -1.066406 38.6875 -0.640625 C 38.1875 -0.210938 37.5625 0 36.8125 0 L 22.5625 0 C 21.832031 0 21.226562 -0.210938 20.75 -0.640625 C 20.269531 -1.066406 20.03125 -1.707031 20.03125 -2.5625 L 20.03125 -4.671875 C 20.03125 -5.109375 19.945312 -5.640625 19.78125 -6.265625 C 19.613281 -6.890625 19.414062 -7.5625 19.1875 -8.28125 L 6.6875 -45.203125 C 6.351562 -46.191406 6.003906 -46.910156 5.640625 -47.359375 C 5.273438 -47.816406 4.753906 -48.21875 4.078125 -48.5625 L 2.953125 -49.09375 C 1.835938 -49.664062 1.28125 -50.578125 1.28125 -51.828125 C 1.28125 -52.648438 1.550781 -53.296875 2.09375 -53.765625 C 2.644531 -54.234375 3.488281 -54.46875 4.625 -54.46875 L 27 -54.46875 C 28.164062 -54.46875 29.015625 -54.234375 29.546875 -53.765625 C 30.078125 -53.296875 30.34375 -52.648438 30.34375 -51.828125 C 30.34375 -51.171875 30.179688 -50.648438 29.859375 -50.265625 C 29.535156 -49.878906 29.023438 -49.53125 28.328125 -49.21875 L 27.046875 -48.640625 C 26.367188 -48.328125 25.9375 -47.84375 25.75 -47.1875 C 25.570312 -46.539062 25.691406 -45.597656 26.109375 -44.359375 L 35.671875 -15.328125 L 44.8125 -43.1875 C 45.257812 -44.507812 45.332031 -45.597656 45.03125 -46.453125 C 44.738281 -47.304688 43.941406 -48.054688 42.640625 -48.703125 L 41.546875 -49.25 C 40.898438 -49.5625 40.40625 -49.898438 40.0625 -50.265625 C 39.726562 -50.628906 39.5625 -51.148438 39.5625 -51.828125 Z M 39.5625 -51.828125 "/></g></g></g><g fill="#000000" fill-opacity="1"><g transform="translate(59.129533, 76.483434)"><g><path d="M 31.09375 -56.03125 C 35.601562 -56.03125 39.65625 -55.332031 43.25 -53.9375 C 46.84375 -52.550781 49.898438 -50.570312 52.421875 -48 C 54.953125 -45.4375 56.882812 -42.367188 58.21875 -38.796875 C 59.5625 -35.234375 60.234375 -31.265625 60.234375 -26.890625 C 60.234375 -22.921875 59.570312 -19.207031 58.25 -15.75 C 56.925781 -12.300781 55.015625 -9.28125 52.515625 -6.6875 C 50.023438 -4.09375 47.007812 -2.066406 43.46875 -0.609375 C 39.9375 0.835938 35.953125 1.5625 31.515625 1.5625 C 27.003906 1.5625 22.953125 0.867188 19.359375 -0.515625 C 15.765625 -1.910156 12.703125 -3.890625 10.171875 -6.453125 C 7.640625 -9.023438 5.707031 -12.09375 4.375 -15.65625 C 3.039062 -19.226562 2.375 -23.203125 2.375 -27.578125 C 2.375 -31.546875 3.035156 -35.253906 4.359375 -38.703125 C 5.679688 -42.160156 7.585938 -45.1875 10.078125 -47.78125 C 12.566406 -50.375 15.582031 -52.394531 19.125 -53.84375 C 22.664062 -55.300781 26.65625 -56.03125 31.09375 -56.03125 Z M 41.671875 -16.21875 C 41.671875 -19.695312 41.390625 -23.101562 40.828125 -26.4375 C 40.273438 -29.769531 39.515625 -32.890625 38.546875 -35.796875 C 37.585938 -38.703125 36.5 -41.253906 35.28125 -43.453125 C 34.0625 -45.660156 32.785156 -47.394531 31.453125 -48.65625 C 30.117188 -49.914062 28.789062 -50.546875 27.46875 -50.546875 C 25.363281 -50.546875 23.773438 -49.5 22.703125 -47.40625 C 21.628906 -45.320312 21.09375 -42.269531 21.09375 -38.25 C 21.09375 -34.800781 21.367188 -31.410156 21.921875 -28.078125 C 22.484375 -24.742188 23.242188 -21.613281 24.203125 -18.6875 C 25.160156 -15.769531 26.25 -13.207031 27.46875 -11 C 28.6875 -8.800781 29.960938 -7.070312 31.296875 -5.8125 C 32.628906 -4.550781 33.957031 -3.921875 35.28125 -3.921875 C 37.414062 -3.921875 39.015625 -4.960938 40.078125 -7.046875 C 41.140625 -9.140625 41.671875 -12.195312 41.671875 -16.21875 Z M 41.671875 -16.21875 "/></g></g></g><g fill="#000000" fill-opacity="1"><g transform="translate(121.727763, 76.483434)"><g><path d="M 15.984375 -54.46875 L 42.0625 -54.46875 C 43.25 -54.46875 44.265625 -54.570312 45.109375 -54.78125 C 45.953125 -54.988281 46.710938 -55.1875 47.390625 -55.375 C 48.066406 -55.570312 48.738281 -55.671875 49.40625 -55.671875 C 50.675781 -55.671875 51.625 -55.363281 52.25 -54.75 C 52.875 -54.144531 53.378906 -53.117188 53.765625 -51.671875 L 56.265625 -38.71875 C 56.460938 -37.675781 56.375 -36.828125 56 -36.171875 C 55.625 -35.523438 54.984375 -35.128906 54.078125 -34.984375 C 53.242188 -34.796875 52.507812 -34.84375 51.875 -35.125 C 51.238281 -35.414062 50.703125 -36.003906 50.265625 -36.890625 C 49.128906 -39.171875 48.117188 -41.066406 47.234375 -42.578125 C 46.347656 -44.097656 45.519531 -45.289062 44.75 -46.15625 C 43.988281 -47.03125 43.234375 -47.65625 42.484375 -48.03125 C 41.734375 -48.40625 40.914062 -48.59375 40.03125 -48.59375 L 38.046875 -48.59375 L 38.046875 -8.640625 C 38.046875 -7.441406 38.707031 -6.582031 40.03125 -6.0625 L 41.515625 -5.53125 C 42.242188 -5.269531 42.757812 -4.890625 43.0625 -4.390625 C 43.375 -3.898438 43.53125 -3.316406 43.53125 -2.640625 C 43.53125 -1.835938 43.257812 -1.195312 42.71875 -0.71875 C 42.175781 -0.238281 41.332031 0 40.1875 0 L 17.859375 0 C 16.710938 0 15.867188 -0.238281 15.328125 -0.71875 C 14.785156 -1.195312 14.515625 -1.835938 14.515625 -2.640625 C 14.515625 -3.316406 14.671875 -3.898438 14.984375 -4.390625 C 15.296875 -4.890625 15.8125 -5.269531 16.53125 -5.53125 L 18.015625 -6.0625 C 19.335938 -6.582031 20 -7.441406 20 -8.640625 L 20 -48.59375 L 18.015625 -48.59375 C 17.128906 -48.59375 16.3125 -48.40625 15.5625 -48.03125 C 14.8125 -47.65625 14.050781 -47.03125 13.28125 -46.15625 C 12.519531 -45.289062 11.695312 -44.097656 10.8125 -42.578125 C 9.9375 -41.066406 8.925781 -39.171875 7.78125 -36.890625 C 7.34375 -36.003906 6.804688 -35.414062 6.171875 -35.125 C 5.535156 -34.84375 4.800781 -34.796875 3.96875 -34.984375 C 3.082031 -35.128906 2.453125 -35.523438 2.078125 -36.171875 C 1.703125 -36.828125 1.609375 -37.675781 1.796875 -38.71875 L 4.28125 -51.671875 C 4.664062 -53.117188 5.171875 -54.144531 5.796875 -54.75 C 6.421875 -55.363281 7.367188 -55.671875 8.640625 -55.671875 C 9.316406 -55.671875 9.988281 -55.570312 10.65625 -55.375 C 11.332031 -55.1875 12.09375 -54.988281 12.9375 -54.78125 C 13.78125 -54.570312 14.796875 -54.46875 15.984375 -54.46875 Z M 15.984375 -54.46875 "/></g></g></g><g fill="#000000" fill-opacity="1"><g transform="translate(179.774095, 76.483434)"><g><path d="M 31.09375 -56.03125 C 35.601562 -56.03125 39.65625 -55.332031 43.25 -53.9375 C 46.84375 -52.550781 49.898438 -50.570312 52.421875 -48 C 54.953125 -45.4375 56.882812 -42.367188 58.21875 -38.796875 C 59.5625 -35.234375 60.234375 -31.265625 60.234375 -26.890625 C 60.234375 -22.921875 59.570312 -19.207031 58.25 -15.75 C 56.925781 -12.300781 55.015625 -9.28125 52.515625 -6.6875 C 50.023438 -4.09375 47.007812 -2.066406 43.46875 -0.609375 C 39.9375 0.835938 35.953125 1.5625 31.515625 1.5625 C 27.003906 1.5625 22.953125 0.867188 19.359375 -0.515625 C 15.765625 -1.910156 12.703125 -3.890625 10.171875 -6.453125 C 7.640625 -9.023438 5.707031 -12.09375 4.375 -15.65625 C 3.039062 -19.226562 2.375 -23.203125 2.375 -27.578125 C 2.375 -31.546875 3.035156 -35.253906 4.359375 -38.703125 C 5.679688 -42.160156 7.585938 -45.1875 10.078125 -47.78125 C 12.566406 -50.375 15.582031 -52.394531 19.125 -53.84375 C 22.664062 -55.300781 26.65625 -56.03125 31.09375 -56.03125 Z M 41.671875 -16.21875 C 41.671875 -19.695312 41.390625 -23.101562 40.828125 -26.4375 C 40.273438 -29.769531 39.515625 -32.890625 38.546875 -35.796875 C 37.585938 -38.703125 36.5 -41.253906 35.28125 -43.453125 C 34.0625 -45.660156 32.785156 -47.394531 31.453125 -48.65625 C 30.117188 -49.914062 28.789062 -50.546875 27.46875 -50.546875 C 25.363281 -50.546875 23.773438 -49.5 22.703125 -47.40625 C 21.628906 -45.320312 21.09375 -42.269531 21.09375 -38.25 C 21.09375 -34.800781 21.367188 -31.410156 21.921875 -28.078125 C 22.484375 -24.742188 23.242188 -21.613281 24.203125 -18.6875 C 25.160156 -15.769531 26.25 -13.207031 27.46875 -11 C 28.6875 -8.800781 29.960938 -7.070312 31.296875 -5.8125 C 32.628906 -4.550781 33.957031 -3.921875 35.28125 -3.921875 C 37.414062 -3.921875 39.015625 -4.960938 40.078125 -7.046875 C 41.140625 -9.140625 41.671875 -12.195312 41.671875 -16.21875 Z M 41.671875 -16.21875 "/></g></g></g><g fill="#000000" fill-opacity="1"><g transform="translate(242.372344, 76.483434)"><g><path d="M 54.625 -1.515625 C 54.625 0.535156 53.597656 1.5625 51.546875 1.5625 C 50.691406 1.5625 49.90625 1.332031 49.1875 0.875 C 48.476562 0.414062 47.800781 -0.109375 47.15625 -0.703125 C 46.507812 -1.296875 45.894531 -1.816406 45.3125 -2.265625 C 44.726562 -2.722656 44.148438 -2.953125 43.578125 -2.953125 C 42.953125 -2.953125 42.265625 -2.722656 41.515625 -2.265625 C 40.765625 -1.816406 39.863281 -1.300781 38.8125 -0.71875 C 37.757812 -0.132812 36.476562 0.378906 34.96875 0.828125 C 33.46875 1.285156 31.640625 1.515625 29.484375 1.515625 C 25.210938 1.515625 21.394531 0.84375 18.03125 -0.5 C 14.675781 -1.851562 11.828125 -3.785156 9.484375 -6.296875 C 7.148438 -8.816406 5.375 -11.835938 4.15625 -15.359375 C 2.9375 -18.890625 2.328125 -22.847656 2.328125 -27.234375 C 2.328125 -30.554688 2.796875 -33.664062 3.734375 -36.5625 C 4.671875 -39.46875 5.992188 -42.113281 7.703125 -44.5 C 9.410156 -46.894531 11.445312 -48.945312 13.8125 -50.65625 C 16.175781 -52.363281 18.789062 -53.6875 21.65625 -54.625 C 24.519531 -55.5625 27.5625 -56.03125 30.78125 -56.03125 C 32.71875 -56.03125 34.378906 -55.898438 35.765625 -55.640625 C 37.160156 -55.378906 38.34375 -55.085938 39.3125 -54.765625 C 40.289062 -54.441406 41.113281 -54.148438 41.78125 -53.890625 C 42.457031 -53.628906 43.066406 -53.5 43.609375 -53.5 C 44.160156 -53.5 44.632812 -53.613281 45.03125 -53.84375 C 45.4375 -54.082031 45.816406 -54.363281 46.171875 -54.6875 C 46.535156 -55.007812 46.929688 -55.285156 47.359375 -55.515625 C 47.796875 -55.753906 48.296875 -55.875 48.859375 -55.875 C 49.515625 -55.875 50.054688 -55.664062 50.484375 -55.25 C 50.910156 -54.832031 51.265625 -54.128906 51.546875 -53.140625 L 55.5625 -39.375 C 55.789062 -38.570312 55.691406 -37.851562 55.265625 -37.21875 C 54.835938 -36.582031 54.222656 -36.160156 53.421875 -35.953125 C 52.535156 -35.742188 51.726562 -35.800781 51 -36.125 C 50.28125 -36.445312 49.722656 -37.0625 49.328125 -37.96875 C 48.003906 -41.113281 46.492188 -43.546875 44.796875 -45.265625 C 43.097656 -46.992188 41.300781 -48.191406 39.40625 -48.859375 C 37.519531 -49.535156 35.613281 -49.875 33.6875 -49.875 C 30.914062 -49.875 28.535156 -49.078125 26.546875 -47.484375 C 24.566406 -45.890625 23.050781 -43.617188 22 -40.671875 C 20.945312 -37.734375 20.421875 -34.238281 20.421875 -30.1875 C 20.421875 -24.976562 21.039062 -20.628906 22.28125 -17.140625 C 23.53125 -13.648438 25.25 -11.035156 27.4375 -9.296875 C 29.632812 -7.554688 32.148438 -6.6875 34.984375 -6.6875 C 36.273438 -6.6875 37.210938 -7.050781 37.796875 -7.78125 C 38.378906 -8.507812 38.671875 -9.441406 38.671875 -10.578125 L 38.671875 -19.265625 C 38.671875 -19.804688 38.539062 -20.21875 38.28125 -20.5 C 38.019531 -20.789062 37.488281 -21.050781 36.6875 -21.28125 L 34.984375 -21.78125 C 34.171875 -22.019531 33.535156 -22.359375 33.078125 -22.796875 C 32.628906 -23.234375 32.40625 -23.789062 32.40625 -24.46875 C 32.40625 -25.25 32.675781 -25.863281 33.21875 -26.3125 C 33.769531 -26.769531 34.613281 -27 35.75 -27 L 55.875 -27 C 57.039062 -27 57.894531 -26.769531 58.4375 -26.3125 C 58.976562 -25.863281 59.25 -25.265625 59.25 -24.515625 C 59.25 -23.859375 59.082031 -23.328125 58.75 -22.921875 C 58.414062 -22.523438 57.910156 -22.1875 57.234375 -21.90625 L 56.34375 -21.546875 C 55.820312 -21.347656 55.40625 -21.078125 55.09375 -20.734375 C 54.78125 -20.398438 54.625 -19.910156 54.625 -19.265625 Z M 54.625 -1.515625 "/></g></g></g><g fill="#000000" fill-opacity="1"><g transform="translate(303.453268, 76.483434)"><g><path d="M 58.984375 -35.359375 C 58.984375 -32.554688 58.203125 -30.019531 56.640625 -27.75 C 55.085938 -25.488281 52.882812 -23.734375 50.03125 -22.484375 L 58.328125 -8.28125 C 58.785156 -7.476562 59.203125 -6.875 59.578125 -6.46875 C 59.960938 -6.070312 60.453125 -5.734375 61.046875 -5.453125 C 61.691406 -5.140625 62.160156 -4.757812 62.453125 -4.3125 C 62.753906 -3.875 62.90625 -3.316406 62.90625 -2.640625 C 62.90625 -1.835938 62.632812 -1.195312 62.09375 -0.71875 C 61.550781 -0.238281 60.707031 0 59.5625 0 L 40.265625 0 C 38.140625 0 37.078125 -0.878906 37.078125 -2.640625 C 37.078125 -3.453125 37.453125 -4.128906 38.203125 -4.671875 L 38.671875 -5.015625 C 39.140625 -5.378906 39.40625 -5.726562 39.46875 -6.0625 C 39.53125 -6.40625 39.394531 -6.898438 39.0625 -7.546875 L 33.296875 -18.984375 C 30.890625 -19.066406 28.789062 -19.378906 27 -19.921875 L 27 -8.640625 C 27 -7.992188 27.117188 -7.472656 27.359375 -7.078125 C 27.609375 -6.691406 28.019531 -6.351562 28.59375 -6.0625 L 29.6875 -5.53125 C 30.488281 -5.132812 31.023438 -4.722656 31.296875 -4.296875 C 31.566406 -3.867188 31.703125 -3.316406 31.703125 -2.640625 C 31.703125 -1.835938 31.429688 -1.195312 30.890625 -0.71875 C 30.347656 -0.238281 29.503906 0 28.359375 0 L 6.8125 0 C 5.664062 0 4.820312 -0.238281 4.28125 -0.71875 C 3.738281 -1.195312 3.46875 -1.835938 3.46875 -2.640625 C 3.46875 -3.316406 3.617188 -3.898438 3.921875 -4.390625 C 4.234375 -4.890625 4.753906 -5.269531 5.484375 -5.53125 L 6.96875 -6.0625 C 8.289062 -6.582031 8.953125 -7.441406 8.953125 -8.640625 L 8.953125 -45.828125 C 8.953125 -47.046875 8.289062 -47.90625 6.96875 -48.40625 L 5.484375 -48.9375 C 4.753906 -49.226562 4.234375 -49.613281 3.921875 -50.09375 C 3.617188 -50.570312 3.46875 -51.148438 3.46875 -51.828125 C 3.46875 -52.648438 3.738281 -53.296875 4.28125 -53.765625 C 4.820312 -54.234375 5.664062 -54.46875 6.8125 -54.46875 L 29.25 -54.46875 C 35.664062 -54.46875 41.082031 -53.660156 45.5 -52.046875 C 49.925781 -50.441406 53.28125 -48.207031 55.5625 -45.34375 C 57.84375 -42.476562 58.984375 -39.148438 58.984375 -35.359375 Z M 27 -49.40625 L 27 -24.78125 C 28.09375 -24.550781 29.351562 -24.4375 30.78125 -24.4375 C 33.863281 -24.4375 36.257812 -25.289062 37.96875 -27 C 39.6875 -28.707031 40.546875 -31.367188 40.546875 -34.984375 C 40.546875 -37.078125 40.242188 -39 39.640625 -40.75 C 39.046875 -42.5 38.207031 -44.019531 37.125 -45.3125 C 36.050781 -46.613281 34.78125 -47.617188 33.3125 -48.328125 C 31.851562 -49.046875 30.253906 -49.40625 28.515625 -49.40625 Z M 27 -49.40625 "/></g></g></g><g fill="#000000" fill-opacity="1"><g transform="translate(368.15238, 76.483434)"><g><path d="M 20.15625 -2.640625 C 20.15625 -1.835938 19.890625 -1.195312 19.359375 -0.71875 C 18.828125 -0.238281 17.988281 0 16.84375 0 L 4.390625 0 C 3.273438 0 2.445312 -0.238281 1.90625 -0.71875 C 1.363281 -1.195312 1.09375 -1.835938 1.09375 -2.640625 C 1.09375 -3.679688 1.675781 -4.566406 2.84375 -5.296875 L 3.65625 -5.796875 C 4.226562 -6.160156 4.707031 -6.550781 5.09375 -6.96875 C 5.488281 -7.382812 5.847656 -7.957031 6.171875 -8.6875 C 6.492188 -9.425781 6.847656 -10.429688 7.234375 -11.703125 L 17.203125 -43.890625 C 17.660156 -45.421875 17.828125 -46.53125 17.703125 -47.21875 C 17.578125 -47.90625 17.046875 -48.46875 16.109375 -48.90625 C 15.378906 -49.269531 14.863281 -49.679688 14.5625 -50.140625 C 14.269531 -50.609375 14.125 -51.171875 14.125 -51.828125 C 14.125 -52.648438 14.394531 -53.296875 14.9375 -53.765625 C 15.476562 -54.234375 16.320312 -54.46875 17.46875 -54.46875 L 42.484375 -54.46875 C 43.628906 -54.46875 44.472656 -54.234375 45.015625 -53.765625 C 45.554688 -53.296875 45.828125 -52.648438 45.828125 -51.828125 C 45.828125 -51.117188 45.664062 -50.535156 45.34375 -50.078125 C 45.019531 -49.628906 44.5625 -49.265625 43.96875 -48.984375 C 43.3125 -48.671875 42.925781 -48.25 42.8125 -47.71875 C 42.695312 -47.1875 42.820312 -46.347656 43.1875 -45.203125 L 53.890625 -11.328125 C 54.429688 -9.585938 54.921875 -8.304688 55.359375 -7.484375 C 55.804688 -6.671875 56.390625 -6.082031 57.109375 -5.71875 C 58.015625 -5.25 58.625 -4.796875 58.9375 -4.359375 C 59.25 -3.921875 59.40625 -3.347656 59.40625 -2.640625 C 59.40625 -1.835938 59.132812 -1.195312 58.59375 -0.71875 C 58.050781 -0.238281 57.207031 0 56.0625 0 L 35.515625 0 C 34.347656 0 33.5 -0.238281 32.96875 -0.71875 C 32.4375 -1.195312 32.171875 -1.835938 32.171875 -2.640625 C 32.171875 -3.296875 32.335938 -3.820312 32.671875 -4.21875 C 33.015625 -4.625 33.523438 -4.984375 34.203125 -5.296875 L 35.4375 -5.875 C 36.113281 -6.1875 36.398438 -6.609375 36.296875 -7.140625 C 36.191406 -7.671875 35.957031 -8.535156 35.59375 -9.734375 L 33.296875 -17.390625 L 16.0625 -17.390625 L 14.625 -12.71875 C 14.207031 -11.394531 13.992188 -10.320312 13.984375 -9.5 C 13.972656 -8.6875 14.210938 -8 14.703125 -7.4375 C 15.203125 -6.882812 15.992188 -6.328125 17.078125 -5.765625 L 18.171875 -5.21875 C 18.765625 -4.90625 19.242188 -4.5625 19.609375 -4.1875 C 19.972656 -3.8125 20.15625 -3.296875 20.15625 -2.640625 Z M 17.859375 -23.1875 L 31.546875 -23.1875 L 24.78125 -45.5625 Z M 17.859375 -23.1875 "/></g></g></g><g fill="#000000" fill-opacity="1"><g transform="translate(429.466746, 76.483434)"><g><path d="M 57.578125 -34.046875 C 57.578125 -30.648438 56.671875 -27.691406 54.859375 -25.171875 C 53.046875 -22.660156 50.429688 -20.71875 47.015625 -19.34375 C 43.609375 -17.96875 39.53125 -17.28125 34.78125 -17.28125 C 31.925781 -17.28125 29.332031 -17.578125 27 -18.171875 L 27 -8.640625 C 27 -7.992188 27.144531 -7.441406 27.4375 -6.984375 C 27.738281 -6.523438 28.253906 -6.21875 28.984375 -6.0625 L 31.3125 -5.5625 C 32.144531 -5.382812 32.742188 -5.066406 33.109375 -4.609375 C 33.472656 -4.148438 33.65625 -3.492188 33.65625 -2.640625 C 33.65625 -1.835938 33.378906 -1.195312 32.828125 -0.71875 C 32.285156 -0.238281 31.445312 0 30.3125 0 L 6.8125 0 C 5.664062 0 4.820312 -0.238281 4.28125 -0.71875 C 3.738281 -1.195312 3.46875 -1.835938 3.46875 -2.640625 C 3.46875 -3.316406 3.617188 -3.898438 3.921875 -4.390625 C 4.234375 -4.890625 4.753906 -5.269531 5.484375 -5.53125 L 6.96875 -6.0625 C 8.289062 -6.582031 8.953125 -7.441406 8.953125 -8.640625 L 8.953125 -45.828125 C 8.953125 -47.046875 8.289062 -47.90625 6.96875 -48.40625 L 5.484375 -48.9375 C 4.753906 -49.226562 4.234375 -49.613281 3.921875 -50.09375 C 3.617188 -50.570312 3.46875 -51.148438 3.46875 -51.828125 C 3.46875 -52.648438 3.738281 -53.296875 4.28125 -53.765625 C 4.820312 -54.234375 5.664062 -54.46875 6.8125 -54.46875 L 28.484375 -54.46875 C 33.148438 -54.46875 37.285156 -53.96875 40.890625 -52.96875 C 44.492188 -51.96875 47.539062 -50.550781 50.03125 -48.71875 C 52.519531 -46.894531 54.398438 -44.738281 55.671875 -42.25 C 56.941406 -39.757812 57.578125 -37.023438 57.578125 -34.046875 Z M 27 -48.9375 L 27 -23.109375 C 27.414062 -23.054688 27.84375 -23.007812 28.28125 -22.96875 C 28.726562 -22.9375 29.195312 -22.921875 29.6875 -22.921875 C 31.601562 -22.921875 33.351562 -23.335938 34.9375 -24.171875 C 36.519531 -25.015625 37.785156 -26.300781 38.734375 -28.03125 C 39.679688 -29.757812 40.15625 -31.921875 40.15625 -34.515625 C 40.15625 -37.492188 39.625 -40.054688 38.5625 -42.203125 C 37.5 -44.359375 36.050781 -46.019531 34.21875 -47.1875 C 32.382812 -48.351562 30.289062 -48.9375 27.9375 -48.9375 Z M 27 -48.9375 "/></g></g></g><g fill="#000000" fill-opacity="1"><g transform="translate(489.147077, 76.483434)"><g><path d="M 27 -8.640625 C 27 -7.441406 27.660156 -6.582031 28.984375 -6.0625 L 30.46875 -5.53125 C 31.1875 -5.269531 31.703125 -4.890625 32.015625 -4.390625 C 32.328125 -3.898438 32.484375 -3.316406 32.484375 -2.640625 C 32.484375 -1.835938 32.210938 -1.195312 31.671875 -0.71875 C 31.128906 -0.238281 30.285156 0 29.140625 0 L 6.8125 0 C 5.664062 0 4.820312 -0.238281 4.28125 -0.71875 C 3.738281 -1.195312 3.46875 -1.835938 3.46875 -2.640625 C 3.46875 -3.316406 3.617188 -3.898438 3.921875 -4.390625 C 4.234375 -4.890625 4.753906 -5.269531 5.484375 -5.53125 L 6.96875 -6.0625 C 8.289062 -6.582031 8.953125 -7.441406 8.953125 -8.640625 L 8.953125 -45.828125 C 8.953125 -47.046875 8.289062 -47.90625 6.96875 -48.40625 L 5.484375 -48.9375 C 4.753906 -49.226562 4.234375 -49.613281 3.921875 -50.09375 C 3.617188 -50.570312 3.46875 -51.148438 3.46875 -51.828125 C 3.46875 -52.648438 3.738281 -53.296875 4.28125 -53.765625 C 4.820312 -54.234375 5.664062 -54.46875 6.8125 -54.46875 L 29.140625 -54.46875 C 30.285156 -54.46875 31.128906 -54.234375 31.671875 -53.765625 C 32.210938 -53.296875 32.484375 -52.648438 32.484375 -51.828125 C 32.484375 -51.148438 32.328125 -50.570312 32.015625 -50.09375 C 31.703125 -49.613281 31.1875 -49.226562 30.46875 -48.9375 L 28.984375 -48.40625 C 27.660156 -47.90625 27 -47.046875 27 -45.828125 L 27 -28.671875 L 43.21875 -28.671875 L 43.21875 -45.828125 C 43.21875 -47.046875 42.554688 -47.90625 41.234375 -48.40625 L 39.765625 -48.9375 C 39.035156 -49.226562 38.515625 -49.613281 38.203125 -50.09375 C 37.890625 -50.570312 37.734375 -51.148438 37.734375 -51.828125 C 37.734375 -52.648438 38.003906 -53.296875 38.546875 -53.765625 C 39.097656 -54.234375 39.941406 -54.46875 41.078125 -54.46875 L 63.421875 -54.46875 C 64.554688 -54.46875 65.394531 -54.234375 65.9375 -53.765625 C 66.488281 -53.296875 66.765625 -52.648438 66.765625 -51.828125 C 66.765625 -51.148438 66.609375 -50.570312 66.296875 -50.09375 C 65.984375 -49.613281 65.460938 -49.226562 64.734375 -48.9375 L 63.265625 -48.40625 C 61.941406 -47.90625 61.28125 -47.046875 61.28125 -45.828125 L 61.28125 -8.640625 C 61.28125 -7.441406 61.941406 -6.582031 63.265625 -6.0625 L 64.734375 -5.53125 C 65.460938 -5.269531 65.984375 -4.890625 66.296875 -4.390625 C 66.609375 -3.898438 66.765625 -3.316406 66.765625 -2.640625 C 66.765625 -1.835938 66.488281 -1.195312 65.9375 -0.71875 C 65.394531 -0.238281 64.554688 0 63.421875 0 L 41.078125 0 C 39.941406 0 39.097656 -0.238281 38.546875 -0.71875 C 38.003906 -1.195312 37.734375 -1.835938 37.734375 -2.640625 C 37.734375 -3.316406 37.890625 -3.898438 38.203125 -4.390625 C 38.515625 -4.890625 39.035156 -5.269531 39.765625 -5.53125 L 41.234375 -6.0625 C 42.554688 -6.582031 43.21875 -7.441406 43.21875 -8.640625 L 43.21875 -22.875 L 27 -22.875 Z M 27 -8.640625 "/></g></g></g><g fill="#000000" fill-opacity="1"><g transform="translate(559.370715, 76.483434)"><g><path d="M 3.46875 -51.828125 C 3.46875 -52.648438 3.738281 -53.296875 4.28125 -53.765625 C 4.820312 -54.234375 5.664062 -54.46875 6.8125 -54.46875 L 36.140625 -54.46875 C 37.335938 -54.46875 38.320312 -54.582031 39.09375 -54.8125 C 39.875 -55.050781 40.609375 -55.285156 41.296875 -55.515625 C 41.984375 -55.753906 42.78125 -55.875 43.6875 -55.875 C 44.851562 -55.875 45.734375 -55.539062 46.328125 -54.875 C 46.929688 -54.21875 47.453125 -53.148438 47.890625 -51.671875 L 51.203125 -40.734375 C 51.742188 -38.867188 51.195312 -37.632812 49.5625 -37.03125 C 48.632812 -36.695312 47.800781 -36.695312 47.0625 -37.03125 C 46.320312 -37.375 45.71875 -37.988281 45.25 -38.875 C 44.132812 -40.914062 43.082031 -42.59375 42.09375 -43.90625 C 41.113281 -45.21875 40.125 -46.234375 39.125 -46.953125 C 38.125 -47.679688 37.070312 -48.1875 35.96875 -48.46875 C 34.863281 -48.757812 33.625 -48.90625 32.25 -48.90625 L 27 -48.90625 L 27 -30.390625 L 30.390625 -30.390625 C 31.472656 -30.390625 32.332031 -30.515625 32.96875 -30.765625 C 33.601562 -31.023438 34.117188 -31.492188 34.515625 -32.171875 C 34.921875 -32.847656 35.304688 -33.796875 35.671875 -35.015625 C 35.929688 -35.898438 36.304688 -36.535156 36.796875 -36.921875 C 37.296875 -37.304688 37.867188 -37.5 38.515625 -37.5 C 39.191406 -37.5 39.75 -37.296875 40.1875 -36.890625 C 40.632812 -36.492188 40.945312 -35.929688 41.125 -35.203125 L 44.15625 -22.953125 C 44.59375 -21.109375 44.085938 -19.941406 42.640625 -19.453125 C 41.910156 -19.191406 41.226562 -19.148438 40.59375 -19.328125 C 39.957031 -19.515625 39.421875 -19.929688 38.984375 -20.578125 C 38.148438 -21.773438 37.390625 -22.679688 36.703125 -23.296875 C 36.015625 -23.921875 35.25 -24.347656 34.40625 -24.578125 C 33.5625 -24.816406 32.46875 -24.9375 31.125 -24.9375 L 27 -24.9375 L 27 -10.3125 C 27 -8.726562 27.394531 -7.539062 28.1875 -6.75 C 28.976562 -5.957031 30.113281 -5.5625 31.59375 -5.5625 L 33.421875 -5.5625 C 34.867188 -5.5625 36.1875 -5.722656 37.375 -6.046875 C 38.570312 -6.367188 39.695312 -6.945312 40.75 -7.78125 C 41.800781 -8.613281 42.84375 -9.785156 43.875 -11.296875 C 44.914062 -12.816406 45.992188 -14.769531 47.109375 -17.15625 C 47.503906 -17.988281 48.03125 -18.550781 48.6875 -18.84375 C 49.351562 -19.144531 50.097656 -19.21875 50.921875 -19.0625 C 51.835938 -18.882812 52.5 -18.460938 52.90625 -17.796875 C 53.320312 -17.140625 53.390625 -16.316406 53.109375 -15.328125 L 49.484375 -2.796875 C 49.066406 -1.367188 48.550781 -0.3125 47.9375 0.375 C 47.332031 1.0625 46.394531 1.40625 45.125 1.40625 C 44.320312 1.40625 43.585938 1.285156 42.921875 1.046875 C 42.265625 0.816406 41.539062 0.582031 40.75 0.34375 C 39.957031 0.113281 38.96875 0 37.78125 0 L 6.8125 0 C 5.664062 0 4.820312 -0.238281 4.28125 -0.71875 C 3.738281 -1.195312 3.46875 -1.835938 3.46875 -2.640625 C 3.46875 -3.316406 3.617188 -3.898438 3.921875 -4.390625 C 4.234375 -4.890625 4.753906 -5.269531 5.484375 -5.53125 L 6.96875 -6.0625 C 8.289062 -6.582031 8.953125 -7.441406 8.953125 -8.640625 L 8.953125 -45.828125 C 8.953125 -47.046875 8.289062 -47.90625 6.96875 -48.40625 L 5.484375 -48.9375 C 4.753906 -49.226562 4.234375 -49.613281 3.921875 -50.09375 C 3.617188 -50.570312 3.46875 -51.148438 3.46875 -51.828125 Z M 3.46875 -51.828125 "/></g></g></g><g fill="#000000" fill-opacity="1"><g transform="translate(613.21532, 76.483434)"><g><path d="M 58.984375 -35.359375 C 58.984375 -32.554688 58.203125 -30.019531 56.640625 -27.75 C 55.085938 -25.488281 52.882812 -23.734375 50.03125 -22.484375 L 58.328125 -8.28125 C 58.785156 -7.476562 59.203125 -6.875 59.578125 -6.46875 C 59.960938 -6.070312 60.453125 -5.734375 61.046875 -5.453125 C 61.691406 -5.140625 62.160156 -4.757812 62.453125 -4.3125 C 62.753906 -3.875 62.90625 -3.316406 62.90625 -2.640625 C 62.90625 -1.835938 62.632812 -1.195312 62.09375 -0.71875 C 61.550781 -0.238281 60.707031 0 59.5625 0 L 40.265625 0 C 38.140625 0 37.078125 -0.878906 37.078125 -2.640625 C 37.078125 -3.453125 37.453125 -4.128906 38.203125 -4.671875 L 38.671875 -5.015625 C 39.140625 -5.378906 39.40625 -5.726562 39.46875 -6.0625 C 39.53125 -6.40625 39.394531 -6.898438 39.0625 -7.546875 L 33.296875 -18.984375 C 30.890625 -19.066406 28.789062 -19.378906 27 -19.921875 L 27 -8.640625 C 27 -7.992188 27.117188 -7.472656 27.359375 -7.078125 C 27.609375 -6.691406 28.019531 -6.351562 28.59375 -6.0625 L 29.6875 -5.53125 C 30.488281 -5.132812 31.023438 -4.722656 31.296875 -4.296875 C 31.566406 -3.867188 31.703125 -3.316406 31.703125 -2.640625 C 31.703125 -1.835938 31.429688 -1.195312 30.890625 -0.71875 C 30.347656 -0.238281 29.503906 0 28.359375 0 L 6.8125 0 C 5.664062 0 4.820312 -0.238281 4.28125 -0.71875 C 3.738281 -1.195312 3.46875 -1.835938 3.46875 -2.640625 C 3.46875 -3.316406 3.617188 -3.898438 3.921875 -4.390625 C 4.234375 -4.890625 4.753906 -5.269531 5.484375 -5.53125 L 6.96875 -6.0625 C 8.289062 -6.582031 8.953125 -7.441406 8.953125 -8.640625 L 8.953125 -45.828125 C 8.953125 -47.046875 8.289062 -47.90625 6.96875 -48.40625 L 5.484375 -48.9375 C 4.753906 -49.226562 4.234375 -49.613281 3.921875 -50.09375 C 3.617188 -50.570312 3.46875 -51.148438 3.46875 -51.828125 C 3.46875 -52.648438 3.738281 -53.296875 4.28125 -53.765625 C 4.820312 -54.234375 5.664062 -54.46875 6.8125 -54.46875 L 29.25 -54.46875 C 35.664062 -54.46875 41.082031 -53.660156 45.5 -52.046875 C 49.925781 -50.441406 53.28125 -48.207031 55.5625 -45.34375 C 57.84375 -42.476562 58.984375 -39.148438 58.984375 -35.359375 Z M 27 -49.40625 L 27 -24.78125 C 28.09375 -24.550781 29.351562 -24.4375 30.78125 -24.4375 C 33.863281 -24.4375 36.257812 -25.289062 37.96875 -27 C 39.6875 -28.707031 40.546875 -31.367188 40.546875 -34.984375 C 40.546875 -37.078125 40.242188 -39 39.640625 -40.75 C 39.046875 -42.5 38.207031 -44.019531 37.125 -45.3125 C 36.050781 -46.613281 34.78125 -47.617188 33.3125 -48.328125 C 31.851562 -49.046875 30.253906 -49.40625 28.515625 -49.40625 Z M 27 -49.40625 "/></g></g></g></g></g><g transform="matrix(1, 0, 0, 1, 122, 245)"><g clip-path="url(#0d428076b7)"><g fill="#000000" fill-opacity="1"><g transform="translate(0.927032, 33.952997)"><g><path d="M 10.875 0 L 2.75 0 L 2.75 -25.09375 L 11.140625 -25.09375 C 13.597656 -25.09375 15.707031 -24.59375 17.46875 -23.59375 C 19.226562 -22.59375 20.582031 -21.15625 21.53125 -19.28125 C 22.476562 -17.414062 22.953125 -15.179688 22.953125 -12.578125 C 22.953125 -9.960938 22.472656 -7.71875 21.515625 -5.84375 C 20.566406 -3.96875 19.191406 -2.523438 17.390625 -1.515625 C 15.597656 -0.503906 13.425781 0 10.875 0 Z M 6.546875 -3.3125 L 10.671875 -3.3125 C 12.578125 -3.3125 14.160156 -3.671875 15.421875 -4.390625 C 16.691406 -5.109375 17.640625 -6.15625 18.265625 -7.53125 C 18.898438 -8.914062 19.21875 -10.597656 19.21875 -12.578125 C 19.21875 -14.546875 18.90625 -16.21875 18.28125 -17.59375 C 17.65625 -18.96875 16.722656 -20.007812 15.484375 -20.71875 C 14.253906 -21.425781 12.726562 -21.78125 10.90625 -21.78125 L 6.546875 -21.78125 Z M 6.546875 -3.3125 "/></g></g></g><g fill="#000000" fill-opacity="1"><g transform="translate(25.269834, 33.952997)"><g><path d="M 6.546875 -25.09375 L 6.546875 0 L 2.75 0 L 2.75 -25.09375 Z M 6.546875 -25.09375 "/></g></g></g><g fill="#000000" fill-opacity="1"><g transform="translate(34.016618, 33.952997)"><g><path d="M 16.4375 -18.5 C 16.3125 -19.65625 15.773438 -20.550781 14.828125 -21.1875 C 13.878906 -21.832031 12.6875 -22.15625 11.25 -22.15625 C 10.21875 -22.15625 9.328125 -21.992188 8.578125 -21.671875 C 7.828125 -21.347656 7.242188 -20.90625 6.828125 -20.34375 C 6.421875 -19.789062 6.21875 -19.160156 6.21875 -18.453125 C 6.21875 -17.859375 6.359375 -17.34375 6.640625 -16.90625 C 6.921875 -16.46875 7.289062 -16.101562 7.75 -15.8125 C 8.207031 -15.53125 8.703125 -15.289062 9.234375 -15.09375 C 9.765625 -14.90625 10.273438 -14.75 10.765625 -14.625 L 13.21875 -13.984375 C 14.019531 -13.796875 14.835938 -13.53125 15.671875 -13.1875 C 16.515625 -12.851562 17.296875 -12.410156 18.015625 -11.859375 C 18.734375 -11.316406 19.316406 -10.640625 19.765625 -9.828125 C 20.210938 -9.023438 20.4375 -8.0625 20.4375 -6.9375 C 20.4375 -5.507812 20.070312 -4.242188 19.34375 -3.140625 C 18.613281 -2.046875 17.554688 -1.175781 16.171875 -0.53125 C 14.785156 0.101562 13.113281 0.421875 11.15625 0.421875 C 9.269531 0.421875 7.640625 0.125 6.265625 -0.46875 C 4.898438 -1.070312 3.828125 -1.921875 3.046875 -3.015625 C 2.273438 -4.117188 1.847656 -5.425781 1.765625 -6.9375 L 5.5625 -6.9375 C 5.632812 -6.03125 5.929688 -5.273438 6.453125 -4.671875 C 6.972656 -4.066406 7.640625 -3.617188 8.453125 -3.328125 C 9.265625 -3.046875 10.15625 -2.90625 11.125 -2.90625 C 12.195312 -2.90625 13.148438 -3.070312 13.984375 -3.40625 C 14.816406 -3.75 15.472656 -4.222656 15.953125 -4.828125 C 16.441406 -5.441406 16.6875 -6.15625 16.6875 -6.96875 C 16.6875 -7.707031 16.472656 -8.3125 16.046875 -8.78125 C 15.628906 -9.257812 15.0625 -9.65625 14.34375 -9.96875 C 13.632812 -10.28125 12.832031 -10.554688 11.9375 -10.796875 L 8.96875 -11.609375 C 6.957031 -12.148438 5.363281 -12.953125 4.1875 -14.015625 C 3.019531 -15.078125 2.4375 -16.484375 2.4375 -18.234375 C 2.4375 -19.679688 2.828125 -20.941406 3.609375 -22.015625 C 4.398438 -23.097656 5.460938 -23.9375 6.796875 -24.53125 C 8.140625 -25.132812 9.648438 -25.4375 11.328125 -25.4375 C 13.023438 -25.4375 14.523438 -25.132812 15.828125 -24.53125 C 17.128906 -23.9375 18.15625 -23.117188 18.90625 -22.078125 C 19.664062 -21.035156 20.0625 -19.84375 20.09375 -18.5 Z M 16.4375 -18.5 "/></g></g></g><g fill="#000000" fill-opacity="1"><g transform="translate(55.664118, 33.952997)"><g><path d="M 23.59375 -16.9375 L 19.78125 -16.9375 C 19.625 -17.75 19.347656 -18.460938 18.953125 -19.078125 C 18.554688 -19.703125 18.066406 -20.226562 17.484375 -20.65625 C 16.898438 -21.09375 16.25 -21.421875 15.53125 -21.640625 C 14.820312 -21.867188 14.066406 -21.984375 13.265625 -21.984375 C 11.816406 -21.984375 10.523438 -21.617188 9.390625 -20.890625 C 8.253906 -20.160156 7.351562 -19.09375 6.6875 -17.6875 C 6.03125 -16.28125 5.703125 -14.566406 5.703125 -12.546875 C 5.703125 -10.503906 6.03125 -8.78125 6.6875 -7.375 C 7.351562 -5.96875 8.253906 -4.90625 9.390625 -4.1875 C 10.535156 -3.46875 11.820312 -3.109375 13.25 -3.109375 C 14.039062 -3.109375 14.796875 -3.21875 15.515625 -3.4375 C 16.234375 -3.65625 16.878906 -3.972656 17.453125 -4.390625 C 18.035156 -4.816406 18.53125 -5.335938 18.9375 -5.953125 C 19.34375 -6.578125 19.625 -7.285156 19.78125 -8.078125 L 23.59375 -8.078125 C 23.394531 -6.835938 23 -5.703125 22.40625 -4.671875 C 21.820312 -3.640625 21.078125 -2.75 20.171875 -2 C 19.265625 -1.25 18.222656 -0.671875 17.046875 -0.265625 C 15.878906 0.140625 14.609375 0.34375 13.234375 0.34375 C 11.054688 0.34375 9.117188 -0.171875 7.421875 -1.203125 C 5.722656 -2.234375 4.382812 -3.710938 3.40625 -5.640625 C 2.4375 -7.578125 1.953125 -9.878906 1.953125 -12.546875 C 1.953125 -15.222656 2.441406 -17.519531 3.421875 -19.4375 C 4.398438 -21.363281 5.738281 -22.84375 7.4375 -23.875 C 9.132812 -24.914062 11.066406 -25.4375 13.234375 -25.4375 C 14.566406 -25.4375 15.8125 -25.242188 16.96875 -24.859375 C 18.125 -24.484375 19.160156 -23.925781 20.078125 -23.1875 C 21.003906 -22.457031 21.769531 -21.566406 22.375 -20.515625 C 22.976562 -19.472656 23.382812 -18.28125 23.59375 -16.9375 Z M 23.59375 -16.9375 "/></g></g></g><g fill="#000000" fill-opacity="1"><g transform="translate(80.484721, 33.952997)"><g><path d="M 24.546875 -12.546875 C 24.546875 -9.867188 24.054688 -7.566406 23.078125 -5.640625 C 22.097656 -3.710938 20.753906 -2.234375 19.046875 -1.203125 C 17.347656 -0.171875 15.414062 0.34375 13.25 0.34375 C 11.082031 0.34375 9.144531 -0.171875 7.4375 -1.203125 C 5.738281 -2.234375 4.398438 -3.710938 3.421875 -5.640625 C 2.441406 -7.578125 1.953125 -9.878906 1.953125 -12.546875 C 1.953125 -15.222656 2.441406 -17.519531 3.421875 -19.4375 C 4.398438 -21.363281 5.738281 -22.84375 7.4375 -23.875 C 9.144531 -24.914062 11.082031 -25.4375 13.25 -25.4375 C 15.414062 -25.4375 17.347656 -24.914062 19.046875 -23.875 C 20.753906 -22.84375 22.097656 -21.363281 23.078125 -19.4375 C 24.054688 -17.519531 24.546875 -15.222656 24.546875 -12.546875 Z M 20.796875 -12.546875 C 20.796875 -14.585938 20.46875 -16.304688 19.8125 -17.703125 C 19.15625 -19.109375 18.253906 -20.171875 17.109375 -20.890625 C 15.972656 -21.617188 14.6875 -21.984375 13.25 -21.984375 C 11.8125 -21.984375 10.523438 -21.617188 9.390625 -20.890625 C 8.253906 -20.171875 7.351562 -19.109375 6.6875 -17.703125 C 6.03125 -16.304688 5.703125 -14.585938 5.703125 -12.546875 C 5.703125 -10.503906 6.03125 -8.78125 6.6875 -7.375 C 7.351562 -5.976562 8.253906 -4.914062 9.390625 -4.1875 C 10.523438 -3.46875 11.8125 -3.109375 13.25 -3.109375 C 14.6875 -3.109375 15.972656 -3.46875 17.109375 -4.1875 C 18.253906 -4.914062 19.15625 -5.976562 19.8125 -7.375 C 20.46875 -8.78125 20.796875 -10.503906 20.796875 -12.546875 Z M 20.796875 -12.546875 "/></g></g></g><g fill="#000000" fill-opacity="1"><g transform="translate(105.182782, 33.952997)"><g><path d="M 4.953125 -25.09375 L 11.9375 -4.65625 L 12.21875 -4.65625 L 19.203125 -25.09375 L 23.296875 -25.09375 L 14.265625 0 L 9.890625 0 L 0.859375 -25.09375 Z M 4.953125 -25.09375 "/></g></g></g><g fill="#000000" fill-opacity="1"><g transform="translate(128.778253, 33.952997)"><g><path d="M 2.75 0 L 2.75 -25.09375 L 18.484375 -25.09375 L 18.484375 -21.828125 L 6.546875 -21.828125 L 6.546875 -14.1875 L 17.671875 -14.1875 L 17.671875 -10.9375 L 6.546875 -10.9375 L 6.546875 -3.265625 L 18.640625 -3.265625 L 18.640625 0 Z M 2.75 0 "/></g></g></g><g fill="#000000" fill-opacity="1"><g transform="translate(149.029089, 33.952997)"><g><path d="M 2.75 0 L 2.75 -25.09375 L 11.703125 -25.09375 C 13.640625 -25.09375 15.25 -24.753906 16.53125 -24.078125 C 17.820312 -23.410156 18.785156 -22.488281 19.421875 -21.3125 C 20.066406 -20.132812 20.390625 -18.769531 20.390625 -17.21875 C 20.390625 -15.6875 20.066406 -14.335938 19.421875 -13.171875 C 18.785156 -12.015625 17.820312 -11.113281 16.53125 -10.46875 C 15.25 -9.820312 13.632812 -9.5 11.6875 -9.5 L 4.90625 -9.5 L 4.90625 -12.75 L 11.34375 -12.75 C 12.570312 -12.75 13.570312 -12.925781 14.34375 -13.28125 C 15.113281 -13.632812 15.675781 -14.144531 16.03125 -14.8125 C 16.394531 -15.476562 16.578125 -16.28125 16.578125 -17.21875 C 16.578125 -18.164062 16.394531 -18.988281 16.03125 -19.6875 C 15.664062 -20.382812 15.097656 -20.914062 14.328125 -21.28125 C 13.554688 -21.65625 12.546875 -21.84375 11.296875 -21.84375 L 6.546875 -21.84375 L 6.546875 0 Z M 15.140625 -11.3125 L 21.34375 0 L 17.03125 0 L 10.953125 -11.3125 Z M 15.140625 -11.3125 "/></g></g></g><g fill="#000000" fill-opacity="1"><g transform="translate(170.725606, 33.952997)"><g/></g></g><g fill="#000000" fill-opacity="1"><g transform="translate(179.313117, 33.952997)"><g><path d="M 0.828125 -25.09375 L 5.125 -25.09375 L 11.671875 -13.6875 L 11.9375 -13.6875 L 18.5 -25.09375 L 22.796875 -25.09375 L 13.703125 -9.84375 L 13.703125 0 L 9.921875 0 L 9.921875 -9.84375 Z M 0.828125 -25.09375 "/></g></g></g><g fill="#000000" fill-opacity="1"><g transform="translate(201.083104, 33.952997)"><g><path d="M 24.546875 -12.546875 C 24.546875 -9.867188 24.054688 -7.566406 23.078125 -5.640625 C 22.097656 -3.710938 20.753906 -2.234375 19.046875 -1.203125 C 17.347656 -0.171875 15.414062 0.34375 13.25 0.34375 C 11.082031 0.34375 9.144531 -0.171875 7.4375 -1.203125 C 5.738281 -2.234375 4.398438 -3.710938 3.421875 -5.640625 C 2.441406 -7.578125 1.953125 -9.878906 1.953125 -12.546875 C 1.953125 -15.222656 2.441406 -17.519531 3.421875 -19.4375 C 4.398438 -21.363281 5.738281 -22.84375 7.4375 -23.875 C 9.144531 -24.914062 11.082031 -25.4375 13.25 -25.4375 C 15.414062 -25.4375 17.347656 -24.914062 19.046875 -23.875 C 20.753906 -22.84375 22.097656 -21.363281 23.078125 -19.4375 C 24.054688 -17.519531 24.546875 -15.222656 24.546875 -12.546875 Z M 20.796875 -12.546875 C 20.796875 -14.585938 20.46875 -16.304688 19.8125 -17.703125 C 19.15625 -19.109375 18.253906 -20.171875 17.109375 -20.890625 C 15.972656 -21.617188 14.6875 -21.984375 13.25 -21.984375 C 11.8125 -21.984375 10.523438 -21.617188 9.390625 -20.890625 C 8.253906 -20.171875 7.351562 -19.109375 6.6875 -17.703125 C 6.03125 -16.304688 5.703125 -14.585938 5.703125 -12.546875 C 5.703125 -10.503906 6.03125 -8.78125 6.6875 -7.375 C 7.351562 -5.976562 8.253906 -4.914062 9.390625 -4.1875 C 10.523438 -3.46875 11.8125 -3.109375 13.25 -3.109375 C 14.6875 -3.109375 15.972656 -3.46875 17.109375 -4.1875 C 18.253906 -4.914062 19.15625 -5.976562 19.8125 -7.375 C 20.46875 -8.78125 20.796875 -10.503906 20.796875 -12.546875 Z M 20.796875 -12.546875 "/></g></g></g><g fill="#000000" fill-opacity="1"><g transform="translate(227.030833, 33.952997)"><g><path d="M 18.890625 -25.09375 L 22.6875 -25.09375 L 22.6875 -8.59375 C 22.6875 -6.832031 22.273438 -5.273438 21.453125 -3.921875 C 20.628906 -2.578125 19.46875 -1.515625 17.96875 -0.734375 C 16.476562 0.0351562 14.726562 0.421875 12.71875 0.421875 C 10.71875 0.421875 8.96875 0.0351562 7.46875 -0.734375 C 5.976562 -1.515625 4.816406 -2.578125 3.984375 -3.921875 C 3.160156 -5.273438 2.75 -6.832031 2.75 -8.59375 L 2.75 -25.09375 L 6.546875 -25.09375 L 6.546875 -8.890625 C 6.546875 -7.753906 6.796875 -6.742188 7.296875 -5.859375 C 7.796875 -4.984375 8.503906 -4.289062 9.421875 -3.78125 C 10.347656 -3.28125 11.445312 -3.03125 12.71875 -3.03125 C 13.988281 -3.03125 15.085938 -3.28125 16.015625 -3.78125 C 16.941406 -4.289062 17.648438 -4.984375 18.140625 -5.859375 C 18.640625 -6.742188 18.890625 -7.753906 18.890625 -8.890625 Z M 18.890625 -25.09375 "/></g></g></g><g fill="#000000" fill-opacity="1"><g transform="translate(251.924943, 33.952997)"><g><path d="M 2.75 0 L 2.75 -25.09375 L 11.703125 -25.09375 C 13.640625 -25.09375 15.25 -24.753906 16.53125 -24.078125 C 17.820312 -23.410156 18.785156 -22.488281 19.421875 -21.3125 C 20.066406 -20.132812 20.390625 -18.769531 20.390625 -17.21875 C 20.390625 -15.6875 20.066406 -14.335938 19.421875 -13.171875 C 18.785156 -12.015625 17.820312 -11.113281 16.53125 -10.46875 C 15.25 -9.820312 13.632812 -9.5 11.6875 -9.5 L 4.90625 -9.5 L 4.90625 -12.75 L 11.34375 -12.75 C 12.570312 -12.75 13.570312 -12.925781 14.34375 -13.28125 C 15.113281 -13.632812 15.675781 -14.144531 16.03125 -14.8125 C 16.394531 -15.476562 16.578125 -16.28125 16.578125 -17.21875 C 16.578125 -18.164062 16.394531 -18.988281 16.03125 -19.6875 C 15.664062 -20.382812 15.097656 -20.914062 14.328125 -21.28125 C 13.554688 -21.65625 12.546875 -21.84375 11.296875 -21.84375 L 6.546875 -21.84375 L 6.546875 0 Z M 15.140625 -11.3125 L 21.34375 0 L 17.03125 0 L 10.953125 -11.3125 Z M 15.140625 -11.3125 "/></g></g></g><g fill="#000000" fill-opacity="1"><g transform="translate(273.621451, 33.952997)"><g/></g></g><g fill="#000000" fill-opacity="1"><g transform="translate(282.20898, 33.952997)"><g><path d="M 2.75 0 L 2.75 -25.09375 L 11.9375 -25.09375 C 13.71875 -25.09375 15.191406 -24.800781 16.359375 -24.21875 C 17.535156 -23.632812 18.410156 -22.84375 18.984375 -21.84375 C 19.566406 -20.851562 19.859375 -19.738281 19.859375 -18.5 C 19.859375 -17.457031 19.664062 -16.578125 19.28125 -15.859375 C 18.894531 -15.140625 18.378906 -14.566406 17.734375 -14.140625 C 17.097656 -13.710938 16.394531 -13.398438 15.625 -13.203125 L 15.625 -12.96875 C 16.457031 -12.925781 17.269531 -12.65625 18.0625 -12.15625 C 18.863281 -11.664062 19.523438 -10.96875 20.046875 -10.0625 C 20.578125 -9.15625 20.84375 -8.050781 20.84375 -6.75 C 20.84375 -5.46875 20.539062 -4.316406 19.9375 -3.296875 C 19.332031 -2.285156 18.40625 -1.484375 17.15625 -0.890625 C 15.914062 -0.296875 14.320312 0 12.375 0 Z M 6.546875 -3.25 L 12 -3.25 C 13.8125 -3.25 15.109375 -3.597656 15.890625 -4.296875 C 16.679688 -5.003906 17.078125 -5.882812 17.078125 -6.9375 C 17.078125 -7.726562 16.875 -8.453125 16.46875 -9.109375 C 16.070312 -9.773438 15.503906 -10.300781 14.765625 -10.6875 C 14.023438 -11.082031 13.148438 -11.28125 12.140625 -11.28125 L 6.546875 -11.28125 Z M 6.546875 -14.234375 L 11.609375 -14.234375 C 12.460938 -14.234375 13.226562 -14.394531 13.90625 -14.71875 C 14.59375 -15.050781 15.132812 -15.515625 15.53125 -16.109375 C 15.9375 -16.703125 16.140625 -17.398438 16.140625 -18.203125 C 16.140625 -19.242188 15.773438 -20.113281 15.046875 -20.8125 C 14.328125 -21.519531 13.21875 -21.875 11.71875 -21.875 L 6.546875 -21.875 Z M 6.546875 -14.234375 "/></g></g></g><g fill="#000000" fill-opacity="1"><g transform="translate(304.223997, 33.952997)"><g><path d="M 2.75 0 L 2.75 -25.09375 L 18.484375 -25.09375 L 18.484375 -21.828125 L 6.546875 -21.828125 L 6.546875 -14.1875 L 17.671875 -14.1875 L 17.671875 -10.9375 L 6.546875 -10.9375 L 6.546875 -3.265625 L 18.640625 -3.265625 L 18.640625 0 Z M 2.75 0 "/></g></g></g><g fill="#000000" fill-opacity="1"><g transform="translate(324.474842, 33.952997)"><g><path d="M 16.4375 -18.5 C 16.3125 -19.65625 15.773438 -20.550781 14.828125 -21.1875 C 13.878906 -21.832031 12.6875 -22.15625 11.25 -22.15625 C 10.21875 -22.15625 9.328125 -21.992188 8.578125 -21.671875 C 7.828125 -21.347656 7.242188 -20.90625 6.828125 -20.34375 C 6.421875 -19.789062 6.21875 -19.160156 6.21875 -18.453125 C 6.21875 -17.859375 6.359375 -17.34375 6.640625 -16.90625 C 6.921875 -16.46875 7.289062 -16.101562 7.75 -15.8125 C 8.207031 -15.53125 8.703125 -15.289062 9.234375 -15.09375 C 9.765625 -14.90625 10.273438 -14.75 10.765625 -14.625 L 13.21875 -13.984375 C 14.019531 -13.796875 14.835938 -13.53125 15.671875 -13.1875 C 16.515625 -12.851562 17.296875 -12.410156 18.015625 -11.859375 C 18.734375 -11.316406 19.316406 -10.640625 19.765625 -9.828125 C 20.210938 -9.023438 20.4375 -8.0625 20.4375 -6.9375 C 20.4375 -5.507812 20.070312 -4.242188 19.34375 -3.140625 C 18.613281 -2.046875 17.554688 -1.175781 16.171875 -0.53125 C 14.785156 0.101562 13.113281 0.421875 11.15625 0.421875 C 9.269531 0.421875 7.640625 0.125 6.265625 -0.46875 C 4.898438 -1.070312 3.828125 -1.921875 3.046875 -3.015625 C 2.273438 -4.117188 1.847656 -5.425781 1.765625 -6.9375 L 5.5625 -6.9375 C 5.632812 -6.03125 5.929688 -5.273438 6.453125 -4.671875 C 6.972656 -4.066406 7.640625 -3.617188 8.453125 -3.328125 C 9.265625 -3.046875 10.15625 -2.90625 11.125 -2.90625 C 12.195312 -2.90625 13.148438 -3.070312 13.984375 -3.40625 C 14.816406 -3.75 15.472656 -4.222656 15.953125 -4.828125 C 16.441406 -5.441406 16.6875 -6.15625 16.6875 -6.96875 C 16.6875 -7.707031 16.472656 -8.3125 16.046875 -8.78125 C 15.628906 -9.257812 15.0625 -9.65625 14.34375 -9.96875 C 13.632812 -10.28125 12.832031 -10.554688 11.9375 -10.796875 L 8.96875 -11.609375 C 6.957031 -12.148438 5.363281 -12.953125 4.1875 -14.015625 C 3.019531 -15.078125 2.4375 -16.484375 2.4375 -18.234375 C 2.4375 -19.679688 2.828125 -20.941406 3.609375 -22.015625 C 4.398438 -23.097656 5.460938 -23.9375 6.796875 -24.53125 C 8.140625 -25.132812 9.648438 -25.4375 11.328125 -25.4375 C 13.023438 -25.4375 14.523438 -25.132812 15.828125 -24.53125 C 17.128906 -23.9375 18.15625 -23.117188 18.90625 -22.078125 C 19.664062 -21.035156 20.0625 -19.84375 20.09375 -18.5 Z M 16.4375 -18.5 "/></g></g></g><g fill="#000000" fill-opacity="1"><g transform="translate(346.122332, 33.952997)"><g><path d="M 1.515625 -21.828125 L 1.515625 -25.09375 L 20.9375 -25.09375 L 20.9375 -21.828125 L 13.109375 -21.828125 L 13.109375 0 L 9.328125 0 L 9.328125 -21.828125 Z M 1.515625 -21.828125 "/></g></g></g><g fill="#000000" fill-opacity="1"><g transform="translate(368.027121, 33.952997)"><g/></g></g><g fill="#000000" fill-opacity="1"><g transform="translate(376.614632, 33.952997)"><g><path d="M 2.75 0 L 2.75 -25.09375 L 11.703125 -25.09375 C 13.648438 -25.09375 15.265625 -24.734375 16.546875 -24.015625 C 17.828125 -23.304688 18.785156 -22.335938 19.421875 -21.109375 C 20.066406 -19.878906 20.390625 -18.5 20.390625 -16.96875 C 20.390625 -15.425781 20.066406 -14.039062 19.421875 -12.8125 C 18.785156 -11.582031 17.820312 -10.609375 16.53125 -9.890625 C 15.25 -9.179688 13.632812 -8.828125 11.6875 -8.828125 L 5.53125 -8.828125 L 5.53125 -12.03125 L 11.34375 -12.03125 C 12.570312 -12.03125 13.570312 -12.242188 14.34375 -12.671875 C 15.113281 -13.097656 15.675781 -13.679688 16.03125 -14.421875 C 16.394531 -15.171875 16.578125 -16.019531 16.578125 -16.96875 C 16.578125 -17.914062 16.394531 -18.753906 16.03125 -19.484375 C 15.675781 -20.222656 15.113281 -20.800781 14.34375 -21.21875 C 13.570312 -21.632812 12.554688 -21.84375 11.296875 -21.84375 L 6.546875 -21.84375 L 6.546875 0 Z M 2.75 0 "/></g></g></g><g fill="#000000" fill-opacity="1"><g transform="translate(398.115126, 33.952997)"><g><path d="M 2.75 0 L 2.75 -25.09375 L 6.546875 -25.09375 L 6.546875 -14.1875 L 19.046875 -14.1875 L 19.046875 -25.09375 L 22.84375 -25.09375 L 22.84375 0 L 19.046875 0 L 19.046875 -10.9375 L 6.546875 -10.9375 L 6.546875 0 Z M 2.75 0 "/></g></g></g><g fill="#000000" fill-opacity="1"><g transform="translate(423.168501, 33.952997)"><g><path d="M 24.546875 -12.546875 C 24.546875 -9.867188 24.054688 -7.566406 23.078125 -5.640625 C 22.097656 -3.710938 20.753906 -2.234375 19.046875 -1.203125 C 17.347656 -0.171875 15.414062 0.34375 13.25 0.34375 C 11.082031 0.34375 9.144531 -0.171875 7.4375 -1.203125 C 5.738281 -2.234375 4.398438 -3.710938 3.421875 -5.640625 C 2.441406 -7.578125 1.953125 -9.878906 1.953125 -12.546875 C 1.953125 -15.222656 2.441406 -17.519531 3.421875 -19.4375 C 4.398438 -21.363281 5.738281 -22.84375 7.4375 -23.875 C 9.144531 -24.914062 11.082031 -25.4375 13.25 -25.4375 C 15.414062 -25.4375 17.347656 -24.914062 19.046875 -23.875 C 20.753906 -22.84375 22.097656 -21.363281 23.078125 -19.4375 C 24.054688 -17.519531 24.546875 -15.222656 24.546875 -12.546875 Z M 20.796875 -12.546875 C 20.796875 -14.585938 20.46875 -16.304688 19.8125 -17.703125 C 19.15625 -19.109375 18.253906 -20.171875 17.109375 -20.890625 C 15.972656 -21.617188 14.6875 -21.984375 13.25 -21.984375 C 11.8125 -21.984375 10.523438 -21.617188 9.390625 -20.890625 C 8.253906 -20.171875 7.351562 -19.109375 6.6875 -17.703125 C 6.03125 -16.304688 5.703125 -14.585938 5.703125 -12.546875 C 5.703125 -10.503906 6.03125 -8.78125 6.6875 -7.375 C 7.351562 -5.976562 8.253906 -4.914062 9.390625 -4.1875 C 10.523438 -3.46875 11.8125 -3.109375 13.25 -3.109375 C 14.6875 -3.109375 15.972656 -3.46875 17.109375 -4.1875 C 18.253906 -4.914062 19.15625 -5.976562 19.8125 -7.375 C 20.46875 -8.78125 20.796875 -10.503906 20.796875 -12.546875 Z M 20.796875 -12.546875 "/></g></g></g><g fill="#000000" fill-opacity="1"><g transform="translate(448.062612, 33.952997)"><g><path d="M 1.515625 -21.828125 L 1.515625 -25.09375 L 20.9375 -25.09375 L 20.9375 -21.828125 L 13.109375 -21.828125 L 13.109375 0 L 9.328125 0 L 9.328125 -21.828125 Z M 1.515625 -21.828125 "/></g></g></g><g fill="#000000" fill-opacity="1"><g transform="translate(468.913745, 33.952997)"><g><path d="M 24.546875 -12.546875 C 24.546875 -9.867188 24.054688 -7.566406 23.078125 -5.640625 C 22.097656 -3.710938 20.753906 -2.234375 19.046875 -1.203125 C 17.347656 -0.171875 15.414062 0.34375 13.25 0.34375 C 11.082031 0.34375 9.144531 -0.171875 7.4375 -1.203125 C 5.738281 -2.234375 4.398438 -3.710938 3.421875 -5.640625 C 2.441406 -7.578125 1.953125 -9.878906 1.953125 -12.546875 C 1.953125 -15.222656 2.441406 -17.519531 3.421875 -19.4375 C 4.398438 -21.363281 5.738281 -22.84375 7.4375 -23.875 C 9.144531 -24.914062 11.082031 -25.4375 13.25 -25.4375 C 15.414062 -25.4375 17.347656 -24.914062 19.046875 -23.875 C 20.753906 -22.84375 22.097656 -21.363281 23.078125 -19.4375 C 24.054688 -17.519531 24.546875 -15.222656 24.546875 -12.546875 Z M 20.796875 -12.546875 C 20.796875 -14.585938 20.46875 -16.304688 19.8125 -17.703125 C 19.15625 -19.109375 18.253906 -20.171875 17.109375 -20.890625 C 15.972656 -21.617188 14.6875 -21.984375 13.25 -21.984375 C 11.8125 -21.984375 10.523438 -21.617188 9.390625 -20.890625 C 8.253906 -20.171875 7.351562 -19.109375 6.6875 -17.703125 C 6.03125 -16.304688 5.703125 -14.585938 5.703125 -12.546875 C 5.703125 -10.503906 6.03125 -8.78125 6.6875 -7.375 C 7.351562 -5.976562 8.253906 -4.914062 9.390625 -4.1875 C 10.523438 -3.46875 11.8125 -3.109375 13.25 -3.109375 C 14.6875 -3.109375 15.972656 -3.46875 17.109375 -4.1875 C 18.253906 -4.914062 19.15625 -5.976562 19.8125 -7.375 C 20.46875 -8.78125 20.796875 -10.503906 20.796875 -12.546875 Z M 20.796875 -12.546875 "/></g></g></g><g fill="#000000" fill-opacity="1"><g transform="translate(494.861474, 33.952997)"><g><path d="M 16.4375 -18.5 C 16.3125 -19.65625 15.773438 -20.550781 14.828125 -21.1875 C 13.878906 -21.832031 12.6875 -22.15625 11.25 -22.15625 C 10.21875 -22.15625 9.328125 -21.992188 8.578125 -21.671875 C 7.828125 -21.347656 7.242188 -20.90625 6.828125 -20.34375 C 6.421875 -19.789062 6.21875 -19.160156 6.21875 -18.453125 C 6.21875 -17.859375 6.359375 -17.34375 6.640625 -16.90625 C 6.921875 -16.46875 7.289062 -16.101562 7.75 -15.8125 C 8.207031 -15.53125 8.703125 -15.289062 9.234375 -15.09375 C 9.765625 -14.90625 10.273438 -14.75 10.765625 -14.625 L 13.21875 -13.984375 C 14.019531 -13.796875 14.835938 -13.53125 15.671875 -13.1875 C 16.515625 -12.851562 17.296875 -12.410156 18.015625 -11.859375 C 18.734375 -11.316406 19.316406 -10.640625 19.765625 -9.828125 C 20.210938 -9.023438 20.4375 -8.0625 20.4375 -6.9375 C 20.4375 -5.507812 20.070312 -4.242188 19.34375 -3.140625 C 18.613281 -2.046875 17.554688 -1.175781 16.171875 -0.53125 C 14.785156 0.101562 13.113281 0.421875 11.15625 0.421875 C 9.269531 0.421875 7.640625 0.125 6.265625 -0.46875 C 4.898438 -1.070312 3.828125 -1.921875 3.046875 -3.015625 C 2.273438 -4.117188 1.847656 -5.425781 1.765625 -6.9375 L 5.5625 -6.9375 C 5.632812 -6.03125 5.929688 -5.273438 6.453125 -4.671875 C 6.972656 -4.066406 7.640625 -3.617188 8.453125 -3.328125 C 9.265625 -3.046875 10.15625 -2.90625 11.125 -2.90625 C 12.195312 -2.90625 13.148438 -3.070312 13.984375 -3.40625 C 14.816406 -3.75 15.472656 -4.222656 15.953125 -4.828125 C 16.441406 -5.441406 16.6875 -6.15625 16.6875 -6.96875 C 16.6875 -7.707031 16.472656 -8.3125 16.046875 -8.78125 C 15.628906 -9.257812 15.0625 -9.65625 14.34375 -9.96875 C 13.632812 -10.28125 12.832031 -10.554688 11.9375 -10.796875 L 8.96875 -11.609375 C 6.957031 -12.148438 5.363281 -12.953125 4.1875 -14.015625 C 3.019531 -15.078125 2.4375 -16.484375 2.4375 -18.234375 C 2.4375 -19.679688 2.828125 -20.941406 3.609375 -22.015625 C 4.398438 -23.097656 5.460938 -23.9375 6.796875 -24.53125 C 8.140625 -25.132812 9.648438 -25.4375 11.328125 -25.4375 C 13.023438 -25.4375 14.523438 -25.132812 15.828125 -24.53125 C 17.128906 -23.9375 18.15625 -23.117188 18.90625 -22.078125 C 19.664062 -21.035156 20.0625 -19.84375 20.09375 -18.5 Z M 16.4375 -18.5 "/></g></g></g></g></g></svg>