<?xml version="1.0" encoding="UTF-8"?>
<svg id="Layer_2" data-name="Layer 2" xmlns="http://www.w3.org/2000/svg" viewBox="0 0 827.58 598.25">
  <defs>
    <style>
      .cls-1 {
        fill: #d01149;
      }

      .cls-2 {
        fill: #7b89ef;
      }

      .cls-3 {
        fill: #020101;
      }

      .cls-4 {
        fill: #8ee0f4;
      }

      .cls-5 {
        fill: #f07205;
      }

      .cls-6 {
        fill: #b2ce60;
      }

      .cls-7 {
        fill: #ffba06;
      }
    </style>
  </defs>
  <g id="Layer_1-2" data-name="Layer 1">
    <g>
      <path class="cls-3" d="M337.94,1.79c57.89,2.97,121.5-4.91,178.75-.31,78.69,6.32,56.43,99.86,119.93,105.07,69.83,5.72,181.21-24.79,188.57,81.43,7.57,109.19-5.78,227,0,337.08-2.59,36.03-23.65,67-60.8,73.2l-705.29-.18c-36.12-7.45-54.58-37.74-56.98-73.02,5.14-108.88-6.71-223.9,0-332.08,1.97-31.82,16.31-62.62,46.35-76.65,10.44-4.87,27.66-4.31,29.59-16.41,3.3-20.63,1.6-42.2,29.86-46.14,12.6-1.76,70.04-1.7,80.79,1.69,11.39,3.58,19.28,13.64,21.97,25.03,1.77,7.49-.38,24.35,8.04,25.96,68.9-1.73,46.51-96.35,119.21-104.65ZM344.96,30.81c-46.22,8.88-40.67,63.02-75.89,90.11s-138.64,11.06-186.39,15.61c-37.71,3.6-54.14,37.62-50.46,72.41l3.87,5.13h192.13c7.99-1.8,24.64-25.46,31.42-32.57,99.69-104.63,261.87-104.02,361.02,1,7.04,7.46,20.59,27.99,29.27,30.73l141.98.55c4.75-2.16,3.72-23.37,3.21-28.74-2.45-25.82-21.5-46.03-47.5-48.5-49.15-4.67-131.51,14.92-167.44-25.56-24.09-27.14-23.52-76.56-67.5-80.5-53.21-4.76-113.78,3.39-167.73.33ZM109.4,107.27l69.04,1.02,4.5-4.5-2.26-18.31-71.29.27v21.52ZM223.16,387.51c.23,1.79.98,2.84,1,3,.14.95-.16,2.06,0,3,.26,1.6.97,2.82,1,3,35.97,194.63,287,246.11,396.4,80.9,30.12-45.48,37.05-85.98,36.6-139.9-.02-2.15.76-5.43-1-7-3.5-104.01-100.86-192.24-202.46-198.04-144.58-8.25-249.81,113.29-231.54,255.04ZM33.16,507.51c1.83,2.33,4.7,2.78,7.45,3.05,14.35,1.44,52.56,1.23,65.23-3.87,14.9-6,21.11-19.31,22.36-34.64,4.18-51.5-4.67-109.78-.01-161.01,1.03-11.3,6.05-24.56,12.98-33.52l6-6c8.14-6.03,30.73-16.39,38-5.5,4.12,6.16,2.05,12.06-2,17.5-6,3.26-11.46,2.73-17.49,7.01-7.41,5.26-9.86,13.74-10.56,22.45-3.85,48.05,2.62,101.36.09,150.09-1.26,24.29-5.78,43.31-25.05,59.45-.72.54-3.81,2.3-5,3-10.75,5.3-19.91,8.19-32,9-18.29,1.23-37.63-1.32-56.01.49l-2.76,5.24c1.13,10.05,6.19,16.61,14.77,21.27,7.67,6.91,18.1,8.68,28,9,2.23,1.83,6.23.98,9,1,2.33.01,4.67,0,7,0,.33,0,.67,0,1,0,7.65,0,15.35,0,23,0,2,0,4,0,6,0,1.33,0,2.67,0,4,0,1,0,2,0,3,0h4c.33,0,.67,0,1,0h6c4.32,0,8.68,0,13,0s8.68,0,13,0h3c6.32,0,12.68,0,19,0h9c.67,0,1.33,0,2,0h1c2,0,4,0,6,0h1c1.67,0,3.33,0,5,0h14c4.32,0,8.68,0,13,0h8c1.67,0,3.33,0,5,0,2.99,0,6.01,0,9,0,7.65,0,15.35,0,23,0,.67,0,1.33,0,2,0,1.67,0,3.33,0,5,0,.33,0,.67,0,1,0,.67,0,1.33,0,2,0,2.16-.03,5.42.76,7-1,.61-.13,1.48.16,2,0,.85-.26,2.83-1.86,2.93-2.63l-.87-1.9c-9.86-7.67-19.67-15.22-29.07-23.47-4.49-3.94-8.8-7.71-13-12-.33-.34-.68-.66-1-1-1.91-2.05-3.33-4.67-6-6-5.84-7.67-12.54-15.13-18-23-21.65-31.2-36.06-67.41-42-105-.26-1.61-.98-1.89-1-2-.18-1.29.17-2.71,0-4-.23-1.81-.98-2.84-1-3-2.1-18.37-1.32-36.61-1-55,1.62-1.01.97-3.41,1-5s.1-3.36,0-5c2.38-21.32,9.78-40.82,16-61,1.43-4.64,4.2-9.16,2.78-14.28l-2.28-2.72H35.66l-2.97,3.03.47,260.97ZM668.88,243.73c-3.95,1.78-4.23,5.3-3.66,9.21,1.47,9.96,11.31,30.01,14.26,42.74,24.3,104.81-19.77,212.46-109.39,270.27l-.87,2.92,3.66,2.41c56.79-2.44,117.47,4.02,173.82.28,28.87-1.92,47.2-16.83,49.5-46.5l-.78-278.31-2.5-2.5-124.04-.52Z"/>
      <path class="cls-1" d="M344.96,30.81c53.96,3.06,114.52-5.09,167.73-.33,43.99,3.94,43.41,53.36,67.5,80.5,35.93,40.48,118.3,20.89,167.44,25.56,26,2.47,45.05,22.68,47.5,48.5.51,5.37,1.53,26.58-3.21,28.74l-141.98-.55c-8.68-2.73-22.23-23.27-29.27-30.73-99.15-105.02-261.33-105.63-361.02-1-6.78,7.11-23.43,30.77-31.42,32.58H36.1s-3.87-5.14-3.87-5.14c-3.69-34.79,12.75-68.81,50.46-72.41,47.75-4.55,150.1,12.31,186.39-15.61s29.67-81.24,75.89-90.11Z"/>
      <polygon class="cls-4" points="109.4 107.27 109.4 85.75 180.68 85.49 182.94 103.79 178.44 108.29 109.4 107.27"/>
      <g>
        <path class="cls-6" d="M668.88,243.73l124.04.52,2.5,2.5.78,278.31c-2.3,29.67-20.62,44.59-49.5,46.5-56.36,3.74-117.03-2.72-173.82-.28l-3.66-2.41.87-2.92c89.62-57.8,133.69-165.46,109.39-270.27-2.95-12.73-12.79-32.78-14.26-42.74-.58-3.91-.29-7.43,3.66-9.21Z"/>
        <g>
          <path class="cls-5" d="M211.16,260.51c-6.22,20.18-13.62,39.68-16,61-.07-1.11.7-3.26-.99-2.99-6.19,49.17.86,98.85,21.82,143.67l23.17,38.33c5.46,7.87,12.16,15.33,18,23,1.53,2.02,3.77,6.06,6,6,.32.34.67.66,1,1,1.35,3.34,5.46,6.8,8.14,9.31.5.47,4.15,4.19,4.86,2.69,9.39,8.25,19.21,15.8,29.07,23.47l.87,1.9c-.1.77-2.08,2.37-2.93,2.63l-229.53-.97c-8.7-1.52-17.68-3.8-25.47-8.03-8.58-4.67-13.64-11.22-14.77-21.27l2.76-5.24c18.38-1.81,37.72.74,56.01-.49,11.26,2.76,22.68-3.46,32-9,1.19-.7,4.28-2.46,5-3,17.24-12.81,24.64-30.15,26.05-51.45,3.34-50.41-4.27-106.16-.08-156.08,1.5-17.86,7.64-26.31,25.78-29.27,2.94-1.54,1.17-2.1,1.25-2.2,4.06-5.45,6.12-11.34,2-17.5-7.28-10.89-29.86-.53-38,5.5-3.65,2.7-3.32,2.53-6,6-6.93,8.97-11.95,22.22-12.98,33.52-4.66,51.23,4.19,109.51.01,161.01-1.24,15.33-7.46,28.64-22.36,34.64-12.67,5.11-50.88,5.32-65.23,3.87-2.75-.28-5.62-.72-7.45-3.05l.91-261.35,172.58-1.64,6.4,2.65-1.9,13.35Z"/>
          <path class="cls-5" d="M304.16,570.51c-.52.16-1.39-.13-2,0-2,.42-5.4-1.05-7,1-.67,0-1.33,0-2,0l-.5-.98-.5.98c-1.67,0-3.33,0-5,0l-1.49-.99-.51.99c-7.65,0-15.35,0-23,0-1.9-1.69-7.1-1.69-9,0-1.67,0-3.33,0-5,0-1.62-1.68-6.42-1.67-8,0-4.32,0-8.68,0-13,0-1.06-1.64-5-1.61-6,0h-7l-.5-.98-.5.98c-1.67,0-3.33,0-5,0l-.5-.98-.5.98c-2,0-4,0-6,0l-.5-.98-.5.98c-.67,0-1.33,0-2,0l-.5-.98-.5.98h-4c-.42-1.54-3.67-1.48-4,0-6.32,0-12.68,0-19,0-.15-1.49-2.85-1.49-3,0-4.32,0-8.68,0-13,0-3.3-1.7-9.84-1.68-13,0h-6l-.5-.98-.5.98h-4c-.15-1.49-2.85-1.49-3,0-1.33,0-2.67,0-4,0-1.06-1.64-5-1.61-6,0-7.65,0-15.35,0-23,0l-.5-.98-.5.98c-2.33,0-4.67.01-7,0-2.26-1.89-6.19-.91-9-1-9.9-.32-20.33-2.09-28-9,7.79,4.24,16.76,6.51,25.47,8.03l229.53.97Z"/>
          <path class="cls-5" d="M211.16,260.51l1.9-13.35-6.4-2.65-172.58,1.64-.91,261.35-.47-260.97,2.97-3.03h176l2.28,2.72c1.42,5.12-1.35,9.65-2.78,14.28Z"/>
          <path class="cls-5" d="M130.16,522.51c19.27-16.14,23.79-35.16,25.05-59.45,2.52-48.73-3.95-102.05-.09-150.09.7-8.7,3.14-17.19,10.56-22.45,6.03-4.27,11.49-3.75,17.49-7.01-.08.1,1.7.66-1.25,2.2-18.14,2.95-24.29,11.41-25.78,29.27-4.19,49.92,3.42,105.67.08,156.08-1.41,21.3-8.81,38.64-26.05,51.45Z"/>
          <path class="cls-5" d="M195.16,321.51c.1,1.64.03,3.35,0,5-1.62,1.01-.97,3.41-1,5-.32,18.39-1.1,36.63,1,55l1,3c.17,1.29-.18,2.71,0,4l1,2c5.94,37.59,20.35,73.8,42,105l-23.17-38.33c-20.95-44.82-28-94.5-21.82-143.67,1.69-.26.92,1.88.99,2.99Z"/>
          <path class="cls-5" d="M125.16,525.51c-9.32,5.54-20.74,11.76-32,9,12.09-.81,21.25-3.7,32-9Z"/>
          <path class="cls-5" d="M154.16,571.51c-4.32,0-8.68,0-13,0,3.16-1.68,9.7-1.7,13,0Z"/>
          <path class="cls-5" d="M262.16,571.51c-2.99,0-6.01,0-9,0,1.9-1.69,7.1-1.69,9,0Z"/>
          <path class="cls-5" d="M86.16,571.51c-2.77-.02-6.77.83-9-1,2.81.09,6.74-.89,9,1Z"/>
          <path class="cls-5" d="M248.16,571.51h-8c1.58-1.67,6.38-1.68,8,0Z"/>
          <path class="cls-5" d="M302.16,570.51c-1.58,1.76-4.84.97-7,1,1.6-2.05,5-.58,7-1Z"/>
          <path class="cls-5" d="M227.16,571.51h-6c1-1.61,4.94-1.64,6,0Z"/>
          <path class="cls-5" d="M123.16,571.51c-2,0-4,0-6,0,1-1.61,4.94-1.64,6,0Z"/>
          <path d="M194.16,331.51c.03-1.59-.62-8.99,1-10-.03,1.59,3.53,10.95-1,10Z"/>
          <path class="cls-5" d="M193.16,571.51h-4c.33-1.48,3.58-1.54,4,0Z"/>
          <path class="cls-5" d="M263.16,529.51c-2.23.06-4.47-3.98-6-6,2.67,1.33,4.09,3.95,6,6Z"/>
          <path class="cls-5" d="M130.16,571.51c-1,0-2,0-3,0,.15-1.49,2.85-1.49,3,0Z"/>
          <path class="cls-5" d="M170.16,571.51h-3c.15-1.49,2.85-1.49,3,0Z"/>
          <path class="cls-5" d="M196.16,389.51l-1-3c.02.16.77,1.19,1,3Z"/>
          <path class="cls-5" d="M264.16,530.51c4.2,4.29,8.51,8.06,13,12-.71,1.5-4.36-2.21-4.86-2.69-2.68-2.52-6.78-5.97-8.14-9.31Z"/>
          <path class="cls-3" d="M147.16,271.51l-6,6c2.68-3.47,2.35-3.3,6-6Z"/>
          <path class="cls-5" d="M197.16,395.51l-1-2c.02.11.74.39,1,2Z"/>
          <path class="cls-5" d="M287.16,571.51c-.67,0-1.33,0-2,0l.51-.99,1.49.99Z"/>
          <path class="cls-5" d="M94.16,571.51c-.33,0-.67,0-1,0l.5-.98.5.98Z"/>
          <path class="cls-5" d="M135.16,571.51c-.33,0-.67,0-1,0l.5-.98.5.98Z"/>
          <polygon class="cls-5" points="198.16 571.51 197.16 571.51 197.66 570.53 198.16 571.51"/>
          <polygon class="cls-5" points="201.16 571.51 200.16 571.51 200.66 570.53 201.16 571.51"/>
          <polygon class="cls-5" points="208.16 571.51 207.16 571.51 207.66 570.53 208.16 571.51"/>
          <polygon class="cls-5" points="214.16 571.51 213.16 571.51 213.66 570.53 214.16 571.51"/>
          <path class="cls-5" d="M293.16,571.51c-.33,0-.67,0-1,0l.5-.98.5.98Z"/>
        </g>
      </g>
      <g>
        <path class="cls-7" d="M657.16,330.51c.07,2.17-.8,5.4,1,7,.45,53.92-6.48,94.43-36.6,139.9-109.4,165.2-360.43,113.73-396.4-80.9l-1-3c-.16-.94.14-2.05,0-3l-1-3c-18.27-141.75,86.96-263.29,231.54-255.04,101.6,5.8,198.96,94.02,202.46,198.04ZM251.16,330.51c-1.48.77-.97,2.65-1,4-2.13,96.95,48.02,187.65,149,207,.31.94,1.16.93,2,1,73.5,5.76,129.94-2.33,180.51-60.99,113-131.07,14.39-331.09-159.99-318.99-84.97,5.9-165.49,81.95-170.52,167.98Z"/>
        <path class="cls-5" d="M658.16,337.51c-1.8-1.6-.93-4.83-1-7,1.76,1.57.98,4.85,1,7Z"/>
        <path class="cls-5" d="M225.16,396.51c-.03-.18-.74-1.4-1-3l1,3Z"/>
        <path class="cls-5" d="M224.16,390.51c-.02-.16-.77-1.21-1-3l1,3Z"/>
        <path class="cls-3" d="M251.16,330.51c5.03-86.03,85.55-162.08,170.52-167.98,174.38-12.1,272.99,187.92,159.99,318.99-50.57,58.66-107.01,66.75-180.51,60.99-.37-.96-1.2-.85-2-1-100.98-19.35-151.13-110.05-149-207,1.52-.78.92-2.66,1-4ZM434.95,188.82c-133.85,3.3-204.21,158.14-125.63,265.02,76.65,104.25,235.67,80.83,281.85-38.81,42.04-108.89-39.23-229.1-156.23-226.22Z"/>
        <path class="cls-5" d="M250.16,334.51c.03-1.35-.48-3.23,1-4-.08,1.34.52,3.22-1,4Z"/>
        <path class="cls-5" d="M401.16,542.51c-.84-.07-1.69-.06-2-1,.8.15,1.63.04,2,1Z"/>
        <path class="cls-4" d="M434.95,188.82c117-2.89,198.26,117.33,156.23,226.22-46.19,119.63-205.2,143.06-281.85,38.81-78.59-106.89-8.23-261.72,125.63-265.02ZM425.96,228.82c-108.51,9.41-151.54,150.17-71.82,222.2,88.14,79.64,225.98,8.33,214.99-108.99-.76-8.14-2.48-19.84-13.41-17.47-13.46,2.21-9.19,33.88-10.84,45.17-12.75,86.9-124.04,124.5-182.69,55.24-63.97-75.54,3.58-188.84,98-169,15.73,3.31,50.3,27.92,48.51-3.52-19.19-20.72-55.53-26-82.74-23.64ZM536.9,253.76c-2.13.4-4.84,2.18-6.89,3.11l-97.57,129.54c-2.43.55-3.93-2-5.26-3.42-11.36-12.09-32.35-50.31-44.1-56.9-21.19-11.89-41.5,8.65-32.32,31.32,4.46,11.03,48.51,71.32,57.88,81.12,32.43,33.89,59.66-18.36,77.32-41.69,27.71-36.6,55.58-74.43,79.94-113.06,2.96-18.23-9.95-33.56-29.01-30.01Z"/>
        <circle class="cls-2" cx="440.31" cy="355.5" r="126.03"/>
        <path class="cls-3" d="M425.96,228.73c27.21-2.36,63.55,2.92,82.74,23.65,1.79,31.46-32.79,6.83-48.51,3.53-94.41-19.86-161.96,93.52-98,169.11,58.65,69.31,169.94,31.68,182.69-55.28,1.66-11.3-2.61-42.99,10.84-45.2,10.93-2.37,12.64,9.34,13.41,17.48,10.99,117.4-126.85,188.75-214.99,109.06-79.73-72.09-36.69-212.94,71.82-222.36Z"/>
        <path class="cls-3" d="M536.9,253.76c19.06-3.55,31.98,11.78,29.01,30.01-24.36,38.62-52.23,76.45-79.94,113.06-17.66,23.33-44.89,75.58-77.32,41.69-9.37-9.79-53.42-70.09-57.88-81.12-9.17-22.67,11.13-43.21,32.32-31.32,11.75,6.6,32.74,44.82,44.1,56.9,1.33,1.42,2.83,3.97,5.26,3.42l97.57-129.54c2.05-.93,4.76-2.71,6.89-3.11Z"/>
      </g>
    </g>
  </g>
</svg>